<?xml version="1.0" encoding="UTF-8"?>
<svg width="15px" height="17px" viewBox="0 0 15 17" version="1.1" xmlns="http://www.w3.org/2000/svg" xmlns:xlink="http://www.w3.org/1999/xlink">
    <!-- Generator: sketchtool 58 (101010) - https://sketch.com -->
    <title>4739094C-9C74-4BA2-AE1C-037019AADA0B</title>
    <desc>Created with sketchtool.</desc>
    <g id="LOT-1" stroke="none" stroke-width="1" fill="none" fill-rule="evenodd">
        <g id="HOMEPAGE-T1_V1" transform="translate(-989.000000, -7350.000000)" fill="#C8CCD7">
            <g id="04-Organisms/Footer" transform="translate(0.000000, 7107.000000)">
                <g id="BLOC/FOOTER">
                    <g id="FOOTER">
                        <g id="01-Electrons/Android" transform="translate(989.000000, 243.000000)">
                            <g id="Group">
                                <path d="M1.02066881,6 L0.97861623,6 C0.439537227,6 0,6.4254314 0,6.94420812 L0,11.0551334 C0,11.5759482 0.439537227,12 0.97861623,12 L1.02138377,12 C1.56046277,12 2,11.5745686 2,11.0551334 L2,6.94417676 C1.99928504,6.4254314 1.55906535,6 1.02066881,6 Z" id="Path" fill-rule="nonzero"></path>
                                <path d="M3,12.7849502 C3,13.2840832 3.40155008,13.6905935 3.89288915,13.6905935 L4.84704647,13.6905935 L4.84704647,16.0116322 C4.84704647,16.5567159 5.28479606,17 5.81859375,17 L5.86034257,17 C6.39623737,17 6.83327717,16.5560277 6.83327717,16.0116322 L6.83327717,13.6905935 L8.16672283,13.6905935 L8.16672283,16.0116322 C8.16672283,16.5567159 8.60585975,17 9.13965743,17 L9.18072872,17 C9.71659127,17 10.1529535,16.5560277 10.1529535,16.0116322 L10.1529535,13.6905935 L11.1077884,13.6905935 C11.5984177,13.6905935 12,13.2840832 12,12.7849502 L12,6 L3,6 L3,12.7849502 Z" id="Path" fill-rule="nonzero"></path>
                                <path d="M9.72582971,1.40079793 L10.4786097,0.245960113 C10.5269983,0.173121886 10.5055599,0.07353066 10.431599,0.0261077833 C10.358343,-0.0219839185 10.2581048,-0.00204656397 10.2103891,0.0728299862 L9.42998601,1.26754251 C8.84451542,1.02915418 8.19059573,0.895198086 7.50001602,0.895198086 C6.80876337,0.895198086 6.15622163,1.02915418 5.56937308,1.26754251 L4.79034791,0.0728299862 C4.74266426,-0.00204656397 4.64172105,-0.0219839185 4.56776013,0.0261077833 C4.4937992,0.0734988112 4.47236079,0.173121886 4.52074944,0.245960113 L5.27420234,1.40079793 C3.91589134,2.06239324 3,3.30930597 3,4.73963599 C3,4.82757055 3.00554386,4.91413561 3.01313864,5 L11.9875664,5 C11.9951611,4.91413561 12,4.82757055 12,4.73963599 C12,3.30930597 11.0834357,2.06239324 9.72582971,1.40079793 Z M5.41936828,3.46867741 C5.18088595,3.46867741 4.98733136,3.2776801 4.98733136,3.03999244 C4.98733136,2.80230478 5.18088595,2.61197629 5.41936828,2.61197629 C5.65922856,2.61197629 5.85140519,2.80227293 5.85140519,3.03999244 C5.85140519,3.27771195 5.6578506,3.46867741 5.41936828,3.46867741 Z M9.57999081,3.46867741 C9.34150849,3.46867741 9.1479539,3.2776801 9.1479539,3.03999244 C9.1479539,2.80230478 9.34150849,2.61197629 9.57999081,2.61197629 C9.8191461,2.61197629 10.0113227,2.80227293 10.0113227,3.03999244 C10.0113227,3.2776801 9.8191461,3.46867741 9.57999081,3.46867741 Z" id="Shape" fill-rule="nonzero"></path>
                                <path d="M14.0206688,6 L13.9800136,6 C13.4409346,6 13,6.4254314 13,6.94420812 L13,11.0551334 C13,11.5759482 13.4416496,12 13.9800136,12 L14.0213838,12 C14.5611452,12 15,11.5745686 15,11.0551334 L15,6.94417676 C15,6.4254314 14.5597478,6 14.0206688,6 Z" id="Path" fill-rule="nonzero"></path>
                            </g>
                        </g>
                    </g>
                </g>
            </g>
        </g>
    </g>
</svg>