<?xml version="1.0" encoding="UTF-8"?>
<svg width="14px" height="17px" viewBox="0 0 14 17" version="1.1" xmlns="http://www.w3.org/2000/svg" xmlns:xlink="http://www.w3.org/1999/xlink">
    <!-- Generator: sketchtool 58 (101010) - https://sketch.com -->
    <title>13CAE1A6-5940-4E41-AB9B-2E0D8C982078</title>
    <desc>Created with sketchtool.</desc>
    <g id="LOT-1" stroke="none" stroke-width="1" fill="none" fill-rule="evenodd">
        <g id="HOMEPAGE-T1_V1" transform="translate(-962.000000, -7350.000000)" fill="#C8CCD7">
            <g id="04-Organisms/Footer" transform="translate(0.000000, 7107.000000)">
                <g id="BLOC/FOOTER">
                    <g id="FOOTER">
                        <g id="01-Electrons/AppleStore" transform="translate(962.000000, 243.000000)">
                            <g id="apple">
                                <path d="M0.75559,6.166545 C-0.662585,8.62752 0.238975,12.362185 1.807245,14.626645 C2.59006,15.758765 3.38261,16.775 4.468145,16.775 C4.488605,16.775 4.50912,16.774615 4.53013,16.77379 C5.040145,16.75344 5.4087,16.596415 5.765045,16.44467 C6.165115,16.27417 6.57888,16.097895 7.22788,16.097895 C7.84531,16.097895 8.23933,16.26845 8.62037,16.43334 C8.99591,16.59581 9.382725,16.76389 9.954285,16.753165 C11.177045,16.730395 11.927795,15.633805 12.59016,14.66641 C13.281345,13.656335 13.628065,12.67563 13.74505,12.30086 L13.74978,12.285955 C13.772055,12.21935 13.740595,12.14664 13.67674,12.117325 C13.67498,12.1165 13.66849,12.113805 13.666675,12.113035 C13.45135,12.02498 11.56254,11.187055 11.542685,8.903235 C11.52426,7.047755 12.95965,6.06518 13.24752,5.88709 L13.26094,5.87873 C13.292125,5.858655 13.31385,5.82681 13.32122,5.7904 C13.32859,5.754045 13.32089,5.716205 13.29999,5.685625 C12.30922,4.235715 10.79067,4.0172 10.17929,3.99091 C10.090575,3.982055 9.999,3.9776 9.90704,3.9776 C9.18896,3.9776 8.501075,4.248805 7.948435,4.466715 C7.566955,4.61714 7.23745,4.74705 7.01019,4.74705 C6.754825,4.74705 6.42345,4.615545 6.039715,4.463305 C5.526565,4.25964 4.94494,4.02886 4.329215,4.02886 C4.31453,4.02886 4.300065,4.029025 4.28582,4.0293 C2.85417,4.050365 1.50139,4.869425 0.75559,6.166545 Z" id="XMLID_229_" fill-rule="nonzero"></path>
                                <path d="M10.180555,0.00011 C9.31359,0.03542 8.273595,0.569085 7.651985,1.297175 C7.12371,1.90916 6.607645,2.92952 6.743605,3.95802 C6.75213,4.02237 6.80449,4.072035 6.869225,4.07704 C6.927745,4.081605 6.987475,4.083915 7.046985,4.08397 C7.8947,4.08397 8.809185,3.614985 9.43371,2.859835 C10.091015,2.062445 10.42338,1.039115 10.32284,0.122485 C10.31492,0.050655 10.251725,-0.002695 10.180555,0.00011 Z" id="XMLID_230_" fill-rule="nonzero"></path>
                            </g>
                        </g>
                    </g>
                </g>
            </g>
        </g>
    </g>
</svg>