<?xml version="1.0" encoding="UTF-8"?>
<svg width="51px" height="51px" viewBox="0 0 51 51" version="1.1" xmlns="http://www.w3.org/2000/svg" xmlns:xlink="http://www.w3.org/1999/xlink">
    <!-- Generator: sketchtool 58 (101010) - https://sketch.com -->
    <title>17C1D286-59EC-48BF-9121-D323FBA4540A</title>
    <desc>Created with sketchtool.</desc>
    <g id="LOT-1" stroke="none" stroke-width="1" fill="none" fill-rule="evenodd">
        <g id="HOMEPAGE-T1_V1" transform="translate(-951.000000, -4153.000000)">
            <g id="NOUVEAUX-EXPOSANTS" transform="translate(95.000000, 4134.000000)">
                <g id="01-Electrons/Arrows" transform="translate(881.500000, 44.500000) scale(-1, 1) translate(-881.500000, -44.500000) translate(857.000000, 20.000000)">
                    <g id="ARROW">
                        <circle id="Oval" stroke="#F85C29" cx="24.5" cy="24.5" r="24.5"></circle>
                        <path d="M22.2399356,34.7931034 C22.0982287,34.9310345 21.921095,35 21.726248,35 C21.531401,35 21.3542673,34.9310345 21.2125604,34.7931034 C20.9291465,34.5172414 20.9291465,34.0689655 21.2125604,33.7931034 L30.2463768,25 L21.2125604,16.2068966 C20.9291465,15.9310345 20.9291465,15.4827586 21.2125604,15.2068966 C21.4959742,14.9310345 21.9565217,14.9310345 22.2399356,15.2068966 L31.7874396,24.5 C32.0708535,24.7758621 32.0708535,25.2241379 31.7874396,25.5 L22.2399356,34.7931034 L22.2399356,34.7931034 Z" id="Path" fill="#F85C29" fill-rule="nonzero"></path>
                    </g>
                </g>
            </g>
        </g>
    </g>
</svg>