<?xml version="1.0" encoding="UTF-8"?>
<svg width="33px" height="30px" viewBox="0 0 33 30" version="1.1" xmlns="http://www.w3.org/2000/svg" xmlns:xlink="http://www.w3.org/1999/xlink">
    <!-- Generator: sketchtool 58 (101010) - https://sketch.com -->
    <title>85B9E436-2E94-4B5E-B61D-19932C79468A</title>
    <desc>Created with sketchtool.</desc>
    <g id="LOT-1" stroke="none" stroke-width="1" fill="none" fill-rule="evenodd">
        <g id="HOMEPAGE-T1_V1" transform="translate(-919.000000, -3265.000000)" fill="#FFFFFF" fill-rule="nonzero">
            <g id="SECTEURS" transform="translate(95.000000, 2974.000000)">
                <g transform="translate(104.000000, 70.000000)" id="Secteurs">
                    <g transform="translate(0.000000, 181.000000)">
                        <g id="CHARCUTERIE-Copy-3" transform="translate(700.000000, 0.000000)">
                            <g id="TEXTE" transform="translate(19.218579, 39.437158)">
                                <g id="01-Electrons/Secteurs/Bio" transform="translate(0.781421, 0.562842)">
                                    <path d="M32.2522996,2.96698121 C28.2586246,2.96698121 22.6164952,3.30145829 19.7331929,6.1859628 C18.4848577,7.43548819 17.861498,9.4724445 18.0233439,11.777995 C18.0443474,12.0825189 18.2466548,12.3419724 18.5373312,12.4380194 C18.8265325,12.5325196 19.1442535,12.443996 19.3420652,12.2115425 C20.9455623,10.3230161 22.9386417,8.80953721 25.2704455,7.71301206 C25.4682572,7.61851191 25.7020347,7.61098846 25.9148087,7.68601202 C26.1021538,7.75351212 26.2489672,7.88098888 26.3253945,8.04453602 C26.4842198,8.38055998 26.4332918,8.82303723 25.9058173,9.07201418 C25.8758224,9.08699077 25.8488481,9.10653767 25.8189234,9.1200377 C25.8084568,9.1245377 25.7964448,9.12306114 25.7874534,9.12756114 C20.0419225,11.8305888 17.2171348,16.5465962 15.934309,21.3960569 C14.9991991,15.3240708 13.0241026,11.7495184 11.1583785,9.55506181 C9.80818721,7.80308251 8.48040422,6.87453419 7.7131814,6.34958024 C7.5707935,6.25205665 7.14074973,5.95807963 6.96239606,5.77955591 C6.67017422,5.48705546 6.67017422,5.01153128 6.96239606,4.71903082 C7.2546179,4.42800693 7.73116429,4.42800693 8.05633133,4.75200743 C8.13577914,4.82253098 8.26313448,4.91253112 8.42498042,5.02053129 L8.55837688,5.11053143 C9.6433207,5.85450916 11.6634447,7.23601131 13.4556918,10.210516 C13.6160626,10.4760164 13.9262673,10.61854 14.2274806,10.5615165 C14.5331896,10.5075164 14.7729379,10.2720395 14.8329277,9.96751558 C15.2240554,7.9680359 15.0487223,5.00098439 13.2669418,3.21750504 C10.3837097,0.334477096 4.74158033,0 0.749380429,0 C0.335703887,0 0,0.335953661 0,0.749954308 C0,4.74743711 0.334158483,10.3949459 3.21591539,13.2809973 C4.41774795,14.4839758 6.27153025,15.0239766 8.11323029,15.0239766 C9.61627613,15.0239766 11.0893973,14.6474526 12.2178232,13.9949516 C13.7568348,17.1869331 14.9857119,21.955464 14.9857119,29.2499754 C14.9857119,29.663976 15.3214158,30 15.7350221,30 C16.1486284,30 16.4843323,29.663976 16.4843323,29.2499754 C16.4843323,25.1804925 17.181169,20.296438 19.7721792,16.2764551 C20.8106907,17.2919801 22.5985123,17.9354812 24.5795797,17.9954578 C24.6784856,17.9984813 24.7759163,17.9999578 24.8732767,17.9999578 C26.8858844,17.9999578 28.6646443,17.3684803 29.7840788,16.2464316 C32.6673108,13.3604506 33,7.71294175 33,3.71538863 C33.0016098,3.30145829 32.6673811,2.96698121 32.2522996,2.96698121 Z" id="Path"></path>
                                </g>
                            </g>
                        </g>
                    </g>
                </g>
            </g>
        </g>
    </g>
</svg>