<?xml version="1.0" encoding="UTF-8"?>
<svg width="21px" height="30px" viewBox="0 0 21 30" version="1.1" xmlns="http://www.w3.org/2000/svg" xmlns:xlink="http://www.w3.org/1999/xlink">
    <!-- Generator: sketchtool 58 (101010) - https://sketch.com -->
    <title>2716B7DB-F2CB-4356-9055-6BE2D1A9880D</title>
    <desc>Created with sketchtool.</desc>
    <g id="LOT-1" stroke="none" stroke-width="1" fill="none" fill-rule="evenodd">
        <g id="HOMEPAGE-T1_V1" transform="translate(-1155.000000, -3264.000000)" fill="#FFFFFF">
            <g id="SECTEURS" transform="translate(95.000000, 2974.000000)">
                <g transform="translate(104.000000, 70.000000)" id="Secteurs">
                    <g transform="translate(0.000000, 181.000000)">
                        <g id="CHARCUTERIE-Copy-8" transform="translate(933.000000, 0.000000)">
                            <g id="TEXTE" transform="translate(22.218579, 38.437158)">
                                <g id="01-Electrons/Secteurs/Boissons" transform="translate(0.781421, 0.562842)">
                                    <g id="vodka">
                                        <polygon id="Path" fill-rule="nonzero" points="4.13793103 0 7.24137931 0 7.24137931 2.06896552 4.13793103 2.06896552"></polygon>
                                        <path d="M7.24137931,6.72413793 L7.24137931,3.10344828 L4.13793103,3.10344828 L4.13793103,6.72413793 C4.13793103,6.89793103 4.12293103,7.06965517 4.10741379,7.24137931 L7.27241379,7.24137931 C7.25637931,7.06965517 7.24137931,6.89793103 7.24137931,6.72413793 Z" id="Path" fill-rule="nonzero"></path>
                                        <path d="M9.51672414,11.2758621 C8.51586207,10.5253448 7.80672414,9.45931034 7.46844828,8.27586207 L3.91086207,8.27586207 C3.57258621,9.45931034 2.86344828,10.5248276 1.86258621,11.2758621 C0.696206897,12.1505172 0,13.542931 0,15 L0,28.4482759 C0,29.3037931 0.696206897,30 1.55172414,30 L9.82758621,30 C10.6831034,30 11.3793103,29.3037931 11.3793103,28.4482759 L11.3793103,15 C11.3793103,13.542931 10.6831034,12.1505172 9.51672414,11.2758621 Z M10.3448276,26.3793103 C10.3448276,26.6653448 10.1136207,26.8965517 9.82758621,26.8965517 L1.55172414,26.8965517 C1.26568966,26.8965517 1.03448276,26.6653448 1.03448276,26.3793103 L1.03448276,16.0344828 C1.03448276,15.7484483 1.26568966,15.5172414 1.55172414,15.5172414 L9.82758621,15.5172414 C10.1136207,15.5172414 10.3448276,15.7484483 10.3448276,16.0344828 L10.3448276,26.3793103 Z" id="Shape" fill-rule="nonzero"></path>
                                        <polygon id="Path" fill-rule="nonzero" points="2.06896552 16.5517241 9.31034483 16.5517241 9.31034483 25.862069 2.06896552 25.862069"></polygon>
                                        <path d="M20.6601724,21.7241379 L20.3151724,27.9310345 L14.8572414,27.9310345 L14.5122414,21.7241379 L20.6601724,21.7241379 Z M14.972069,30 L14.9146552,28.9655172 L20.2577586,28.9655172 L20.2003448,30 L14.972069,30 Z" id="Shape" fill-rule="nonzero"></path>
                                    </g>
                                </g>
                            </g>
                        </g>
                    </g>
                </g>
            </g>
        </g>
    </g>
</svg>