<?xml version="1.0" encoding="UTF-8"?>
<svg width="31px" height="32px" viewBox="0 0 31 32" version="1.1" xmlns="http://www.w3.org/2000/svg" xmlns:xlink="http://www.w3.org/1999/xlink">
    <!-- Generator: Sketch 61 (89581) - https://sketch.com -->
    <title>XMLID_49_</title>
    <desc>Created with Sketch.</desc>
    <g id="LOT-3" stroke="none" stroke-width="1" fill="none" fill-rule="evenodd">
        <g id="12-Presentez-vos-produits" transform="translate(-392.000000, -4430.000000)" fill="#F85C29" fill-rule="nonzero">
            <g id="CTA" transform="translate(362.000000, 4398.000000)">
                <g id="Rectangle-Copy-10">
                    <g id="Group-2" transform="translate(30.000000, 32.000000)">
                        <g id="light-bulb-(1)">
                            <path d="M18.8995921,27.7355106 L18.8995921,28.6628576 C18.8995921,29.4008168 18.3575513,30.0146943 17.6522452,30.1191841 L17.4236737,30.9616331 C17.2995921,31.418776 16.8881635,31.738776 16.4114288,31.738776 L14.1453063,31.738776 C13.6685716,31.738776 13.2571431,31.418776 13.1330614,30.9616331 L12.9110206,30.1191841 C12.1991839,30.0081637 11.657143,29.4008168 11.657143,28.656327 L11.657143,27.72898 C11.657143,27.2326535 12.0555104,26.8342861 12.5518369,26.8342861 L18.0048982,26.8342861 C18.5012248,26.8408167 18.8995921,27.2391841 18.8995921,27.7355106 Z M23.0987759,15.2359186 C23.0987759,17.3453064 22.2628575,19.2587758 20.9044901,20.6628575 C19.8726534,21.7338779 19.2065309,23.0987759 18.9844901,24.5551024 C18.8865309,25.1820412 18.3444901,25.6457147 17.7044901,25.6457147 L12.8522451,25.6457147 C12.2187757,25.6457147 11.6702043,25.1885718 11.5787757,24.561633 C11.3502043,23.1053065 10.6775512,21.7208167 9.64571443,20.6563268 C8.31346951,19.271837 7.48408174,17.3910207 7.46448991,15.3208166 C7.41877562,10.9714287 10.8800002,7.45142868 15.229388,7.41877562 C19.5722452,7.38612256 23.0987759,10.899592 23.0987759,15.2359186 Z M16.1632655,10.5012246 C16.1632655,10.0179593 15.7714288,9.61959198 15.2816329,9.61959198 C12.1730614,9.61959198 9.63918382,12.146939 9.63918382,15.262041 C9.63918382,15.7453064 10.0310206,16.1436737 10.5208165,16.1436737 C11.0040818,16.1436737 11.4024491,15.751837 11.4024491,15.262041 C11.4024491,13.1200002 13.1461226,11.3828573 15.2816329,11.3828573 C15.7714288,11.3828573 16.1632655,10.9910206 16.1632655,10.5012246 Z M15.2816329,4.85224497 C15.7648982,4.85224497 16.1632655,4.46040823 16.1632655,3.9706123 L16.1632655,0.881632666 C16.1632655,0.398367353 15.7714288,0 15.2816329,0 C14.791837,0 14.4000002,0.391836741 14.4000002,0.881632666 L14.4000002,3.9706123 C14.4000002,4.46040823 14.7983676,4.85224497 15.2816329,4.85224497 Z M4.90448987,15.229388 C4.90448987,14.7461227 4.51265313,14.3477553 4.0228572,14.3477553 L0.933877565,14.3477553 C0.450612252,14.3477553 0.0522448987,14.7395921 0.0522448987,15.229388 C0.0522448987,15.7126533 0.444081639,16.1110206 0.933877565,16.1110206 L4.0228572,16.1110206 C4.51265313,16.1110206 4.90448987,15.7191839 4.90448987,15.229388 Z M29.6293882,14.3477553 L26.5404086,14.3477553 C26.0571432,14.3477553 25.6587759,14.7395921 25.6587759,15.229388 C25.6587759,15.7126533 26.0506126,16.1110206 26.5404086,16.1110206 L29.6293882,16.1110206 C30.1126535,16.1110206 30.5110209,15.7191839 30.5110209,15.229388 C30.5110209,14.7461227 30.1191841,14.3477553 29.6293882,14.3477553 Z M6.70040826,22.5697963 L4.51265313,24.7575514 C4.16653067,25.1036738 4.16653067,25.6587759 4.51265313,26.0048983 C4.68244905,26.1746943 4.91102048,26.2595922 5.1330613,26.2595922 C5.35510212,26.2595922 5.58367355,26.1746943 5.75346947,26.0048983 L7.94122461,23.8171432 C8.28734706,23.4710208 8.28734706,22.9159187 7.94122461,22.5697963 C7.60163277,22.2236738 7.0400001,22.2236738 6.70040826,22.5697963 Z M23.2424493,8.1502042 C23.4644901,8.1502042 23.6930616,8.06530624 23.8628575,7.89551032 L26.0506126,5.70775519 C26.3967351,5.36163273 26.3967351,4.80653068 26.0506126,4.46040823 C25.7044902,4.11428578 25.1493881,4.11428578 24.8032657,4.46040823 L22.6155105,6.64816336 C22.2693881,6.99428582 22.2693881,7.54938787 22.6155105,7.89551032 C22.7918371,8.06530624 23.0138779,8.1502042 23.2424493,8.1502042 Z M6.70040826,7.88897971 C6.87020418,8.05877563 7.09877562,8.14367359 7.32081644,8.14367359 C7.54285726,8.14367359 7.77142869,8.05877563 7.94122461,7.88897971 C8.28734706,7.54285726 8.28734706,6.98775521 7.94122461,6.64163275 L5.75346947,4.45387762 C5.40734702,4.10775516 4.85224497,4.10775516 4.50612252,4.45387762 C4.16000006,4.80000007 4.16000006,5.35510212 4.50612252,5.70122457 L6.70040826,7.88897971 Z M23.8628575,22.5697963 C23.516735,22.2236738 22.961633,22.2236738 22.6155105,22.5697963 C22.2693881,22.9159187 22.2693881,23.4710208 22.6155105,23.8171432 L24.8032657,26.0048983 C24.9730616,26.1746943 25.201633,26.2595922 25.4236738,26.2595922 C25.6457147,26.2595922 25.8742861,26.1746943 26.044082,26.0048983 C26.3902045,25.6587759 26.3902045,25.1036738 26.044082,24.7575514 L23.8628575,22.5697963 Z" id="XMLID_49_"></path>
                        </g>
                    </g>
                </g>
            </g>
        </g>
    </g>
</svg>