<?xml version="1.0" encoding="UTF-8"?>
<svg width="26px" height="27px" viewBox="0 0 26 27" version="1.1" xmlns="http://www.w3.org/2000/svg" xmlns:xlink="http://www.w3.org/1999/xlink">
    <!-- Generator: sketchtool 58 (101010) - https://sketch.com -->
    <title>5AE6D9E3-64E2-4A2A-9268-67C7A417036C</title>
    <desc>Created with sketchtool.</desc>
    <g id="LOT-1" stroke="none" stroke-width="1" fill="none" fill-rule="evenodd">
        <g id="HOMEPAGE-T2" transform="translate(-765.000000, -749.000000)" fill="#F85C29">
            <g id="HEADER" transform="translate(0.000000, -2.000000)">
                <g id="Entrées-Rapides" transform="translate(172.000000, 716.000000)">
                    <g id="Rectangle-Copy-10" transform="translate(566.000000, 0.000000)">
                        <g id="Group-19" transform="translate(27.000000, 15.000000)">
                            <g id="01-Electrons/Calendar" transform="translate(0.000000, 20.000000)">
                                <g id="noun_Calendar_697507">
                                    <g id="Group" transform="translate(0.000000, 0.191346)" fill-rule="nonzero">
                                        <path d="M6.6093597,0.108654 C6.2780094,0.108654 6.0093597,0.377274 6.0093597,0.708654 L6.0093597,4.008654 C6.0093597,4.340004 6.2780094,4.608654 6.6093597,4.608654 C6.9407394,4.608654 7.2093597,4.340004 7.2093597,4.008654 L7.2093597,0.708654 C7.2093597,0.377274 6.9407394,0.108654 6.6093597,0.108654 Z M18.6093594,0.108654 C18.2780094,0.108654 18.0093594,0.377274 18.0093594,0.708654 L18.0093594,4.008654 C18.0093594,4.340004 18.2780094,4.608654 18.6093594,4.608654 C18.9407394,4.608654 19.2093594,4.340004 19.2093594,4.008654 L19.2093594,0.708654 C19.2093594,0.377274 18.9407394,0.108654 18.6093594,0.108654 Z M2.4093594,2.508654 C1.0757094,2.508654 -4.49999999e-07,3.584274 -4.49999999e-07,4.918014 L-4.49999999e-07,10.308654 L25.2000003,10.308654 L25.2000003,4.918014 C25.2000003,3.584274 24.1242603,2.508654 22.7906406,2.508654 L20.9999996,2.508654 L19.8093597,2.508654 L19.8093597,4.636764 C20.5250706,5.053764 21.0093606,5.826294 21.0093606,6.708654 C21.0093606,8.027034 19.9278597,9.108654 18.6093597,9.108654 C17.2910697,9.108654 16.2093597,8.027034 16.2093597,6.708654 C16.2093597,5.826294 16.6937397,5.053764 17.4093597,4.636764 L17.4093597,2.508654 L7.7999997,2.508654 L7.7999997,4.627404 C8.5218297,5.042784 9.0093597,5.821704 9.0093597,6.708654 C9.0093597,8.027034 7.9278597,9.108654 6.6093597,9.108654 C5.2910697,9.108654 4.2093597,8.027034 4.2093597,6.708654 C4.2093597,5.829144 4.6880997,5.054724 5.3999997,4.636764 L5.3999997,2.508654 L2.4093594,2.508654 Z M6.6093594,5.508654 C5.9396394,5.508654 5.4093594,6.038784 5.4093594,6.708654 C5.4093594,7.378494 5.9396394,7.908654 6.6093594,7.908654 C7.2791994,7.908654 7.8093594,7.378494 7.8093594,6.708654 C7.8093594,6.038784 7.2791994,5.508654 6.6093594,5.508654 Z M18.6093594,5.508654 C17.9396397,5.508654 17.4093594,6.038784 17.4093594,6.708654 C17.4093594,7.378494 17.9396397,7.908654 18.6093594,7.908654 C19.2791994,7.908654 19.8093594,7.378494 19.8093594,6.708654 C19.8093594,6.038784 19.2791994,5.508654 18.6093594,5.508654 Z M-4.49999999e-07,11.508654 L-4.49999999e-07,24.09927 C-4.49999999e-07,25.43301 1.0756794,26.508654 2.4093594,26.508654 L22.7906403,26.508654 C24.1242603,26.508654 25.2000003,25.43301 25.2000003,24.09927 L25.2000003,11.508654 L-4.49999999e-07,11.508654 Z" id="Shape"></path>
                                    </g>
                                </g>
                            </g>
                        </g>
                    </g>
                </g>
            </g>
        </g>
    </g>
</svg>