<svg xmlns="http://www.w3.org/2000/svg" viewBox="0 0 58.58 26.81"><title>car</title><path d="M45.88,17.05A4.88,4.88,0,1,1,41,21.93,4.89,4.89,0,0,1,45.88,17.05Zm0,7.81A2.93,2.93,0,1,0,43,21.93,2.93,2.93,0,0,0,45.88,24.86ZM1,17.05V11.19a1,1,0,0,1,.66-.93L7.15,8.43c2.08-3.52,4.93-6.86,11.23-8h0c11.63-1.61,20.37,1,26,7.8,4.18.06,8.44.94,11,2.54a4.82,4.82,0,0,1,2.14,3.82l.11,2.43a1,1,0,0,1,1,1v3.91a1,1,0,0,1-1,1H53.69a1,1,0,0,1-1-1v0a6.84,6.84,0,0,0-13.67,0,.89.89,0,0,1-1,1H20.5a1,1,0,0,1-1-1v0a6.83,6.83,0,0,0-13.66,0,.89.89,0,0,1-1,1H1a1,1,0,0,1-1-1V18A1,1,0,0,1,1,17.05ZM27.34,7.77a.48.48,0,0,0,.48.49H40.55a.49.49,0,0,0,.33-.86,21.45,21.45,0,0,0-13-5.32.49.49,0,0,0-.53.49Zm-11.73,0a.49.49,0,0,0,.48.48h8.8a.49.49,0,0,0,.49-.49V2.44A.48.48,0,0,0,24.9,2a45.63,45.63,0,0,0-6.2.44,16.28,16.28,0,0,0-2.82.75.49.49,0,0,0-.31.46Zm-5.1.48h2.66a.48.48,0,0,0,.48-.49l0-2.65a.49.49,0,0,0-.79-.38,13,13,0,0,0-2.72,2.73A.49.49,0,0,0,10.51,8.26Zm2.18,8.79a4.88,4.88,0,1,1-4.88,4.88A4.89,4.89,0,0,1,12.69,17.05Zm0,7.81a2.93,2.93,0,1,0-2.93-2.93A2.93,2.93,0,0,0,12.69,24.86Z" fill="#f85c29"/></svg>