<?xml version="1.0" encoding="UTF-8"?>
<svg width="43px" height="44px" viewBox="0 0 43 44" version="1.1" xmlns="http://www.w3.org/2000/svg" xmlns:xlink="http://www.w3.org/1999/xlink">
    <!-- Generator: sketchtool 59.1 (101010) - https://sketch.com -->
    <title>3B5841AA-29CF-4732-BCD8-A20BC655EF11</title>
    <desc>Created with sketchtool.</desc>
    <g id="LOT-2" stroke="none" stroke-width="1" fill="none" fill-rule="evenodd">
        <g id="02-Hub-Exposant" transform="translate(-1075.000000, -2520.000000)" fill="#F85C29" fill-rule="nonzero">
            <g id="PLUS" transform="translate(0.000000, 2266.000000)">
                <g id="Group-12" transform="translate(138.000000, 239.000000)">
                    <g id="Group-6" transform="translate(848.000000, 0.000000)">
                        <g id="Group-11" transform="translate(74.000000, 0.000000)">
                            <g id="noun_celebrity_1576593" transform="translate(15.000000, 15.000000)">
                                <path d="M21.5403753,0.476625007 C21.0334224,0.532334226 20.6530315,0.966113249 20.6640003,1.47600002 L20.6640003,4.42800007 C20.6589816,4.78286582 20.8454256,5.11294414 21.1519392,5.2918416 C21.4584528,5.47073906 21.8375479,5.47073906 22.1440615,5.2918416 C22.4505751,5.11294414 22.637019,4.78286582 22.6320004,4.42800007 L22.6320004,1.47600002 C22.6361675,1.20969368 22.5322151,0.953070378 22.3438851,0.764740302 C22.155555,0.576410227 21.8989317,0.472457908 21.6326253,0.476625007 C21.6018922,0.475182953 21.5711084,0.475182953 21.5403753,0.476625007 Z M8.25637513,4.90462508 C7.88549115,4.93441966 7.56312353,5.1708434 7.42325612,5.51563283 C7.28338871,5.86042226 7.34994018,6.25461506 7.59525012,6.5343751 L12.0232502,11.9463752 C12.2484528,12.2210517 12.6030918,12.3547116 12.9535672,12.2970024 C13.3040427,12.2392931 13.5971038,11.998983 13.7223483,11.6666018 C13.8475928,11.3342207 13.7859913,10.9602701 13.5607502,10.6856252 L9.13275014,5.27362508 C8.94251655,5.03596596 8.65300428,4.89972489 8.34862513,4.90462508 C8.31789204,4.90318302 8.28710822,4.90318302 8.25637513,4.90462508 L8.25637513,4.90462508 Z M34.8243755,4.90462508 C34.5636096,4.93453654 34.3255979,5.06738027 34.1632505,5.27362508 L29.7352505,10.6856252 C29.5100094,10.9602701 29.4484078,11.3342207 29.5736523,11.6666018 C29.6988969,11.998983 29.991958,12.2392931 30.3424335,12.2970024 C30.6929089,12.3547116 31.0475479,12.2210517 31.2727505,11.9463752 L35.7007506,6.5343751 C35.9592451,6.23776363 36.0162294,5.81569304 35.8456481,5.46115139 C35.6750667,5.10660975 35.3097067,4.88774262 34.9166255,4.90462508 C34.8858924,4.90318302 34.8551086,4.90318302 34.8243755,4.90462508 Z M21.6480003,11.8080002 C19.4742085,11.8080002 17.7120003,13.570232 17.7120003,15.7440002 C17.7120003,17.9178078 19.4742085,19.6800003 21.6480003,19.6800003 C23.8217946,19.6800003 25.5840004,17.9178078 25.5840004,15.7440002 C25.5840004,13.570232 23.8217946,11.8080002 21.6480003,11.8080002 Z M41.8661256,16.7126253 C41.8196957,16.71448 41.7734553,16.7196179 41.7277506,16.7280003 C41.7019316,16.7321021 41.6762863,16.7372312 41.6508756,16.7433753 L38.6988756,17.2353753 C38.3408524,17.2829292 38.0376446,17.5227783 37.9089483,17.8602383 C37.7802521,18.1976983 37.8467483,18.5785405 38.0821867,18.8524214 C38.317625,19.1263024 38.6841713,19.2492103 39.0371256,19.1726253 L41.9891257,18.6806253 C42.5325738,18.6466598 42.9455911,18.1785735 42.9116256,17.6351253 C42.8776601,17.0916771 42.4095738,16.6786598 41.8661256,16.7126253 L41.8661256,16.7126253 Z M1.33762502,16.7280003 C0.844474058,16.7820394 0.468655459,17.1947059 0.460843784,17.6907473 C0.453032108,18.1867887 0.815670199,18.6110845 1.30687502,18.6806253 L4.25887507,19.1726253 C4.61182935,19.2492103 4.97837565,19.1263024 5.213814,18.8524214 C5.44925236,18.5785405 5.51574862,18.1976983 5.38705233,17.8602383 C5.25835604,17.5227783 4.95514826,17.2829292 4.59712507,17.2353753 L1.64512503,16.7433753 C1.54406653,16.7221487 1.44029685,16.7169602 1.33762502,16.7280003 L1.33762502,16.7280003 Z M21.6480003,20.6640003 C17.0286925,20.6640003 13.2840002,24.1884581 13.2840002,28.5360004 L30.0120005,28.5360004 C30.0120005,24.1884581 26.2673136,20.6640003 21.6480003,20.6640003 Z M33.8865005,26.5526254 C33.8503696,26.5557633 33.8144398,26.5608962 33.7788755,26.5680004 C33.3448069,26.633207 33.0064024,26.9780009 32.9493254,27.4132131 C32.8922484,27.8484253 33.1303003,28.26882 33.5328755,28.4437504 L39.9288756,31.3957505 C40.2493393,31.5570142 40.6321689,31.5311118 40.9279889,31.3281499 C41.2238089,31.125188 41.3857436,30.7773281 41.3506083,30.4203008 C41.3154729,30.0632735 41.0888349,29.7536534 40.7591256,29.6122505 L34.3631255,26.6602504 C34.215825,26.5848763 34.051897,26.5478603 33.8865005,26.5526254 L33.8865005,26.5526254 Z M9.28650014,26.5680004 C9.16389925,26.5764014 9.0439564,26.6076908 8.93287514,26.6602504 L2.53687504,29.6122505 C2.20716578,29.7536534 1.9805278,30.0632735 1.94539242,30.4203008 C1.91025703,30.7773281 2.07219181,31.125188 2.36801181,31.3281499 C2.66383182,31.5311118 3.04666133,31.5570142 3.36712505,31.3957505 L9.76312515,28.4437504 C10.1940442,28.2452027 10.4219439,27.7674534 10.3050975,27.3076063 C10.1882511,26.8477592 9.75993029,26.5367545 9.28650014,26.5680004 Z M21.5403753,34.9166255 C21.0334224,34.9723348 20.6530315,35.4061138 20.6640003,35.9160006 L20.6640003,42.8040007 C20.6589816,43.1588664 20.8454256,43.4889447 21.1519392,43.6678422 C21.4584528,43.8467397 21.8375479,43.8467397 22.1440615,43.6678422 C22.4505751,43.4889447 22.637019,43.1588664 22.6320004,42.8040007 L22.6320004,35.9160006 C22.6361675,35.6496942 22.5322151,35.3930709 22.3438851,35.2047408 C22.155555,35.0164108 21.8989317,34.9124584 21.6326253,34.9166255 C21.6018922,34.9151835 21.5711084,34.9151835 21.5403753,34.9166255 Z M11.7465002,35.9006256 C11.4194921,35.9237829 11.1254862,36.1082572 10.9623752,36.3926256 L9.48637515,38.8526256 C9.30510752,39.1547383 9.29878453,39.5306071 9.46978801,39.8386458 C9.64079148,40.1466846 9.96314192,40.3400948 10.315413,40.3460209 C10.6676841,40.3519469 10.9963575,40.1694883 11.1776252,39.8673756 L12.6536252,37.4073756 C12.8523199,37.0927916 12.8566015,36.6930433 12.6646904,36.3742757 C12.4727793,36.0555081 12.1174942,35.8722336 11.7465002,35.9006256 Z M31.4265005,35.9006256 C31.0774576,35.918008 30.7638166,36.1192003 30.6024855,36.429209 C30.4411544,36.7392177 30.4563376,37.1115327 30.6423755,37.4073756 L32.1183755,39.8673756 C32.2996431,40.1694883 32.6283165,40.3519469 32.9805877,40.3460209 C33.3328588,40.3400948 33.6552092,40.1466846 33.8262127,39.8386458 C33.9972161,39.5306071 33.9908932,39.1547383 33.8096255,38.8526256 L32.3336255,36.3926256 C32.148382,36.070523 31.797511,35.8802201 31.4265005,35.9006256 L31.4265005,35.9006256 Z" id="Shape"></path>
                            </g>
                        </g>
                    </g>
                </g>
            </g>
        </g>
    </g>
</svg>