<?xml version="1.0" encoding="UTF-8"?>
<svg width="28px" height="28px" viewBox="0 0 28 28" version="1.1" xmlns="http://www.w3.org/2000/svg" xmlns:xlink="http://www.w3.org/1999/xlink">
    <!-- Generator: sketchtool 60.1 (101010) - https://sketch.com -->
    <title>BD759F81-BB0C-4C55-BD80-138F7A54C5DB</title>
    <desc>Created with sketchtool.</desc>
    <g id="LOT-3" stroke="none" stroke-width="1" fill="none" fill-rule="evenodd">
        <g id="12-Presentez-vos-produits" transform="translate(-197.000000, -438.000000)" fill="#FFFFFF" fill-rule="nonzero">
            <g id="REMISE-Copy" transform="translate(95.000000, 388.000000)">
                <g id="clock-(5)" transform="translate(102.000000, 50.000000)">
                    <path d="M13.7995397,0 C6.17835186,0 0,6.17853586 0,13.7995397 C0,21.4205435 6.17835186,27.5995394 13.7995397,27.5995394 C21.4207275,27.5995394 27.5995394,21.4205435 27.5995394,13.7995397 C27.5995394,6.17853586 21.4207275,0 13.7995397,0 Z M19.7654636,16.4242076 L13.9149997,16.4242076 C13.8952197,16.4242076 13.8768197,16.4194236 13.8572237,16.4186876 C13.8376277,16.4196076 13.8193197,16.4242076 13.7994477,16.4242076 C13.2723797,16.4242076 12.8450397,15.9968676 12.8450397,15.4697997 L12.8450397,5.72690787 C12.8450397,5.19983988 13.2723797,4.77249989 13.7994477,4.77249989 C14.3265157,4.77249989 14.7538557,5.19983988 14.7538557,5.72690787 L14.7538557,14.5153917 L19.7650956,14.5153917 C20.2921635,14.5153917 20.7195035,14.9427317 20.7195035,15.4697997 C20.7195035,15.9968676 20.2925315,16.4242076 19.7654636,16.4242076 Z" id="Shape"></path>
                </g>
            </g>
        </g>
    </g>
</svg>