<?xml version="1.0" encoding="UTF-8"?>
<svg width="35px" height="36px" viewBox="0 0 35 36" version="1.1" xmlns="http://www.w3.org/2000/svg" xmlns:xlink="http://www.w3.org/1999/xlink">
    <!-- Generator: sketchtool 59 (101010) - https://sketch.com -->
    <title>304E48FE-DA85-4332-A57A-B58FB3EDE0F2</title>
    <desc>Created with sketchtool.</desc>
    <g id="LOT-2" stroke="none" stroke-width="1" fill="none" fill-rule="evenodd">
        <g id="03-Hub-Visiteur" transform="translate(-126.000000, -2274.000000)" fill="#FFFFFF">
            <g id="SECTEURS" transform="translate(-2.000000, 1971.000000)">
                <g transform="translate(97.000000, 251.000000)" id="01">
                    <g>
                        <g id="TEXTE" transform="translate(30.000000, 52.000000)">
                            <g id="01-Electrons/Concierge" transform="translate(1.000000, 0.519126)">
                                <g id="noun_concierge_1516451">
                                    <g id="Group" fill-rule="nonzero">
                                        <path d="M15.9298675,20.3901656 C15.920596,20.3577152 15.9066887,20.3275828 15.8858278,20.2997682 C15.8835099,20.2951325 15.8788742,20.2904967 15.8765563,20.2858609 C15.8742384,20.283543 15.8696026,20.2812252 15.8672848,20.2765894 C15.8533775,20.2603642 15.8371523,20.2441391 15.8162914,20.2279139 C15.8139735,20.225596 15.8116556,20.2209603 15.8070199,20.2186424 C15.804702,20.2163245 15.8023841,20.2140066 15.7977483,20.2140066 C15.7954305,20.2116887 15.7954305,20.2093709 15.7931126,20.2093709 L14.5901325,19.117649 C14.4742384,19.0411589 14.325894,19.0411589 14.21,19.117649 L13.004702,20.2093709 C13.0023841,20.2093709 13.0000662,20.2116887 12.9977483,20.2140066 C12.9954305,20.2163245 12.9931126,20.2163245 12.9907947,20.2186424 C12.9861589,20.2209603 12.9838411,20.225596 12.9815232,20.2279139 C12.9629801,20.2441391 12.9444371,20.2603642 12.9282119,20.2789073 C12.925894,20.2812252 12.9235762,20.283543 12.9212583,20.2858609 C12.9189404,20.2904967 12.9166225,20.2951325 12.9119868,20.2974503 C12.907351,20.304404 12.9050331,20.3090397 12.9003974,20.3159934 C12.8957616,20.3252649 12.8888079,20.3345364 12.8841722,20.3438079 C12.8818543,20.3461258 12.8818543,20.3507616 12.8818543,20.3530795 C12.8702649,20.3785762 12.8609934,20.4040728 12.8540397,20.4318874 C12.8517219,20.4527483 12.849404,20.4736093 12.849404,20.4944702 L12.849404,20.5315563 C12.8540397,20.5593709 12.8586755,20.5895033 12.867947,20.615 C12.867947,20.6173179 12.867947,20.6173179 12.867947,20.6173179 C12.8772185,20.6428146 12.8888079,20.6659934 12.9050331,20.6891722 C12.907351,20.6938079 12.9096689,20.6961258 12.9119868,20.7007616 C12.9143046,20.7007616 12.9143046,20.7030795 12.9143046,20.7030795 L12.9328477,20.7285762 L13.6351656,22.3395033 L12.5109934,26.3795695 L12.9560265,27.2904967 L14.4000662,30.2527483 L15.8417881,27.2904967 L16.2868212,26.3795695 L15.162649,22.3395033 L15.8649669,20.7262583 L15.8835099,20.7030795 L15.8835099,20.7007616 C15.8881457,20.6984437 15.8904636,20.6938079 15.8927815,20.6891722 C15.9090066,20.6659934 15.920596,20.6404967 15.9298675,20.6126821 C15.9321854,20.6080464 15.9345033,20.6010927 15.9345033,20.5941391 C15.941457,20.5686424 15.9460927,20.5431457 15.9484106,20.517649 C15.9484106,20.5106954 15.9507285,20.5060596 15.9507285,20.499106 C15.9507285,20.4712914 15.9460927,20.4411589 15.9391391,20.4156623 C15.9368212,20.4063907 15.9345033,20.3971192 15.9298675,20.3901656 Z" id="Path"></path>
                                        <path d="M23.3704967,32.0657947 L23.3704967,31.7505629 C23.3704967,29.7764238 24.6223841,28.0292053 26.4090066,27.3363907 L26.4090066,23.2970199 C26.4090066,21.2596026 24.9835099,19.484106 23.0156291,19.0645695 L18.1550331,17.6784768 L18.1550331,15.9423841 C18.875894,15.3374172 19.402053,14.5145695 19.6454305,13.592053 C19.7381457,13.2466887 19.8053642,12.9847682 19.8563576,12.7877483 C20.5053642,12.6811258 21.0199338,12.1804636 21.1196026,11.5221854 L21.4116556,9.70033113 C21.4858278,9.2089404 21.3444371,8.71059603 21.0199338,8.33046358 C20.9341722,8.2307947 20.8391391,8.14271523 20.7348344,8.06622517 C20.8739073,7.57251656 20.9457616,7.0602649 20.9503974,6.54337748 L20.9503974,6.52019868 C20.9156291,4.74006623 20.1437748,3.0897351 18.8156291,1.92847682 C18.8133113,1.6781457 18.6950993,1.44403974 18.4980795,1.2910596 C17.4109934,0.458940397 16.057351,-1.77635684e-14 14.6898013,-1.77635684e-14 L14.1080132,-1.77635684e-14 C12.9722517,-1.77635684e-14 11.9245695,0.52615894 11.0066887,1.15430464 C10.7633113,1.08708609 10.5013907,1.13576159 10.2974172,1.29337748 C8.87192053,2.38741722 7.88682119,4.48741722 7.84741722,6.5410596 C7.85205298,7.0602649 7.92622517,7.57019868 8.06761589,8.06390728 C7.96331126,8.14271523 7.86596026,8.2307947 7.78019868,8.33046358 C7.45569536,8.71059603 7.31198675,9.2089404 7.38847682,9.70264901 L7.67589404,11.5245033 C7.78251656,12.1827815 8.29708609,12.6811258 8.94145695,12.7877483 C8.99245033,12.9847682 9.06198675,13.2466887 9.15238411,13.592053 C9.39807947,14.5145695 9.92423841,15.3374172 10.6450993,15.9423841 L10.6450993,17.6784768 L5.78450331,19.0645695 C3.81662252,19.484106 2.39112583,21.2596026 2.39112583,23.2970199 L2.39112583,32.3349007 L23.3426821,32.3349007 C23.3609934,32.2454305 23.3704967,32.1552649 23.3704967,32.0657947 Z M14.4000662,32.1047351 L11.4401325,26.0342053 L12.2490728,18.1186424 L12.2513907,18.1047351 L12.2629801,17.9818874 C12.265298,17.9563907 12.2676159,17.9285762 12.2676159,17.9007616 C12.2676159,17.8984437 12.2676159,17.8984437 12.2676159,17.8961258 L12.2676159,16.9226159 C12.9374834,17.2726159 13.6676159,17.4487748 14.4000662,17.4487748 C15.1301987,17.4487748 15.862649,17.2726159 16.5325166,16.9226159 L16.5325166,17.9007616 C16.5325166,17.9285762 16.5325166,17.9540728 16.5348344,17.9818874 L16.5487417,18.1093709 L17.3553642,26.0342053 L14.4000662,32.1047351 Z M16.5974172,15.0497682 L15.8093377,15.4716225 C14.9262252,15.9444702 13.8715894,15.9444702 12.9884768,15.4716225 L12.2003974,15.0497682 C11.4702649,14.6603642 10.9325166,13.9765894 10.7215894,13.1769205 C10.4341722,12.0898344 10.3831788,11.8789073 10.3762252,11.8510927 C10.3066887,11.4663245 9.97059603,11.1858609 9.57887417,11.1858609 L9.26596026,11.1858609 L8.99013245,9.45440397 C8.99013245,9.44513245 8.98549669,9.41731788 9.01099338,9.38718543 C9.02953642,9.3663245 9.05735099,9.3547351 9.08980132,9.3547351 C9.15238411,9.3547351 9.21496689,9.34778146 9.27523179,9.33387417 C9.46761589,9.28751656 9.63682119,9.1739404 9.75271523,9.00705298 C9.90569536,8.79149007 9.94278146,8.51334437 9.85238411,8.26533113 L9.71794702,7.89910596 C9.60437086,7.58619205 9.53019868,7.26168874 9.49543046,6.94182119 L9.95668874,5.93586093 C10.0772185,5.67625828 10.3646358,5.54182119 10.6404636,5.61831126 C11.2338411,5.78519868 11.875894,5.62062914 12.3162914,5.18718543 L12.6222517,4.88817881 C12.8192715,4.69347682 13.1275497,4.66566225 13.3570199,4.82327815 L14.4510596,5.5765894 C15.5010596,6.29745033 16.8013907,6.50142384 18.0229139,6.13751656 C18.2709272,6.06334437 18.5374834,6.16301325 18.6765563,6.38321192 L19.2537086,7.28718543 C19.207351,7.52824503 19.1378146,7.76698675 19.0497351,7.99877483 L18.9523841,8.25142384 C18.857351,8.50175497 18.8898013,8.78221854 19.0404636,9.00241722 C19.1563576,9.16930464 19.3278808,9.28519868 19.5202649,9.33387417 C19.5828477,9.34778146 19.6454305,9.3547351 19.7103311,9.3547351 C19.7427815,9.3547351 19.7682781,9.3663245 19.7891391,9.38718543 C19.8123179,9.41731788 19.81,9.44513245 19.8076821,9.44976821 L19.5318543,11.1858609 L19.2189404,11.1858609 C18.8272185,11.1858609 18.4957616,11.4547351 18.4239073,11.8395033 C18.4169536,11.8719536 18.3729139,12.0643377 18.078543,13.1769205 C17.8676159,13.9765894 17.3275497,14.6603642 16.5974172,15.0497682 Z M23.0712583,28.2454636 C23.0712583,28.4795695 22.8835099,28.6696358 22.649404,28.6696358 L19.6245695,28.6696358 C19.3904636,28.6696358 19.2003974,28.4795695 19.2003974,28.2454636 L19.2003974,27.6822185 C19.2003974,27.4504305 19.3904636,27.2603642 19.6245695,27.2603642 L22.649404,27.2603642 C22.8835099,27.2603642 23.0712583,27.4504305 23.0712583,27.6822185 L23.0712583,28.2454636 Z" id="Shape"></path>
                                        <path d="M33.8484768,33.1459272 L32.3189073,33.1459272 C32.134404,32.8151656 32.0324172,32.4461589 32.0324172,32.0657947 L32.0324172,31.7505629 C32.0324172,29.7836093 30.5763245,28.1543709 28.6863245,27.8727483 L28.6863245,27.7128146 C28.6863245,27.3927152 28.4269536,27.1333444 28.1068543,27.1333444 C27.786755,27.1333444 27.5273841,27.3927152 27.5273841,27.7128146 L27.5273841,27.8727483 C25.6373841,28.1543709 24.1815232,29.7836093 24.1815232,31.7505629 L24.1815232,32.0657947 C24.1815232,32.4463907 24.0795364,32.8151656 23.8950331,33.1459272 L0.919735099,33.1459272 C0.471688742,33.1459272 0.108476821,33.5091391 0.108476821,33.9571854 C0.108476821,34.4052318 0.471688742,34.7684437 0.919735099,34.7684437 L33.8484768,34.7684437 C34.2965232,34.7684437 34.6597351,34.4052318 34.6597351,33.9571854 C34.6597351,33.5091391 34.2965232,33.1459272 33.8484768,33.1459272 Z M28.1070861,28.9839404 C29.5434768,28.9839404 30.7276821,30.0842384 30.8611921,31.4863245 L25.3532119,31.4863245 C25.4867219,30.0842384 26.6706954,28.9839404 28.1070861,28.9839404 Z M25.1652318,33.141755 C25.2194702,32.9799669 25.2616556,32.8140066 25.2908609,32.6452649 L30.9233113,32.6452649 C30.9525166,32.8140066 30.994702,32.9797351 31.0489404,33.141755 L25.1652318,33.141755 Z" id="Shape"></path>
                                    </g>
                                </g>
                            </g>
                        </g>
                    </g>
                </g>
            </g>
        </g>
    </g>
</svg>