<?xml version="1.0" encoding="UTF-8"?>
<svg width="31px" height="35px" viewBox="0 0 31 35" version="1.1" xmlns="http://www.w3.org/2000/svg" xmlns:xlink="http://www.w3.org/1999/xlink">
    <!-- Generator: sketchtool 59 (101010) - https://sketch.com -->
    <title>81180BC6-44B1-4124-8B5E-008F0B373764</title>
    <desc>Created with sketchtool.</desc>
    <g id="LOT-2" stroke="none" stroke-width="1" fill="none" fill-rule="evenodd">
        <g id="03-Hub-Visiteur" transform="translate(-522.000000, -2273.000000)" fill="#FFFFFF">
            <g id="SECTEURS" transform="translate(-2.000000, 1971.000000)">
                <g transform="translate(97.000000, 251.000000)" id="02">
                    <g transform="translate(396.000000, 0.000000)">
                        <g id="TEXTE" transform="translate(30.000000, 50.000000)">
                            <g id="01-Electrons/Conference" transform="translate(0.744963, 0.519126)">
                                <g id="noun_conference_2019112">
                                    <g id="Group" fill-rule="nonzero">
                                        <path d="M18.5769231,15.2384615 C18.5769231,14.3769231 17.8769231,13.6769231 17.0153846,13.6769231 L1.83076923,13.6769231 C0.969230769,13.6769231 0.269230769,14.3769231 0.269230769,15.2384615 C0.269230769,16.1 0.969230769,16.8 1.83076923,16.8 L17.0153846,16.8 C17.8769231,16.7461538 18.5769231,16.0461538 18.5769231,15.2384615 Z" id="Path"></path>
                                        <path d="M9.47692308,6.46153846 C10.9846154,6.46153846 12.0076923,4.79230769 12.0076923,3.33846154 C12.0076923,1.77692308 10.8769231,0.484615385 9.47692308,0.484615385 C8.07692308,0.484615385 6.94615385,1.77692308 6.94615385,3.33846154 C6.94615385,4.84615385 8.02307692,6.46153846 9.47692308,6.46153846 Z" id="Path"></path>
                                        <path d="M14.8615385,11.2 C14.7,8.34615385 14.6461538,7.75384615 13.5692308,7.48461538 C12.7615385,7.26923077 12.1153846,7.10769231 11.2,7 C11.0384615,7 10.8230769,7.05384615 10.7153846,7.21538462 C10.6076923,7.37692308 10.5538462,7.53846154 10.6076923,7.7 C10.7153846,8.02307692 10.7692308,8.4 10.7692308,8.72307692 C10.8230769,9.90769231 10.4461538,10.8769231 9.47692308,11.9 C8.23846154,10.5538462 7.86153846,9.20769231 8.34615385,7.7 C8.4,7.53846154 8.34615385,7.32307692 8.23846154,7.21538462 C8.13076923,7.05384615 7.96923077,7 7.75384615,7 C6.83846154,7.10769231 6.13846154,7.26923077 5.33076923,7.48461538 C4.25384615,7.80769231 4.25384615,8.4 4.09230769,11.2 C4.03846154,11.6307692 4.03846154,12.0615385 3.98461538,12.6 L14.9153846,12.6 C14.9153846,12.0615385 14.8615385,11.6307692 14.8615385,11.2 Z" id="Path"></path>
                                        <path d="M25.7384615,28.7 C27.1923077,28.7 28.3769231,27.5153846 28.3769231,26.0615385 C28.3769231,24.6076923 27.1923077,23.4230769 25.7384615,23.4230769 C24.2846154,23.4230769 23.1,24.6076923 23.1,26.0615385 C23.1,27.5153846 24.2846154,28.7 25.7384615,28.7 Z" id="Path"></path>
                                        <path d="M27.3538462,29.6153846 C26.2769231,29.5076923 25.2,29.5076923 24.1230769,29.6153846 C22.0769231,29.8307692 20.5153846,31.5538462 20.5153846,33.6 L20.5153846,34.4615385 C20.5153846,34.7846154 20.7307692,35 21.0538462,35 L30.4230769,35 C30.6923077,35 30.9615385,34.7846154 30.9615385,34.4615385 L30.9615385,33.6538462 C30.9615385,31.5538462 29.4,29.8307692 27.3538462,29.6153846 Z" id="Path"></path>
                                        <path d="M14.7538462,23.4230769 C13.3,23.4230769 12.1153846,24.6076923 12.1153846,26.0615385 C12.1153846,27.5153846 13.3,28.7 14.7538462,28.7 C16.2076923,28.7 17.3923077,27.5153846 17.3923077,26.0615385 C17.3923077,24.6076923 16.2076923,23.4230769 14.7538462,23.4230769 Z" id="Path"></path>
                                        <path d="M16.3692308,29.6153846 C15.2923077,29.5076923 14.2153846,29.5076923 13.1384615,29.6153846 C11.0923077,29.8307692 9.53076923,31.5538462 9.53076923,33.6 L9.53076923,34.4615385 C9.53076923,34.7846154 9.8,35 10.0692308,35 L19.4384615,35 C19.7615385,35 19.9769231,34.7846154 19.9769231,34.4615385 L19.9769231,33.6538462 C19.9769231,31.5538462 18.4153846,29.8307692 16.3692308,29.6153846 Z" id="Path"></path>
                                        <path d="M11.5230769,27.9461538 C11.2,27.4076923 11.0384615,26.7615385 11.0384615,26.0615385 C11.0384615,24.0153846 12.7076923,22.3461538 14.7538462,22.3461538 C15.0769231,22.3461538 15.4538462,22.4 15.7769231,22.5076923 L16.5846154,17.8769231 L2.26153846,17.8769231 L3.93076923,27.4615385 C3.98461538,27.7307692 4.2,27.8923077 4.46923077,27.8923077 L10.9307692,27.8923077 C11.1461538,27.9461538 11.3615385,27.9461538 11.5230769,27.9461538 Z" id="Path"></path>
                                    </g>
                                </g>
                            </g>
                        </g>
                    </g>
                </g>
            </g>
        </g>
    </g>
</svg>