<?xml version="1.0" encoding="UTF-8"?>
<svg width="44px" height="40px" viewBox="0 0 44 40" version="1.1" xmlns="http://www.w3.org/2000/svg" xmlns:xlink="http://www.w3.org/1999/xlink">
    <!-- Generator: sketchtool 59.1 (101010) - https://sketch.com -->
    <title>FFFE947C-2C75-46A7-9679-6582FC6AA15F</title>
    <desc>Created with sketchtool.</desc>
    <g id="LOT-2" stroke="none" stroke-width="1" fill="none" fill-rule="evenodd">
        <g id="02-Hub-Exposant" transform="translate(-510.000000, -2522.000000)" fill="#F85C29" fill-rule="nonzero">
            <g id="PLUS" transform="translate(0.000000, 2266.000000)">
                <g id="Group-12" transform="translate(138.000000, 239.000000)">
                    <g id="Group-3" transform="translate(283.000000, 0.000000)">
                        <g id="Group-9" transform="translate(74.000000, 0.000000)">
                            <g id="noun_Contacts_2856479" transform="translate(37.000000, 37.000000) rotate(-20.000000) translate(-37.000000, -37.000000) translate(17.000000, 22.000000)">
                                <path d="M33.4469729,4.00860401 L1.96549139,4.00860401 C1.27002171,4.00860401 0.706232132,4.56824807 0.706232132,5.25860401 L0.706232132,27.758604 C0.706232132,28.4489599 1.27002171,29.008604 1.96549139,29.008604 L33.4469729,29.008604 C34.1424426,29.008604 34.7062321,28.4489599 34.7062321,27.758604 L34.7062321,5.25860401 C34.7062321,4.56824807 34.1424426,4.00860401 33.4469729,4.00860401 Z M10.7803062,7.75860401 C12.8667153,7.75860401 14.558084,9.4375362 14.558084,11.508604 C14.558084,13.5796718 12.8667153,15.258604 10.7803062,15.258604 C8.69389715,15.258604 7.00252843,13.5796718 7.00252843,11.508604 C7.00252843,9.4375362 8.69389715,7.75860401 10.7803062,7.75860401 Z M17.0766025,24.008604 C17.0766025,24.6989599 16.5128129,25.258604 15.8173432,25.258604 L5.74326917,25.258604 C5.04779948,25.258604 4.48400991,24.6989599 4.48400991,24.008604 L4.48400991,21.508604 C4.48400991,18.7471803 6.73916821,16.508604 9.52104695,16.508604 L12.0395655,16.508604 C14.8214442,16.508604 17.0766025,18.7471803 17.0766025,21.508604 L17.0766025,24.008604 Z M27.1506766,19.008604 L19.595121,19.008604 C18.8996513,19.008604 18.3358618,18.4489599 18.3358618,17.758604 C18.3358618,17.0682481 18.8996513,16.508604 19.595121,16.508604 L27.1506766,16.508604 C27.8461463,16.508604 28.4099358,17.0682481 28.4099358,17.758604 C28.4099358,18.4489599 27.8461463,19.008604 27.1506766,19.008604 Z M29.6691951,15.258604 L19.595121,15.258604 C18.8996513,15.258604 18.3358618,14.6989599 18.3358618,14.008604 C18.3358618,13.3182481 18.8996513,12.758604 19.595121,12.758604 L29.6691951,12.758604 C30.3646648,12.758604 30.9284544,13.3182481 30.9284544,14.008604 C30.9284544,14.6989599 30.3646648,15.258604 29.6691951,15.258604 Z" id="Shape"></path>
                                <path d="M37.9761515,0.336201337 L6.49466997,0.336201337 C5.79920028,0.336201337 5.23541071,0.8958454 5.23541071,1.58620134 L5.23541071,2.83620134 L34.1983737,2.83620134 C35.589313,2.83620134 36.7168922,3.95548946 36.7168922,5.33620134 L36.7168922,25.3362013 L37.9761515,25.3362013 C38.6716211,25.3362013 39.2354107,24.7765573 39.2354107,24.0862013 L39.2354107,1.58620134 C39.2354107,0.8958454 38.6716211,0.336201337 37.9761515,0.336201337 Z" id="Path"></path>
                            </g>
                        </g>
                    </g>
                </g>
            </g>
        </g>
    </g>
</svg>