<?xml version="1.0" encoding="UTF-8"?>
<svg width="27px" height="27px" viewBox="0 0 27 27" version="1.1" xmlns="http://www.w3.org/2000/svg" xmlns:xlink="http://www.w3.org/1999/xlink">
    <!-- Generator: sketchtool 59.1 (101010) - https://sketch.com -->
    <title>69EBCC2A-8ECD-4C66-950B-8C4092C3DE69</title>
    <desc>Created with sketchtool.</desc>
    <g id="LOT-2" stroke="none" stroke-width="1" fill="none" fill-rule="evenodd">
        <g id="02-Hub-Exposant" transform="translate(-1171.000000, -643.000000)" fill="#F85C29">
            <g id="STICKY" transform="translate(0.000000, 614.000000)">
                <g id="CONTACT" transform="translate(1157.000000, 16.000000)">
                    <g id="placeholder-(9)">
                        <g id="01-Electrons/Contact" transform="translate(14.000000, 13.000000)">
                            <g id="placeholder-(9)">
                                <g id="help" fill-rule="nonzero">
                                    <path d="M27,18.29613 C27,14.9547298 25.083086,11.9726353 22.212132,10.5220588 C22.1229731,16.9287546 16.9287546,22.1229731 10.5220588,22.212132 C11.9726353,25.083086 14.9547298,27 18.29613,27 C19.8627773,27 21.3862832,26.5827615 22.7248977,25.7899879 L26.9619945,26.9619945 L25.7899879,22.7248977 C26.5827615,21.3862832 27,19.8627773 27,18.29613 L27,18.29613 Z" id="Path"></path>
                                    <path d="M20.6470588,10.3235294 C20.6470588,4.63102541 16.0160334,-6.57252031e-14 10.3235294,-6.57252031e-14 C4.63102541,-6.57252031e-14 -8.8817842e-15,4.63102541 -8.8817842e-15,10.3235294 C-8.8817842e-15,12.1787448 0.493816498,13.9850738 1.43153161,15.5708972 L0.0379541522,20.6088984 L5.07616158,19.2155272 C6.66198507,20.1532423 8.46831397,20.6470588 10.3235294,20.6470588 C16.0160334,20.6470588 20.6470588,16.0160334 20.6470588,10.3235294 Z M8.7393561,7.92086656 L7.15518279,7.92086656 C7.15518279,6.17373789 8.57640075,4.75251993 10.3235294,4.75251993 C12.0706581,4.75251993 13.491876,6.17373789 13.491876,7.92086656 C13.491876,8.80763233 13.11646,9.65995058 12.4615446,10.2589661 L11.1156161,11.4908259 L11.1156161,12.7261923 L9.53144276,12.7261923 L9.53144276,10.793212 L11.3920213,9.09022572 C11.7245327,8.78597367 11.9077027,8.37074701 11.9077027,7.92086656 C11.9077027,7.04730222 11.1970937,6.33669325 10.3235294,6.33669325 C9.44996508,6.33669325 8.7393561,7.04730222 8.7393561,7.92086656 Z M9.53144276,14.3103656 L11.1156161,14.3103656 L11.1156161,15.8945389 L9.53144276,15.8945389 L9.53144276,14.3103656 Z" id="Shape"></path>
                                </g>
                            </g>
                        </g>
                    </g>
                </g>
            </g>
        </g>
    </g>
</svg>