<?xml version="1.0" encoding="UTF-8"?>
<svg width="53px" height="37px" viewBox="0 0 53 37" version="1.1" xmlns="http://www.w3.org/2000/svg" xmlns:xlink="http://www.w3.org/1999/xlink">
    <!-- Generator: sketchtool 58 (101010) - https://sketch.com -->
    <title>6886A95C-4986-4C4D-852B-33759EA97DD0</title>
    <desc>Created with sketchtool.</desc>
    <g id="LOT-1" stroke="none" stroke-width="1" fill="none" fill-rule="evenodd">
        <g id="HOMEPAGE-T1_V1" transform="translate(-1024.000000, -1371.000000)" fill="#C8CCD7">
            <g id="EN-BREF" transform="translate(172.000000, 909.000000)">
                <g id="POURQUOI-Copy" transform="translate(560.000000, 381.000000)">
                    <g id="DISTRIBUTEURS" transform="translate(283.000000, 73.000000)">
                        <g id="01-Electrons/Distributeur" transform="translate(9.000000, 8.000000)">
                            <g id="noun_warehouse_1748458">
                                <g id="Group" fill-rule="nonzero">
                                    <path d="M39.2271329,8.76583976 L20.2162179,0.164359495 C20.0518584,0.0547864985 19.8327125,0.0547864985 19.6135665,0.164359495 L0.71222448,8.76583976 C0.438291988,8.87541276 0.273932492,9.14934525 0.273932492,9.42327774 L0.273932492,35.392078 C0.273932492,35.7755835 0.602651483,36.1043025 0.986156973,36.1043025 L6.30044733,36.1043025 C6.68395282,36.1043025 7.01267181,35.7755835 7.01267181,35.392078 L7.01267181,14.9567141 C7.01267181,14.5732086 7.3413908,14.2444896 7.72489629,14.2444896 L32.2144611,14.2444896 C32.5979666,14.2444896 32.9266856,14.5732086 32.9266856,14.9567141 L32.9266856,16.2168036 C32.9266856,16.600309 33.2554046,16.929028 33.6389101,16.929028 L38.8984139,16.929028 C39.2819194,16.929028 39.6106384,16.600309 39.6106384,16.2168036 L39.6106384,9.42327774 C39.6106384,9.14934525 39.4462789,8.87541276 39.2271329,8.76583976 Z" id="Path"></path>
                                    <path d="M14.0801301,30.7352257 L10.1355022,30.7352257 C9.75199673,30.7352257 9.42327774,31.0639446 9.42327774,31.4474501 L9.42327774,35.392078 C9.42327774,35.7755835 9.75199673,36.1043025 10.1355022,36.1043025 L14.0801301,36.1043025 C14.4636356,36.1043025 14.7923546,35.7755835 14.7923546,35.392078 L14.7923546,31.4474501 C14.7923546,31.0639446 14.4636356,30.7352257 14.0801301,30.7352257 Z" id="Path"></path>
                                    <path d="M21.9145994,30.7352257 L17.9699715,30.7352257 C17.586466,30.7352257 17.257747,31.0639446 17.257747,31.4474501 L17.257747,35.392078 C17.257747,35.7755835 17.586466,36.1043025 17.9699715,36.1043025 L21.9145994,36.1043025 C22.2981049,36.1043025 22.6268239,35.7755835 22.6268239,35.392078 L22.6268239,31.4474501 C22.6268239,31.0639446 22.2981049,30.7352257 21.9145994,30.7352257 Z" id="Path"></path>
                                    <path d="M14.0801301,23.7225538 L10.1355022,23.7225538 C9.75199673,23.7225538 9.42327774,24.0512728 9.42327774,24.4347783 L9.42327774,28.3794062 C9.42327774,28.7629117 9.75199673,29.0916307 10.1355022,29.0916307 L14.0801301,29.0916307 C14.4636356,29.0916307 14.7923546,28.7629117 14.7923546,28.3794062 L14.7923546,24.4347783 C14.7923546,24.0512728 14.4636356,23.7225538 14.0801301,23.7225538 Z" id="Path"></path>
                                    <path d="M21.9145994,23.7225538 L17.9699715,23.7225538 C17.586466,23.7225538 17.257747,24.0512728 17.257747,24.4347783 L17.257747,28.3794062 C17.257747,28.7629117 17.586466,29.0916307 17.9699715,29.0916307 L21.9145994,29.0916307 C22.2981049,29.0916307 22.6268239,28.7629117 22.6268239,28.3794062 L22.6268239,24.4347783 C22.6268239,24.0512728 22.2981049,23.7225538 21.9145994,23.7225538 Z" id="Path"></path>
                                    <path d="M14.0801301,16.7646685 L10.1355022,16.7646685 C9.75199673,16.7646685 9.42327774,17.0933875 9.42327774,17.476893 L9.42327774,21.3667344 C9.42327774,21.7502399 9.75199673,22.0789589 10.1355022,22.0789589 L14.0801301,22.0789589 C14.4636356,22.0789589 14.7923546,21.7502399 14.7923546,21.3667344 L14.7923546,17.4221065 C14.7923546,17.0933875 14.4636356,16.7646685 14.0801301,16.7646685 Z" id="Path"></path>
                                    <path d="M21.9145994,16.7646685 L17.9699715,16.7646685 C17.586466,16.7646685 17.257747,17.0933875 17.257747,17.476893 L17.257747,21.3667344 C17.257747,21.7502399 17.586466,22.0789589 17.9699715,22.0789589 L21.9145994,22.0789589 C22.2981049,22.0789589 22.6268239,21.7502399 22.6268239,21.3667344 L22.6268239,17.4221065 C22.6268239,17.0933875 22.2981049,16.7646685 21.9145994,16.7646685 Z" id="Path"></path>
                                    <path d="M38.4601219,30.5160797 L25.6948678,30.5160797 C25.3661488,30.5160797 25.0922163,30.7900122 25.0922163,31.1187311 L25.0922163,32.9814721 C25.0922163,33.3101911 25.3661488,33.5841236 25.6948678,33.5841236 L27.0645303,33.5841236 C27.1741033,34.953786 28.3246197,36.1043025 29.7490687,36.1043025 C31.1735176,36.1043025 32.3240341,35.0085725 32.4336071,33.5841236 L38.4053354,33.5841236 C38.7340544,33.5841236 39.0079869,33.3101911 39.0079869,32.9814721 L39.0079869,31.1187311 C39.0627734,30.7900122 38.7888409,30.5160797 38.4601219,30.5160797 Z M29.8038552,34.7894265 C29.0368442,34.7894265 28.3794062,34.1319886 28.3794062,33.3649776 C28.3794062,32.5979666 29.0368442,31.9405286 29.8038552,31.9405286 C30.5708662,31.9405286 31.2283041,32.5979666 31.2283041,33.3649776 C31.2283041,34.1319886 30.5708662,34.7894265 29.8038552,34.7894265 Z" id="Shape"></path>
                                    <path d="M51.2801626,27.9959007 L48.1573322,27.5576087 L46.3493777,24.3799918 C45.8562992,23.5034079 44.9249288,23.0103294 43.9935583,23.0103294 L40.5420089,23.0103294 C40.2132899,23.0103294 39.9393574,23.2842619 39.9393574,23.6129808 L39.9393574,32.9266856 C39.9393574,33.2554046 40.2132899,33.5293371 40.5420089,33.5293371 L44.9249288,33.5293371 C45.0345018,34.8989995 46.1850182,36.049516 47.6094672,36.049516 C49.0339161,36.049516 50.1844326,34.953786 50.2940056,33.5293371 L51.1158031,33.5293371 C51.7732411,33.5293371 52.3211061,32.9814721 52.3211061,32.3240341 L52.3211061,29.1464172 C52.3211061,28.5985522 51.8828141,28.0506872 51.2801626,27.9959007 Z M45.9110857,27.5028222 L42.0212443,27.5028222 C41.9664578,27.5028222 41.9116713,27.4480357 41.9116713,27.3932492 L41.9116713,24.8730703 C41.9116713,24.8182838 41.9664578,24.7634973 42.0212443,24.7634973 L43.9935583,24.7634973 C44.3770638,24.7634973 44.7057828,24.9826433 44.8701423,25.3113623 L46.0206587,27.3384627 C46.0754452,27.3932492 46.0206587,27.5028222 45.9110857,27.5028222 Z M47.5546807,34.7894265 C46.7876697,34.7894265 46.1302317,34.1319886 46.1302317,33.3649776 C46.1302317,32.5979666 46.7876697,31.9405286 47.5546807,31.9405286 C48.3216917,31.9405286 48.9791297,32.5979666 48.9791297,33.3649776 C48.9791297,34.1319886 48.3764782,34.7894265 47.5546807,34.7894265 Z" id="Shape"></path>
                                    <path d="M25.6948678,29.6394957 L38.4601219,29.6394957 C38.7888409,29.6394957 39.0627734,29.3655632 39.0627734,29.0368442 L39.0627734,20.0518584 C39.0627734,19.7231395 38.7888409,19.449207 38.4601219,19.449207 L25.6948678,19.449207 C25.3661488,19.449207 25.0922163,19.7231395 25.0922163,20.0518584 L25.0922163,29.0368442 C25.0922163,29.3655632 25.3661488,29.6394957 25.6948678,29.6394957 Z" id="Path"></path>
                                </g>
                            </g>
                        </g>
                    </g>
                </g>
            </g>
        </g>
    </g>
</svg>