<?xml version="1.0" encoding="UTF-8"?>
<svg width="35px" height="30px" viewBox="0 0 35 30" version="1.1" xmlns="http://www.w3.org/2000/svg" xmlns:xlink="http://www.w3.org/1999/xlink">
    <!-- Generator: sketchtool 58 (101010) - https://sketch.com -->
    <title>FEFED6B8-7E22-4ADB-B538-60BE30D9F076</title>
    <desc>Created with sketchtool.</desc>
    <g id="LOT-1" stroke="none" stroke-width="1" fill="none" fill-rule="evenodd">
        <g id="HOMEPAGE-T1_V1" transform="translate(-455.000000, -3265.000000)" fill="#FFFFFF">
            <g id="SECTEURS" transform="translate(95.000000, 2974.000000)">
                <g transform="translate(104.000000, 70.000000)" id="Secteurs">
                    <g transform="translate(0.000000, 181.000000)">
                        <g id="CHARCUTERIE-Copy" transform="translate(233.000000, 0.000000)">
                            <g id="TEXTE" transform="translate(22.240437, 39.459016)">
                                <g id="01-Electrons/Secteurs/Epices" transform="translate(0.759563, 0.540984)">
                                    <g id="spices">
                                        <path d="M34.6130075,1.68090226 C34.2440977,0.46556391 32.9599624,-0.220601504 31.7446241,0.148308271 L12.0469173,6.1268797 C10.9557519,4.44191729 8.47770677,3.61330827 5.92703008,4.23823308 C2.87165414,4.9868797 -0.52037594,7.87759398 0.0668796992,10.2743233 C0.654135338,12.6710526 4.99838346,13.6661278 8.0537594,12.9174812 C10.6044361,12.2924436 12.4187594,10.4121429 12.6073308,8.41353383 L32.837594,4.6087218 C32.917782,4.59349624 33.0005639,4.57342105 33.0804135,4.54917293 C34.2957519,4.18037594 34.9819173,2.89612782 34.6130075,1.68090226 Z" id="Path" fill-rule="nonzero"></path>
                                        <circle id="Oval" fill-rule="nonzero" cx="6.31240602" cy="17.3371805" r="1.40977444"></circle>
                                        <circle id="Oval" fill-rule="nonzero" cx="3.38616541" cy="22.9211278" r="1.40977444"></circle>
                                        <circle id="Oval" fill-rule="nonzero" cx="9.23864662" cy="22.9211278" r="1.40977444"></circle>
                                        <circle id="Oval" fill-rule="nonzero" cx="6.31240602" cy="28.517594" r="1.40977444"></circle>
                                    </g>
                                </g>
                            </g>
                        </g>
                    </g>
                </g>
            </g>
        </g>
    </g>
</svg>