<svg id="Calque_1" data-name="Calque 1" xmlns="http://www.w3.org/2000/svg" viewBox="0 0 27 27">
  <title>exhib</title>
  <g id="LOT-1">
    <g id="HOMEPAGE-T1_V1" data-name="HOMEPAGE-T1 V1">
      <g id="HEADER">
        <g id="Entrées-Rapides">
          <g id="Rectangle-Copy-10">
            <g id="Group-2">
              <g id="_01-Electrons_Exposants" data-name="01-Electrons/Exposants">
                <path id="Shape" d="M7.88,6.27,5.37,3.77a1.13,1.13,0,0,0-1.51.09,1.15,1.15,0,0,0-.09,1.52h0l2.49,2.5A1.15,1.15,0,1,0,7.88,6.26ZM8.8.13A1,1,0,0,1,9.65.07a1.13,1.13,0,0,1,.63.64l1.37,3.5a1.26,1.26,0,0,1-.49,1.53A1,1,0,0,1,9.9,5.52h0a1,1,0,0,1-.23-.37L8.31,1.66A1.24,1.24,0,0,1,8.8.13ZM1.66,8.3,5.19,9.67a1,1,0,0,1,.58,1.41,1.25,1.25,0,0,1-1.53.59L.7,10.28a1,1,0,0,1-.37-.23A1,1,0,0,1,.21,8.69,1.29,1.29,0,0,1,1.66,8.3Zm1.06,8.64a1.29,1.29,0,0,0,1.82,1.82L5.29,18,9,19.67a4.33,4.33,0,0,0,6.59,5.59l1.85-1.85L20.93,25A1.28,1.28,0,0,0,21,26.62h0a1.27,1.27,0,0,0,1.82,0l3.78-3.77A1.28,1.28,0,0,0,25,20.92L18,5.29l.75-.75a1.32,1.32,0,0,0,.28-1.4,1.29,1.29,0,0,0-1.19-.79,1.26,1.26,0,0,0-.9.37ZM11,20.14l.13-.18,2.95,1.7-1,1.24a1.27,1.27,0,0,1-1.45.51A1.79,1.79,0,0,1,10.62,22a2.4,2.4,0,0,1,.39-1.9Z" style="fill: #f85c29"/>
              </g>
            </g>
          </g>
        </g>
      </g>
    </g>
  </g>
</svg>
