<?xml version="1.0" encoding="UTF-8"?>
<svg width="27px" height="27px" viewBox="0 0 27 27" version="1.1" xmlns="http://www.w3.org/2000/svg" xmlns:xlink="http://www.w3.org/1999/xlink">
    <!-- Generator: sketchtool 58 (101010) - https://sketch.com -->
    <title>13072F72-53B2-493A-AADB-55AF914EDDAF</title>
    <desc>Created with sketchtool.</desc>
    <g id="LOT-1" stroke="none" stroke-width="1" fill="none" fill-rule="evenodd">
        <g id="HOMEPAGE-T1_V1" transform="translate(-192.000000, -748.000000)" fill="#F85C29" fill-rule="nonzero">
            <g id="HEADER" transform="translate(-1.000000, -2.000000)">
                <g id="Entrées-Rapides" transform="translate(173.000000, 716.000000)">
                    <g id="Rectangle-Copy-10">
                        <g id="Group-2" transform="translate(20.000000, 34.000000)">
                            <g id="01-Electrons/Exposants">
                                <path d="M19.1196715,6.27029505 L21.6275763,3.76652414 C22.083008,3.4081323 22.7337215,3.44728078 23.1431282,3.85770337 C23.5525349,4.26812597 23.5915865,4.92045404 23.2340818,5.37701587 L23.2340818,5.37701587 L20.7365082,7.88078678 C20.290031,8.32908675 19.5655704,8.32966636 19.1183801,7.88208138 C18.6711897,7.4344964 18.6706115,6.70823816 19.1170887,6.25993819 L19.1196715,6.27029505 Z M18.2013605,0.127717514 C17.9361605,-0.0197083069 17.6275739,-0.0404381907 17.3480755,0.0703964919 C17.0685771,0.181231175 16.8427946,0.413864292 16.7237555,0.713659538 L15.3495828,4.20761012 C15.1251901,4.7810004 15.339914,5.44799627 15.8421178,5.73756985 C16.2594706,5.97380742 16.7674403,5.88730309 17.1005447,5.52326698 L17.1005447,5.52326698 C17.1987871,5.41598869 17.2773788,5.2888958 17.3320362,5.14891513 L18.6938955,1.65767724 C18.9182881,1.08428697 18.7035643,0.417291094 18.2013605,0.127717514 Z M25.3419487,8.29689282 L21.8059406,9.67002731 C21.2278922,9.92611037 20.974256,10.5473272 21.2297052,11.0813681 C21.4851545,11.6154089 22.1596387,11.8740148 22.762064,11.668894 L26.298072,10.2833442 C26.4385482,10.2285387 26.5662674,10.1501828 26.6744769,10.0524192 C27.0612111,9.67896336 27.1086148,9.11271507 26.7884551,8.69092376 C26.4682953,8.26913246 25.8666908,8.10525431 25.3419487,8.29689282 L25.3419487,8.29689282 Z M24.276201,16.9447784 C24.6004582,17.2689102 24.7270951,17.7413426 24.6084087,18.184115 C24.4897223,18.6268873 24.143744,18.9727318 23.7008004,19.0913723 C23.2578568,19.2100128 22.7852417,19.0834249 22.4609845,18.7592931 L21.7081297,18.0067294 L17.9745276,19.6651568 C19.3011974,21.5006905 18.9918501,24.0475536 17.2643089,25.5124034 C15.5367677,26.9772532 12.9725807,26.8669723 11.3772889,25.2592136 L9.53140049,23.4140389 L6.06826844,24.9526136 C6.45489852,25.4594504 6.40724822,26.1739285 5.9567344,26.6249773 L5.9567344,26.6249773 C5.4550481,27.1250076 4.64320414,27.1250076 4.14151784,26.6249773 L0.357725426,22.8454352 C-0.10194724,22.3680246 -0.120890079,21.6187773 0.31407091,21.1187656 C0.749031899,20.6187539 1.49393795,20.5334662 2.03073608,20.9222169 L8.98488367,5.28840291 L8.23202888,4.53583922 C7.86582815,4.1691748 7.7563837,3.61823071 7.95465193,3.13952184 C8.15292017,2.66081297 8.61992896,2.34843558 9.13824298,2.34782609 C9.47851446,2.34699179 9.80492418,2.48252495 10.0444571,2.7241118 L24.276201,16.9447784 Z M15.9942726,20.1358968 L15.8566153,19.9565217 L12.9130435,21.6605848 L13.8674674,22.9042519 C14.2473845,23.399305 14.8011259,23.5926452 15.3201023,23.4114432 C15.8390788,23.2302412 16.2444456,22.7020259 16.3835049,22.0257709 C16.5225643,21.3495158 16.3741897,20.6279603 15.9942726,20.1329072 L15.9942726,20.1358968 Z" id="Shape" transform="translate(13.500000, 13.500000) scale(-1, 1) translate(-13.500000, -13.500000) "></path>
                            </g>
                        </g>
                    </g>
                </g>
            </g>
        </g>
    </g>
</svg>