<?xml version="1.0" encoding="UTF-8"?>
<svg width="21px" height="25px" viewBox="0 0 21 25" version="1.1" xmlns="http://www.w3.org/2000/svg" xmlns:xlink="http://www.w3.org/1999/xlink">
    <!-- Generator: sketchtool 60 (101010) - https://sketch.com -->
    <title>616FEA35-5BF7-4BAE-96C7-618C45AC2A2D</title>
    <desc>Created with sketchtool.</desc>
    <g id="LOT-3" stroke="none" stroke-width="1" fill="none" fill-rule="evenodd">
        <g id="17-Demande-de-participation" transform="translate(-652.000000, -2020.000000)" fill="#F85C29" fill-rule="nonzero">
            <g id="STAND" transform="translate(521.000000, 1986.000000)">
                <g id="Group-4" transform="translate(131.000000, 34.000000)">
                    <g id="fair-stand">
                        <path d="M20.4237057,4.33957766 C20.5220708,4.58358311 20.3873297,4.78317439 20.1243188,4.78317439 L0.501634877,4.78317439 C0.238623978,4.78317439 0.0983651226,4.58147139 0.189986376,4.3349455 L1.63358311,0.448297003 C1.72520436,0.201771117 2.01532698,0 2.27826975,0 L18.1962534,0 C18.4592643,0 18.7549046,0.199523161 18.8533379,0.44346049 L20.4237057,4.33957766 Z" id="Path"></path>
                        <path d="M0.0234332425,7.22336512 C0.0234332425,8.18065395 0.799455041,8.95660763 1.75674387,8.95660763 C2.4773842,8.95660763 3.09509537,8.51689373 3.35647139,7.89107629 C3.40831063,7.76702997 3.52813351,7.76880109 3.58044959,7.89366485 C3.84243869,8.51811989 4.4596049,8.95660763 5.17915531,8.95660763 C5.90183924,8.95660763 6.52118529,8.51423706 6.78133515,7.88549046 C6.83188011,7.76314714 6.94611717,7.75333787 6.99386921,7.87166213 C7.25054496,8.50769755 7.8736376,8.95660763 8.601703,8.95660763 C9.32970027,8.95660763 9.95265668,8.50783379 10.2093324,7.87173025 C10.2570845,7.75340599 10.3688011,7.75340599 10.4165531,7.87173025 C10.673297,8.50783379 11.2963215,8.95660763 12.0242507,8.95660763 C12.752248,8.95660763 13.3752725,8.50783379 13.6318801,7.87173025 C13.6797684,7.75340599 13.7912807,7.75340599 13.8388965,7.87173025 C14.0956403,8.50776567 14.718733,8.95667575 15.4467984,8.95667575 C16.1748638,8.95667575 16.7978883,8.50790191 17.054564,7.87179837 C17.1021798,7.75347411 17.2138965,7.75347411 17.2615123,7.87179837 C17.5182561,8.50783379 18.1412125,8.95674387 18.869346,8.95674387 C19.8266349,8.95674387 20.6026567,8.18072207 20.6026567,7.22350136 L20.6026567,6.49080381 C20.6026567,6.49080381 20.6026567,6.14877384 20.241485,6.14877384 C15.306812,6.14877384 5.52792916,6.14877384 0.503065395,6.14877384 C0.0234332425,6.14877384 0.0234332425,6.50429155 0.0234332425,6.50429155 L0.0234332425,7.22336512 Z" id="Path"></path>
                        <path d="M20.0999319,23.3446185 C20.0999319,23.3442779 20.0999319,23.3440054 20.0999319,23.343733 L20.0999319,16.4708447 C20.0999319,16.053951 19.7586512,15.7128065 19.3418937,15.7128065 L1.28412807,15.7128065 C0.867234332,15.7128065 0.526089918,16.053951 0.526089918,16.4708447 L0.526089918,23.343733 C0.526089918,23.3885559 0.526089918,23.5882834 0.526089918,23.6465259 C0.526089918,24.3861717 1.1256812,24.9856948 1.86525886,24.9856948 C2.3722752,24.9856948 2.81239782,24.703406 3.03944142,24.2876703 C3.07186649,24.2282016 3.09516349,24.1017711 3.41737057,24.1017711 L17.2296322,24.1017711 C17.5328338,24.1017711 17.5887602,24.2266349 17.6206403,24.285218 C17.8472752,24.702248 18.2881471,24.9856948 18.7961172,24.9856948 C19.5356948,24.9856948 20.0999319,24.3861717 20.0999319,23.6465259 C20.0999319,23.5425749 20.0999319,23.5161444 20.0999319,23.3446185 Z" id="Path"></path>
                        <path d="M4.03446866,10.1350136 C4.02540872,10.0115123 3.9226158,9.91307902 3.79707084,9.91307902 L3.10640327,9.91307902 C2.97486376,9.91307902 2.86730245,10.0206403 2.86730245,10.1521798 L2.86730245,10.1553134 L2.86730245,14.1134877 L2.86730245,14.1166213 C2.86730245,14.2482289 2.97493188,14.3557221 3.10640327,14.3557221 L3.79707084,14.3557221 C3.92268392,14.3557221 4.02547684,14.2572888 4.03446866,14.1337875 C4.03508174,14.1317439 4.03617166,14.1297003 4.03617166,14.1275886 L4.03617166,14.1166213 L4.03617166,10.1521117 L4.03617166,10.1411444 C4.03617166,10.1390327 4.03508174,10.1370572 4.03446866,10.1350136 Z" id="Path"></path>
                        <path d="M17.8222071,10.1350136 C17.8131471,10.0115123 17.7103542,9.91307902 17.5848093,9.91307902 L16.8941417,9.91307902 C16.7625341,9.91307902 16.6549728,10.0206403 16.6549728,10.1521798 L16.6549728,10.1553134 L16.6549728,14.1134877 L16.6549728,14.1166213 C16.6549728,14.2482289 16.7625341,14.3557221 16.8941417,14.3557221 L17.5848093,14.3557221 C17.7104223,14.3557221 17.8132153,14.2572888 17.8222071,14.1337875 C17.8228202,14.1317439 17.8239128,14.1297003 17.8239128,14.1275886 L17.8239128,14.1166213 L17.8239128,10.1521117 L17.8239128,10.1411444 C17.8239782,10.1390327 17.822752,10.1370572 17.8222071,10.1350136 Z" id="Path"></path>
                    </g>
                </g>
            </g>
        </g>
    </g>
</svg>