<?xml version="1.0" encoding="UTF-8"?>
<svg width="12px" height="12px" viewBox="0 0 12 12" version="1.1" xmlns="http://www.w3.org/2000/svg" xmlns:xlink="http://www.w3.org/1999/xlink">
    <!-- Generator: sketchtool 58 (101010) - https://sketch.com -->
    <title>2E34C991-1D10-4108-8C28-D7A327ADAAC4</title>
    <desc>Created with sketchtool.</desc>
    <g id="LOT-1" stroke="none" stroke-width="1" fill="none" fill-rule="evenodd">
        <g id="HOMEPAGE-T1_V1" transform="translate(-1053.000000, -13.000000)" fill="#F85C29" fill-rule="nonzero">
            <g id="HEADER" transform="translate(-1.000000, -2.000000)">
                <g id="04-Organisms/Header">
                    <g id="MENU">
                        <g id="Group-10" transform="translate(1054.000000, 8.000000)">
                            <g id="01-Electrons/Favoris" transform="translate(0.000000, 7.000000)">
                                <path d="M11.9835351,4.53482373 C11.944128,4.40842648 11.8406845,4.31814273 11.7150746,4.29750645 L7.97140463,3.74032674 L6.28675316,0.193465176 C6.23010553,0.0748065348 6.11434731,0 5.98873733,0 C5.86312736,0 5.74736914,0.0748065348 5.6907215,0.196044712 L4.0282365,3.75322442 L0.284566575,4.33619948 C0.158956598,4.35683577 0.0555130863,4.44711952 0.0161060344,4.57351677 C-0.0233010174,4.69991402 0.011180153,4.83920894 0.10230896,4.92949269 L2.8189326,7.68701634 L2.19088271,11.5924334 C2.16871624,11.7239897 2.220438,11.855546 2.32388151,11.9329321 C2.38052915,11.9767842 2.44949149,12 2.51845383,12 C2.57263853,12 2.62436028,11.9871023 2.6736191,11.9587274 L6.01582968,10.1040413 L9.36789203,11.9380911 C9.41715085,11.9638865 9.4688726,11.9767842 9.52059436,11.9767842 C9.70285197,11.9767842 9.85309136,11.8194325 9.85309136,11.6285469 C9.85309136,11.600172 9.85062842,11.5743766 9.8432396,11.5485813 L9.19548618,7.66638005 L11.8948692,4.89337919 C11.9909239,4.80051591 12.0229422,4.66122098 11.9835351,4.53482373 Z" id="Shape"></path>
                            </g>
                        </g>
                    </g>
                </g>
            </g>
        </g>
    </g>
</svg>