<?xml version="1.0" encoding="UTF-8"?>
<svg width="70px" height="70px" viewBox="0 0 70 70" version="1.1" xmlns="http://www.w3.org/2000/svg" xmlns:xlink="http://www.w3.org/1999/xlink">
    <!-- Generator: sketchtool 58 (101010) - https://sketch.com -->
    <title>5DBEC4D8-325E-4997-8F78-504DFB15D627</title>
    <desc>Created with sketchtool.</desc>
    <g id="LOT-1" stroke="none" stroke-width="1" fill="none" fill-rule="evenodd">
        <g id="HOMEPAGE-T1_V1" transform="translate(-1054.000000, -1653.000000)">
            <g id="EN-BREF" transform="translate(172.000000, 909.000000)">
                <g id="CHIFFRES" transform="translate(0.000000, 741.000000)">
                    <g id="01-copy-3" transform="translate(882.000000, 0.000000)">
                        <g id="01-Electrons/France" transform="translate(0.000000, 3.000000)">
                            <g id="PICTO">
                                <circle id="Oval" fill="#FFD138" cx="35" cy="35" r="35"></circle>
                                <g id="FRANCE" transform="translate(10.400000, 14.700000)" fill="#FFFFFF" fill-opacity="0.7" fill-rule="nonzero">
                                    <path d="M44.1784505,10.5388543 C44.1018366,9.79572681 43.3381525,9.86450722 42.7802457,9.84905655 C42.1913987,9.83310747 41.6202318,9.63773121 41.0588872,9.47076426 C40.5908545,9.3317082 40.0987571,9.14031922 39.6061686,9.13782717 C39.0070081,9.13533513 38.3243581,8.72614149 38.1819347,8.07571799 C37.7762736,8.24916426 36.6025084,8.31196377 36.3417263,7.7253366 C35.7582815,8.04381983 34.8914633,7.83548495 34.3428877,7.53045875 C33.7181892,7.18306781 33.2919013,6.45887981 33.1647025,5.76011065 C33.1293422,5.56672803 33.2231452,4.94471383 33.0109834,4.8300798 C32.8312353,4.7333885 32.6131802,4.9771104 32.501697,5.09124602 C32.0916159,5.51090624 31.8288693,5.98638825 31.1634083,5.65893366 C30.607466,5.38580563 30.1536756,4.59483085 30.0785349,3.98876573 C30.0033943,3.37921175 29.6880984,3.06621102 29.0766601,2.97001812 C28.6169763,2.89774884 28.0011179,3.12851212 27.673053,2.67844896 C27.3567749,2.24433488 27.57483,1.50070894 26.837175,1.55802595 C26.589653,1.57746389 26.3033329,1.81221444 26.0749643,1.80224627 C25.5882692,1.78928764 24.8245852,0.452056793 24.482278,0 C23.9783938,0.155005141 23.4691074,0.249204406 22.9450876,0.295556426 C22.639614,0.322470502 22.2747154,0.322968911 21.9923242,0.463021787 C21.3838326,0.765057528 21.5625985,1.71701836 21.6102366,2.26277601 C21.6745727,3.00091946 22.0050932,4.08146977 21.4280329,4.68354761 C20.9241488,5.2088705 18.9680372,6.23459584 17.5943882,6.61488176 C17.2677966,6.80826438 16.9593763,7.07840196 16.8616444,7.46367197 C16.7732436,7.81205973 16.9019158,8.17839021 16.825793,8.51930184 C16.6833696,9.15776353 15.3986124,9.12835741 14.9084795,9.12486854 C14.5813968,9.1223765 14.2503852,9.09795447 13.9463849,8.96786977 C13.7661457,8.89111481 13.6350179,8.75903648 13.4287496,8.76750943 C13.2475281,8.77498556 13.102158,8.91204798 12.9278121,8.93647001 C12.6449298,8.97634272 12.3335628,8.77349033 12.1346612,8.58708544 C11.8321342,8.30398923 11.8277142,8.12506047 12.0221958,7.77916475 C12.2029262,7.45818947 12.1268033,7.09734149 11.6651551,7.10282399 C11.4063374,7.10581444 11.2825764,7.38791383 11.0134453,7.37645043 C10.8047214,7.36747907 9.2513242,6.65824333 9.56121785,7.30467956 C9.6569853,7.50454149 9.8126688,7.67051163 9.90254287,7.88632265 C9.97080788,8.05079755 10.0238483,8.223247 10.1068468,8.3812426 C10.2831571,8.71717014 10.6593513,8.85323574 10.824366,9.18667124 C10.9844695,9.63573758 10.6932382,10.6779104 10.8322238,11.5132436 C10.9068733,11.9618115 11.1111772,12.1527021 11.3208834,12.5270071 C11.4962115,12.8395094 11.5089805,13.1500181 11.1028283,13.1330722 C10.9383047,13.1260945 10.7438231,13.0677807 10.5994353,12.9885337 C10.4049537,12.8813758 10.3474932,12.6959677 10.1868985,12.5653846 C9.78614858,12.2394252 9.61278494,12.8056176 9.29061341,12.9013121 C9.08090725,12.9636132 8.87856781,12.7971447 8.68752402,12.7478022 C8.2229291,12.5783432 7.38754225,13.380283 6.94946755,12.9785655 C6.67247861,12.7248754 6.52907299,12.3276436 6.20199031,12.1327657 C5.7894536,11.8865518 5.16082622,11.89652 4.7026158,11.9403799 C4.3362439,11.9752685 3.41196522,12.6182159 3.09863376,12.66706 C2.20529532,12.8066144 1.28740113,12.4995946 0.567917454,13.2163065 C0.382275932,13.4012162 -0.037136395,13.8871648 0.00264393117,14.1782355 C0.0492998692,14.5181503 0.425002949,14.3800911 0.673998324,14.3616499 C0.794321533,14.3526786 1.52411863,14.4015226 1.36696178,14.6512255 C1.29378563,14.7673547 0.498179105,14.6307907 0.861604307,15.0016069 C1.04233468,15.1855197 1.37776632,15.0948093 1.5717568,15.3275662 C1.9062062,15.7287853 1.40919768,15.7631755 1.10175961,15.8050419 C0.867006573,15.83694 0.200563332,15.9067173 0.522734862,16.2152323 C0.771730236,16.4534717 1.23190512,16.3727295 1.44161128,16.7021777 C1.55800557,16.8850938 1.50152733,17.0799716 1.75788943,17.1532377 C2.19399967,17.2778399 2.52010013,16.7275966 2.91102778,16.6942032 C3.16198761,16.6727716 3.2135547,16.8467163 3.40361626,17.0002262 C3.72185887,17.2579036 5.26838043,17.6521449 5.54045822,17.9651457 C5.83954734,18.3095461 5.97853292,18.7182414 6.46326356,18.4486022 C6.64890509,18.3449332 6.66511189,18.3344666 6.86794244,18.3608823 C7.11939339,18.3937772 7.11350001,18.36786 7.34628858,18.2980827 C7.76029864,18.1744774 8.29512303,18.597128 8.15662856,19.0382198 C8.06773672,19.3218144 7.6876136,19.5525777 8.05987888,19.7863315 C8.44736872,20.029555 8.99741767,19.7006051 9.3942387,19.6652181 C9.5013018,19.6557484 10.0076415,19.6487706 10.022375,19.8556103 C10.0361262,20.0465009 9.52192864,20.0793958 9.4428591,20.2702864 C9.34168939,20.5140083 9.66778984,20.6326296 9.70511459,20.8554184 C9.77976409,21.299999 9.10840969,21.3976872 9.38638086,21.8946007 C9.96147669,22.3665939 10.7752545,23.6046414 10.8995066,23.8533474 C11.089077,24.2336333 11.6175169,24.2645346 11.9544219,24.5172279 C12.3325806,24.8008225 12.8556182,25.2050321 13.0746555,25.6371525 C13.20873,25.9018076 13.1424294,26.4515525 12.7505196,26.4615207 C12.4808973,26.4684984 12.3492785,25.9975021 12.074254,26.0348827 C11.7088643,26.0842252 11.9445996,26.4734825 12.069834,26.6279892 C12.2373042,26.8348289 12.4082123,27.1079569 12.5771559,27.2943618 C12.6631011,27.3890595 12.8060156,27.4329195 12.9022741,27.5171506 C13.0515731,27.6482321 13.140465,27.8201831 13.2381969,27.9901405 C13.4695121,28.3908612 13.7322587,28.818496 13.8687887,29.2645719 C14.2056937,30.3655569 12.9125875,28.5339045 12.8904874,28.5408823 C12.7131948,28.6011897 12.7745842,30.5474761 12.6635922,31.0598404 C12.5830493,31.431155 12.338474,31.9151099 12.4381703,32.3033704 C12.5123287,32.5919491 12.7544485,32.5934443 12.5098731,32.7913126 C12.2898536,32.9692446 12.2088196,32.9228925 12.1818082,33.2463599 C12.1582347,33.5274624 12.3124449,36.1281596 10.8410639,38.2334384 C11.0895682,38.5952832 11.3641015,38.9541376 11.6769419,39.260659 C11.8542344,39.4341053 12.0320181,39.5816343 12.274629,39.643437 C12.5452334,39.7127158 12.8069978,39.6658654 13.0373308,39.8582512 C13.311373,40.0875192 13.3634312,40.4752813 13.724892,40.6098517 C14.0387146,40.7269777 14.3770929,40.5939026 14.6987733,40.6048676 C15.3819145,40.6282928 15.8185158,41.2089391 16.4108007,41.4571466 C16.9603585,41.6874115 17.6047016,41.3858742 18.1802885,41.4681116 C18.5451871,41.5199462 18.711184,41.5264255 19.0107642,41.2846972 C19.2371683,41.1022796 19.4336143,40.9457792 19.7297568,40.8914526 C20.1034954,40.8231706 20.417318,40.9487697 20.6859579,41.2084406 C20.861286,41.3778996 21.0120584,41.6679736 21.262036,41.7352588 C21.5208537,41.8045376 21.7850736,41.6390659 22.0581336,41.7337635 C22.3724473,41.8429151 22.5679112,42.1185351 22.7903863,42.3483016 C23.3507487,42.927951 24.4400421,42.9877601 25.1801526,42.8148122 C25.8976718,42.6468485 26.4545963,42.3677395 27.2114048,42.4923417 C27.0046453,41.9146859 26.6264866,41.3808901 26.6530069,40.744422 C26.6775626,40.1607853 26.8656597,39.3663217 27.417182,39.0717621 C27.9210662,38.8026213 28.4332992,38.7517836 28.9086987,38.3879452 C29.5289771,37.9129616 29.9169581,37.4893141 30.7199313,37.8601302 C31.2886426,38.1227917 31.9290568,38.7781993 32.6009023,38.5414551 C32.9726765,38.4103736 33.2221629,38.1691437 33.6479598,38.2608509 C33.9809358,38.3326218 34.2471202,38.5648803 34.5010268,38.7801929 C35.0319222,39.2302561 35.6330472,39.7745185 36.3628442,39.8034262 C37.0504054,39.8303403 37.867621,39.7172015 38.4888817,39.4131721 C39.2599324,39.0353782 39.7304207,38.2748064 40.3678882,37.7250615 C41.0687095,37.1199932 41.9615568,36.8623158 42.8052926,36.5323692 C42.7291698,36.0459222 42.7355543,35.5280754 42.6270178,35.0501014 C42.4958901,34.4729439 42.013615,34.3383736 41.4935241,34.2262316 C41.0259825,34.125553 40.5329029,33.9466242 40.439591,33.4088411 C40.3556103,32.9238894 40.6429127,32.4683437 40.5437074,31.9714301 C40.422402,31.3638698 39.7073383,30.8026614 39.8698974,30.1382825 C40.0167409,29.5381983 40.8349387,29.6234262 40.9714687,29.0113802 C41.0308936,28.7452299 40.9380729,28.4716034 40.9090971,28.2084436 C40.8840502,27.9796739 40.9370906,26.6274908 40.9017303,26.1749356 L40.9051682,26.1739388 C40.2171158,26.4136734 40.209258,24.7121058 40.0584857,24.4349905 C39.7765856,23.9171437 38.951021,24.057695 38.4834794,24.1309611 C38.200106,24.1753195 37.2051067,24.5526149 37.0965703,24.1693386 C37.035672,23.954026 37.2561827,23.560283 37.3190454,23.3649067 C37.4678533,22.9023834 37.5454495,22.4378663 37.8086872,22.0211966 C38.2182772,21.3737635 40.4106152,18.9430237 41.1649681,18.4570752 C41.6182673,18.1650076 41.8707005,17.6287197 41.7690397,17.1148602 C41.6855501,16.692708 41.6202318,16.37572 41.7380994,15.9371202 C41.8461448,15.5349043 42.1093825,15.2039608 42.205641,14.8022433 C42.427134,13.8761998 42.2046588,12.9720862 42.8701198,12.1801146 C43.2261783,11.7534766 44.2452422,11.1877826 44.1784505,10.5388543 C44.103801,9.81665998 44.2531,11.2615471 44.1784505,10.5388543 Z" id="Path"></path>
                                </g>
                            </g>
                        </g>
                    </g>
                </g>
            </g>
        </g>
    </g>
</svg>
