<?xml version="1.0" encoding="UTF-8"?>
<svg width="36px" height="30px" viewBox="0 0 36 30" version="1.1" xmlns="http://www.w3.org/2000/svg" xmlns:xlink="http://www.w3.org/1999/xlink">
    <!-- Generator: sketchtool 58 (101010) - https://sketch.com -->
    <title>25147314-B4F8-4126-850E-6AAEF18151E9</title>
    <desc>Created with sketchtool.</desc>
    <g id="LOT-1" stroke="none" stroke-width="1" fill="none" fill-rule="evenodd">
        <g id="HOMEPAGE-T1_V1" transform="translate(-687.000000, -3266.000000)" fill="#FFFFFF">
            <g id="SECTEURS" transform="translate(95.000000, 2974.000000)">
                <g transform="translate(104.000000, 70.000000)" id="Secteurs">
                    <g transform="translate(0.000000, 181.000000)">
                        <g id="CHARCUTERIE-Copy-2" transform="translate(467.000000, 0.000000)">
                            <g id="TEXTE" transform="translate(20.229508, 40.448087)">
                                <g id="01-Electrons/Secteurs/Fruits" transform="translate(0.770492, 0.551913)">
                                    <g id="healthy-food">
                                        <path d="M6.37606566,10.5108697 L6.48016963,10.5108697 C6.55703714,10.331714 6.63450986,10.1613345 6.71531151,10.0033628 C7.00311051,9.42715944 7.35657981,8.8863635 7.76875895,8.39186959 L6.65327275,7.27608085 L3.80917647,7.27608085 L3.80917647,6.03772779 L5.41189344,6.03772779 L3.37097138,3.99680572 L4.24738156,3.12039554 L6.28830363,5.16162021 L6.28830363,3.55860063 L7.5278672,3.55860063 L7.5278672,6.40118379 L8.62852459,7.50184117 C9.26585875,6.93320354 9.98823139,6.4674593 10.7693138,6.12155567 C9.80877311,3.81220271 7.54965641,2.31056347 5.04874005,2.31900138 L2.56956348,2.31900138 L2.56956348,4.79816421 C2.55962612,7.29908057 4.06429175,9.55728937 6.37606566,10.5108697 Z" id="Path" fill-rule="nonzero"></path>
                                        <path d="M7.82202145,10.5623164 C7.80719271,10.5919739 7.79296918,10.6243551 7.77753514,10.6564336 C9.3466604,11.0241265 10.8988386,12.0821133 12.3584125,13.8131445 C14.0691676,15.8755532 15.3087312,18.2868917 15.9902491,20.8785964 C16.209049,21.8007034 16.2604958,22.7548889 16.1427736,23.6954562 L27.6123681,21.3546299 C28.7805116,21.1143434 29.9961676,21.3394985 31.0008919,21.9822801 L31.5970687,20.652836 C32.4765052,18.6936235 32.9337758,16.5712946 32.9389205,14.4235448 C32.93771,13.0829036 32.6250955,11.7610252 32.0252871,10.5623164 C31.4421233,9.38812047 30.5418055,8.40034325 29.4266219,7.71125963 C26.8875745,6.1457659 23.6391674,6.34217134 21.30742,8.202122 L20.5432848,8.81433811 L20.5432848,7.94125678 C20.5360217,5.29810538 21.5864428,2.76178158 23.460617,0.897896781 L22.5842068,0.021486595 C20.4767066,2.11748688 19.2955502,4.96914891 19.3037212,7.94125678 L19.3037212,8.81433811 L18.5380727,8.20091149 C17.2867067,7.20375278 15.7345286,6.6599306 14.1345352,6.65750957 C11.4574895,6.64661497 9.00771724,8.16187244 7.82202145,10.5623164 Z" id="Path" fill-rule="nonzero"></path>
                                        <path d="M19.5670074,4.75428319 C19.2646821,2.54388955 17.5266906,0.805897921 15.3165996,0.503875312 C15.6189248,2.71396635 17.3569163,4.45195797 19.5670074,4.75428319 Z" id="Path" fill-rule="nonzero"></path>
                                        <path d="M7.15593762,18.4917707 C4.82540067,19.0392244 3.37883966,21.3706692 3.92296453,23.7015088 C4.1226989,24.5597613 4.58390371,25.3344885 5.24332976,25.9185602 L12.0869554,24.5222354 C12.7805784,23.0172672 12.5551207,21.2487102 11.5062126,19.9658709 C10.4573046,18.6830315 8.76864129,18.1107623 7.15593762,18.4917707 L7.15593762,18.4917707 Z" id="Path" fill-rule="nonzero"></path>
                                        <path d="M2.47458772,26.4850795 L3.80917647,26.213017 C2.36745751,24.4275129 2.16681524,21.9414253 3.30288006,19.9474105 C4.43894496,17.9536985 6.6802066,16.8590936 8.95112581,17.1889579 C11.222045,17.5188222 13.0592986,19.2059724 13.581029,21.4405763 C13.7925658,22.3626833 13.768053,23.3232239 13.5099114,24.2335284 L14.8375397,23.9626766 C15.0179059,23.0351223 15.0000509,22.0800288 14.7854877,21.1600402 C14.1520877,18.7562674 13.0005888,16.5204531 11.4111875,14.6093583 C10.0862828,13.0414436 8.00238764,11.2898337 5.60527256,11.8539319 C3.20785496,12.4180302 2.11506586,14.908052 1.62299305,16.9014615 C1.04618438,19.3185499 1.0062375,21.8327819 1.50587606,24.2668175 C1.69229481,25.0587945 2.02034337,25.8102195 2.47458772,26.4850795 L2.47458772,26.4850795 Z" id="Path" fill-rule="nonzero"></path>
                                        <path d="M35.4483105,25.2379502 L35.1928926,24.0244126 L33.7675155,24.3252247 L34.5930842,23.1222791 L33.5705048,22.4216956 L31.8697364,24.9008228 C31.8376579,24.9498485 31.8128423,25.0034136 31.7965005,25.0597024 C31.4345576,23.5547342 30.086048,22.4958395 28.5384093,22.5003789 C28.3108332,22.5003789 28.0838623,22.5233786 27.8608256,22.5687728 L27.7990895,22.5817858 C27.8859437,23.3326054 27.8335891,24.0928065 27.6447493,24.8245606 L27.5827106,25.0615182 L26.3840018,24.7470879 L26.4460405,24.5110381 C26.5879729,23.9629792 26.6339724,23.3940389 26.5822231,22.8302432 L23.0178725,23.5571552 C23.1365026,24.4949989 23.034517,25.4476713 22.7203893,26.3395155 L21.5528512,25.922797 C21.792835,25.244608 21.879084,24.5210249 21.8049402,23.8050074 L18.7798724,24.4247892 C18.8379769,25.2555027 18.725702,26.0892423 18.4503107,26.8748641 L17.2824699,26.4584482 C17.4849279,25.886179 17.5781373,25.2809233 17.5575586,24.6741546 L14.5264383,25.2939363 C14.5367277,26.0141906 14.4196107,26.7305107 14.1799294,27.4099101 L13.0114834,26.9865338 C13.1749024,26.5216975 13.266296,26.0347693 13.2823353,25.5423938 L10.2524255,26.1621756 C10.2285179,26.7683391 10.1123088,27.3675422 9.90833765,27.9392062 L8.74140475,27.5212772 C8.86729792,27.1656895 8.9505206,26.7961809 8.98925696,26.4206198 L0.686662519,28.1144277 C0.305956752,28.1846373 0.0426705042,28.5347777 0.0811042575,28.920023 C0.119538011,29.3049656 0.44698128,29.5963962 0.83404229,29.5894358 L28.1870584,29.5894358 C29.0816262,29.5921594 29.9398787,29.2365717 30.5705551,28.6022637 L30.9182746,28.2539391 C31.5525825,27.6232628 31.9081701,26.7653129 31.9057491,25.870745 C31.9057491,25.7790488 31.8869862,25.691892 31.8797231,25.6020115 C31.8939467,25.6274323 31.9099859,25.6519451 31.927841,25.6749448 L34.2483911,28.154072 L35.1532483,27.3064114 L33.5847283,25.6328795 L35.4483105,25.2379502 Z" id="Path" fill-rule="nonzero"></path>
                                    </g>
                                </g>
                            </g>
                        </g>
                    </g>
                </g>
            </g>
        </g>
    </g>
</svg>