<?xml version="1.0" encoding="UTF-8"?>
<svg width="39px" height="37px" viewBox="0 0 39 37" version="1.1" xmlns="http://www.w3.org/2000/svg" xmlns:xlink="http://www.w3.org/1999/xlink">
    <!-- Generator: sketchtool 58 (101010) - https://sketch.com -->
    <title>CC6500E6-14A7-4809-A6AE-D792CA420AD0</title>
    <desc>Created with sketchtool.</desc>
    <g id="LOT-1" stroke="none" stroke-width="1" fill="none" fill-rule="evenodd">
        <g id="HOMEPAGE-T1_V1" transform="translate(-735.000000, -1371.000000)" fill="#C8CCD7">
            <g id="EN-BREF" transform="translate(172.000000, 909.000000)">
                <g id="POURQUOI-Copy" transform="translate(560.000000, 381.000000)">
                    <g id="IMPORTATEUR" transform="translate(3.000000, 74.000000)">
                        <g id="01-Electrons/Importateur" transform="translate(-0.000000, 7.000000)">
                            <g id="airplane-around-earth">
                                <path d="M38.7739726,17.8456575 C38.7739726,26.7504932 32.2057757,34.1499863 23.659726,35.4546798 C23.7318253,35.059464 23.752036,34.6501832 23.7035051,34.2354538 C23.7035051,34.2354538 23.6524401,33.7990565 23.5856627,33.2279007 C26.6198527,32.7109777 29.3592466,31.318726 31.5305257,29.3164812 C31.4002021,29.2080788 31.2703853,29.0674914 31.1424058,28.8808442 C30.565738,28.039411 31.3198031,27.2045034 31.3198031,26.4686849 C31.3198031,25.7469315 29.8647021,25.8062962 29.8114195,25.328274 C29.6275599,23.6727774 30.8273356,23.6502226 31.4669795,23.0105788 C32.1066233,22.3709349 30.8347483,20.9167209 30.0132089,21.0105514 C29.1860942,21.0988699 26.8579452,20.6285771 27.0706952,18.8473185 C27.3298853,16.6778134 24.3066558,16.8692123 23.8737432,15.8565908 C23.2426524,14.3805822 24.2917671,12.5701164 25.6601336,12.1588082 C27.5983253,11.5762483 29.5076901,9.99506849 29.3585497,8.23490753 C29.1895788,6.24140582 28.2872603,4.44354795 26.8011147,3.37555308 C25.2545908,2.74902397 23.5869932,2.36160103 21.8422911,2.26384247 C20.2851866,2.32542466 18.9161866,2.67147603 18.9786558,3.38435959 C19.1317877,5.13134247 24.0996079,5.58509932 23.2659675,7.21816781 C22.8313442,8.06948459 19.5695154,9.27103425 20.1786849,10.5380308 C20.5749144,11.3619777 21.5500291,10.6558099 21.1859846,12.2376233 C21.0184709,12.9654589 20.3802842,14.3330017 19.3988339,14.4212568 C18.3952089,14.5149606 17.5594777,11.8561558 14.8276866,11.7689777 C13.5362346,11.7276695 11.7168356,13.7839572 13.2617123,15.2427962 C14.1972295,16.1262346 15.9527654,14.1810103 16.4708921,15.7005445 C16.8360137,16.7713271 16.4217277,19.0207243 18.1258185,19.9608031 C18.7470257,20.3034966 19.6993322,20.6022209 20.6411849,21.0808134 C19.2432312,21.3662962 17.5255188,21.8989949 15.4971712,22.6803031 L13.7882021,22.2293973 C14.5036199,21.6338493 15.6660154,21.2146216 15.3735634,19.913286 C14.9439452,18.001387 11.6242723,18.7224435 9.33565753,16.4338921 C8.63354452,15.7319058 7.13599486,13.4008425 7.14214041,10.6002466 C6.00134932,12.7671541 5.35207534,15.2314555 5.35207534,17.8457209 C5.35207534,18.6504075 5.41346747,19.4410925 5.5315,20.2133408 C5.50457363,20.2128973 5.47796404,20.2082089 5.45110103,20.2082089 C4.7303613,20.2082089 4.02349658,20.3596301 3.36839384,20.6459366 C3.22368836,19.7332911 3.14645719,18.7985342 3.14645719,17.8457842 C3.14645719,8.0233613 11.1377603,0.0318047945 20.9601199,0.0318047945 C30.7826695,0.0318047945 38.7739726,8.02323459 38.7739726,17.8456575 Z M25.4114606,23.0378219 L21.0607928,25.0376592 L21.1282671,24.089661 L23.9467295,22.8173425 C23.5447346,22.7885788 23.1282312,22.7776182 22.7123613,22.7776182 C21.1551301,22.7776182 18.5241387,23.5658955 15.6141901,24.7209418 L6.28138356,22.259238 C5.4092226,22.0291284 4.48067466,22.1708562 3.71678938,22.6507791 L3.25790068,22.9390497 C2.80990925,23.2204777 2.80515753,23.8717791 3.24896747,24.1597962 L8.85909247,27.7994812 C7.51891952,28.4848682 6.24742466,29.1809623 5.1265274,29.8457586 L2.24775,28.3216627 C1.77752055,28.0727363 1.22157021,28.0432123 0.727708904,28.2410103 L0.455214041,28.3502363 C0.0488476027,28.5128716 -0.121390411,28.9961524 0.0933869863,29.3776199 L1.67925514,32.1951952 L1.67995205,32.1949418 C1.08161644,32.7097106 0.740633562,33.1366045 0.740633562,33.4320342 C0.740633562,34.3162329 1.82871233,34.5372192 2.78779795,34.5372192 C4.49841438,34.5372192 27.0891318,29.3647586 27.0891318,24.6786832 C27.0891318,23.7506421 26.4543031,23.2864949 25.4114606,23.0378219 Z M15.8866216,32.1870223 L20.8577363,30.4358579 C21.0766952,30.3586901 21.3106695,30.5046627 21.3376592,30.7352791 L21.7734863,34.4615719 C21.8823955,35.3927175 21.3815651,36.2887637 20.5314521,36.6839795 L20.065214,36.9006575 C19.7740291,37.0359863 19.4286113,36.9634435 19.2164315,36.7225 L15.735137,32.7678082 C15.5656592,32.5752055 15.644601,32.2722997 15.8866216,32.1870223 Z" id="Shape" fill-rule="nonzero"></path>
                            </g>
                        </g>
                    </g>
                </g>
            </g>
        </g>
    </g>
</svg>