<?xml version="1.0" encoding="UTF-8"?>
<svg width="37px" height="37px" viewBox="0 0 37 37" version="1.1" xmlns="http://www.w3.org/2000/svg" xmlns:xlink="http://www.w3.org/1999/xlink">
    <!-- Generator: sketchtool 58 (101010) - https://sketch.com -->
    <title>C444ABFB-BDFB-4E19-A187-F23E7124514D</title>
    <desc>Created with sketchtool.</desc>
    <g id="LOT-1" stroke="none" stroke-width="1" fill="none" fill-rule="evenodd">
        <g id="HOMEPAGE-T1_V1" transform="translate(-1025.000000, -1449.000000)" fill="#C8CCD7">
            <g id="EN-BREF" transform="translate(172.000000, 909.000000)">
                <g id="POURQUOI-Copy" transform="translate(560.000000, 381.000000)">
                    <g id="INDUSTRIEL" transform="translate(293.000000, 151.000000)">
                        <g id="01-Electrons/Industriel" transform="translate(0.000000, 8.000000)">
                            <g id="noun_assembly-line_207018">
                                <path d="M5.12367778,28.4012 C3.49937778,28.4012 2.25741111,29.6431667 2.25741111,31.2674667 C2.25741111,32.8917667 3.49937778,34.1341444 5.12367778,34.1341444 C6.74797778,34.1341444 7.98994444,32.8921778 7.98994444,31.2674667 C7.98994444,29.6427556 6.74838889,28.4012 5.12367778,28.4012 Z M5.12367778,32.2228889 C4.55058889,32.2228889 4.16825556,31.8405556 4.16825556,31.2674667 C4.16825556,30.6943778 4.55058889,30.3120444 5.12367778,30.3120444 C5.69717778,30.3120444 6.0791,30.6943778 6.0791,31.2674667 C6.0791,31.8405556 5.69717778,32.2228889 5.12367778,32.2228889 Z" id="Shape" fill-rule="nonzero"></path>
                                <path d="M13.7228889,28.4012 C12.0985889,28.4012 10.8566222,29.6431667 10.8566222,31.2674667 C10.8566222,32.8917667 12.0985889,34.1341444 13.7228889,34.1341444 C15.3471889,34.1341444 16.5891556,32.8921778 16.5891556,31.2674667 C16.5891556,29.6427556 15.3471889,28.4012 13.7228889,28.4012 Z M13.7228889,32.2228889 C13.1493889,32.2228889 12.7674667,31.8405556 12.7674667,31.2674667 C12.7674667,30.6943778 13.1498,30.3120444 13.7228889,30.3120444 C14.2959778,30.3120444 14.6783111,30.6943778 14.6783111,31.2674667 C14.6783111,31.8405556 14.2959778,32.2228889 13.7228889,32.2228889 Z" id="Shape" fill-rule="nonzero"></path>
                                <path d="M33.7871667,31.2674667 C33.7871667,29.6431667 32.5452,28.4012 30.9209,28.4012 C29.2966,28.4012 28.0546333,29.6431667 28.0546333,31.2674667 C28.0546333,32.8917667 29.2966,34.1341444 30.9209,34.1341444 C32.5452,34.1337333 33.7871667,32.8917667 33.7871667,31.2674667 Z M29.9654778,31.2674667 C29.9654778,30.6939667 30.3474,30.3120444 30.9209,30.3120444 C31.4944,30.3120444 31.8763222,30.6943778 31.8763222,31.2674667 C31.8763222,31.8405556 31.4939889,32.2228889 30.9209,32.2228889 C30.3478111,32.2228889 29.9654778,31.8405556 29.9654778,31.2674667 Z" id="Shape" fill-rule="nonzero"></path>
                                <path d="M22.3216889,28.4012 C20.6973889,28.4012 19.4554222,29.6431667 19.4554222,31.2674667 C19.4554222,32.8917667 20.6973889,34.1341444 22.3216889,34.1341444 C23.9459889,34.1341444 25.1879556,32.8921778 25.1879556,31.2674667 C25.1879556,29.6427556 23.9459889,28.4012 22.3216889,28.4012 Z M22.3216889,32.2228889 C21.7486,32.2228889 21.3662667,31.8405556 21.3662667,31.2674667 C21.3662667,30.6943778 21.7486,30.3120444 22.3216889,30.3120444 C22.8951889,30.3120444 23.2771111,30.6943778 23.2771111,31.2674667 C23.2771111,31.8405556 22.8947778,32.2228889 22.3216889,32.2228889 Z" id="Shape" fill-rule="nonzero"></path>
                                <path d="M30.9204889,22.9301333 L30.9204889,1.91084444 C30.9204889,0.860044444 30.0608556,0 29.0096444,0 L6.07951111,0 C5.02871111,0 4.16866667,0.860044444 4.16866667,1.91084444 L4.16866667,22.9301333 C4.16866667,23.9813444 5.02871111,24.8409779 6.07951111,24.8409779 L29.0100556,24.8409779 C30.0608556,24.8413889 30.9204889,23.9813444 30.9204889,22.9301333 Z M20.8885556,7.64378889 L14.2006,7.64378889 C13.4363444,7.64378889 12.7674667,6.97491111 12.7674667,6.21065556 C12.7674667,5.4464 13.4363444,4.77752222 14.2006,4.77752222 L20.8885556,4.77752222 C21.6528111,4.77752222 22.3216889,5.4464 22.3216889,6.21065556 C22.3216889,6.97491111 21.6528111,7.64378889 20.8885556,7.64378889 Z" id="Shape" fill-rule="nonzero"></path>
                                <path d="M30.9204889,25.5345222 L29.0096444,25.5345222 L6.07951111,25.5345222 L0.346566667,25.5345222 L0.346566667,26.4899444 L0.346566667,27.4453667 L30.9204889,27.4453667 C33.0225,27.4453667 34.7421778,29.1650444 34.7421778,31.2670556 C34.7421778,33.3690667 33.0220889,35.0887444 30.9204889,35.0887444 L0.346566667,35.0887444 L0.346566667,36.0441667 L0.346566667,37 L30.9204889,37 C34.0733,37 36.6530222,34.4206889 36.6530222,31.2674667 C36.6534333,28.1146556 34.0737111,25.5345222 30.9204889,25.5345222 Z" id="Path" fill-rule="nonzero"></path>
                            </g>
                        </g>
                    </g>
                </g>
            </g>
        </g>
    </g>
</svg>