<?xml version="1.0" encoding="UTF-8"?>
<svg width="30px" height="30px" viewBox="0 0 30 30" version="1.1" xmlns="http://www.w3.org/2000/svg" xmlns:xlink="http://www.w3.org/1999/xlink">
    <!-- Generator: sketchtool 58 (101010) - https://sketch.com -->
    <title>08C1959A-EF2D-42A0-84AB-D2A89567F5C3</title>
    <desc>Created with sketchtool.</desc>
    <g id="LOT-1" stroke="none" stroke-width="1" fill="none" fill-rule="evenodd">
        <g id="HOMEPAGE-T1_V1" transform="translate(-1155.000000, -3474.000000)" fill="#FFFFFF">
            <g id="SECTEURS" transform="translate(95.000000, 2974.000000)">
                <g transform="translate(104.000000, 70.000000)" id="Secteurs">
                    <g transform="translate(0.000000, 181.000000)">
                        <g id="CHARCUTERIE-Copy-9" transform="translate(933.000000, 205.000000)">
                            <g id="TEXTE" transform="translate(22.218579, 43.437158)">
                                <g id="01-Electrons/Secteurs/Industriel" transform="translate(0.781421, 0.562842)">
                                    <g id="apple-(2)">
                                        <path d="M14.5559692,21.4924622 C14.5328522,20.5217743 14.2737579,19.6005249 13.7919616,18.8420105 C13.3799743,18.1931305 12.8215027,17.6996613 12.1792603,17.4071503 C12.1959686,17.3931885 12.2115326,17.3792267 12.2254944,17.3652649 C13.2419586,16.3538361 13.0753327,14.6889496 13.0529022,14.5024109 L12.9833221,13.9215088 L12.4033356,13.8452912 C12.3571014,13.8393402 11.9361878,13.7876129 11.4015198,13.8459778 C10.6274414,13.9304352 9.98405455,14.2082977 9.54025266,14.6495819 C9.19418332,14.994278 8.98544309,15.414505 8.86116029,15.8264923 C8.36860658,15.3078461 7.67440793,14.9837494 6.90582275,14.9837494 L6.29219057,14.9837494 L6.29219057,16.7415619 L6.90582275,16.7415619 C7.27249148,16.7415619 7.59017941,16.9537354 7.74696352,17.2622681 C7.72590639,17.256546 7.70462039,17.2510529 7.68333434,17.2451019 C7.10563658,17.0777893 6.52404785,17.0565033 5.95504758,17.1819305 C5.03059389,17.3854065 4.21852113,17.9750061 3.66806027,18.8420105 C3.18237305,19.6071625 2.92282102,20.5375671 2.90336607,21.5171814 C3.068161,21.5009308 3.23524477,21.4924622 3.40415953,21.4924622 L14.5559692,21.4924622 Z" id="Path" fill-rule="nonzero"></path>
                                        <path d="M27.1289062,21.5192413 C27.109909,20.5389404 26.8503571,19.6076203 26.3642121,18.8420105 C25.9412384,18.1757355 25.3635407,17.6742554 24.6993255,17.3849487 C24.7066498,17.3783112 24.7144318,17.3719025 24.7210693,17.3652649 C25.7375336,16.3538361 25.5709076,14.6889496 25.5484772,14.5024109 L25.4788971,13.9215088 L24.8989105,13.8452912 C24.8526764,13.8393402 24.4317627,13.7876129 23.8970947,13.8459778 C23.1230163,13.9302063 22.4796295,14.2082977 22.0358276,14.6495819 C21.7062378,14.9775696 21.5016175,15.3742218 21.3757324,15.766983 C20.8872986,15.2831268 20.2169037,14.9837494 19.4780731,14.9837494 L18.8644409,14.9837494 L18.8644409,16.7415619 L19.4780731,16.7415619 C19.844513,16.7415619 20.1622009,16.9535065 20.3192139,17.2622681 C20.2979279,17.2563171 20.2766419,17.2510529 20.2555847,17.2451019 C19.6776581,17.0777893 19.0962982,17.0567321 18.5270691,17.1819305 C17.6028442,17.3854065 16.7907715,17.9750061 16.2403107,18.8420105 C15.7585144,19.6005249 15.4994202,20.5220032 15.4763031,21.4924622 L26.6043091,21.4924622 C26.7814636,21.4924622 26.9563294,21.5016175 27.1289062,21.5192413 Z" id="Path" fill-rule="nonzero"></path>
                                        <path d="M26.6043091,23.1916809 L3.40415953,23.1916809 C1.53167725,23.1916809 0.00846861328,24.7153473 0.00846861328,26.5882874 C0.00846861328,28.4612274 1.53167725,29.9848938 3.40415953,29.9848938 L26.6043091,29.9848938 C28.4767914,29.9848938 30,28.4612274 30,26.5882874 C30,24.7153473 28.4767914,23.1916809 26.6043091,23.1916809 Z M3.57582094,27.4603271 C3.08326723,27.4603271 2.71842955,27.0574951 2.69714355,26.5814209 C2.67585756,26.10672 3.11622621,25.7025146 3.57582094,25.7025146 C4.06837465,25.7025146 4.43321227,26.1051178 4.45449832,26.5814209 C4.47578432,27.0558929 4.03541566,27.4603271 3.57582094,27.4603271 Z M6.82685854,27.4603271 C6.3340759,27.4603271 5.96946715,27.0574951 5.94818115,26.5814209 C5.92689516,26.10672 6.36703488,25.7025146 6.82685854,25.7025146 C7.31941225,25.7025146 7.684021,26.1051178 7.70553586,26.5814209 C7.72659305,27.0558929 7.28645326,27.4603271 6.82685854,27.4603271 Z M10.0776673,27.4603271 C9.58511355,27.4603271 9.22027588,27.0574951 9.19898988,26.5814209 C9.17770383,26.10672 9.61807254,25.7025146 10.0776673,25.7025146 C10.570221,25.7025146 10.9350586,26.1051178 10.9563446,26.5814209 C10.9776306,27.0558929 10.537262,27.4603271 10.0776673,27.4603271 Z M13.3287048,27.4603271 C12.8359222,27.4603271 12.4713135,27.0574951 12.4500275,26.5814209 C12.4287415,26.10672 12.8691101,25.7025146 13.3287048,25.7025146 C13.8212585,25.7025146 14.1858673,26.1051178 14.2073822,26.5814209 C14.2284393,27.0558929 13.7880707,27.4603271 13.3287048,27.4603271 Z M16.5795135,27.4603271 C16.0869598,27.4603271 15.7221222,27.0574951 15.7008362,26.5814209 C15.6795502,26.10672 16.1199188,25.7025146 16.5795135,25.7025146 C17.0720672,25.7025146 17.4369049,26.1051178 17.4581909,26.5814209 C17.4794769,27.0558929 17.0391083,27.4603271 16.5795135,27.4603271 Z M19.8303223,27.4603271 C19.3377686,27.4603271 18.9731598,27.0574951 18.9516449,26.5814209 C18.9303589,26.10672 19.3707275,25.7025146 19.8303223,25.7025146 C20.3231048,25.7025146 20.6877136,26.1051178 20.7089996,26.5814209 C20.7302856,27.0558929 20.289917,27.4603271 19.8303223,27.4603271 Z M23.0813599,27.4603271 C22.5888062,27.4603271 22.2239685,27.0574951 22.2026825,26.5814209 C22.1813965,26.10672 22.6217651,25.7025146 23.0813599,25.7025146 C23.5739136,25.7025146 23.9387512,26.1051178 23.9600372,26.5814209 C23.9813232,27.0558929 23.5409546,27.4603271 23.0813599,27.4603271 Z M26.3321686,27.4603271 C25.8396149,27.4603271 25.4747772,27.0574951 25.4534912,26.5814209 C25.4322052,26.10672 25.8725739,25.7025146 26.3321686,25.7025146 C26.8247223,25.7025146 27.1895599,26.1051178 27.210846,26.5814209 C27.232132,27.0558929 26.7917633,27.4603271 26.3321686,27.4603271 Z" id="Shape" fill-rule="nonzero"></path>
                                        <polygon id="Path" fill-rule="nonzero" points="10.9215546 5.37780762 14.1174316 5.37780762 14.1174316 6.39518736 12.7574157 6.39518736 10.8535767 9.58305357 11.5335846 12.164154 13.2328034 11.7164612 12.7411652 9.85015869 13.7546539 8.15299986 16.2345886 8.15299986 17.2460174 9.84672545 16.7580414 11.6450501 18.4540558 12.1055603 19.1374969 9.58648682 17.2318268 6.39518736 15.8747864 6.39518736 15.8747864 5.37780762 19.0704346 5.37780762 19.0704346 1.7578125 29.9915314 1.7578125 29.9915314 0 5.68434189e-14 0 5.68434189e-14 1.7578125 10.9215546 1.7578125"></polygon>
                                    </g>
                                </g>
                            </g>
                        </g>
                    </g>
                </g>
            </g>
        </g>
    </g>
</svg>