<svg id="Calque_1" data-name="Calque 1" xmlns="http://www.w3.org/2000/svg" viewBox="0 0 27 27">
  <title>info</title>
  <g id="LOT-1">
    <g id="HOMEPAGE-T1_V1" data-name="HOMEPAGE-T1 V1">
      <g id="HEADER">
        <g id="Entrées-Rapides">
          <g id="Rectangle-Copy-10">
            <g id="Group-19">
              <g id="_01-Electrons_Infos" data-name="01-Electrons/Infos">
                <path id="Shape" d="M13.5,0A13.5,13.5,0,1,0,27,13.5,13.49,13.49,0,0,0,13.5,0Zm2.61,20.5c-.7.26-1.25.47-1.66.61a4.57,4.57,0,0,1-1.45.21,2.93,2.93,0,0,1-2-.6,1.91,1.91,0,0,1-.7-1.52,6.11,6.11,0,0,1,.05-.73c0-.25.1-.53.17-.85l.87-3c.08-.29.14-.56.2-.81a3.76,3.76,0,0,0,.08-.71,1.05,1.05,0,0,0-.25-.79,1.39,1.39,0,0,0-.93-.23,2.88,2.88,0,0,0-.69.1l-.6.2.23-.92c.57-.23,1.11-.42,1.63-.58a5,5,0,0,1,1.48-.24,2.87,2.87,0,0,1,1.93.59,1.93,1.93,0,0,1,.68,1.53c0,.12,0,.35,0,.68a4.64,4.64,0,0,1-.17.9l-.87,3c-.07.24-.13.51-.19.82a4.68,4.68,0,0,0-.08.69,1,1,0,0,0,.27.81,1.59,1.59,0,0,0,1,.22,2.8,2.8,0,0,0,.71-.11,4.34,4.34,0,0,0,.58-.19Zm.32-11.78a2.44,2.44,0,0,1-3,0,1.57,1.57,0,0,1,0-2.51,2.4,2.4,0,0,1,3,0,1.58,1.58,0,0,1,0,2.51Z" style="fill: #f85c29"/>
              </g>
            </g>
          </g>
        </g>
      </g>
    </g>
  </g>
</svg>
