<?xml version="1.0" encoding="UTF-8"?>
<svg width="27px" height="27px" viewBox="0 0 27 27" version="1.1" xmlns="http://www.w3.org/2000/svg" xmlns:xlink="http://www.w3.org/1999/xlink">
    <!-- Generator: sketchtool 58 (101010) - https://sketch.com -->
    <title>DB653828-A9EA-4A42-9B89-25BD02CF50C4</title>
    <desc>Created with sketchtool.</desc>
    <g id="LOT-1" stroke="none" stroke-width="1" fill="none" fill-rule="evenodd">
        <g id="HOMEPAGE-T1_V1" transform="translate(-778.000000, -749.000000)" fill="#F85C29" fill-rule="nonzero">
            <g id="HEADER" transform="translate(-1.000000, -2.000000)">
                <g id="Entrées-Rapides" transform="translate(173.000000, 716.000000)">
                    <g id="Rectangle-Copy-10" transform="translate(566.000000, 0.000000)">
                        <g id="Group-19" transform="translate(40.000000, 35.000000)">
                            <g id="01-Electrons/Infos">
                                <path d="M13.4994286,0 C6.04457143,0 0,6.04457143 0,13.4994286 C0,20.9542857 6.04457143,27 13.4994286,27 C20.9542857,27 27,20.9542857 27,13.4994286 C27,6.04457143 20.9542857,0 13.4994286,0 Z M16.1100267,20.4971476 C15.4149342,20.7637339 14.8616039,20.9658951 14.4466063,21.1058528 C14.0327518,21.2458106 13.551446,21.3157895 13.003832,21.3157895 C12.1624042,21.3157895 11.5073252,21.1158498 11.0408816,20.7170813 C10.5744379,20.3183127 10.3423593,19.8129097 10.3423593,19.1986506 C10.3423593,18.9598338 10.359508,18.7154631 10.3938053,18.4666493 C10.4292459,18.2178355 10.4852649,17.93792 10.5618622,17.6235704 L11.4318711,14.6378048 C11.5084685,14.3512246 11.5747766,14.0790845 11.6273659,13.8258276 C11.6799551,13.5703491 11.7051065,13.3359754 11.7051065,13.1227065 C11.7051065,12.7428211 11.6239361,12.4762349 11.4627387,12.3262801 C11.2992548,12.1763254 10.9917221,12.1030142 10.5332811,12.1030142 C10.3092052,12.1030142 10.0782699,12.1352267 9.84161833,12.202984 C9.60725325,12.2729629 9.40375577,12.3362771 9.23684211,12.3984806 L9.4666342,11.4787581 C10.0359699,11.2532706 10.5812974,11.0599956 11.1014735,10.9000439 C11.6216497,10.7378706 12.1132447,10.6578947 12.5762586,10.6578947 C13.4119702,10.6578947 14.05676,10.8556128 14.5106279,11.246606 C14.9622094,11.6387099 15.189715,12.148556 15.189715,12.7750336 C15.189715,12.9049944 15.1737096,13.1338142 15.142842,13.4603823 C15.1119744,13.7880612 15.053669,14.0868599 14.9690689,14.3612216 L14.103633,17.338101 C14.0327518,17.5769178 13.9698734,17.8501687 13.9127112,18.155632 C13.8566922,18.4610954 13.8292544,18.6943584 13.8292544,18.8509778 C13.8292544,19.246414 13.9195706,19.5163325 14.1024897,19.6596226 C14.2831223,19.8029127 14.599801,19.8751131 15.0479527,19.8751131 C15.2594529,19.8751131 15.4961045,19.8384575 15.7636237,19.7673679 C16.0288563,19.6962782 16.2209214,19.632964 16.3421053,19.578536 L16.1100267,20.4971476 Z M16.4281225,8.71940731 C16.012176,9.06436384 15.5113904,9.23684211 14.9257659,9.23684211 C14.3413197,9.23684211 13.8369992,9.06436384 13.4175177,8.71940731 C13.0003928,8.37445078 12.7894737,7.95482378 12.7894737,7.4647331 C12.7894737,6.97569412 13.0015711,6.55501542 13.4175177,6.2069038 C13.8369992,5.85774049 14.3413197,5.68421053 14.9257659,5.68421053 C15.5113904,5.68421053 16.0133543,5.85774049 16.4281225,6.2069038 C16.8440691,6.55501542 17.0526316,6.97569412 17.0526316,7.4647331 C17.0526316,7.95587548 16.8440691,8.37445078 16.4281225,8.71940731 Z" id="Shape"></path>
                            </g>
                        </g>
                    </g>
                </g>
            </g>
        </g>
    </g>
</svg>