<?xml version="1.0" encoding="UTF-8"?>
<svg width="70px" height="70px" viewBox="0 0 70 70" version="1.1" xmlns="http://www.w3.org/2000/svg" xmlns:xlink="http://www.w3.org/1999/xlink">
    <!-- Generator: sketchtool 58 (101010) - https://sketch.com -->
    <title>7086DDC6-8A5A-48B7-992B-C5F542422508</title>
    <desc>Created with sketchtool.</desc>
    <g id="LOT-1" stroke="none" stroke-width="1" fill="none" fill-rule="evenodd">
        <g id="HOMEPAGE-T1_V1" transform="translate(-486.000000, -1653.000000)">
            <g id="EN-BREF" transform="translate(172.000000, 909.000000)">
                <g id="CHIFFRES" transform="translate(0.000000, 741.000000)">
                    <g id="03" transform="translate(314.000000, 0.000000)">
                        <g id="01-Electrons/Internationaux" transform="translate(0.000000, 3.000000)">
                            <g id="PICTO">
                                <circle id="Oval" fill="#FFDB38" cx="35" cy="35" r="35"></circle>
                                <g id="WORLD" transform="translate(15.000000, 16.000000)" fill-rule="nonzero">
                                    <path d="M34.0001475,14.2228125 C33.387683,14.5347222 33.5630882,14.5271796 33.387683,14.5347222 C33.0649762,14.5480327 31.8904399,14.6593973 32.0949178,14.5347222 C32.2984266,14.4096034 32.4481509,14.234792 32.4859453,14.0981374 C32.4990281,14.0528817 32.5198635,13.9463976 32.4859453,13.9113466 C32.319262,13.7365352 31.728602,13.8425756 31.4829378,13.7871151 C31.28912,13.7427468 30.9300724,13.5692664 30.7333472,13.5373212 C30.5656947,13.5102565 30.2202144,13.5093691 30.0530465,13.5373212 C29.5685018,13.6180716 28.4196463,14.0981374 28.6241242,14.7840724 C28.828602,15.4700074 29.0103063,15.7397671 29.3301058,15.8435891 C29.5006655,15.8990496 29.885394,15.780586 30.0530465,15.8435891 C30.2308744,15.911029 30.4532804,16.2247134 30.5971902,16.3422896 C30.6785937,16.4083985 30.834617,16.5583635 30.9378251,16.5916398 C31.0013004,16.612493 31.1621693,16.5481588 31.2096546,16.5916398 C31.2581091,16.6364519 31.1621693,16.7970654 31.2096546,16.8414338 C31.3545335,16.9732078 31.8221191,16.8414338 32.026597,16.8414338 C32.162754,16.8414338 32.4355527,16.8414338 32.5717098,16.8414338 C32.7078668,16.8414338 32.9806655,16.8414338 33.1168225,16.8414338 C33.3203313,16.8414338 33.729287,16.8414338 33.9337649,16.8414338 C34.0190447,16.8414338 34.1881508,16.8414338 34.2724616,16.8414338 C34.4430213,16.8414338 34.8335644,16.9510236 34.9537314,16.8414338 C35.0501558,16.7531407 34.9537314,16.4669647 34.9537314,16.3427333 C34.9537314,16.2650886 34.9537314,16.1093556 34.9537314,16.0312673 C34.9537314,15.8790838 34.7918935,15.4575843 34.9537314,15.4225333 C35.0230213,15.407448 35.0719603,15.4646832 35.2933973,15.1895993 C35.7701892,14.5977253 35.810891,14.7783045 35.7701892,14.5977253 C35.7445084,14.4810365 36.152495,14.4925722 36.2469812,14.4104907 C36.3700556,14.3044503 36.5188108,13.9126776 36.2469812,13.7880025 C35.9741826,13.6628837 35.8389946,13.600768 35.7018684,13.5382086 C35.3452436,13.3753767 34.2046254,12.8527173 34.2046254,13.0399518 C34.2046254,13.2262989 34.1372736,13.5382086 34.1372736,13.7254431 C34.1372736,13.9113466 34.6135811,13.9109029 34.0001475,14.2228125 Z" id="Path" fill="#FFD138"></path>
                                    <path d="M20.15,39 C31.2604252,39 40.3,30.2525014 40.3,19.5 C40.3,8.74702155 31.2604252,0 20.15,0 C9.03957482,0 0,8.74702155 0,19.5 C0,30.2525014 9.03957482,39 20.15,39 Z M39.4688994,19.5 C39.4688994,19.9250434 39.4486887,20.3448394 39.4196052,20.7622502 C39.1751058,20.7903956 38.9074382,20.8905742 38.7763155,20.9158573 C38.4297771,20.9831201 38.7763155,20.9158573 38.5682939,20.9158573 C38.3612582,20.9158573 38.2641485,21.1295716 38.1532365,21.1844313 C38.0442963,21.2364288 37.7855016,21.214962 37.6691673,21.1844313 C37.5380446,21.1491303 37.321643,20.9831201 37.321643,20.7818088 C37.321643,20.5809746 36.7680688,20.5137119 36.2830137,20.1120434 C35.7989444,19.709898 36.024219,19.6087653 36.0759779,19.441801 C36.101118,19.360227 36.0375284,19.1884923 36.0064731,19.1088265 C35.9197152,18.8750764 35.7742973,18.2711427 35.5214179,18.2358417 C35.4252942,18.2220075 35.307481,18.4314284 35.2448773,18.5044157 C35.11129,18.6589769 34.760808,19.1741811 34.6903173,19.1093035 C34.6208124,19.0429948 34.5971512,19.8782934 34.6903173,20.1129975 C34.8105952,20.4130562 35.221709,20.9783497 35.5214179,21.1181227 C35.66585,21.1853854 35.5214179,21.1181227 35.9374612,21.5865768 C36.3525185,22.055985 36.2554089,22.1308804 36.4225163,22.2563422 C36.5994826,22.3903907 37.1688309,22.1633192 37.321643,22.323605 C37.4631174,22.4714876 37.3852325,22.9366025 37.321643,23.1278959 C37.2496734,23.3454265 36.9760905,23.5973041 36.7680688,23.864924 C36.5600472,24.1334981 36.4456846,24.1053526 36.3520256,24.2002838 C36.0823862,24.4793527 36.0064731,25.4735059 35.9369682,25.6743401 C35.8664775,25.8756513 35.4528989,27.5510189 35.3833941,27.7518531 C35.3138892,27.9526873 35.1783301,28.1062945 35.1058676,28.2207843 C34.8007364,28.6992563 34.3501871,29.7411136 34.0672383,30.2310346 C33.7487976,30.7824938 32.8205874,32.1744991 32.6825635,32.3753333 C32.5445397,32.5761675 32.3513064,32.7364533 32.1975084,32.7774788 C31.8973066,32.8576216 31.2308486,32.9096191 30.9508575,32.7774788 C30.6743169,32.6472466 30.3055961,32.1158231 30.1902476,31.8391394 C29.9358894,31.2309122 30.0196896,29.874685 29.9127211,29.2259094 C29.8481457,28.8371211 29.6199134,28.0781491 29.5671686,27.6879296 C29.5016073,27.2042102 29.4966778,26.1466106 29.4286518,25.7444651 C29.359147,25.3423196 29.3833011,25.4334344 29.4286518,25.3423196 C29.5538591,25.0856716 28.8045869,24.6048144 28.5965653,24.5380287 C28.3895296,24.471243 28.3895296,24.2694547 28.112496,24.0018348 C27.8359554,23.7332608 27.5904702,23.9040414 27.4204051,23.934572 C27.2316082,23.968919 26.8505639,23.876373 26.6588094,23.8673092 C26.3640299,23.8544291 25.7468662,23.9889547 25.4811703,23.8673092 C25.014354,23.654549 24.4578222,22.7391076 24.1660004,22.3264672 C24.0348778,22.1404213 23.819462,21.7234875 23.7499572,21.5221763 C23.6814382,21.320865 23.5429214,20.7684517 23.4724307,20.5170512 C23.3915882,20.2308266 23.0987805,19.6726888 23.1268782,19.3774005 C23.1594124,19.0258214 23.5419356,18.5731096 23.888474,18.1714412 C24.2330406,17.7692957 24.3957115,17.7535533 24.5805649,17.6352472 C24.8773161,17.4468161 24.8580913,17.3671502 25.6191942,16.6973848 C26.3807899,16.0280965 25.6191942,16.6973848 25.6191942,16.3625021 C25.6191942,16.0271424 25.3968772,15.8907087 25.4806774,15.7590454 C25.5536328,15.6440786 25.4806774,15.7590454 25.2031509,15.2901142 C24.9266103,14.8216601 24.9670316,15.0053208 24.8575984,14.9552315 C24.5342283,14.8078259 25.3416677,13.8833207 25.4111725,13.6820094 C25.4816633,13.4811752 25.7567251,13.6820094 26.1727683,13.4811752 C26.5888116,13.280341 26.4848007,13.4692492 26.5888116,13.4811752 C26.8007767,13.5064584 26.7707072,12.882966 26.7958473,12.6768843 C26.8047203,12.6100986 26.8170438,12.4722338 26.7958473,12.4083103 C26.7504966,12.2709225 26.5828962,12.0052108 26.4502948,11.9393791 C26.3107921,11.8702082 26.0352374,11.9393791 25.8272158,11.8721163 C25.6191942,11.8058077 25.3421606,11.7380679 25.134139,11.6040194 C24.9261174,11.4699709 24.7742912,11.145106 24.8575984,11.0005627 C25.0163258,10.7262642 25.8272158,10.5984172 26.0352374,10.4648458 C26.2422732,10.3312743 26.0352374,10.0627003 26.0352374,9.86186609 C26.0352374,9.66055484 26.8160579,9.60187881 27.0728808,9.66055484 C27.2616777,9.70348851 27.6639186,9.83610588 27.7659576,9.99496049 C27.847786,10.1237615 27.7304658,10.4514886 27.7659576,10.5984172 C27.8014495,10.7443917 27.9044744,11.0659173 28.0415123,11.1346112 C28.1346784,11.1813612 28.3525589,11.0768892 28.4575556,11.0673484 C28.5314969,11.0616239 28.4575556,11.0673484 28.6655772,10.8665142 C28.8735988,10.66568 28.85536,10.502532 28.9435966,10.397583 C29.0155662,10.3098075 29.2457702,10.222509 29.358654,10.1962717 C29.5607603,10.1499988 29.981733,10.1867309 30.1897546,10.1962717 C30.3815092,10.2048585 30.7595959,10.2735524 30.9503645,10.2635345 C31.0987401,10.2559019 31.2969029,10.1962717 31.5049245,10.0627003 C31.7129462,9.92912885 32.4050371,9.59376911 32.6130587,9.39245786 C32.8200944,9.19114661 32.8200944,8.6554297 32.7515755,8.45411845 C32.6820706,8.25328424 32.7594625,8.2528072 32.7515755,8.18602148 C32.7323507,8.02907503 32.3587005,7.87594491 32.1970154,7.85113878 C32.055541,7.82967194 31.7647051,7.91076889 31.6434413,7.98518727 C31.4354197,8.11208014 31.1603579,8.52615163 31.0203623,8.72173839 C30.9405057,8.83288891 30.8557196,9.11148078 30.7428358,9.19066957 C30.6713592,9.24075886 30.4860129,9.2493456 30.3972833,9.25793233 C30.1217286,9.28512366 29.5647039,9.27701397 29.2881633,9.25793233 C29.0446498,9.2412359 28.4802309,9.30372826 28.3195318,9.12483793 C28.2869976,9.0871517 28.3195318,9.02036598 28.3195318,8.927343 C28.3195318,8.91780219 28.3195318,8.89013382 28.3195318,8.85674095 C28.3195318,8.83432003 28.3195318,8.81142207 28.3195318,8.78566186 C28.3195318,8.69216185 28.2983352,8.63348582 28.3195318,8.58864398 C28.4338944,8.35155466 29.0032427,8.13784035 29.1506324,7.91840155 C29.2871774,7.71422805 29.2718962,7.17278665 29.4281589,6.98053918 C29.8082173,6.50683759 31.0878954,6.14667172 31.5744294,5.7741028 C31.7765357,5.61954155 32.1915931,5.35144458 32.4341207,5.08048536 C36.7281405,8.51327152 39.4688994,13.7025222 39.4688994,19.5 Z M24.6584497,1.32283436 C24.6594356,1.36004355 24.6584497,1.39439049 24.6505627,1.41919661 C24.5608472,1.71591604 24.1664934,2.15622477 23.819462,2.35705898 C23.4729236,2.55837023 23.8012232,2.91090344 23.819462,3.09456418 C23.8505174,3.41656677 23.5256685,4.03528879 23.3353928,4.30052352 C23.0889216,4.64065367 22.2262727,5.23886293 22.0887418,5.44017418 C21.9512109,5.64100839 21.6342491,5.90624312 21.4656628,6.04315385 C21.2290506,6.23492429 20.7030812,6.64661056 20.4960455,6.78018201 C20.2880238,6.9142305 19.8719806,7.24911319 19.3617854,8.1874526 C18.8515901,9.12531497 18.6943416,8.9564425 18.4877988,8.79090931 C18.1910475,8.55334296 17.1223488,8.273797 17.2411478,7.91935563 C17.2948785,7.75668469 17.2411478,7.91935563 16.6875737,7.49478925 C16.1339996,7.0706999 16.0955501,6.359909 16.2025185,5.97589109 C16.2429398,5.83087066 16.4268073,5.58090124 16.480045,5.44017418 C16.6042665,5.11578638 16.5456063,4.3119725 16.8265834,4.09921227 C16.9853108,3.97804389 16.8265834,4.09921227 16.5490569,3.36218411 C16.2715304,2.62515596 15.5986643,2.88418915 15.3714179,2.62515596 C15.3028989,2.54787533 15.3975439,2.31603347 15.4419087,2.22348754 C15.4966252,2.10422732 15.6933092,1.91531913 15.7874612,1.82086503 C15.9590051,1.6500844 16.3277259,1.34764048 16.496805,1.1425129 C17.6798664,0.922597059 18.9008844,0.80333684 20.1495071,0.80333684 C21.7027681,0.804290922 23.2116643,0.986520537 24.6584497,1.32283436 Z M8.18924946,4.83385522 C8.30755559,4.83385522 8.49142305,4.83385522 8.79408959,4.83385522 C9.83271889,4.83385522 9.41815446,4.83385522 9.97074272,4.76659246 C10.5243169,4.69885266 10.5445275,4.62014091 10.7333244,4.56528121 C10.966486,4.49706436 10.7333244,4.56528121 11.7029418,4.49801845 C12.6725591,4.43075568 11.7029418,4.49801845 12.0889155,4.43075568 C12.4748893,4.36396996 12.5335494,4.29670719 12.7415711,4.43075568 C12.9486068,4.56480417 13.3720442,4.3749419 13.5726717,4.43075568 C13.8674511,4.51376079 14.2647626,5.10052108 14.4037723,5.30183233 C14.542782,5.50314358 15.0948773,6.10612325 15.3038848,6.50779167 C15.5119065,6.90993713 15.3038848,6.50779167 14.8188297,6.84267436 C14.3347604,7.1780341 14.5413032,7.11124838 14.3337745,7.11124838 C14.1267388,7.11124838 13.7447085,7.12746777 13.5731646,7.04398562 C13.4228172,6.9714754 13.253738,6.65805954 13.109306,6.57505443 C12.8781161,6.44148299 12.6405179,6.1767253 12.0899014,6.24017173 C11.9725812,6.25305184 11.7970937,6.43671258 11.7039276,6.50826871 C11.5594956,6.61846515 11.290842,6.8641412 11.1493676,6.97719989 C10.9807814,7.11124838 10.6026947,7.33688871 10.4572767,7.4943122 C10.3069293,7.65746019 10.1107383,8.04958779 9.90370257,8.18315923 C9.69568095,8.31673068 9.97320743,8.87534555 10.1107383,9.05471292 C10.2127774,9.18685324 10.4350943,9.4663992 10.5957935,9.52316706 C10.8412787,9.61094258 11.4259082,9.45638134 11.6334369,9.38911858 C11.8414585,9.32185581 11.9109634,9.32185581 12.3265137,9.12054456 C12.7425569,8.91971035 12.3265137,9.12054456 12.6040402,8.91971035 C12.8805808,8.71887614 12.9624092,8.62489909 13.109306,8.58482765 C13.3883113,8.51040928 13.9980808,8.47844754 14.2657485,8.58482765 C14.4466583,8.65686083 14.6941153,8.97600117 14.8193226,9.12054456 C15.0958632,9.43825379 15.3043778,9.79126404 15.9959757,10.3269809 C16.6880666,10.8626978 16.7585574,11.3321061 16.8970741,11.6006801 C17.0355909,11.8687771 16.8275693,12.404971 16.6890525,12.6048511 C16.5505358,12.8061624 16.2547704,13.0537466 16.0659735,13.1415221 C15.3842344,13.4563691 14.3337745,13.6104533 13.109306,13.7445018 C11.8858233,13.8785503 13.0881095,14.213433 13.109306,14.3479585 C13.1314884,14.48153 11.9799753,15.286775 11.3568963,15.7547521 C10.7338173,16.2236832 11.3568963,15.7547521 11.1488747,15.8224919 C10.940853,15.8897546 10.7338173,16.2241603 10.5257957,16.4254715 C10.3177741,16.6267828 10.3177741,17.3638109 10.1097524,17.4978594 C9.90271669,17.6319079 9.14013504,17.8327421 8.93211341,17.8327421 C8.72507767,17.8327421 8.51804193,17.8327421 8.37952516,17.8327421 C8.24100839,17.8327421 8.03298677,17.8327421 7.82496514,17.8327421 C7.61694351,17.8327421 7.4523008,17.7874232 7.33990997,17.8327421 C7.18216846,17.8966656 6.92090907,18.1490202 6.85485481,18.3016733 C6.82232062,18.3789539 6.81837708,18.5611836 6.85485481,18.636556 C6.95097855,18.8297576 7.38526066,19.0272525 7.5479316,19.1722729 C7.94573599,19.5257602 8.86408738,20.5132348 9.00260415,20.713592 C9.14112092,20.9149032 9.52265822,21.6380972 9.83370477,21.7859799 C10.1447513,21.9333855 10.8713482,21.7859799 11.2183795,21.7859799 C11.4357671,21.7859799 11.8730068,21.7606967 12.0899014,21.7859799 C12.4970717,21.8327299 13.2271192,22.0535998 13.7072449,22.0535998 C14.1868777,22.0535998 14.4003217,22.2763779 14.5417961,22.4562223 C14.72172,22.686156 14.8193226,22.8583678 15.5123994,23.1259877 C16.2035044,23.3945617 16.2882905,23.5658194 16.5357475,23.7294444 C16.8842577,23.9598552 17.8652127,24.2656384 18.0732343,24.3992098 C18.281256,24.5327813 18.5582895,25.6051692 18.904335,26.1418402 C19.2498875,26.6780341 19.5274139,27.1469653 19.2508734,27.749945 C18.9733469,28.3529246 19.4579091,28.5542359 19.2508734,28.7550701 C19.0428517,28.9554273 19.0428517,29.1572155 18.4892776,29.9610294 C17.9347176,30.7653204 17.7962008,31.3683 17.5891651,31.4350857 C17.3811434,31.5018715 15.9151332,32.4468894 16.1344925,32.9096191 C16.2577281,33.1686523 16.1344925,32.9096191 15.2353659,33.6466473 C14.3352533,34.3836754 14.4727842,34.3164127 14.0577268,34.5177239 C13.6416836,34.7185581 13.6870343,35.4622648 13.7111884,35.791423 C13.7333708,36.1043619 13.6594295,36.677765 13.706259,37.120936 C13.4405632,37.0298212 13.1778249,36.9320278 12.9165656,36.829464 C12.9224809,36.4745456 12.8549478,36.0433006 12.810583,35.791423 C12.742064,35.3888005 11.9794823,32.3734252 11.9794823,32.0385425 C11.9794823,31.7031827 11.4712589,31.4598919 11.3564034,31.2337745 C11.2119713,30.948027 11.3564034,30.2792157 11.3564034,29.9610294 C11.3564034,29.793111 11.4313306,29.4415319 11.3564034,29.290787 C11.308095,29.1939477 11.0897216,29.0966314 11.009865,29.022213 C10.6736784,28.7140446 10.027924,28.0604986 9.78046701,27.6822052 C9.67941385,27.528598 9.60152898,27.1565061 9.48667343,27.0119627 C9.36738141,26.8607408 8.94197226,26.7190596 8.86359444,26.5430315 C8.75366832,26.2959244 8.93211341,25.8732661 8.93211341,25.4711207 C8.93211341,25.0689752 9.14013504,25.0021895 9.57638892,24.4659955 C10.0126428,23.9302786 9.62568315,24.1311129 9.55617829,23.9302786 C9.48568755,23.7289674 9.62568315,23.5949189 9.55617829,23.3940847 C9.48568755,23.1927734 9.05189838,22.7286127 8.86408738,22.523008 C8.74183771,22.3899136 8.52050664,22.1003498 8.3800181,21.9868141 C8.03939501,21.7129926 7.22258972,21.3547349 6.85485481,21.1162145 C6.54775179,20.9153803 5.96410818,20.4745945 5.67820168,20.2451379 C5.26511608,19.9102552 4.44880373,19.2237933 4.08599824,18.8373902 C3.96966387,18.7133596 3.79220466,18.4204565 3.67094087,18.3016733 C3.47080632,18.1060866 2.91821807,17.866612 2.76984245,17.6314309 C2.50809012,17.2092497 2.46766886,16.1793184 2.42428994,15.6884434 C2.38288279,15.2209433 2.46964063,14.2792646 2.42428994,13.8117646 C2.39175576,13.4697263 2.47062651,12.6916726 2.35034861,12.2318052 C3.62657607,9.31326908 5.65355457,6.77445752 8.18924946,4.83385522 Z" id="Shape" fill-opacity="0.7" fill="#FFFFFF"></path>
                                </g>
                            </g>
                        </g>
                    </g>
                </g>
            </g>
        </g>
    </g>
</svg>