<?xml version="1.0" encoding="UTF-8"?>
<svg width="33px" height="30px" viewBox="0 0 33 30" version="1.1" xmlns="http://www.w3.org/2000/svg" xmlns:xlink="http://www.w3.org/1999/xlink">
    <!-- Generator: sketchtool 58 (101010) - https://sketch.com -->
    <title>E095D652-1713-431D-9B3B-E3E4978C3ACF</title>
    <desc>Created with sketchtool.</desc>
    <g id="LOT-1" stroke="none" stroke-width="1" fill="none" fill-rule="evenodd">
        <g id="HOMEPAGE-T1_V1" transform="translate(-455.000000, -3475.000000)" fill="#FFFFFF">
            <g id="SECTEURS" transform="translate(95.000000, 2974.000000)">
                <g transform="translate(104.000000, 70.000000)" id="Secteurs">
                    <g transform="translate(0.000000, 181.000000)">
                        <g id="CHARCUTERIE-Copy-12" transform="translate(233.000000, 205.000000)">
                            <g id="TEXTE" transform="translate(22.240437, 44.459016)">
                                <g id="01-Electrons/Secteurs/Lait" transform="translate(0.759563, 0.540984)">
                                    <g id="PICTO">
                                        <g id="eggs" transform="translate(13.758621, 6.879310)" fill-rule="nonzero">
                                            <path d="M0,14.9179211 C0,17.2583567 0.795916503,19.2166722 2.30234386,20.5807568 C3.63635605,21.7888658 5.43147856,22.4540676 7.35691486,22.4540676 C10.0923014,22.4540676 12.7843838,20.9765097 13.8497491,18.3850698 C14.5209653,16.7523383 14.478062,14.9459887 14.3657917,13.2166246 C14.2515165,11.4595938 13.9636233,9.70737457 13.4888801,8.01088958 C12.200578,3.40259317 9.75549043,-1.0658141e-14 7.21497307,-1.0658141e-14 C3.50604227,-1.0658141e-14 0,7.24985707 0,14.9179211 L0,14.9179211 Z M2.28550331,16.7230678 C2.207716,16.8012561 2.10466787,16.8405507 2.0020207,16.8405507 C1.89937354,16.8405507 1.79672637,16.8012561 1.7185381,16.7230678 C1.20008972,16.2046194 1.20008972,15.5398186 1.20008972,14.8357232 C1.20008972,14.6139893 1.37972226,14.4347577 1.60105521,14.4347577 C1.82238816,14.4347577 2.0020207,14.6139893 2.0020207,14.8357232 C2.0020207,15.5169636 2.01445063,15.8850499 2.28550331,16.1561026 C2.44268178,16.3128801 2.44268178,16.5662903 2.28550331,16.7230678 Z M7.21417114,20.4680855 C7.204147,20.683003 7.02692026,20.8502056 6.81400758,20.8502056 C6.80759213,20.8502056 6.80117668,20.8502056 6.79476124,20.8498046 C5.14839692,20.7720173 3.61550585,19.858217 2.47836771,18.277611 C2.34925682,18.0979785 2.3901553,17.847375 2.56978784,17.7178632 C2.74942038,17.5883513 3.00002382,17.6288488 3.12953567,17.8092833 C4.12072237,19.1874017 5.43548822,19.9825163 6.83245199,20.0486756 C7.05418591,20.0591007 7.22459624,20.2471535 7.21417114,20.4680855 L7.21417114,20.4680855 Z" id="Shape"></path>
                                            <path d="M16.6982079,21.4801224 C18.7359146,20.1633517 19.2872421,17.7691868 19.2375224,15.4840844 C19.1801843,12.8477363 18.6757697,10.1640743 17.6440855,7.73141663 C16.895082,5.9655646 15.4383744,3.20772394 13.1773299,3.20772394 C12.943968,3.20772394 12.7090023,3.24180601 12.4740365,3.30916821 C12.6280072,3.26506201 13.5169477,5.53171993 13.5995466,5.74543454 C14.5662744,8.24705825 15.0137519,10.8545368 15.1977951,13.5197545 C15.3140751,15.9909048 15.1360464,18.4039151 13.5758896,20.4303947 C13.0389969,21.1276737 12.3669787,21.7379432 11.5530187,22.2106815 C13.2956148,22.6858256 15.2282684,22.4304106 16.6982079,21.4801224 L16.6982079,21.4801224 Z" id="Path"></path>
                                        </g>
                                        <g id="milk-bottle" fill-rule="nonzero">
                                            <path d="M12.0722354,3.70778316 C13.0449101,3.65685054 13.8200257,2.85239352 13.8200257,1.85867869 C13.8200257,0.83212206 12.9950237,0 11.9773188,0 L2.76400514,0 C1.74630029,0 0.921298256,0.83212206 0.921298256,1.85867869 C0.921298256,2.85239352 1.69641388,3.65685054 2.66908852,3.70772749 C2.09384964,8.95523426 0,9.30090809 0,14.5791971 L0,25.7119538 C0,27.2493395 1.23987596,28.5 2.76400514,28.5 L11.977374,28.5 C13.5015032,28.5 14.7413791,27.2493395 14.7413791,25.7119538 L14.7413791,14.5791971 C14.7413791,9.2920575 12.6488539,8.96831532 12.0722354,3.70778316 Z M6.7690451,11.489452 C5.49280283,10.6311678 3.979269,10.3074257 2.54255141,10.4866639 C2.70942808,10.0094003 2.90328976,9.54193347 3.12750269,9.08955164 C3.8770129,7.57654678 4.34315284,5.51731048 4.52211482,3.71735738 L10.2192643,3.71735738 C10.3981711,5.51731048 10.864311,7.57654678 11.6138764,9.08955164 C11.9261632,9.71950183 12.1832106,10.3775624 12.3836392,11.0528231 C11.7082964,11.390871 9.49000666,13.319241 6.7690451,11.489452 Z" id="Shape"></path>
                                        </g>
                                    </g>
                                </g>
                            </g>
                        </g>
                    </g>
                </g>
            </g>
        </g>
    </g>
</svg>