<?xml version="1.0" encoding="UTF-8"?>
<svg width="36px" height="36px" viewBox="0 0 36 36" version="1.1" xmlns="http://www.w3.org/2000/svg" xmlns:xlink="http://www.w3.org/1999/xlink">
    <!-- Generator: sketchtool 59.1 (101010) - https://sketch.com -->
    <title>8BD28130-B986-441E-878B-2D78858436F6</title>
    <desc>Created with sketchtool.</desc>
    <g id="LOT-2" stroke="none" stroke-width="1" fill="none" fill-rule="evenodd">
        <g id="02-Hub-Exposant" transform="translate(-228.000000, -2523.000000)" fill="#F85C29" fill-rule="nonzero">
            <g id="PLUS" transform="translate(0.000000, 2266.000000)">
                <g id="Group-12" transform="translate(138.000000, 239.000000)">
                    <g id="Group-5">
                        <g id="Group-2" transform="translate(71.000000, 0.000000)">
                            <g id="launch" transform="translate(19.000000, 18.000000)">
                                <path d="M10.055109,13.5024691 C10.201989,13.6493491 10.491429,13.5302405 10.491429,13.3216462 L10.491429,9.87428611 L12.9600005,9.87428611 C13.9807548,9.87428611 14.8114292,9.04361179 14.8114292,8.02285746 L14.8114292,1.85142864 C14.8114292,0.830674319 13.9807548,0 12.9600005,0 L1.85142864,0 C0.830674319,0 0,0.830674319 0,1.85142864 L0,8.02285746 C0,9.04361179 0.830674319,9.87428611 1.85142864,9.87428611 L6.42692597,9.87428611 L10.055109,13.5024691 Z M4.62857143,6.36419922 L5.16021515,5.84922152 L6.02235026,6.68433033 L10.2683563,2.57142857 L10.8,3.08640626 L6.02235026,7.71428571 L4.62857143,6.36419922 Z" id="Shape"></path>
                                <polygon id="Path" points="20.982858 19.7485722 20.982858 17.2800007 14.8114292 17.2800007 14.8114292 19.7485722 16.0457149 19.7485722 16.0457149 18.5142864 17.2800007 18.5142864 17.2800007 19.7485722 18.5142864 19.7485722 18.5142864 18.5142864 19.7485722 18.5142864 19.7485722 19.7485722"></polygon>
                                <path d="M32.9887556,21.0754294 C32.8165727,21.4864466 32.6345156,21.8937609 32.4351784,22.2924352 L32.0914298,22.9799323 L32.0914298,24.6857153 L32.3370527,24.6857153 C33.509007,24.6857153 34.6531899,24.9412124 35.7023328,25.4312239 C35.4104243,23.6859438 34.4341042,22.1140809 32.9887556,21.0754294 L32.9887556,21.0754294 Z" id="Path"></path>
                                <polygon id="Path" points="19.7485722 34.5600014 18.5142864 34.5600014 18.5142864 33.3257156 17.2800007 33.3257156 17.2800007 34.5600014 16.0457149 34.5600014 16.0457149 33.3257156 14.8114292 33.3257156 14.8114292 35.7942871 20.982858 35.7942871 20.982858 33.3257156 19.7485722 33.3257156"></polygon>
                                <path d="M29.5475669,1.95634293 L28.6354297,0.740571458 C28.2879783,0.277097154 27.733784,0 27.1542868,0 C26.5747896,0 26.0212125,0.277097154 25.6731439,0.740571458 L24.7610067,1.95634293 C24.3425838,2.51485724 23.9685952,3.10299441 23.6162067,3.70285729 L30.6923669,3.70285729 C30.3399783,3.10299441 29.9659898,2.51485724 29.5475669,1.95634293 L29.5475669,1.95634293 Z" id="Path"></path>
                                <path d="M30.2400012,17.2800007 L22.2171437,17.2800007 L22.2171437,20.982858 L13.5771434,20.982858 L13.5771434,17.2800007 L5.55428593,17.2800007 C5.21424021,17.2800007 4.93714305,17.5570978 4.93714305,17.8971436 L4.93714305,35.1771443 C4.93714305,35.5178071 5.21424021,35.7942871 5.55428593,35.7942871 L13.5771434,35.7942871 L13.5771434,32.0914298 L22.2171437,32.0914298 L22.2171437,35.7942871 L30.2400012,35.7942871 C30.5800469,35.7942871 30.8571441,35.5178071 30.8571441,35.1771443 L30.8571441,17.8971436 C30.8571441,17.5570978 30.5800469,17.2800007 30.2400012,17.2800007 Z M7.40571458,34.5600014 L6.17142882,34.5600014 L6.17142882,33.3257156 L7.40571458,33.3257156 L7.40571458,34.5600014 Z M9.87428611,34.5600014 L8.64000034,34.5600014 L8.64000034,33.3257156 L9.87428611,33.3257156 L9.87428611,34.5600014 Z M12.3428576,34.5600014 L11.1085719,34.5600014 L11.1085719,33.3257156 L12.3428576,33.3257156 L12.3428576,34.5600014 Z M12.3428576,32.0914298 L6.17142882,32.0914298 L6.17142882,30.8571441 L12.3428576,30.8571441 L12.3428576,32.0914298 Z M29.6228583,34.5600014 L28.3885726,34.5600014 L28.3885726,33.3257156 L29.6228583,33.3257156 L29.6228583,34.5600014 Z M29.6228583,32.0914298 L28.3885726,32.0914298 L28.3885726,30.8571441 L29.6228583,30.8571441 L29.6228583,32.0914298 Z M29.6228583,29.6228583 L28.3885726,29.6228583 L28.3885726,28.3885726 L29.6228583,28.3885726 L29.6228583,29.6228583 Z" id="Shape"></path>
                                <circle id="Oval" cx="27.1542868" cy="10.491429" r="3.08571441"></circle>
                                <path d="M32.0914298,19.9880237 C32.8986527,17.8533264 33.3257156,15.5723663 33.3257156,13.2920234 C33.3257156,10.3976233 32.6326642,7.52729173 31.3594984,4.93714305 L22.9490752,4.93714305 C21.6759094,7.52667458 20.982858,10.3976233 20.982858,13.2920234 C20.982858,14.2109491 21.0544466,15.134812 21.1889837,16.0457149 L30.2400012,16.0457149 C31.2607555,16.0457149 32.0914298,16.8763892 32.0914298,17.8971436 L32.0914298,19.9880237 Z M27.1542868,14.8114292 C24.7721153,14.8114292 22.8342866,12.8736005 22.8342866,10.491429 C22.8342866,8.10925747 24.7721153,6.17142882 27.1542868,6.17142882 C29.5364583,6.17142882 31.474287,8.10925747 31.474287,10.491429 C31.474287,12.8736005 29.5364583,14.8114292 27.1542868,14.8114292 Z" id="Shape"></path>
                            </g>
                        </g>
                    </g>
                </g>
            </g>
        </g>
    </g>
</svg>