<?xml version="1.0" encoding="UTF-8"?>
<svg width="39px" height="36px" viewBox="0 0 39 36" version="1.1" xmlns="http://www.w3.org/2000/svg" xmlns:xlink="http://www.w3.org/1999/xlink">
    <!-- Generator: sketchtool 59 (101010) - https://sketch.com -->
    <title>2EF81E02-EEA0-4EAB-B62B-CCE5CDC5C66F</title>
    <desc>Created with sketchtool.</desc>
    <g id="LOT-2" stroke="none" stroke-width="1" fill="none" fill-rule="evenodd">
        <g id="03-Hub-Visiteur" transform="translate(-908.000000, -2490.000000)" fill="#FFFFFF">
            <g id="SECTEURS" transform="translate(-2.000000, 1971.000000)">
                <g transform="translate(97.000000, 251.000000)" id="06">
                    <g transform="translate(792.000000, 217.000000)">
                        <g id="TEXTE" transform="translate(20.255037, 51.000000)">
                            <g id="01-Electrons/Luggage" transform="translate(0.744963, 0.519126)">
                                <g id="trolley">
                                    <path d="M6.32978723,21.5957447 L24.2021277,21.5957447 C26.049867,21.5957447 27.5531915,20.0924202 27.5531915,18.2446809 L27.5531915,13.2122673 C27.4702876,13.2416473 27.3856383,13.2681184 27.2995346,13.2910988 L16.1293218,16.2698222 C15.8477394,16.344872 15.5571393,16.3829787 15.2659574,16.3829787 C14.9747756,16.3829787 14.6841755,16.344872 14.402884,16.2698222 L3.23238032,13.2910988 C3.14598572,13.2681184 3.06162731,13.2416473 2.9787234,13.2122673 L2.9787234,18.2446809 C2.9787234,20.0924202 4.48204787,21.5957447 6.32978723,21.5957447 Z" id="Path" fill-rule="nonzero"></path>
                                    <path d="M3.80805354,11.132397 L14.9782663,14.1111204 C15.072515,14.1364278 15.1690908,14.1489362 15.2659574,14.1489362 C15.3628241,14.1489362 15.4593999,14.1364278 15.5536486,14.1111204 L26.7238614,11.132397 C27.2128491,11.0020778 27.5531915,10.5593418 27.5531915,10.0531915 L27.5531915,7.81914894 C27.5531915,5.97140957 26.049867,4.46808511 24.2021277,4.46808511 L20.8510638,4.46808511 L20.8510638,2.60638298 C20.8510638,1.16909078 19.6819731,0 18.2446809,0 L12.287234,0 C10.8499418,0 9.68085106,1.16909078 9.68085106,2.60638298 L9.68085106,4.46808511 L6.32978723,4.46808511 C4.48204787,4.46808511 2.9787234,5.97140957 2.9787234,7.81914894 L2.9787234,10.0531915 C2.9787234,10.5593418 3.31906579,11.0020778 3.80805354,11.132397 Z M11.9148936,2.60638298 C11.9148936,2.401014 12.0818651,2.23404255 12.287234,2.23404255 L18.2446809,2.23404255 C18.4500498,2.23404255 18.6170213,2.401014 18.6170213,2.60638298 L18.6170213,4.46808511 L11.9148936,4.46808511 L11.9148936,2.60638298 Z" id="Shape" fill-rule="nonzero"></path>
                                    <path d="M37.0106383,0 L33.8829787,0 C31.6245013,0 29.787234,1.83726729 29.787234,4.09574468 L29.787234,23.8297872 L1.11702128,23.8297872 C0.500041574,23.8297872 0,24.3298288 0,24.9468085 L0,29.4148936 C0,30.0318733 0.500041574,30.5319149 1.11702128,30.5319149 L1.60164557,30.5319149 C2.12059504,27.9857464 4.37732713,26.0638298 7.07446809,26.0638298 C9.77160904,26.0638298 12.0283411,27.9857464 12.5472906,30.5319149 L19.473986,30.5319149 C19.9929355,27.9857464 22.2496676,26.0638298 24.9468085,26.0638298 C27.6439495,26.0638298 29.9006816,27.9857464 30.419631,30.5319149 L30.9042553,30.5319149 C31.521235,30.5319149 32.0212766,30.0318733 32.0212766,29.4148936 L32.0212766,4.09574468 C32.0212766,3.06919051 32.8564246,2.23404255 33.8829787,2.23404255 L37.0106383,2.23404255 C37.627618,2.23404255 38.1276596,1.73400098 38.1276596,1.11702128 C38.1276596,0.500041574 37.627618,0 37.0106383,0 Z" id="Path" fill-rule="nonzero"></path>
                                    <path d="M7.07446809,28.2978723 C5.22672872,28.2978723 3.72340426,29.8011968 3.72340426,31.6489362 C3.72340426,33.4966755 5.22672872,35 7.07446809,35 C8.92220745,35 10.4255319,33.4966755 10.4255319,31.6489362 C10.4255319,29.8011968 8.92220745,28.2978723 7.07446809,28.2978723 Z" id="Path" fill-rule="nonzero"></path>
                                    <path d="M24.9468085,28.2978723 C23.0990691,28.2978723 21.5957447,29.8011968 21.5957447,31.6489362 C21.5957447,33.4966755 23.0990691,35 24.9468085,35 C26.7945479,35 28.2978723,33.4966755 28.2978723,31.6489362 C28.2978723,29.8011968 26.7945479,28.2978723 24.9468085,28.2978723 Z" id="Path" fill-rule="nonzero"></path>
                                </g>
                            </g>
                        </g>
                    </g>
                </g>
            </g>
        </g>
    </g>
</svg>