<svg id="Calque_1" data-name="Calque 1" xmlns="http://www.w3.org/2000/svg" viewBox="0 0 31 27">
  <title>map</title>
  <g id="LOT-1">
    <g id="HOMEPAGE-T1_V1" data-name="HOMEPAGE-T1 V1">
      <g id="HEADER">
        <g id="Entrées-Rapides">
          <g id="Rectangle-Copy-10">
            <g id="Group-20">
              <g id="_01-Electrons_Plan" data-name="01-Electrons/Plan">
                <path id="Combined-Shape" d="M9.74,0V23.6l-8.4,3.33A.94.94,0,0,1,1,27a1,1,0,0,1-.54-.17A.94.94,0,0,1,0,26.15V4.51a1,1,0,0,1,.51-.85l.1-.05ZM29.66.07a1,1,0,0,1,.91.1A1,1,0,0,1,31,1h0V22.49a1,1,0,0,1-.61.9h0L21.26,27V3.4ZM11.51,0l8,3V26.13l-8-3Z" style="fill: #f85c29"/>
              </g>
            </g>
          </g>
        </g>
      </g>
    </g>
  </g>
</svg>
