<?xml version="1.0" encoding="UTF-8"?>
<svg width="19px" height="27px" viewBox="0 0 19 27" version="1.1" xmlns="http://www.w3.org/2000/svg" xmlns:xlink="http://www.w3.org/1999/xlink">
    <!-- Generator: sketchtool 59 (101010) - https://sketch.com -->
    <title>B3F09483-7EC8-402D-BCE5-41F42F968206</title>
    <desc>Created with sketchtool.</desc>
    <g id="LOT-2" stroke="none" stroke-width="1" fill="none" fill-rule="evenodd">
        <g id="03-Hub-Visiteur" transform="translate(-1089.000000, -643.000000)" fill="#F85C29">
            <g id="STICKY" transform="translate(0.000000, 614.000000)">
                <g id="PLAN" transform="translate(1074.000000, 16.000000)">
                    <g id="placeholder-(9)">
                        <g id="01-Electrons/PlanInteractif" transform="translate(15.000000, 13.000000)">
                            <g id="placeholder-(9)">
                                <path d="M9.50096124,27 L17.101418,16.0746571 C19.9521466,12.2921818 19.5399454,6.07483975 16.2190496,2.77016637 C14.4245868,0.983709845 12.0385754,0 9.50096124,0 C6.96334703,0 4.57733571,0.983709845 2.78287287,2.76967328 C-0.538022877,6.07434666 -0.950224169,12.2916887 1.88910949,16.0593714 L9.50096124,27 Z M9.5,6.04477612 C11.3948024,6.04477612 12.9361702,7.58178998 12.9361702,9.47014925 C12.9361702,11.3585085 11.3948024,12.8955224 9.5,12.8955224 C7.60519757,12.8955224 6.06382979,11.3585085 6.06382979,9.47014925 C6.06382979,7.58178998 7.60519757,6.04477612 9.5,6.04477612 Z" id="Shape" fill-rule="nonzero"></path>
                            </g>
                        </g>
                    </g>
                </g>
            </g>
        </g>
    </g>
</svg>