<?xml version="1.0" encoding="UTF-8"?>
<svg width="14px" height="30px" viewBox="0 0 14 30" version="1.1" xmlns="http://www.w3.org/2000/svg" xmlns:xlink="http://www.w3.org/1999/xlink">
    <!-- Generator: sketchtool 58 (101010) - https://sketch.com -->
    <title>539C82EB-475C-4FD1-9551-462D1305E30B</title>
    <desc>Created with sketchtool.</desc>
    <g id="LOT-1" stroke="none" stroke-width="1" fill="none" fill-rule="evenodd">
        <g id="HOMEPAGE-T1_V1" transform="translate(-790.000000, -748.000000)" fill="#F85C29">
            <g id="HEADER" transform="translate(-1.000000, -2.000000)">
                <g id="Entrées-Rapides" transform="translate(173.000000, 716.000000)">
                    <g id="Rectangle-Copy-10" transform="translate(566.000000, 0.000000)">
                        <g id="Group-19" transform="translate(52.000000, 34.000000)">
                            <g id="01-Electron/Matchmaking">
                                <g id="Group">
                                    <path d="M12.0276399,0 L2.10139235,0 C1.47561732,0 0.967741935,0.509210603 0.967741935,1.13663081 L0.967741935,17.6586826 C0.981359344,18.2679304 1.49376933,18.7634832 2.10139235,18.7634832 L3.72024968,18.7634832 C4.00592958,17.8723829 4.09663068,17.4359075 4.10116982,17.3222445 L4.10116982,15.2490299 L3.0627279,15.2490299 L3.0627279,3.51445337 L11.0617698,3.51445337 L11.0617698,15.2490299 L9.33408653,15.2490299 C9.33396863,15.2947952 9.32440515,18.998293 9.32500825,18.7634832 L12.0276399,18.7634832 C12.6799197,18.7634832 13.1612903,18.224843 13.1612903,17.6268524 L13.1612903,1.13663081 C13.1612903,0.509210603 12.6534195,0 12.0276399,0 Z M8.32287943,2.3278199 L5.80618004,2.3278199 C5.62024777,2.3278199 5.46608492,2.17322447 5.46608492,1.98683066 C5.46608492,1.79588577 5.62024777,1.64584141 5.80618004,1.64584141 L8.32287943,1.64584141 C8.51332363,1.64584141 8.66297455,1.79588577 8.66297455,1.98683066 C8.66297455,2.17322447 8.51332363,2.3278199 8.32287943,2.3278199 Z" id="Shape" fill-rule="nonzero"></path>
                                    <path d="M3.67741935,19.7034589 L3.19083277,20.4783149 C2.6663726,21.303823 1.59305548,21.533379 0.799367505,21.011867 C0.00633592888,20.5026596 -0.248625602,19.4221186 0.271487659,18.5945783 L0.280677199,18.5806452 C0.624940676,19.2441241 1.3180624,19.7034542 2.10755954,19.7034542 L3.67741935,19.7034542 L3.67741935,19.7034589 Z" id="Path" fill-rule="nonzero"></path>
                                    <path d="M12.5806452,19.5774771 C12.5262548,21.8642451 11.60617,24.2739878 11.5563167,24.39243 C11.2979582,25.1440357 11.1257221,27.0299376 11.098527,29.5490302 C11.098527,29.799567 10.8945587,30 10.6452743,30 L4.35412692,30 C4.11842645,30 3.91899527,29.8132192 3.90541128,29.576362 C3.85553082,28.856616 3.69690598,28.2371048 3.52920248,27.5856974 C3.05782875,25.7635788 2.57284383,23.8776815 4.40397565,19.6457929 C4.55809516,19.199383 5.03853848,17.7826903 5.03853848,17.2952736 L5.03853848,14.7306417 C5.03853848,13.787832 5.7556205,12.9677419 6.747283,12.9677419 C7.69005767,12.9677419 8.45605472,13.737587 8.45605472,14.6896577 C8.45513009,15.1964207 8.45941786,12.8538823 8.4469806,19.6457929 L12.0548811,19.6457929 C12.2361958,19.6457883 12.4129462,19.6230164 12.5806452,19.5774771 Z" id="Path" fill-rule="nonzero"></path>
                                </g>
                            </g>
                        </g>
                    </g>
                </g>
            </g>
        </g>
    </g>
</svg>