<svg id="Calque_1" data-name="Calque 1" xmlns="http://www.w3.org/2000/svg" viewBox="0 0 36.68 31.21">
  <title>pass</title>
  <g>
    <path d="M10.93,5.7l.06.16a3.24,3.24,0,0,0,6-2.38L15.75,0,9.66,2.22Z" style="fill: #fff"/>
    <polygon points="15.75 0 15.75 0 15.75 0 15.75 0" style="fill: #fff"/>
    <path d="M36.51,18.38,30.61,2.16A2.58,2.58,0,0,0,27.34.56L19,3.61a4.9,4.9,0,0,1-3,5.52A4.9,4.9,0,0,1,10,6.86L1.64,9.91A2.59,2.59,0,0,0,.16,13.25L6.07,29.46a2.59,2.59,0,0,0,3.27,1.61L35,21.71A2.57,2.57,0,0,0,36.51,18.38ZM18.69,24.13,10,27.28a.86.86,0,0,1-1.09-.53L8.51,25.6A5.73,5.73,0,0,1,10.43,19,3.38,3.38,0,0,1,7.7,16.76a3.31,3.31,0,0,1,1.89-4.27,3.31,3.31,0,0,1,4.19,2.06A3.39,3.39,0,0,1,13.09,18a5.72,5.72,0,0,1,5.67,3.85L19.18,23A.85.85,0,0,1,18.69,24.13Zm.91-10.27a.85.85,0,0,1,.49-1.11l4.42-1.61a.86.86,0,0,1,1.09.54.87.87,0,0,1-.49,1.11L20.69,14.4A.85.85,0,0,1,19.6,13.86ZM31,16.61,22.6,19.66a.86.86,0,0,1-1.09-.53A.88.88,0,0,1,22,18l8.38-3a.87.87,0,0,1,.6,1.64Z" style="fill: #fff"/>
    <path d="M11.31,17.36a1.63,1.63,0,1,0-2-1A1.61,1.61,0,0,0,11.31,17.36Z" style="fill: #fff"/>
    <path d="M17.34,22.44a4,4,0,0,0-5-2.49,4.08,4.08,0,0,0-2.17,5.32l.13.35L17.55,23l-.13-.34Z" style="fill: #fff"/>
  </g>
</svg>
