<?xml version="1.0" encoding="UTF-8"?>
<svg width="70px" height="70px" viewBox="0 0 70 70" version="1.1" xmlns="http://www.w3.org/2000/svg" xmlns:xlink="http://www.w3.org/1999/xlink">
    <!-- Generator: sketchtool 58 (101010) - https://sketch.com -->
    <title>60BAABA7-FF7F-4AE6-8828-1C86564421FD</title>
    <desc>Created with sketchtool.</desc>
    <g id="LOT-1" stroke="none" stroke-width="1" fill="none" fill-rule="evenodd">
        <g id="HOMEPAGE-T1_V1" transform="translate(-172.000000, -1653.000000)">
            <g id="EN-BREF" transform="translate(172.000000, 909.000000)">
                <g id="CHIFFRES" transform="translate(0.000000, 741.000000)">
                    <g id="02">
                        <g id="01-Electrons/Pays" transform="translate(0.000000, 3.000000)">
                            <g id="PICTO">
                                <circle id="Oval" fill="#FFD138" cx="35" cy="35" r="35"></circle>
                                <g id="flag-(2)" transform="translate(19.500000, 16.000000)" fill-opacity="0.7" fill="#FFFFFF" fill-rule="nonzero">
                                    <path d="M29.4725659,2.18122667 C29.3346182,2.12506667 26.0340659,0.79664 22.1232818,0.79664 C19.7897227,0.79664 17.7266227,1.27296 15.9910636,2.21242667 C14.4532523,3.04512 12.3670477,3.46666667 9.79021136,3.46666667 C6.18318409,3.46666667 2.62644318,2.62634667 1.35909091,2.29285333 L1.35909091,0.693333333 C1.35909091,0.30992 1.05533409,0 0.679545455,0 C0.303756818,0 0,0.30992 0,0.693333333 L0,2.77333333 C0,2.78304 0.00475681818,2.79136 0.00543636364,2.80106667 C0.00543636364,2.80938667 0,2.81632 0,2.82464 L0,22.88 L0,23.62464 L0,40.9066667 C0,41.29008 0.303756818,41.6 0.679545455,41.6 C1.05533409,41.6 1.35909091,41.29008 1.35909091,40.9066667 L1.35909091,24.52528 C2.90369773,24.91632 6.28103864,25.6533333 9.79021136,25.6533333 C12.5912977,25.6533333 14.8915591,25.17632 16.6277977,24.2375467 C18.1656091,23.4048533 20.0139727,22.9826133 22.1232818,22.9826133 C25.7636068,22.9826133 28.9370841,24.2555733 28.9683432,24.2680533 C29.1783227,24.3540267 29.4148045,24.32768 29.6016795,24.1973333 C29.787875,24.06976 29.9,23.8548267 29.9,23.62464 L29.9,2.82464 C29.9,2.54106667 29.7307932,2.28661333 29.4725659,2.18122667 Z" id="Path"></path>
                                </g>
                            </g>
                        </g>
                    </g>
                </g>
            </g>
        </g>
    </g>
</svg>
