<?xml version="1.0" encoding="UTF-8"?>
<svg width="31px" height="27px" viewBox="0 0 31 27" version="1.1" xmlns="http://www.w3.org/2000/svg" xmlns:xlink="http://www.w3.org/1999/xlink">
    <!-- Generator: sketchtool 58 (101010) - https://sketch.com -->
    <title>5F8FAB1B-D343-4452-BE58-CD48B1B25280</title>
    <desc>Created with sketchtool.</desc>
    <g id="LOT-1" stroke="none" stroke-width="1" fill="none" fill-rule="evenodd">
        <g id="HOMEPAGE-T1_V1" transform="translate(-501.000000, -748.000000)" fill="#F85C29" fill-rule="nonzero">
            <g id="HEADER" transform="translate(-1.000000, -2.000000)">
                <g id="Entrées-Rapides" transform="translate(173.000000, 716.000000)">
                    <g id="Rectangle-Copy-10" transform="translate(283.000000, 0.000000)">
                        <g id="Group-20" transform="translate(46.000000, 34.000000)">
                            <g id="01-Electrons/Plan">
                                <path d="M9.74285714,0 L9.74285714,23.6018571 L1.33672,26.9305714 C1.21980571,26.9768571 1.09704571,27 0.974285714,27 C0.781377143,27 0.592365714,26.9421429 0.428685714,26.8341429 C0.195100714,26.6772054 0.0420769643,26.428721 0.00747079241,26.1545813 L0,26.0357143 L0,4.51092857 C0,4.15510714 0.197292857,3.83209071 0.505227549,3.66419507 L0.611851429,3.61414286 L9.74285714,0 Z M29.66328,0.0702621503 C29.9614114,-0.0512427902 30.30436,-0.0126697932 30.5713143,0.166694643 C30.8402171,0.346059079 31,0.644999806 31,0.965155681 L31,0.965155681 L31,22.4908167 C31,22.8842612 30.7583771,23.2410614 30.3881486,23.3857102 L30.3881486,23.3857102 L21.2571429,27 L21.2571429,3.39718314 Z M11.5142857,0 L19.4857143,3.02113395 L19.4857143,26.1290323 L11.5142857,23.1078983 L11.5142857,0 Z" id="Combined-Shape"></path>
                            </g>
                        </g>
                    </g>
                </g>
            </g>
        </g>
    </g>
</svg>