<?xml version="1.0" encoding="UTF-8"?>
<svg width="16px" height="16px" viewBox="0 0 16 16" version="1.1" xmlns="http://www.w3.org/2000/svg" xmlns:xlink="http://www.w3.org/1999/xlink">
    <!-- Generator: sketchtool 58 (101010) - https://sketch.com -->
    <title>BC2AB06D-DF87-43A9-98A0-E06332FA0979</title>
    <desc>Created with sketchtool.</desc>
    <g id="LOT-1" stroke="none" stroke-width="1" fill="none" fill-rule="evenodd">
        <g id="HOMEPAGE-T1_V1" transform="translate(-689.000000, -1965.000000)" fill="#F85C29" fill-rule="nonzero">
            <g id="EVENEMENT" transform="translate(0.000000, 1797.000000)">
                <g id="02" transform="translate(415.000000, 156.000000)">
                    <g id="01-Electrons/Plus" transform="translate(274.000000, 12.000000)">
                        <path d="M0.5555,8.4205 C0.246,8.4205 -7.99360578e-14,8.1665 -7.99360578e-14,7.857 C-7.99360578e-14,7.5475 0.246,7.3015 0.5555,7.3015 L7.293,7.3015 L7.293,0.5635 C7.2935,0.254 7.5475,-1.234568e-13 7.857,-1.234568e-13 C8.1665,-1.234568e-13 8.4125,0.254 8.4125,0.5635 L8.4125,7.3015 L15.15,7.3015 C15.4595,7.3015 15.7135,7.5475 15.7135,7.857 C15.7135,8.1665 15.4595,8.4205 15.15,8.4205 L8.4125,8.4205 L8.4125,15.1585 C8.4125,15.468 8.1665,15.722 7.857,15.722 C7.5475,15.722 7.2935,15.468 7.2935,15.1585 L7.2935,8.4205 L0.5555,8.4205 Z" id="Path"></path>
                    </g>
                </g>
            </g>
        </g>
    </g>
</svg>