<?xml version="1.0" encoding="UTF-8"?>
<svg width="26px" height="27px" viewBox="0 0 26 27" version="1.1" xmlns="http://www.w3.org/2000/svg" xmlns:xlink="http://www.w3.org/1999/xlink">
    <!-- Generator: sketchtool 58 (101010) - https://sketch.com -->
    <title>C60204C5-CA6F-4360-A4A6-5A9F99DFF3FC</title>
    <desc>Created with sketchtool.</desc>
    <g id="LOT-1" stroke="none" stroke-width="1" fill="none" fill-rule="evenodd">
        <g id="HOMEPAGE-T3" transform="translate(-771.000000, -748.000000)" fill="#F85C29">
            <g id="HEADER" transform="translate(0.000000, -2.000000)">
                <g id="Entrées-Rapides" transform="translate(393.000000, 716.000000)">
                    <g id="Rectangle-Copy-10" transform="translate(342.000000, 0.000000)">
                        <g id="Group-16" transform="translate(36.000000, 34.000000)">
                            <g id="01-Electrons/Rebooking">
                                <g id="clipboard-with-pencil-">
                                    <path d="M14.4078,23.4714 C14.2062,23.7564 13.911,23.9634 13.5744,24.0564 L11.9004,24.5136 C11.769,24.5508 11.6334,24.57 11.4966,24.57 C11.1882,24.57 10.89,24.4758 10.6386,24.2988 C10.2696,24.042 10.038,23.637 10.0014,23.1984 L9.8544,21.4698 C9.8196,21.1152 9.915,20.76 10.1166,20.4744 L10.1784,20.3856 L4.2072,20.3856 C3.7254,20.3856 3.3348,19.9884 3.3348,19.5078 C3.3348,19.0254 3.7254,18.6282 4.2072,18.6282 L11.4348,18.6282 L13.05,16.3212 L4.2072,16.3212 C3.7254,16.3212 3.3348,15.924 3.3348,15.4422 C3.3348,14.9604 3.7254,14.5632 4.2072,14.5632 L14.2938,14.5374 L18.0762,9.114 L18.0762,5.0982 C18.0762,4.4382 17.5656,3.9054 16.9074,3.9054 L14.0118,3.9054 L14.0118,6.1968 C14.0118,7.2786 13.1274,8.1342 12.0474,8.1342 L6.2238,8.1342 C5.1414,8.1342 4.2876,7.278 4.2876,6.1968 L4.2876,3.9054 L1.3608,3.9054 C0.7014,3.9054 0.168,4.4388 0.168,5.0982 L0.168,25.59 C0.168,26.25 0.702,26.8122 1.3608,26.8122 L16.9062,26.8122 C17.5662,26.8122 18.0756,26.2494 18.0756,25.59 L18.0756,18.2628 L14.4078,23.4714 Z M4.2072,10.4976 L14.0616,10.4976 C14.5422,10.4976 14.9334,10.8942 14.9334,11.376 C14.9334,11.8578 14.5422,12.255 14.0616,12.255 L4.2072,12.255 C3.7254,12.255 3.3348,11.8578 3.3348,11.376 C3.3348,10.8942 3.7254,10.4976 4.2072,10.4976 Z" id="Shape" fill-rule="nonzero"></path>
                                    <path d="M6.24,6.9816 L12.0582,6.9816 C12.4986,6.9816 12.8568,6.624 12.8568,6.1824 L12.8568,2.8362 C12.8568,2.3946 12.4986,2.037 12.0582,2.037 L11.1816,2.037 C11.1756,0.912 10.2612,0 9.1338,0 C8.0058,0 7.0926,0.9114 7.086,2.037 L6.24,2.037 C5.7984,2.037 5.4414,2.3946 5.4414,2.8362 L5.4414,6.1818 C5.4414,6.6234 5.7984,6.9816 6.24,6.9816 Z M9.1344,1.1346 C9.6354,1.1346 10.0416,1.5378 10.047,2.0376 L8.22,2.0376 C8.226,1.5378 8.6328,1.1346 9.1344,1.1346 Z" id="Shape" fill-rule="nonzero"></path>
                                    <path d="M25.4364,5.3868 C25.4094,5.238 25.3248,5.1078 25.2012,5.0214 L23.7444,4.0062 C23.646,3.9372 23.5326,3.9042 23.421,3.9042 C23.2434,3.9042 23.0664,3.9882 22.9578,4.146 L12.6384,18.9438 L15.0222,20.6064 L25.3428,5.8092 C25.428,5.6862 25.4622,5.5344 25.4364,5.3868 Z" id="Path" fill-rule="nonzero"></path>
                                    <path d="M11.013,21.36 L11.1624,23.0976 C11.1696,23.1978 11.223,23.2872 11.304,23.3448 C11.3616,23.3844 11.4294,23.4072 11.4966,23.4072 C11.526,23.4072 11.556,23.403 11.5848,23.3946 L13.2678,22.9338 C13.344,22.9128 13.41,22.866 13.4556,22.8018 L14.0874,21.8958 L11.7018,20.2326 L11.07,21.1386 C11.0256,21.2028 11.0046,21.2814 11.013,21.36 Z" id="Path" fill-rule="nonzero"></path>
                                </g>
                            </g>
                        </g>
                    </g>
                </g>
            </g>
        </g>
    </g>
</svg>