<?xml version="1.0" encoding="UTF-8"?>
<svg width="37px" height="37px" viewBox="0 0 37 37" version="1.1" xmlns="http://www.w3.org/2000/svg" xmlns:xlink="http://www.w3.org/1999/xlink">
    <!-- Generator: sketchtool 58 (101010) - https://sketch.com -->
    <title>C3BA9E94-2D7C-4B17-A581-1A9DDD2CB5A2</title>
    <desc>Created with sketchtool.</desc>
    <g id="LOT-1" stroke="none" stroke-width="1" fill="none" fill-rule="evenodd">
        <g id="HOMEPAGE-T1_V1" transform="translate(-732.000000, -1448.000000)" fill="#C8CCD7">
            <g id="EN-BREF" transform="translate(172.000000, 909.000000)">
                <g id="POURQUOI-Copy" transform="translate(560.000000, 381.000000)">
                    <g id="RESTAURATEUR" transform="translate(0.000000, 151.000000)">
                        <g id="01-Electrons/Restaurateur" transform="translate(0.000000, 7.000000)">
                            <g id="Group-13">
                                <g id="restaurant" fill-rule="nonzero">
                                    <path d="M36.0736418,31.4590623 L21.9473041,16.9506018 L5.44306396,0 L4.15324802,0 L3.88988099,0.687317417 C3.19476934,2.50147118 2.89776901,4.35696082 3.03110604,6.05296045 C3.18308915,7.9862078 3.89818377,9.65994964 5.09920217,10.8934499 L17.983289,24.1259904 L19.6826854,22.3806334 L31.59401,36.0599916 C32.7789153,37.276943 34.8183739,37.3492085 36.0736418,36.0599916 C37.3087861,34.7914425 37.3087861,32.7275391 36.0736418,31.4590623 Z" id="Path"></path>
                                    <path d="M11.3748121,21 L0.956334198,31.4232897 C-0.318778066,32.6989909 -0.318778066,34.7748399 0.956334198,36.050541 C2.16766179,37.2624281 4.26318442,37.3694149 5.58144941,36.050541 L16,25.6271786 L11.3748121,21 Z" id="Path"></path>
                                    <path d="M35.4784583,6.08587984 L29.6461568,11.9181097 L28.1246152,10.3966397 L33.9569167,4.56433819 L32.4354467,3.04286823 L26.6032169,8.87509805 L25.0817469,7.35362809 L30.9140485,1.52139827 L29.3926502,0 L21.7853004,7.6073498 C20.8546529,8.53799732 20.29896,9.77369877 20.2203844,11.0869721 C20.2005255,11.4196996 20.1251044,11.7469783 20,12.0582696 L24.9417304,17 C25.2530217,16.8747522 25.5803721,16.7994028 25.9130279,16.7795439 C27.2263012,16.7011834 28.4620027,16.1453471 29.3926502,15.2146996 L37,7.6074215 L35.4784583,6.08587984 Z" id="Path"></path>
                                </g>
                            </g>
                        </g>
                    </g>
                </g>
            </g>
        </g>
    </g>
</svg>