<?xml version="1.0" encoding="UTF-8"?>
<svg width="25px" height="25px" viewBox="0 0 25 25" version="1.1" xmlns="http://www.w3.org/2000/svg" xmlns:xlink="http://www.w3.org/1999/xlink">
    <!-- Generator: sketchtool 58 (101010) - https://sketch.com -->
    <title>9A81D979-C666-49A1-9900-BD2856A1CDDD</title>
    <desc>Created with sketchtool.</desc>
    <g id="LOT-1" stroke="none" stroke-width="1" fill="none" fill-rule="evenodd">
        <g id="HOMEPAGE-T1_V1" transform="translate(-864.000000, -2779.000000)" fill="#F85C29">
            <g id="RECHERCHE" transform="translate(94.000000, 2656.000000)">
                <g id="Recherche" transform="translate(0.000000, 103.000000)">
                    <g id="Group-4">
                        <g id="Group-3">
                            <g id="01-Electrons/Search" transform="translate(770.000000, 20.000000)">
                                <g id="ICONS/SEARCH">
                                    <g id="magnifying-glass-(1)" fill-rule="nonzero">
                                        <path d="M23.9959787,22.9734456 L18.113059,17.0905259 C19.6911414,15.2762678 20.6465791,12.9091441 20.6465791,10.3219477 C20.6465791,4.62689489 16.0143166,0 10.3246315,0 C4.62957871,0 0.00268381374,4.63226252 0.00268381374,10.3219477 C0.00268381374,16.0116328 4.63494634,20.6438953 10.3246315,20.6438953 C12.9118279,20.6438953 15.2789516,19.6884576 17.0932097,18.1103751 L22.9761295,23.9932949 C23.1156878,24.1328532 23.3035547,24.208 23.4860541,24.208 C23.6685534,24.208 23.8564204,24.1382208 23.9959787,23.9932949 C24.2750953,23.7141782 24.2750953,23.2525623 23.9959787,22.9734456 Z M1.44657561,10.3219477 C1.44657561,5.42667139 5.4293552,1.44925942 10.3192638,1.44925942 C15.2145401,1.44925942 19.1919521,5.43203902 19.1919521,10.3219477 C19.1919521,15.2118563 15.2145401,19.2000035 10.3192638,19.2000035 C5.4293552,19.2000035 1.44657561,15.2172239 1.44657561,10.3219477 Z" id="Shape"></path>
                                    </g>
                                </g>
                            </g>
                        </g>
                    </g>
                </g>
            </g>
        </g>
    </g>
</svg>