<?xml version="1.0" encoding="UTF-8"?>
<svg width="70px" height="70px" viewBox="0 0 70 70" version="1.1" xmlns="http://www.w3.org/2000/svg" xmlns:xlink="http://www.w3.org/1999/xlink">
    <!-- Generator: sketchtool 58 (101010) - https://sketch.com -->
    <title>78CF4376-D461-4601-8E90-CA25F7C647C6</title>
    <desc>Created with sketchtool.</desc>
    <g id="LOT-1" stroke="none" stroke-width="1" fill="none" fill-rule="evenodd">
        <g id="HOMEPAGE-T1_V1" transform="translate(-767.000000, -1651.000000)">
            <g id="EN-BREF" transform="translate(172.000000, 909.000000)">
                <g id="CHIFFRES" transform="translate(0.000000, 741.000000)">
                    <g id="04" transform="translate(595.000000, 0.000000)">
                        <g id="01-Electrons/Secteurs" transform="translate(0.000000, 1.000000)">
                            <g id="PICTO">
                                <circle id="Oval" fill="#FFD138" cx="35" cy="35" r="35"></circle>
                                <g id="Group" transform="translate(13.000000, 15.000000)" fill-opacity="0.7" fill="#FFFFFF" fill-rule="nonzero">
                                    <polygon id="Path" points="0 31.2 5.0055358 31.2 9.3250337 31.2 42.9 31.2 42.9 27.3 0 27.3"></polygon>
                                    <path d="M40.2645326,26 C40.2727797,25.8597421 40.279469,25.7194842 40.2848754,25.5793207 C40.2872579,25.5171202 40.2883575,25.4549197 40.2901902,25.3925304 C40.2923894,25.3146618 40.2953217,25.2367932 40.2966962,25.1588302 C40.2977958,25.0985174 40.2975209,25.038299 40.2981623,24.9778918 C40.2988954,24.8981355 40.3,24.8183792 40.3,24.7386228 C40.3,24.6809529 40.2984372,24.6231885 40.2978874,24.5655185 C40.2968794,24.4834025 40.2965129,24.4011922 40.2946802,24.3190762 C40.2933057,24.2593297 40.2906483,24.1996776 40.2888156,24.1400256 C40.2863415,24.0598917 40.2843256,23.9798522 40.2808435,23.8998127 C40.2782777,23.840255 40.2744291,23.7807917 40.2713135,23.721234 C40.2670984,23.6411945 40.2635246,23.5612494 40.2583931,23.4813987 C40.2544528,23.4191982 40.2491381,23.3572808 40.244648,23.2950803 C40.2389667,23.2178724 40.2340184,23.1404757 40.2274208,23.0633622 C40.2223809,23.0037101 40.2161498,22.9441524 40.2105601,22.8845947 C40.2031377,22.8050272 40.1962652,22.7254596 40.1879265,22.6461752 C40.1819703,22.5884108 40.1745479,22.5307409 40.1680419,22.4730709 C40.1587868,22.3919931 40.1501732,22.310821 40.1399102,22.229932 C40.1327627,22.1729228 40.1243324,22.1160079 40.1167268,22.059093 C40.1058223,21.9775433 40.095376,21.8958993 40.0834636,21.8145384 C40.075583,21.7602663 40.066328,21.706183 40.0580809,21.6520053 C40.0450689,21.5679072 40.0326066,21.4838091 40.018495,21.3998998 C40.0100646,21.349592 40.0005347,21.2994729 39.9917378,21.2490707 C39.9763433,21.1615747 39.9614985,21.0740786 39.9450044,20.986677 C39.935841,20.9384457 39.9257612,20.8904031 39.9163229,20.8423605 C39.8989124,20.7529768 39.8816852,20.6634987 39.8629919,20.5743037 C39.8540117,20.5314524 39.8440236,20.4887898 39.8347685,20.4460329 C39.8143341,20.3517411 39.7942663,20.2574492 39.7724573,20.1633462 C39.7631107,20.1229489 39.7528476,20.0827404 39.7433177,20.0423431 C39.7205008,19.9460692 39.6977755,19.8498896 39.6735841,19.7538045 C39.6639625,19.7157669 39.6534246,19.6778236 39.6436198,19.6398803 C39.6186036,19.5430401 39.5936792,19.4461999 39.5671969,19.3497372 L38.9571885,17.4757936 C38.9211763,17.3797084 38.8830565,17.2823962 38.8446618,17.1848953 C38.8349486,17.1602605 38.8260601,17.1360976 38.8161636,17.1114628 C38.7174736,16.864171 38.6110864,16.6126318 38.4975517,16.3583554 C38.4872887,16.3354195 38.4762926,16.3122005 38.4658463,16.2892647 C38.4193878,16.1861005 38.3723795,16.082842 38.3237218,15.9791116 L37.4969071,14.421173 C37.4487075,14.3386795 37.3985836,14.2579793 37.3492845,14.1763352 C37.3051168,14.1032803 37.2617739,14.0290927 37.2166899,13.9567929 C37.1609763,13.8672204 37.1032468,13.7793468 37.0462504,13.6910014 C37.0055649,13.627857 36.9657957,13.5637688 36.9244687,13.5011907 C36.8619742,13.4067101 36.7975554,13.3142117 36.7336864,13.2210525 C36.6961164,13.1662141 36.6593711,13.1104319 36.621343,13.0561598 C36.5524341,12.9579981 36.4816926,12.8618186 36.4112259,12.7653559 C36.3764966,12.7176909 36.3426836,12.669082 36.3075877,12.6218889 C36.2328143,12.5213676 36.1562081,12.4228284 36.0796936,12.3241004 C36.0474384,12.2824761 36.0160996,12.2398136 35.9834778,12.1984724 C35.9001824,12.0927599 35.8149627,11.988935 35.7296513,11.8853934 C35.7026192,11.8526414 35.6765035,11.8189455 35.6493798,11.7863822 C35.5584787,11.677555 35.4658366,11.5706154 35.372828,11.4641478 C35.3501027,11.4381916 35.3281105,11.4112915 35.305202,11.3854297 C35.2056873,11.2727326 35.1044316,11.1620175 35.0025345,11.0520576 C34.9853073,11.0335579 34.9687215,11.0143975 34.9514943,10.9958034 C34.8436409,10.8803691 34.7341381,10.7670113 34.6238106,10.6547861 C34.6118066,10.6426103 34.6002607,10.6299625 34.5882566,10.6177867 C34.4760964,10.5044289 34.3624701,10.3930532 34.2478358,10.2829989 C34.237023,10.2726164 34.2265767,10.2616676 34.2156722,10.2513795 C34.0977391,10.138588 33.9782482,10.0279674 33.8577493,9.91876252 C33.8497772,9.91158917 33.8421715,9.90403828 33.8341994,9.89686493 C33.7080192,9.78294078 33.5803728,9.67099875 33.4515352,9.56103883 C33.4489695,9.55886795 33.4464954,9.55660268 33.4440212,9.5544318 C32.3931611,8.65842361 31.2515831,7.89210205 30.0388054,7.26830366 C30.0369728,7.2673598 30.0353233,7.26632155 30.0334907,7.26547208 C29.8938403,7.19373856 29.7529986,7.12436471 29.6115155,7.05640664 C29.5990533,7.05046031 29.5868659,7.04394767 29.5744953,7.03809572 C29.4277891,6.96806116 29.2799832,6.90038626 29.1314443,6.83450469 C29.1240219,6.83129556 29.1166912,6.8276145 29.1092689,6.82440537 C28.9748416,6.76494206 28.8393147,6.70821596 28.703238,6.65215055 C28.6812458,6.64308948 28.6594369,6.63327331 28.6374447,6.62421224 C28.5059498,6.57078965 28.3735384,6.51991549 28.2407606,6.46960764 C28.2136369,6.45941393 28.1869714,6.44808759 28.1598477,6.43808265 C28.0166235,6.38475445 27.872483,6.33388029 27.7278844,6.28423315 C27.7106572,6.27828682 27.6937965,6.27177417 27.6765693,6.26601661 C27.5402177,6.21967299 27.4029498,6.17606656 27.2653153,6.13312084 C27.2392912,6.12500363 27.2136337,6.11594256 27.1875179,6.10801411 C27.0607879,6.069127 26.9332332,6.03297709 26.8054953,5.99692156 C26.7679253,5.98644469 26.7308134,5.97464641 26.6931518,5.96426393 C26.5684378,5.93009613 26.4427158,5.89857114 26.3170854,5.86704615 C26.27585,5.85675805 26.2350728,5.84524294 26.1938375,5.83514361 C26.0887331,5.80956495 25.9826208,5.78681788 25.8769667,5.76322133 C25.8143805,5.74925217 25.7522526,5.73386722 25.6893916,5.72065315 C25.5876777,5.69903871 25.4849559,5.68025586 25.3826005,5.66052914 C25.3152495,5.64750385 25.2482649,5.63315715 25.1806389,5.62098133 C25.0612397,5.59936689 24.9411073,5.58067842 24.8208833,5.56151802 C24.7696599,5.55340081 24.7188029,5.5438678 24.6673962,5.53612813 C24.4956738,5.51045509 24.3231268,5.4871417 24.1500299,5.4665655 C24.0081803,5.44957599 23.888781,5.34943223 23.8441552,5.20964627 C23.7995294,5.07004908 23.8376491,4.91629396 23.9417455,4.81577266 C24.4911837,4.28636047 24.8062219,3.54514565 24.8062219,2.782222 C24.8062219,1.24806871 23.5943605,0 22.1047562,0 C20.6121279,0 19.3977924,1.24806871 19.3977924,2.782222 C19.3977924,3.54325792 19.7113644,4.28485029 20.2582369,4.81709407 C20.348863,4.90525078 20.3889071,5.03380478 20.3673731,5.15782825 C20.3642576,5.17557285 20.3599508,5.19312868 20.3543611,5.21059013 C20.3094603,5.34990416 20.1902443,5.44967037 20.0487613,5.4665655 C10.3553367,6.62345715 3.33588769,15.6023219 3.93572469,25.9891456 C16.0597444,25.98924 28.3575025,25.99462 40.2645326,26 Z" id="Path"></path>
                                </g>
                            </g>
                        </g>
                    </g>
                </g>
            </g>
        </g>
    </g>
</svg>
