<?xml version="1.0" encoding="UTF-8"?>
<svg width="33px" height="30px" viewBox="0 0 33 30" version="1.1" xmlns="http://www.w3.org/2000/svg" xmlns:xlink="http://www.w3.org/1999/xlink">
    <!-- Generator: sketchtool 58 (101010) - https://sketch.com -->
    <title>D61710AA-3231-4AE4-AD20-6B7953B6E2DB</title>
    <desc>Created with sketchtool.</desc>
    <g id="LOT-1" stroke="none" stroke-width="1" fill="none" fill-rule="evenodd">
        <g id="HOMEPAGE-T1_V1" transform="translate(-223.000000, -3474.000000)" fill="#FFFFFF">
            <g id="SECTEURS" transform="translate(95.000000, 2974.000000)">
                <g transform="translate(104.000000, 70.000000)" id="Secteurs">
                    <g transform="translate(0.000000, 181.000000)">
                        <g id="CHARCUTERIE-Copy-13" transform="translate(0.000000, 205.000000)">
                            <g id="TEXTE" transform="translate(23.251366, 43.480874)">
                                <g id="01-Electrons/Secteurs/Shrimp" transform="translate(0.748634, 0.519126)">
                                    <g id="shrimp">
                                        <path d="M14.2995487,7.77093488 C14.1578969,7.19002075 13.9764177,6.66098546 13.7827581,6.19066026 C13.6275727,5.81345919 13.4636227,5.47473225 13.3056661,5.17847506 C13.0748859,4.74527063 12.8555769,4.40312806 12.6916269,4.16628987 L3.65961726,4.16628987 L3.65961726,4.16609653 L3.06349392,4.16609653 C2.49050662,4.16609653 2.02430595,3.69989586 2.02430595,3.12690856 C2.02430595,2.55392125 2.49050662,2.08772058 3.06349392,2.08772058 L7.72318057,2.08772058 L7.72318057,0.0634790793 L3.06355837,0.0634790793 C1.37430596,0.0634790793 0,1.43784948 0,3.126973 C0,4.68391826 1.16775728,5.97231801 2.67327481,6.16475306 C2.67327481,6.16507529 2.67327481,6.16533308 2.67327481,6.16571975 C2.77045903,8.02401341 3.14830455,9.68735862 3.79946457,11.1199235 C4.44456668,12.5383104 5.3575054,13.7387417 6.51475802,14.6867389 C8.52217918,16.3324904 10.6902636,16.7629881 11.5289608,16.8723526 C11.7037377,16.8946508 11.8116844,16.9020621 11.8312759,16.9034155 L11.8623388,16.9054133 L12.4426729,16.9054133 C12.665333,16.5686842 12.8704639,16.2313106 13.0574211,15.8932281 C13.2456671,15.556499 13.4157395,15.2191254 13.5689271,14.8810429 C14.6349245,12.5315436 14.8812362,10.1489192 14.2995487,7.77093488 Z M10.925104,9.55176473 L9.34476493,9.55176473 L9.34476493,7.97142566 L10.925104,7.97142566 L10.925104,9.55176473 Z" id="Shape" fill-rule="nonzero"></path>
                                        <path d="M32.3585412,11.6219561 C32.2768884,11.9546251 32.1777064,12.29941 32.0589329,12.652315 C31.9806313,12.8837397 31.8922761,13.1232846 31.7910318,13.3689519 L31.7910318,13.3695963 C31.5750741,13.8965694 31.3045307,14.4512541 30.9658038,15.0147034 C30.1810477,16.321728 29.0292085,17.6794069 27.3409228,18.8649512 C27.0615504,19.0613175 26.7680644,19.2522703 26.458338,19.4378096 C26.1654965,19.613231 25.8591213,19.7839479 25.5386325,19.9479623 C25.588578,20.1929207 25.6148719,20.4459348 25.6148719,20.7050712 C25.6148719,22.4594138 24.4186295,23.940442 22.7993008,24.3750642 C22.4638606,22.7667557 21.0383847,21.5583976 19.3305719,21.5583976 L15.1879336,21.5583976 L15.1879336,22.2196111 C15.1879336,24.1767001 16.7745239,25.7632905 18.7316774,25.7632905 C16.7745239,25.7632905 15.1879336,27.3498808 15.1879336,29.3069698 L15.1879336,29.9681833 L19.3306363,29.9681833 C21.2694872,29.9681833 22.8437039,28.4108514 22.8729623,26.4790251 C22.8730912,26.4790251 22.8732201,26.4790251 22.8732845,26.4790251 C28.5440608,25.9447053 32.9962321,21.1558049 32.9962321,15.3473724 C32.9962321,14.0417012 32.7715097,12.7879733 32.3585412,11.6219561 Z" id="Path" fill-rule="nonzero"></path>
                                        <path d="M23.1290053,4.243367 C23.2977243,4.57332932 23.4677323,4.9397035 23.62904,5.33984726 C23.7700474,5.68804773 23.9043523,6.06254208 24.0258326,6.46062357 C24.0872494,6.66169436 24.1452506,6.86953196 24.1992562,7.082783 C24.7080555,9.09426424 24.907064,11.9289757 23.6371602,15.1733044 C23.5170333,15.4809685 23.3834372,15.7920482 23.2356631,16.1065436 C23.0925935,16.410212 22.9367636,16.7165227 22.7666912,17.0262491 C23.4907394,17.2138507 24.1317814,17.6092255 24.6209893,18.145672 C24.9340668,17.9857177 25.2350285,17.8177075 25.5245189,17.6409328 C25.8180694,17.4620958 26.100084,17.2752031 26.3693384,17.0788368 C28.1568062,15.7799324 29.4105341,14.1091759 30.112993,12.0862234 C30.1541738,11.9674498 30.1926479,11.8493852 30.2283509,11.7326094 C30.3970699,11.1840471 30.5083677,10.6617786 30.5806114,10.1887467 C30.6797935,9.53758666 30.7047984,8.97955078 30.7041041,8.57199575 C28.9104994,6.22442984 26.209384,4.60503664 23.1290053,4.243367 Z" id="Path" fill-rule="nonzero"></path>
                                        <path d="M22.2370115,7.57946651 C22.1094733,7.07543618 21.9549324,6.61116888 21.789629,6.19078915 C21.6432082,5.81829263 21.4880228,5.47956568 21.3354797,5.17860396 C21.128351,4.76898667 20.9252179,4.42961527 20.7538566,4.16641876 L15.061491,4.16641876 C15.2240877,4.46738048 15.3914534,4.80610743 15.5534056,5.17860396 C15.6903528,5.49239039 15.82266,5.83040843 15.9454292,6.19078915 C16.0533758,6.50728231 16.1532667,6.84059581 16.2416219,7.1907941 C16.7267696,9.10850675 16.921138,11.7995041 15.7537674,14.8811718 C15.6282271,15.2138408 15.4858664,15.5519233 15.3266209,15.893357 C15.1714355,16.2266705 14.9993653,16.564753 14.809057,16.9055422 L20.4879534,16.9055422 C20.7025578,16.568813 20.900213,16.2314395 21.0810478,15.893357 C21.2625915,15.5566278 21.4265415,15.2192543 21.5743157,14.8811718 C22.6310329,12.4667756 22.8544019,10.021381 22.2370115,7.57946651 Z" id="Path" fill-rule="nonzero"></path>
                                    </g>
                                </g>
                            </g>
                        </g>
                    </g>
                </g>
            </g>
        </g>
    </g>
</svg>