<?xml version="1.0" encoding="UTF-8"?>
<svg width="35px" height="36px" viewBox="0 0 35 36" version="1.1" xmlns="http://www.w3.org/2000/svg" xmlns:xlink="http://www.w3.org/1999/xlink">
    <!-- Generator: sketchtool 59 (101010) - https://sketch.com -->
    <title>66F5627D-AB30-4858-8832-9109FEEE4CDD</title>
    <desc>Created with sketchtool.</desc>
    <g id="LOT-2" stroke="none" stroke-width="1" fill="none" fill-rule="evenodd">
        <g id="03-Hub-Visiteur" transform="translate(-512.000000, -2490.000000)" fill="#FFFFFF">
            <g id="SECTEURS" transform="translate(-2.000000, 1971.000000)">
                <g transform="translate(97.000000, 251.000000)" id="05">
                    <g transform="translate(396.000000, 217.000000)">
                        <g id="TEXTE" transform="translate(20.255037, 51.000000)">
                            <g id="01-Electrons/Stock" transform="translate(0.744963, 0.519126)">
                                <g id="noun_Stock_2508080">
                                    <path d="M1.94444444,31.6944444 L33.0555556,31.6944444 L33.0555556,35 L35,35 L35,0 L33.0555556,0 L33.0555556,14.1944444 L1.94444444,14.1944444 L1.94444444,0 L0,0 L0,35 L1.94444444,35 L1.94444444,31.6944444 Z M33.0555556,16.1388889 L33.0555556,29.75 L1.94444444,29.75 L1.94444444,16.1388889 L33.0555556,16.1388889 Z M4.27787111,27.2222689 L4.27787111,20.6110644 C4.27787111,20.4047967 4.35980768,20.2069765 4.505661,20.0611232 C4.65151432,19.9152699 4.84933447,19.8333333 5.05560222,19.8333333 L15.1665967,19.8333333 C15.5961233,19.8333333 15.9443239,20.1815378 15.9443239,20.6110644 L15.9443239,27.2222689 C15.9443239,27.6517955 15.5961233,28 15.1665967,28 L5.05560222,28 C4.84933447,28 4.65151432,27.9180634 4.505661,27.7722101 C4.35980768,27.6263568 4.27787111,27.4285366 4.27787111,27.2222689 Z M19.0556994,27.2222689 L19.0556994,20.6110644 C19.0556994,20.1815378 19.4039,19.8333333 19.8334267,19.8333333 L29.9444211,19.8333333 C30.3739484,19.8333333 30.7221522,20.1815372 30.7221522,20.6110644 L30.7221522,27.2222689 C30.7221522,27.6517961 30.3739484,28 29.9444211,28 L19.8334267,28 C19.4039,28 19.0556994,27.6517955 19.0556994,27.2222689 L19.0556994,27.2222689 Z M22.5555089,4.27777778 C22.9850361,4.27777778 23.33324,4.62598164 23.33324,5.05550889 L23.33324,11.6667133 C23.33324,12.0962406 22.9850361,12.4444444 22.5555089,12.4444444 L12.4445144,12.4444444 C12.0149878,12.4444444 11.6667872,12.09624 11.6667872,11.6667133 L11.6667872,5.05550889 C11.6667872,4.62598227 12.0149878,4.27777778 12.4445144,4.27777778 L22.5555089,4.27777778 Z" id="Shape" fill-rule="nonzero"></path>
                                </g>
                            </g>
                        </g>
                    </g>
                </g>
            </g>
        </g>
    </g>
</svg>