<?xml version="1.0" encoding="UTF-8"?>
<svg width="41px" height="35px" viewBox="0 0 41 35" version="1.1" xmlns="http://www.w3.org/2000/svg" xmlns:xlink="http://www.w3.org/1999/xlink">
    <!-- Generator: sketchtool 59 (101010) - https://sketch.com -->
    <title>AF361D1F-3EEF-4A6B-BDD0-B6CDB285010A</title>
    <desc>Created with sketchtool.</desc>
    <g id="LOT-2" stroke="none" stroke-width="1" fill="none" fill-rule="evenodd">
        <g id="03-Hub-Visiteur" transform="translate(-115.000000, -2491.000000)" fill="#FFFFFF">
            <g id="SECTEURS" transform="translate(-2.000000, 1971.000000)">
                <g transform="translate(97.000000, 251.000000)" id="04">
                    <g transform="translate(0.000000, 217.000000)">
                        <g id="TEXTE" transform="translate(20.255037, 52.000000)">
                            <g id="01-Electrons/Store">
                                <g id="noun_Store_2885744">
                                    <g id="Group">
                                        <path d="M6.20602308,5.40153861 L34.2480533,5.40153861 C35.0525378,5.40153861 35.7420959,5.86124402 36.0868749,6.55080214 L40.2242237,16.5493949 C40.5690027,17.238953 40.1092973,17.9285111 39.3048128,17.9285111 L37.3510648,17.9285111 L37.3510648,33.3286425 C37.3510648,34.1331269 36.6615067,34.7077587 35.8570222,34.7077587 C35.0525378,34.7077587 34.3629796,34.1331269 34.3629796,33.3286425 L34.3629796,17.9285111 L27.2375457,17.9285111 L27.2375457,33.3286425 C27.2375457,34.1331269 26.5479876,34.7077587 25.7435031,34.7077587 L4.48212778,34.7077587 C3.56271695,34.7077587 2.98808519,34.0182006 2.98808519,33.2137161 L2.98808519,17.9285111 L1.14926353,17.9285111 C0.34477906,17.9285111 -0.114926353,17.238953 0.229852707,16.5493949 L4.36720143,6.55080214 C4.71198049,5.86124402 5.40153861,5.40153861 6.20602308,5.40153861 Z M24.2494605,17.9285111 L5.86124402,17.9285111 L5.86124402,31.8345999 L24.2494605,31.8345999 L24.2494605,17.9285111 Z" id="Shape"></path>
                                        <path d="M6.20602308,2.87315883 C5.40153861,2.87315883 4.71198049,2.29852707 4.71198049,1.49404259 C4.71198049,0.68955812 5.40153861,0 6.20602308,0 L34.2480533,0 C35.0525378,0 35.7420959,0.68955812 35.7420959,1.49404259 C35.7420959,2.29852707 35.0525378,2.87315883 34.2480533,2.87315883 L6.20602308,2.87315883 Z" id="Path" fill-rule="nonzero"></path>
                                    </g>
                                </g>
                            </g>
                        </g>
                    </g>
                </g>
            </g>
        </g>
    </g>
</svg>