<svg id="Calque_1" data-name="Calque 1" xmlns="http://www.w3.org/2000/svg" viewBox="0 0 32.72 28.76">
  <title>traiteur-snacking</title>
  <polygon id="Path" points="0 17.26 0 19.17 2.35 19.17 4.26 23.01 13.11 23.01 11.84 26.84 9.65 26.84 9.65 28.76 23.07 28.76 23.07 26.84 20.89 26.84 19.61 23.01 28.46 23.01 30.38 19.17 32.72 19.17 32.72 17.26 0 17.26"/>
  <path id="Shape" d="M19,4.07a2.77,2.77,0,0,0,.27-1.19,2.88,2.88,0,1,0-5.75,0,2.77,2.77,0,0,0,.27,1.19A14.43,14.43,0,0,0,2.27,15.34H30.45A14.42,14.42,0,0,0,19,4.07ZM15.4,2.88a1,1,0,1,1,1,1A1,1,0,0,1,15.4,2.88Z"/>
</svg>
