<?xml version="1.0" encoding="UTF-8"?>
<svg width="49px" height="29px" viewBox="0 0 49 29" version="1.1" xmlns="http://www.w3.org/2000/svg" xmlns:xlink="http://www.w3.org/1999/xlink">
    <!-- Generator: sketchtool 59.1 (101010) - https://sketch.com -->
    <title>B63B4D65-5499-4718-819E-009C97E88D5D</title>
    <desc>Created with sketchtool.</desc>
    <g id="LOT-2" stroke="none" stroke-width="1" fill="none" fill-rule="evenodd">
        <g id="02-Hub-Exposant" transform="translate(-789.000000, -2527.000000)" fill="#F85C29" fill-rule="nonzero">
            <g id="PLUS" transform="translate(0.000000, 2266.000000)">
                <g id="Group-12" transform="translate(138.000000, 239.000000)">
                    <g id="Group-4" transform="translate(565.000000, 0.000000)">
                        <g id="Group-10" transform="translate(74.000000, 0.000000)">
                            <g id="Group" transform="translate(12.000000, 22.000000)">
                                <path d="M14.638639,23.6159984 C14.923999,24.2129583 15.087999,24.8794543 15.087999,25.5839983 C15.087999,26.0399182 15.019119,26.4794382 14.894479,26.8959982 L34.9608616,26.8959982 C34.8368776,26.4794382 34.7679976,26.0399182 34.7679976,25.5839983 C34.7679976,24.8794543 34.9326536,24.2129583 35.2180136,23.6159984 L14.638639,23.6159984 Z" id="Path"></path>
                                <path d="M1.63999989,23.6159984 C0.73799995,23.6159984 0,24.3539983 0,25.2559983 C0,26.1579982 0.73799995,26.8959982 1.63999989,26.8959982 L6.09751958,26.8959982 C5.97287959,26.4794382 5.9039996,26.0399182 5.9039996,25.5839983 C5.9039996,24.8794543 6.06799959,24.2129583 6.35335957,23.6159984 L1.63999989,23.6159984 Z" id="Path"></path>
                                <path d="M10.4959993,22.3039985 C8.68740741,22.3039985 7.21599951,23.7747504 7.21599951,25.5839983 C7.21599951,27.3919341 8.68740741,28.863998 10.4959993,28.863998 C12.3045912,28.863998 13.7759991,27.3919341 13.7759991,25.5839983 C13.7759991,23.7747504 12.3045912,22.3039985 10.4959993,22.3039985 Z M10.4959993,26.8959982 C9.77308733,26.8959982 9.18399937,26.3069102 9.18399937,25.5839983 C9.18399937,24.8610863 9.77374333,24.2719983 10.4959993,24.2719983 C11.2182552,24.2719983 11.8079992,24.8610863 11.8079992,25.5839983 C11.8079992,26.3069102 11.2189112,26.8959982 10.4959993,26.8959982 Z" id="Shape"></path>
                                <path d="M39.3665573,22.3039985 L39.3665573,22.3039985 C39.3645893,22.3039985 39.3619653,22.3039985 39.3599973,22.3039985 C39.3580293,22.3039985 39.3554053,22.3039985 39.3534373,22.3039985 L39.3534373,22.3039985 C37.5481254,22.3079345 36.0799975,23.7773744 36.0799975,25.5839983 C36.0799975,27.3919341 37.5514054,28.863998 39.3599973,28.863998 C41.1685892,28.863998 42.6399971,27.3919341 42.6399971,25.5839983 C42.6399971,23.7773744 41.1718692,22.3079345 39.3665573,22.3039985 Z M39.3599973,26.8959982 C38.6370854,26.8959982 38.0479974,26.3069102 38.0479974,25.5839983 C38.0479974,24.8610863 38.6370854,24.2719983 39.3599973,24.2719983 C40.0829093,24.2719983 40.6726532,24.8610863 40.6726532,25.5839983 C40.6726532,26.3069102 40.0829093,26.8959982 39.3599973,26.8959982 Z" id="Shape"></path>
                                <path d="M46.9039968,23.6159984 L43.501981,23.6159984 C43.787341,24.2129583 43.951997,24.8794543 43.951997,25.5839983 C43.951997,26.0399182 43.883117,26.4794382 43.758477,26.8959982 L46.9039968,26.8959982 C47.8059967,26.8959982 48.5439967,26.1579982 48.5439967,25.2559983 C48.5439967,24.3539983 47.8059967,23.6159984 46.9039968,23.6159984 Z" id="Path"></path>
                                <path d="M36.1515015,22.3039985 C36.9806855,21.4931825 38.1116294,20.9919986 39.3599973,20.9919986 C40.6083652,20.9919986 41.7393091,21.4931825 42.5684931,22.3039985 L46.5727168,22.3039985 L46.5727168,20.5118066 C46.5727168,18.4736147 45.4863809,16.6696149 43.842445,15.7439989 L31.4879978,15.7439989 C31.1252299,15.7439989 30.8319979,15.4507669 30.8319979,15.087999 L30.8319979,9.88067132 C30.8319979,9.51790335 31.1252299,9.22467137 31.4879978,9.22467137 C31.8507658,9.22467137 32.1439978,9.51790335 32.1439978,9.88067132 L32.1439978,14.431999 L40.3571172,14.431999 L34.7693096,6.55803155 L27.5526541,6.55803155 C27.5375661,12.4620311 27.5519981,16.3986869 27.5519981,22.3039985 L36.1515015,22.3039985 Z" id="Path"></path>
                                <path d="M11.1519992,14.431999 L9.18399937,13.7759991 L7.21599951,14.431999 L7.21599951,11.8079992 L3.93599973,11.8079992 L3.93599973,22.3039985 L7.2993115,22.3039985 C8.12652744,21.4971185 9.25091137,20.9919986 10.4966553,20.9919986 C11.7417432,20.9919986 12.8661271,21.4971185 13.6933431,22.3039985 L14.431999,22.3039985 L14.431999,11.8079992 L11.1519992,11.8079992 L11.1519992,14.431999 Z" id="Path"></path>
                                <polygon id="Path" points="20.3359986 10.4959993 20.3359986 0 17.0559988 0 17.0559988 2.62399982 15.087999 1.96799987 13.1199991 2.62399982 13.1199991 0 9.83999933 0 9.83999933 10.4959993 15.087999 10.4959993"></polygon>
                                <polygon id="Path" points="19.0239987 11.8079992 15.7439989 11.8079992 15.7439989 22.3039985 26.2399982 22.3039985 26.2399982 11.8079992 22.9599984 11.8079992 22.9599984 14.431999 20.9919986 13.7759991 19.0239987 14.431999"></polygon>
                            </g>
                        </g>
                    </g>
                </g>
            </g>
        </g>
    </g>
</svg>