<?xml version="1.0" encoding="UTF-8"?>
<svg width="35px" height="29px" viewBox="0 0 35 29" version="1.1" xmlns="http://www.w3.org/2000/svg" xmlns:xlink="http://www.w3.org/1999/xlink">
    <!-- Generator: sketchtool 58 (101010) - https://sketch.com -->
    <title>244B41ED-597A-4553-81CD-F8D4636042C8</title>
    <desc>Created with sketchtool.</desc>
    <g id="LOT-1" stroke="none" stroke-width="1" fill="none" fill-rule="evenodd">
        <g id="HOMEPAGE-T1_V1" transform="translate(-222.000000, -3266.000000)" fill="#FFFFFF">
            <g id="SECTEURS" transform="translate(95.000000, 2974.000000)">
                <g transform="translate(104.000000, 70.000000)" id="Secteurs">
                    <g transform="translate(0.000000, 181.000000)">
                        <g id="CHARCUTERIE">
                            <g id="TEXTE" transform="translate(23.251366, 40.480874)">
                                <g id="01-Electrons/Secteurs/Viandes">
                                    <g id="steak">
                                        <path d="M26.4358537,26.2712195 C23.4219512,26.2712195 19.9931707,25.1692683 16.247561,22.997561 C13.2373171,21.2517073 10.1260976,20.6956098 7.38073171,20.2046341 C4.57609756,19.7012195 1.71585366,19.1817073 0.00804878049,17.2412195 C0.188780488,25.0836585 8.78853659,21.5553659 17.0304878,26.3326829 C27.1741463,32.2134146 33.3892683,28.98 34.3339024,22.08 C32.6919512,24.7287805 29.9414634,26.2712195 26.4358537,26.2712195 Z" id="Path" fill-rule="nonzero"></path>
                                        <path d="M8.67585366,16.1582927 C11.2873171,16.5812195 14.2463415,17.0597561 17.2214634,18.6204878 C20.3217073,20.2456098 23.1109756,21.0702439 25.512439,21.0709756 L25.512439,21.0709756 C27.6497561,21.0709756 29.4095122,20.3882927 30.6029268,19.0990244 C31.7590244,17.8492683 32.3692683,16.0617073 32.3692683,13.9280488 C32.3692683,7.4904878 25.4970732,2.25292683 17.0509756,2.25292683 C7.54609756,2.25292683 2.0956096,5.56756098 2.0956096,11.3473171 C2.09487805,15.0921951 4.71292683,15.5173171 8.67585366,16.1582927 Z M10.8278049,5.70439024 C13.2087805,5.70439024 15.1390244,7.19853659 15.1390244,9.0402439 C15.1390244,10.8826829 13.2087805,12.3768293 10.8278049,12.3768293 C8.44756098,12.3768293 6.51731707,10.8826829 6.51731707,9.0402439 C6.51731707,7.19853659 8.44756098,5.70439024 10.8278049,5.70439024 Z" id="Shape" fill-rule="nonzero"></path>
                                        <path d="M17.0304878,21.6460976 C28.0719512,28.0470732 34.464878,23.652439 34.464878,15.4792683 C34.464878,7.30609756 26.6604878,0.67902439 17.0304878,0.67902439 C7.40121951,0.679756098 0,4.13414634 0,12.3080488 C0,20.4819512 8.7,16.817561 17.0304878,21.6460976 Z M17.0509756,1.5204878 C25.9017073,1.5204878 33.1017073,7.08585366 33.1017073,13.9273171 C33.1017073,16.2482927 32.4226829,18.2085366 31.1407317,19.5958537 C29.8046341,21.0395122 27.8597561,21.8034146 25.5131707,21.8034146 L25.5131707,21.8034146 C22.992439,21.8034146 20.0882927,20.9502439 16.8819512,19.2687805 C14.0129268,17.765122 11.1160976,17.2960976 8.5595122,16.8819512 C4.5395122,16.23 1.36463387,15.7156098 1.36463387,11.3480488 C1.36317073,5.10219512 7.08146341,1.5204878 17.0509756,1.5204878 Z" id="Shape" fill-rule="nonzero"></path>
                                        <ellipse id="Oval" fill-rule="nonzero" cx="10.8278049" cy="9.04097561" rx="2.13658537" ry="1.65365854"></ellipse>
                                    </g>
                                </g>
                            </g>
                        </g>
                    </g>
                </g>
            </g>
        </g>
    </g>
</svg>