<?xml version="1.0" encoding="UTF-8"?>
<svg width="35px" height="36px" viewBox="0 0 35 36" version="1.1" xmlns="http://www.w3.org/2000/svg" xmlns:xlink="http://www.w3.org/1999/xlink">
    <!-- Generator: sketchtool 59 (101010) - https://sketch.com -->
    <title>8AECC2D0-54DF-4DB3-9973-8F14C3314186</title>
    <desc>Created with sketchtool.</desc>
    <g id="LOT-2" stroke="none" stroke-width="1" fill="none" fill-rule="evenodd">
        <g id="03-Hub-Visiteur" transform="translate(-908.000000, -2272.000000)" fill="#FFFFFF">
            <g id="SECTEURS" transform="translate(-2.000000, 1971.000000)">
                <g transform="translate(97.000000, 251.000000)" id="03">
                    <g transform="translate(792.000000, 0.000000)">
                        <g id="TEXTE" transform="translate(20.255037, 50.000000)">
                            <g id="01-Electrons/VisiteGuidée" transform="translate(0.744963, 0.519126)">
                                <g id="noun_Guide-post_1878244">
                                    <path d="M34.7435694,5.50633125 L31.2435694,2.00633125 C31.0795362,1.84216971 30.8569693,1.7499542 30.6249006,1.75 L18.3749006,1.75 L18.3749006,0.875 C18.3749006,0.391750844 17.9831498,0 17.4999006,0 C17.0166515,0 16.6249006,0.391750844 16.6249006,0.875 L16.6249006,14 L4.37490064,14 C4.14283386,13.9999638 3.92027049,14.0921779 3.75623189,14.2563313 L0.256231887,17.7563313 C-0.085410629,18.0980286 -0.085410629,18.6519714 0.256231887,18.9936688 L3.75623189,22.4936688 C3.92027049,22.6578221 4.14283386,22.7500362 4.37490064,22.75 L16.6249006,22.75 L16.6249006,33.25 L11.3749006,33.25 C10.8916515,33.25 10.4999006,33.6417508 10.4999006,34.125 C10.4999006,34.6082492 10.8916515,35 11.3749006,35 L23.6249006,35 C24.1081498,35 24.4999006,34.6082492 24.4999006,34.125 C24.4999006,33.6417508 24.1081498,33.25 23.6249006,33.25 L18.3749006,33.25 L18.3749006,10.5 L30.6249006,10.5 C30.8569693,10.5000458 31.0795362,10.4078303 31.2435694,10.2436688 L34.7435694,6.74366875 C35.0852119,6.40197136 35.0852119,5.84802864 34.7435694,5.50633125 Z" id="Path" fill-rule="nonzero"></path>
                                </g>
                            </g>
                        </g>
                    </g>
                </g>
            </g>
        </g>
    </g>
</svg>