<?xml version="1.0" standalone="no"?>
<!DOCTYPE svg PUBLIC "-//W3C//DTD SVG 20010904//EN"
 "http://www.w3.org/TR/2001/REC-SVG-20010904/DTD/svg10.dtd">
<svg version="1.0" xmlns="http://www.w3.org/2000/svg"
 width="824.000000pt" height="824.000000pt" viewBox="0 0 824.000000 824.000000"
 preserveAspectRatio="xMidYMid meet">
<metadata>
Created by potrace 1.11, written by Peter Selinger 2001-2013
</metadata>
<g transform="translate(0.000000,824.000000) scale(0.100000,-0.100000)"
fill="#000000" stroke="none">
<path d="M2820 7603 c0 -4 -87 -8 -193 -9 -260 -1 -395 -6 -437 -16 -19 -5
-43 -10 -52 -13 -69 -16 -120 -86 -112 -154 5 -43 45 -126 76 -161 13 -14 35
-41 50 -62 15 -20 33 -42 40 -50 8 -7 29 -33 48 -58 19 -25 37 -47 40 -50 4
-3 51 -61 106 -130 54 -69 101 -127 104 -130 3 -3 23 -27 45 -55 21 -27 42
-52 45 -55 3 -3 41 -50 85 -105 44 -55 85 -107 92 -115 7 -8 34 -42 60 -75 27
-33 56 -69 65 -80 9 -11 76 -94 149 -185 73 -91 138 -170 144 -177 5 -6 20
-24 32 -40 12 -15 31 -39 42 -53 11 -14 24 -29 28 -35 37 -46 138 -171 143
-175 3 -3 27 -32 52 -65 25 -33 54 -70 64 -81 11 -12 33 -39 49 -60 17 -21 38
-46 48 -56 9 -10 17 -21 17 -25 0 -5 18 -27 40 -51 22 -24 40 -47 40 -52 0 -4
4 -10 8 -12 13 -5 262 -318 262 -328 0 -6 -4 -10 -10 -10 -5 0 -10 -5 -10 -10
0 -6 -12 -23 -27 -38 -16 -15 -46 -49 -68 -76 -22 -27 -53 -63 -70 -81 -57
-62 -93 -105 -88 -105 4 0 -5 -10 -19 -22 -21 -20 -65 -70 -159 -182 -13 -15
-33 -38 -44 -50 -11 -12 -42 -48 -70 -80 -27 -32 -64 -75 -82 -95 -18 -20 -42
-47 -53 -61 -32 -37 -112 -129 -133 -154 -11 -11 -40 -45 -65 -75 -26 -30 -58
-67 -72 -82 -14 -15 -42 -47 -62 -71 -20 -24 -49 -56 -63 -72 -14 -15 -25 -29
-25 -31 0 -2 -12 -17 -27 -33 -16 -15 -46 -50 -68 -76 -22 -27 -51 -61 -65
-77 -14 -15 -43 -48 -65 -74 -22 -25 -53 -61 -70 -80 -48 -53 -113 -129 -144
-168 -15 -20 -31 -34 -35 -30 -3 3 -6 1 -6 -5 0 -11 -12 -28 -55 -76 -29 -32
-97 -110 -120 -137 -11 -13 -49 -58 -83 -99 -35 -41 -69 -79 -75 -85 -7 -5
-30 -32 -52 -60 -22 -27 -51 -63 -65 -78 -14 -15 -34 -38 -45 -50 -11 -12 -58
-67 -105 -122 -85 -100 -130 -152 -162 -186 -10 -11 -18 -21 -18 -24 0 -3 -8
-13 -17 -23 -10 -10 -43 -46 -73 -81 -30 -35 -64 -74 -75 -87 -70 -81 -112
-129 -180 -209 -43 -49 -89 -104 -104 -120 -14 -17 -48 -57 -76 -90 -27 -33
-52 -62 -55 -65 -3 -3 -28 -32 -55 -65 -28 -33 -52 -62 -55 -65 -3 -3 -34 -39
-68 -80 -35 -41 -76 -89 -90 -106 -15 -16 -43 -50 -62 -74 -31 -39 -68 -83
-130 -158 -10 -12 -15 -22 -12 -22 4 0 2 -4 -3 -8 -24 -17 -61 -110 -64 -158
-2 -44 2 -56 31 -95 66 -86 14 -81 847 -80 405 0 752 3 771 6 19 2 57 7 84 11
27 3 60 10 73 15 13 5 23 7 23 4 0 -7 160 54 218 82 30 16 57 34 59 41 3 6 11
12 17 12 11 0 54 45 156 163 19 23 45 52 58 64 12 13 22 26 22 29 0 3 12 18
28 33 15 16 36 39 47 52 44 53 190 224 195 229 3 3 30 34 60 70 30 36 64 75
75 87 11 12 31 34 44 50 13 15 37 44 55 63 17 19 53 62 81 95 27 33 54 65 60
71 32 36 126 144 214 247 56 66 107 125 114 131 6 7 30 35 52 62 22 27 51 61
65 76 14 14 36 41 50 58 14 17 36 44 50 59 14 15 43 49 65 75 22 26 49 57 60
70 17 19 47 53 138 160 10 11 28 32 40 46 12 14 49 57 82 95 33 38 65 75 70
81 6 7 30 35 55 64 25 29 53 62 63 74 10 12 37 43 60 70 23 27 47 54 52 60 6
6 35 40 65 76 30 35 69 80 87 100 17 19 41 46 52 60 11 14 26 32 33 40 7 8 56
64 108 125 52 60 106 123 120 139 14 16 43 50 65 76 77 89 134 155 155 180 62
73 118 137 138 158 12 12 22 25 22 27 0 3 8 13 18 23 22 23 62 70 132 152 30
36 60 70 65 76 13 14 88 102 115 134 12 14 34 39 48 55 15 17 41 46 57 66 17
19 53 62 80 94 28 32 60 69 71 81 12 12 31 36 43 53 21 29 21 30 3 43 -10 7
-24 23 -31 36 -7 13 -20 31 -29 41 -29 30 -62 71 -58 71 2 0 -6 12 -19 28 -13
15 -78 97 -145 182 -67 85 -127 162 -133 170 -42 52 -108 137 -115 145 -4 6
-37 47 -72 91 -36 45 -108 136 -160 204 -52 67 -100 127 -106 133 -5 7 -37 46
-70 87 -33 41 -67 84 -76 95 -9 11 -65 81 -124 155 -60 74 -113 140 -119 146
-5 6 -17 22 -25 34 -8 12 -22 30 -30 40 -17 21 -48 58 -126 155 -30 39 -63 79
-72 90 -10 11 -33 40 -52 65 -19 25 -44 55 -55 67 -11 12 -25 28 -30 35 -10
12 -111 135 -203 248 -58 69 -215 225 -243 241 -104 57 -132 69 -192 88 -98
30 -116 31 -522 36 -203 2 -372 5 -375 6 -3 1 -9 0 -15 -1 -23 -5 -174 -2
-184 4 -6 4 -11 4 -11 -1z"/>
<path d="M6525 6923 c-81 -16 -81 -16 -118 -31 -16 -7 -34 -12 -41 -12 -8 0
-19 -7 -26 -15 -7 -8 -17 -15 -22 -15 -30 0 -166 -119 -222 -196 -17 -21 -33
-41 -36 -44 -4 -4 -56 -70 -125 -158 -5 -7 -17 -21 -26 -30 -8 -9 -47 -57 -84
-107 -38 -49 -72 -92 -76 -95 -16 -12 -99 -124 -99 -134 0 -10 16 -31 76 -98
13 -15 24 -32 24 -37 0 -5 4 -11 8 -13 5 -1 66 -75 137 -163 71 -88 132 -162
135 -165 3 -3 32 -39 65 -80 33 -41 67 -84 77 -95 16 -20 79 -97 101 -125 51
-64 93 -116 97 -120 3 -3 29 -35 58 -72 35 -44 58 -65 67 -61 8 3 15 8 15 12
0 4 19 30 43 58 23 28 56 68 72 88 17 21 35 43 40 49 6 6 37 45 70 86 32 41
64 80 70 86 5 6 24 29 40 50 17 21 42 52 56 69 14 16 65 80 114 140 49 61 92
112 95 115 3 3 19 23 35 45 17 22 33 42 36 45 7 5 94 111 144 175 17 21 35 43
40 49 6 6 28 34 50 61 22 28 42 52 45 55 5 5 117 141 150 183 8 11 20 24 25
31 89 100 177 218 183 245 19 90 -19 169 -108 221 -37 21 -1080 24 -1185 3z"/>
<path d="M6429 4548 c-28 -35 -68 -83 -89 -108 -21 -25 -65 -79 -100 -120 -34
-41 -69 -84 -78 -95 -9 -11 -37 -45 -62 -75 -25 -30 -47 -57 -50 -60 -3 -3
-25 -30 -50 -60 -25 -30 -49 -60 -55 -66 -5 -6 -21 -25 -35 -43 -14 -18 -31
-39 -37 -46 -36 -39 -113 -140 -113 -148 0 -6 -3 -7 -6 -4 -4 4 -23 -15 -42
-41 -20 -26 -42 -53 -49 -60 -7 -7 -13 -18 -13 -23 0 -10 56 -97 69 -109 3 -3
26 -34 50 -70 25 -36 48 -67 51 -70 3 -3 38 -50 77 -106 40 -56 96 -123 125
-149 60 -55 165 -125 224 -150 21 -10 46 -21 54 -25 33 -15 122 -32 184 -33
36 -1 66 -6 66 -10 0 -4 8 -4 18 0 9 5 220 8 467 7 427 -2 535 4 535 27 0 5 5
9 10 9 15 0 45 33 63 69 11 22 15 53 13 95 -2 66 -14 89 -80 167 -17 20 -42
51 -56 68 -22 29 -37 48 -68 86 -4 6 -34 44 -67 85 -32 41 -61 77 -64 80 -4 3
-22 25 -41 50 -47 61 -41 54 -122 155 -40 50 -76 95 -80 100 -11 14 -77 96
-96 120 -10 11 -30 38 -47 60 -30 41 -46 60 -79 98 -10 12 -30 38 -45 57 -14
19 -28 37 -31 40 -3 3 -39 48 -80 100 -85 108 -82 105 -116 145 -14 17 -39 49
-56 73 -17 23 -35 42 -39 42 -5 0 -31 -28 -60 -62z"/>
</g>
</svg>
