<svg xmlns="http://www.w3.org/2000/svg" width="62" height="45" viewbox="0 0 62 45"><g fill="none"><path fill="#C7C7CA" d="M44.85 25.1c-1.06 5.8-5.6 10.6-11.75 11.68-6.14 1.08-12.05-1.87-15.03-6.95l-7.94 1.4c3.96 9.3 13.93 15 24.32 13.17 10.38-1.83 17.8-10.6 18.34-20.7l-7.95 1.4zM50.66 12.93C46.46 4.13 36.8-1.2 26.72.6 16.65 2.36 9.37 10.65 8.44 20.36l8.08-1.42c1.36-5.37 5.74-9.7 11.55-10.73 5.8-1.03 11.4 1.56 14.5 6.13l8.1-1.42z"/><path fill="#1D1D1B" d="M20.18 20.8l.87-.16 1.08 6.08-.88.15zM22.06 21.33c-.1-.6.08-.9.62-1 .38-.08.62.04.88.44l2.62 4.14-.9-5 .9-.16.94 5.35c.1.45-.18.86-.63.94-.37.06-.65-.08-.9-.5L23 21.5l.86 4.9-.87.17-.94-5.24zM27.2 20.43c-.1-.62.07-.92.6-1 .4-.08.64.03.9.44L31.3 24l-.87-5 .88-.17.96 5.36c.08.45-.2.85-.63.93-.37.07-.64-.08-.9-.48l-2.6-4.06.87 4.9-.88.16-.92-5.23zM34.8 23.57l.95-.16c.64-.1.8-.3.7-.9l-.5-2.77c-.1-.6-.32-.74-.96-.63l-.95.16c-.65.12-.8.32-.7.93l.5 2.74c.1.6.3.74.96.63m-1.23.67c-.34-.25-.5-.6-.6-1.2l-.5-2.66c-.1-.58-.04-.95.2-1.32.25-.42.5-.56 1.36-.7l.66-.12c.85-.15 1.1-.1 1.52.2.35.25.52.58.62 1.17l.47 2.7c.12.58.07.94-.17 1.3-.26.43-.5.56-1.37.72l-.66.1c-.85.16-1.12.13-1.53-.18M37.5 17.74l2.58 4.57.9-5.17.95-.17-1.04 6c-.08.4-.24.58-.58.64-.33.06-.53-.06-.73-.4l-3.06-5.3.95-.16zM43.1 20.8l2-.34-1.5-2.6-.5 2.95zm-.3-3.4c.1-.5.23-.7.58-.76.38-.07.57.05.84.5l2.98 5.16-.94.16-.68-1.18-2.64.47-.24 1.34-.95.16 1.05-5.86zM45.07 16.4l3.53-.6.15.87-1.32.23.92 5.2-.9.15-.9-5.2-1.32.24zM48.97 15.72l.88-.15 1.07 6.07-.88.16zM53.33 20.3l.94-.16c.64-.1.8-.32.7-.92l-.5-2.76c-.1-.6-.32-.74-.96-.63l-.93.17c-.65.1-.8.3-.7.92l.5 2.76c.1.6.3.74.96.62m-1.23.67c-.34-.25-.52-.6-.62-1.18L51 17.1c-.1-.6-.05-.96.18-1.33.27-.43.52-.56 1.37-.7l.66-.13c.87-.15 1.13-.1 1.54.2.35.25.52.6.62 1.18l.48 2.67c.1.6.05.95-.2 1.33-.25.42-.5.55-1.36.7l-.66.1c-.85.17-1.12.14-1.52-.18M56.07 15.34c-.1-.62.08-.92.62-1.02.37-.06.6.05.87.46l2.62 4.13-.9-5 .9-.16.93 5.35c.1.46-.18.86-.63.94-.36.06-.64-.08-.9-.5L57 15.5l.87 4.92-.87.15-.93-5.23zM19.56 26.84c-.15-.27-.36-.57-.64-.52-.04 0-.08 0-.12.03-.34.2-.7.3-1.13.38-.9.14-1.4-.1-1.5-.7L15.5 22l-.02-.13h-.05a.904.904 0 00-.37 0c-.22.03-.42.12-.58.28l-.02.03.62 3.87v.07c.26 1.5 1.57 1.6 2.63 1.43.72-.1 1.33-.32 1.83-.62l.06-.03-.04-.06zM2.77 26.44h-.03c-1.04-.04-1.67-.06-1.77-.7-.12-.76.86-.92 1.2-.97.3-.05.64-.07.92-.06.4.04.52-.35.58-.7l.02-.1h-.08c-.53-.04-1.02-.03-1.5.05-1.5.24-2.24.96-2.07 2.03.08.53.35.9.82 1.1.43.2 1 .22 1.63.26h.1c.7.04 1.2.07 1.28.66.05.28 0 .95-1.28 1.15-.42.07-.8.07-1.2 0h-.12c-.28.04-.38.38-.45.7v.06l.05.03c.57.12 1.22.13 1.93 0 1.07-.16 2.3-.67 2.05-2.17-.15-.92-.7-1.27-2.08-1.32M6.22 23.35h-.05a.913.913 0 00-.37 0c-.23.03-.42.13-.58.28l-.02.03.9 5.58 1.06-.17-.92-5.63-.02-.1zM10.9 22.58a.794.794 0 00-.38 0c-.4.05-.7.36-.85.9l-1.7 5.44 1-.16 1.53-5.07 1.7 2.38.04.07-1.9.3-.28.87v.1l2.76-.44.74 1.04 1.18-.2-3.8-5.22-.03-.02z"/><path fill="#1D1D1B" d="M4.74 27.35c.05.12.1.26.1.4.04.2.05.35.03.5l1.04-.16-.14-.9-1.02.15zM6.82 27.02l.15.9 1.38-.22.3-.97zM15.08 26.06l-.05-.35-1.65.27.6.82 1.24-.2c-.05-.14-.1-.3-.13-.47l-.02-.07z"/><path fill="#FEFEFE" d="M27.57 40.7l-.22-1.2-.66 1.04.87.16zm-.3-2.3l.56.1.88 4.18-.78-.15-.2-1.08-1.43-.27-.6.92-.8-.15 2.36-3.56zM28.9 38.85l.76-.05.86 2.7.5-2.8.52-.02.85 2.7.5-2.8.74-.04-.88 4-.58.05-.82-2.57-.47 2.64-.6.04zM36.4 39.97l-.75-.97-.1 1.23.86-.26zm-1.34-1.9l.56-.18 2.72 3.3-.77.22-.7-.85-1.37.42-.1 1.08-.76.24.42-4.25z"/><g fill="#FEFEFE"><path d="M38.88 38.6l.38-.2c.15-.1.63-.37.36-.87-.28-.5-.77-.25-.92-.17l-.38.2.56 1.04zm-1.54-1.3l1-.55c1.16-.64 1.72.06 1.9.4.3.54.2 1.22-.34 1.58l1.67.75-.8.43-1.6-.77.7 1.28-.64.36-1.9-3.46zM43.04 37.5c.3-.27 1.02-.96.23-1.86-.82-.93-1.62-.3-1.92-.02l-.24.2 1.68 1.9.26-.23zm-2.94-1.73l.82-.7c1.36-1.2 2.4-.48 2.9.1.28.3 1.2 1.53-.3 2.84l-.83.74-2.6-2.97z"/></g><path fill="#C7C7CA" d="M36.4 14.8a.193.193 0 00-.25-.12c-.07.02-.1.08-.12.14-1.8-.47-3.2.52-4.2 2.38.07-1.44.73-2.97 2.8-3.98 0 0 0 .03.02.04.1.1.28.1.4 0 .1-.1.1-.27 0-.38-.1-.1-.28-.1-.4 0-.07.07-.1.2-.05.3-1.74.6-2.4 1.37-2.9 2.24-.4.74-.57 1.45-.6 2.15 0 0-.1-.3-.1-.72.07-1.76.64-3.8 3.14-4.88.02.05.05.1.1.13.14.08.3.04.38-.1.08-.12.04-.3-.1-.36-.12-.08-.3-.04-.36.1a.21.21 0 00-.03.2c-1.68.68-3.27 2.44-3.53 4.22.03-.16.08-1.52.43-2.63.47-1.5 1.34-2.94 3.15-3.84 0 .03.03.07.06.1.1.1.27.1.38 0 .1-.1.12-.27 0-.38-.1-.1-.27-.1-.37 0-.07.06-.1.15-.08.24-3 1.16-3.8 3.52-3.95 5.73-.52-1.06-1.28-2.45-2.74-3.43-.4-.26-1.03-.6-1.54-.37-.3.13-.46.5-.36 1.23-.05 0-.1.04-.13.07-.1.1-.1.28 0 .4.1.1.27.1.38 0 .1-.1.1-.28 0-.4a.28.28 0 00-.22-.07c-.02-.4.05-.73.2-.92.42-.47 1.26.14 1.6.4 1.34 1.03 2.46 3.12 2.92 4.68-.78-.8-1.8-2.2-3.04-2.82-1.54-.74-2.07-.85-3.4-.93.04-.12 0-.25-.08-.35a.365.365 0 00-.52 0c-.14.13-.15.36 0 .5.13.15.36.16.5.02.05-.04.07-.08.1-.12 1.57.25 1.73.34 3.07 1.05 1.5.8 2.92 3.4 2.92 3.4s-.77-1.23-2.43-2.37c-1.4-.95-3-1.75-5.1-1.55 0-.06 0-.12-.06-.17-.1-.1-.28-.1-.38 0-.1.1-.12.27 0 .38.1.12.26.12.37.02.05-.05.07-.1.08-.16.94-.05 1.94.17 3.35.8 2.17.97 3.86 3.48 3.86 3.48s-1.68-1.55-2.47-2c-1.27-.7-2.63-.7-3.54-.6 0-.03-.03-.08-.07-.12-.1-.1-.28-.1-.4 0-.1.1-.1.27 0 .38.1.1.27.1.38 0 .07-.05.1-.13.1-.2 1.8-.02 3.55.74 4.66 1.85-1.44-.87-3.3-1.45-5.34-.85 0-.04-.03-.08-.06-.1a.26.26 0 00-.38-.02c-.1.1-.12.28 0 .4.1.1.26.1.37 0 .07-.07.1-.17.08-.27 1.68-.4 3-.06 4.24.6.5.24 1 .57 1.43.95.1.08.18.17.24.27l2.72-.48.32-.06.18-.03c.56-1.1 1.65-3.3 4-3v.1c.06.1.17.15.28.1.1-.03.16-.15.1-.26"/><g fill="#FEFEFE"><path d="M20.25 8.47c.18.25.48.28.7.13.28-.18.34-.47.2-.7-.23-.35-.6-.28-.84-.22-.44.1-1.1.3-1.55-.37-.28-.42-.27-1.15.38-1.57.63-.4 1.24-.12 1.56.32l-.64.4c-.1-.16-.32-.27-.56-.1-.25.15-.25.4-.13.57.17.25.46.18.7.12.4-.1 1.16-.35 1.65.42.4.58.24 1.33-.4 1.74-.48.32-1.27.36-1.7-.32l.63-.4zM21.24 4.57l.65-.32 1.73 3.54-.66.3zM23.1 3.7l.7-.25 1.07 3.05L26 6.1l.24.67-1.83.64zM25.3 2.88l.74-.13 1.56 2.77.53-3.14.76-.13-.84 4.15-.6.1zM30.04 2.24l2.1.07v.72l-1.4-.04-.03.9 1.34.05-.02.7-1.33-.04-.04.9 1.38.05-.02.7-2.1-.07zM33.72 4.45l.42.1c.17.03.72.14.84-.4.13-.57-.4-.7-.58-.75l-.42-.1-.26 1.15zm-.3-2l1.12.26c1.3.3 1.25 1.2 1.16 1.56-.14.6-.67 1.05-1.3.97l.75 1.66-.88-.2-.68-1.65-.34 1.4-.7-.15.87-3.85z"/></g></g></svg>