<svg xmlns="http://www.w3.org/2000/svg" width="61" height="45" viewbox="0 0 61 45"><g fill="none"><path fill="#CE6E2D" d="M44.8 24.8c-1.05 5.76-5.57 10.53-11.67 11.6-6.1 1.08-12-1.85-14.95-6.9l-7.9 1.4c3.95 9.24 13.86 14.9 24.18 13.1 10.33-1.83 17.7-10.55 18.24-20.6l-7.9 1.4zM50.58 12.7C46.42 3.95 36.8-1.33 26.78.44c-10 1.76-17.24 10-18.16 19.66l8.03-1.4C18 13.34 22.35 9.03 28.12 8c5.78-1 11.34 1.57 14.43 6.12l8.03-1.42z"/><path fill="#1D1D1B" d="M20.28 20.52l.87-.15 1.07 6.04-.87.17zM22.16 21.06c-.1-.6.07-.9.6-1 .4-.08.63.04.9.44l2.6 4.1-.9-4.97.9-.16.93 5.32c.07.45-.2.85-.64.93-.36.07-.64-.07-.9-.48l-2.58-4.03.86 4.9-.87.14-.9-5.2zM27.26 20.16c-.1-.6.07-.9.6-1 .4-.07.63.04.9.44l2.6 4.1-.9-4.97.9-.16.93 5.32c.07.45-.2.85-.64.93-.36.07-.64-.08-.9-.48l-2.57-4.03.85 4.9-.87.14-.92-5.2zM34.83 23.28l.93-.16c.63-.1.8-.32.7-.9l-.5-2.76c-.1-.6-.32-.74-.96-.62l-.93.16c-.64.1-.8.3-.7.92l.5 2.74c.1.6.3.74.96.62m-1.23.67c-.34-.25-.5-.6-.62-1.18l-.47-2.66c-.1-.57-.04-.94.2-1.3.25-.42.5-.55 1.35-.7l.65-.12c.86-.15 1.12-.1 1.52.2.35.25.52.58.63 1.17L37.3 22c.12.6.07.95-.17 1.32-.26.42-.5.55-1.36.7l-.65.12c-.85.15-1.12.12-1.52-.2M37.5 17.5l2.57 4.53.9-5.15.93-.17-1.03 5.98c-.07.4-.23.57-.57.63-.32.07-.53-.05-.73-.4l-3.02-5.24.94-.17zM43.07 20.54l1.98-.35-1.5-2.6-.48 2.94zm-.3-3.4c.1-.5.23-.7.57-.75.4-.08.57.04.84.5l2.96 5.12-.94.16-.67-1.17-2.62.47-.23 1.34-.94.17 1.04-5.82zM45.03 16.16l3.5-.62.15.88-1.3.24.9 5.16-.88.15-.9-5.16-1.32.24zM48.9 15.48l.87-.16 1.07 6.05-.87.15zM53.24 20.04l.93-.17c.63-.1.8-.3.7-.9l-.5-2.76c-.1-.58-.32-.72-.96-.6l-.92.15c-.64.12-.8.32-.7.92l.5 2.74c.1.6.3.75.96.64M52 20.7c-.33-.25-.5-.6-.6-1.18l-.48-2.65c-.1-.58-.05-.95.18-1.32.26-.42.52-.55 1.36-.7l.65-.1c.87-.17 1.13-.12 1.53.18.35.25.52.6.63 1.17l.46 2.66c.1.58.06.95-.18 1.32-.26.42-.5.54-1.36.7l-.65.1c-.85.16-1.12.13-1.52-.18M55.96 15.1c-.1-.6.07-.9.6-1 .4-.08.63.04.9.44l2.6 4.1-.9-4.97.9-.16.93 5.33c.07.46-.2.86-.64.94-.36.07-.63-.08-.9-.48l-2.57-4.04.85 4.9-.87.14-.92-5.2zM19.67 26.53c-.15-.27-.36-.56-.64-.52-.04.02-.08.03-.12.05-.33.2-.7.3-1.1.37-.9.14-1.4-.1-1.5-.7l-.66-4-.03-.13-.04-.02c-.08 0-.22-.02-.37 0-.23.04-.42.14-.58.3l-.02.02.62 3.85v.07c.25 1.48 1.55 1.6 2.6 1.42.7-.12 1.32-.32 1.82-.62l.06-.03-.03-.07zM2.98 26.14h-.03c-1.04-.04-1.66-.06-1.76-.7-.13-.76.85-.92 1.17-.97.3-.05.65-.07.93-.05.4.03.52-.36.6-.73v-.08h-.08c-.53-.05-1-.04-1.48.03-1.5.25-2.24.96-2.07 2.03.1.53.35.88.82 1.1.42.18.97.2 1.6.25h.1c.7.04 1.2.07 1.28.66.05.26 0 .93-1.28 1.13-.4.07-.8.07-1.2 0h-.1c-.28.04-.38.37-.45.7v.05l.05.02c.57.12 1.22.13 1.92.02 1.06-.17 2.26-.7 2.03-2.17-.15-.92-.7-1.26-2.07-1.3M6.4 23.06h-.05a.85.85 0 00-.36 0c-.24.03-.43.13-.6.28v.03l.88 5.55 1.06-.17-.92-5.6-.02-.1zM11.07 22.3h-.02a.98.98 0 00-.37-.02c-.4.07-.68.38-.85.9l-1.7 5.42 1-.16 1.53-5.04 1.68 2.38.05.07-1.9.3-.27.86-.02.1 2.77-.43.73 1.04 1.18-.18-3.8-5.2v-.02z"/><path fill="#1D1D1B" d="M4.94 27.04c.04.12.08.26.1.4.03.2.04.35.03.5l1.03-.17-.15-.9-1 .17zM7 26.7l.15.9 1.37-.22.3-.96zM15.22 25.75l-.06-.35-1.63.27.6.8 1.23-.18c-.06-.15-.1-.3-.13-.48v-.07z"/><path fill="#FEFEFE" d="M28.46 40.57l-.27-1.1-.55 1 .8.1zm-.4-2.1l.53.07 1 3.77-.74-.1-.24-.96-1.3-.17-.5.87-.73-.1 1.96-3.37zM29.63 38.8l.68-.07.86 2.46.4-2.58.47-.04.84 2.45.4-2.57.68-.06-.72 3.7-.53.03-.8-2.3-.37 2.4-.53.06zM36.52 39.7l-.7-.9-.1 1.14.8-.25zm-1.25-1.74l.5-.16 2.5 3-.7.22-.62-.78-1.26.4-.1 1-.7.2.37-3.88z"/><g fill="#FEFEFE"><path d="M38.78 38.45l.35-.2c.13-.06.58-.3.34-.77-.25-.46-.7-.24-.85-.16l-.34.18.5.95zm-1.4-1.2l.92-.5c1.08-.57 1.57.08 1.74.38.27.5.16 1.13-.33 1.45l1.52.7-.72.4-1.45-.75.6 1.18-.58.33-1.7-3.2zM42.6 37.53c.27-.23.95-.84.26-1.68-.72-.9-1.47-.32-1.76-.1l-.22.2 1.46 1.8.25-.22zm-2.65-1.66l.77-.64c1.3-1.04 2.2-.35 2.65.2.25.3 1.05 1.44-.36 2.6l-.77.63-2.28-2.8z"/></g><path fill="#CE6E2D" d="M36.2 14.7a.237.237 0 00-.3-.13c-.06.03-.1.1-.1.15-1.87-.48-3.33.54-4.37 2.46.08-1.5.75-3.07 2.9-4.12 0 0 .02.03.03.04.1.1.3.1.4 0 .1-.1.12-.28 0-.4-.1-.1-.28-.1-.4 0-.08.08-.1.2-.05.32-1.8.62-2.48 1.42-3 2.32-.42.77-.6 1.5-.63 2.24 0 0-.1-.33-.1-.76.08-1.82.66-3.94 3.25-5.06.03.05.06.1.12.14.14.08.3.04.4-.1.07-.13.03-.3-.1-.38-.14-.1-.3-.04-.4.1-.04.06-.04.15-.02.22-1.74.7-3.4 2.52-3.67 4.37.03-.15.1-1.57.45-2.7.5-1.6 1.4-3.07 3.27-4 0 .04.03.08.06.1.1.12.3.13.4.02.1-.1.12-.3 0-.4-.1-.1-.28-.12-.4 0-.06.06-.1.15-.07.24-3.1 1.2-3.95 3.66-4.1 5.95v.03c-.54-1.1-1.33-2.55-2.85-3.57-.4-.27-1.06-.6-1.58-.38-.3.14-.48.5-.38 1.28-.05 0-.1.03-.13.07-.1.1-.1.28 0 .4.1.1.3.1.4 0 .1-.1.12-.28 0-.4a.24.24 0 00-.23-.08c-.02-.42.05-.75.22-.95.4-.5 1.28.14 1.65.4 1.37 1.07 2.54 3.25 3 4.86-.8-.83-1.85-2.3-3.14-2.92-1.6-.77-2.14-.9-3.5-.97.02-.13 0-.26-.1-.36-.15-.14-.4-.15-.54 0-.15.14-.15.38 0 .53.13.15.37.16.53 0 .02-.02.05-.07.07-.1 1.64.25 1.8.34 3.2 1.08 1.56.84 3.03 3.54 3.03 3.54s-.8-1.27-2.53-2.46c-1.43-.98-3.12-1.8-5.27-1.6 0-.08-.03-.14-.08-.2-.1-.1-.3-.1-.4 0-.1.1-.12.28 0 .4.1.1.28.1.4 0 .04-.04.06-.1.07-.15.97-.06 2 .16 3.47.82 2.25 1 4 3.6 4 3.6s-1.74-1.6-2.56-2.05c-1.3-.73-2.7-.73-3.65-.62 0-.05-.04-.1-.07-.13-.1-.12-.3-.12-.4 0-.12.1-.12.28 0 .4.1.1.28.1.4 0 .05-.06.08-.15.07-.23 1.9 0 3.7.78 4.86 1.93-1.5-.9-3.43-1.5-5.53-.88a.746.746 0 00-.07-.12c-.1-.1-.3-.1-.4 0-.1.1-.12.28 0 .4.1.1.28.1.4 0 .07-.07.1-.17.07-.27 1.74-.42 3.1-.08 4.4.6.5.26 1.02.6 1.48 1 .1.08.18.17.25.27l2.8-.5.34-.05.2-.03c.57-1.14 1.7-3.44 4.14-3.1v.08c.06.1.18.16.3.12.1-.05.15-.17.1-.28"/><g fill="#FEFEFE"><path d="M18.98 10.02c.06-.06.42-.4.1-.72-.08-.1-.34-.3-.72.04l-.32.3.62.67.32-.28zm-1.15-1.08c.32-.3.16-.52.1-.6-.24-.25-.5-.04-.6.06l-.23.2.5.55.23-.2zm-1.66-.36L16.8 8c.17-.16.93-.85 1.57-.15.3.33.2.67.18.77.37-.16.76-.07 1.04.23.34.38.52 1-.33 1.78l-.66.6-2.43-2.65zM20.38 7.3l.33-.23c.14-.1.56-.38.28-.8-.3-.45-.72-.18-.85-.1l-.33.22.58.9zm-1.5-1.1l.88-.56c1-.66 1.57-.07 1.76.22.3.48.26 1.1-.2 1.48l1.58.56-.7.45-1.5-.6.72 1.1-.56.38-1.98-3.02zM25.53 4.8c-.25-.6-.93-.94-1.6-.7-.65.27-.95.97-.7 1.6.24.64.94.96 1.6.7.65-.24.94-.96.7-1.6m.62-.2c.38.96-.1 2.03-1.1 2.42-1 .38-2.07-.1-2.44-1.07-.37-.97.1-2.05 1.1-2.44 1-.38 2.08.1 2.45 1.1M26.7 2.63l.67-.08 1.88 2.23-.3-2.42.68-.08.42 3.58-.66.08-1.9-2.23.3 2.43-.67.08zM30.46 5.24L32 3.04l-1.28-.1.05-.64 2.1.16-.06.65-1.54 2.2 1.44.12-.05.64-2.24-.18zM33.77 2.6l1.88.45-.15.63-1.23-.28-.2.8 1.2.28-.16.63-1.17-.26-.2.8 1.25.3-.15.62-1.88-.44z"/></g></g></svg>