<?xml version="1.0" encoding="UTF-8"?>
<svg width="215px" height="279px" viewBox="0 0 215 279" version="1.1" xmlns="http://www.w3.org/2000/svg" xmlns:xlink="http://www.w3.org/1999/xlink">
    <!-- Generator: sketchtool 59.1 (101010) - https://sketch.com -->
    <title>C2B971C8-E62D-4A5A-AD71-C50CEF6C8FB1</title>
    <desc>Created with sketchtool.</desc>
    <g id="LOT-2" stroke="none" stroke-width="1" fill="none" fill-rule="evenodd">
        <g id="03-Hub-Visiteur" transform="translate(-1225.000000, -336.000000)" fill="#FFD200" fill-rule="nonzero">
            <g id="LE-SAVIEZ-VOUS" transform="translate(1161.000000, 336.000000)">
                <g id="idea">
                    <g transform="translate(64.000000, -2.000000)">
                        <path d="M149.111996,48.8319986 C92.8547634,48.8319986 47.0879986,94.5137267 47.0879986,150.66643 C47.0879986,193.269164 73.4401969,231.007807 113.103526,245.911575 L113.103526,300.422948 C113.103526,303.735562 115.786157,306.413209 119.104938,306.413209 L125.106349,306.413209 L125.106349,318.39373 C125.106349,321.706344 127.78898,324.383991 131.107761,324.383991 L167.11623,324.383991 C170.435011,324.383991 173.117642,321.706344 173.117642,318.39373 L173.117642,306.413209 L179.119054,306.413209 C182.437834,306.413209 185.120465,303.735562 185.120465,300.422948 L185.120465,245.911575 C224.783794,231.007807 251.135993,193.269164 251.135993,150.66643 C251.135993,94.5137267 205.369228,48.8319986 149.111996,48.8319986 Z M167.11623,294.432687 C163.79745,294.432687 161.114819,297.110334 161.114819,300.422948 L161.114819,312.403469 L137.109172,312.403469 L137.109172,300.422948 C137.109172,297.110334 134.426542,294.432687 131.107761,294.432687 L125.106349,294.432687 L125.106349,264.481384 L173.117642,264.481384 L173.117642,294.432687 L167.11623,294.432687 Z M177.246613,235.979723 C174.780033,236.788408 173.117642,239.088669 173.117642,241.670471 L173.117642,252.500862 L125.106349,252.500862 L125.106349,241.670471 C125.106349,239.082678 123.443958,236.788408 120.977378,235.979723 C83.9666729,223.831475 59.0908218,189.543222 59.0908218,150.66643 C59.0908218,101.120984 99.4743204,60.81252 149.111996,60.81252 C198.749671,60.81252 239.13317,101.120984 239.13317,150.66643 C239.13317,189.543222 214.257318,223.831475 177.246613,235.979723 Z" id="Shape"></path>
                        <path d="M149.111996,36.6239989 C152.487508,36.6239989 155.215996,33.895511 155.215996,30.5199991 L155.215996,6.10399982 C155.215996,2.72848792 152.487508,0 149.111996,0 C145.736484,0 143.007996,2.72848792 143.007996,6.10399982 L143.007996,30.5199991 C143.007996,33.895511 145.736484,36.6239989 149.111996,36.6239989 Z" id="Path"></path>
                        <path d="M30.5199991,143.879996 L6.10399982,143.879996 C2.72848792,143.879996 0,146.608484 0,149.983996 C0,153.359508 2.72848792,156.087995 6.10399982,156.087995 L30.5199991,156.087995 C33.895511,156.087995 36.6239989,153.359508 36.6239989,149.983996 C36.6239989,146.608484 33.895511,143.879996 30.5199991,143.879996 Z" id="Path"></path>
                        <path d="M60.1491261,231.136703 L42.7846151,248.502113 C40.3837934,250.903059 40.3837934,254.783872 42.7846151,257.184818 C43.9819559,258.382221 45.5538494,258.983992 47.1257429,258.983992 C48.6976364,258.983992 50.2695299,258.382221 51.4668706,257.184818 L68.8313817,239.819408 C71.2322034,237.418462 71.2322034,233.537649 68.8313817,231.136703 C66.4305599,228.735757 62.5499479,228.735757 60.1491261,231.136703 Z" id="Path"></path>
                        <path d="M60.1491261,68.8328236 C61.3464669,70.0302263 62.9183604,70.631998 64.4902539,70.631998 C66.0621474,70.631998 67.6340409,70.0302263 68.8313817,68.8328236 C71.2322034,66.4318775 71.2322034,62.5510645 68.8313817,60.1501185 L51.4668706,42.7847083 C49.0660489,40.3837623 45.1854368,40.3837623 42.7846151,42.7847083 C40.3837934,45.1856544 40.3837934,49.0664674 42.7846151,51.4674134 L60.1491261,68.8328236 Z" id="Path"></path>
                        <path d="M149.179073,76.7359978 C109.232754,76.7359978 76.7359978,109.232754 76.7359978,149.179073 C76.7359978,152.517491 79.4345023,155.215996 82.7729207,155.215996 C86.111339,155.215996 88.8098436,152.517491 88.8098436,149.179073 C88.8098436,115.89148 115.89148,88.8098436 149.179073,88.8098436 C152.517491,88.8098436 155.215996,86.111339 155.215996,82.7729207 C155.215996,79.4345023 152.517491,76.7359978 149.179073,76.7359978 Z" id="Path"></path>
                    </g>
                </g>
            </g>
        </g>
    </g>
</svg>