<?xml version="1.0" encoding="UTF-8"?>
<svg width="366px" height="309px" viewBox="0 0 366 309" version="1.1" xmlns="http://www.w3.org/2000/svg" xmlns:xlink="http://www.w3.org/1999/xlink">
    <!-- Generator: sketchtool 58 (101010) - https://sketch.com -->
    <title>FCB4D352-571D-4887-8305-6C6EB488C000</title>
    <desc>Created with sketchtool.</desc>
    <g id="LOT-1" stroke="none" stroke-width="1" fill="none" fill-rule="evenodd">
        <g id="HOMEPAGE-T1_V1" transform="translate(-979.000000, -6668.000000)" fill="#FFD200" fill-rule="nonzero">
            <g id="04-Organisms/Newsletter" transform="translate(733.000000, 6537.000000)">
                <g id="NEWSLETTER">
                    <g id="20190621_Visuel-Sial---Citron-Récupéré" transform="translate(-0.000000, 0.000000)">
                        <g id="sent-mail-(2)" transform="translate(246.000000, 125.000000)">
                            <path d="M384.034716,1.43094422 C382.31647,-0.07508376 379.871229,-0.424491478 377.798717,0.536091456 L3.33875042,174.400449 C1.32278259,175.336816 0.0245777742,177.346775 0,179.567763 C-0.0238885389,181.78875 1.23161976,183.826386 3.22797028,184.805419 L109.199564,236.776069 C111.142832,237.729733 113.459984,237.514092 115.195539,236.217939 L218.229151,159.262908 L137.34349,242.4058 C136.189531,243.592403 135.601011,245.217206 135.727947,246.866226 L143.781432,351.675857 C143.960296,353.998322 145.518142,355.984065 147.732591,356.71171 C148.324572,356.905441 148.932709,357 149.533922,357 C151.182931,357 152.786935,356.293112 153.902814,355.001572 L210.149124,289.868745 L279.680974,323.068244 C281.190354,323.788969 282.937449,323.818952 284.471062,323.152425 C286.004674,322.484745 287.172482,321.186286 287.6733,319.592617 L385.734499,7.49311047 C386.419951,5.31363659 385.751809,2.93697221 384.034716,1.43094422 Z" id="Path"></path>
                        </g>
                    </g>
                </g>
            </g>
        </g>
    </g>
</svg>