<svg xmlns="http://www.w3.org/2000/svg" width="61" height="45" viewbox="0 0 61 45"><g fill="none"><path fill="#D1B251" d="M44.62 24.75a14.468 14.468 0 01-11.67 11.6c-6.1 1.06-11.97-1.87-14.93-6.9l-7.88 1.38c3.93 9.24 13.83 14.9 24.14 13.08C44.6 42.1 51.96 33.4 52.5 23.37l-7.88 1.4zM50.4 12.66C46.22 3.9 36.6-1.36 26.6.4c-10 1.77-17.22 10-18.14 19.65l8.03-1.4C17.83 13.3 22.17 9 27.94 7.97c5.76-1.02 11.32 1.55 14.4 6.1l8.04-1.42z"/><path fill="#1D1D1B" d="M20.12 20.47l.87-.15 1.05 6.03-.87.16zM22 21c-.12-.6.06-.9.6-1 .38-.07.62.05.88.45l2.6 4.1-.88-4.97.88-.16.93 5.32c.1.46-.17.86-.62.93-.36.07-.63-.07-.88-.48l-2.58-4.03.86 4.88-.88.15L22 21zM27.1 20.1c-.12-.6.06-.9.6-1 .38-.07.62.05.88.45l2.6 4.1-.9-4.97.9-.16.93 5.32c.1.46-.17.86-.62.94-.36.06-.63-.08-.88-.5l-2.6-4 .87 4.87-.87.15-.9-5.2zM34.65 23.23l.93-.17c.63-.1.8-.3.7-.9l-.5-2.75c-.1-.6-.32-.73-.96-.6l-.93.15c-.65.1-.8.3-.7.9l.48 2.75c.1.6.32.74.97.63m-1.23.66c-.34-.26-.5-.6-.62-1.2l-.46-2.64c-.1-.58-.06-.95.17-1.32.27-.4.53-.54 1.37-.7l.65-.1c.86-.16 1.12-.12 1.52.18.35.26.52.6.62 1.18l.47 2.65c.1.6.06.95-.18 1.32-.26.42-.5.55-1.36.7l-.66.1c-.85.16-1.12.13-1.52-.18M37.3 17.44l2.58 4.53.9-5.14.94-.17-1.04 5.96c-.07.4-.23.57-.56.63-.33.06-.53-.06-.73-.4l-3.03-5.24.94-.16zM42.88 20.5l1.98-.36-1.5-2.58-.48 2.93zm-.3-3.4c.1-.5.23-.7.57-.76.4-.07.57.06.84.5l2.95 5.12-.94.17-.66-1.18-2.62.46-.24 1.35-.94.17 1.04-5.82zM44.84 16.1l3.5-.6.15.87-1.32.24.9 5.16-.87.16-.9-5.16L45 17zM48.7 15.43l.88-.15 1.06 6.03-.87.16zM53.04 19.98l.93-.16c.63-.1.8-.3.7-.9l-.5-2.75c-.1-.6-.32-.74-.96-.63l-.92.17c-.64.12-.8.32-.7.92l.5 2.74c.1.6.3.74.96.62m-1.23.67c-.33-.25-.5-.6-.6-1.18l-.47-2.65c-.1-.58-.06-.95.17-1.32.26-.42.52-.55 1.36-.7l.66-.1c.85-.16 1.1-.12 1.5.18.36.26.53.6.63 1.17l.47 2.66c.1.6.06.96-.18 1.33-.26.4-.5.54-1.36.7l-.65.1c-.85.16-1.12.13-1.52-.18M55.76 15.05c-.1-.6.07-.9.6-1 .4-.07.63.04.9.44l2.6 4.1-.9-4.98.9-.15.92 5.3c.1.47-.18.87-.62.95-.36.06-.64-.08-.9-.48L56.7 15.2l.85 4.9-.87.15-.92-5.2zM19.5 26.47c-.15-.26-.36-.56-.63-.52-.04 0-.08.02-.12.04-.34.18-.7.3-1.13.36-.88.15-1.4-.1-1.5-.7l-.64-4-.03-.13h-.05a.892.892 0 00-.37 0c-.22.03-.4.13-.57.3h-.02l.6 3.86.03.06c.24 1.48 1.54 1.6 2.6 1.42.7-.12 1.3-.32 1.8-.62l.07-.03-.04-.06zM2.83 26.08H2.8c-1.03-.04-1.66-.06-1.76-.7-.12-.76.86-.9 1.18-.97.3-.04.65-.06.93-.04.42.03.52-.36.6-.72v-.07h-.07c-.53-.06-1.02-.05-1.48.03-1.5.24-2.24.96-2.07 2.02.08.53.35.88.8 1.1.44.18 1 .2 1.63.25h.1c.68.04 1.18.07 1.28.66.04.27 0 .93-1.28 1.14-.42.07-.8.06-1.2 0h-.1c-.28.04-.4.37-.45.7v.05l.06.02c.56.12 1.2.13 1.9 0 1.07-.16 2.27-.67 2.04-2.15-.15-.93-.7-1.27-2.07-1.32M6.25 23H6.2a.85.85 0 00-.36 0c-.23.03-.42.13-.58.3h-.02l.9 5.56 1.05-.17-.93-5.6-.02-.1zM10.9 22.25a.698.698 0 00-.37-.02c-.4.06-.7.37-.85.9l-1.7 5.4 1-.15 1.53-5.03 1.68 2.37.06.07-1.9.3-.27.85v.1l2.74-.44.74 1.05 1.18-.2-3.8-5.18v-.02z"/><path fill="#1D1D1B" d="M4.8 26.98c.04.12.07.26.1.4.02.2.03.34.02.5l1.03-.17-.15-.88-1 .16zM6.86 26.65l.14.9 1.37-.23.3-.96zM15.06 25.7l-.06-.35-1.63.26.6.83 1.23-.2c-.06-.14-.1-.3-.13-.47v-.07z"/><path fill="#FEFEFE" d="M26.77 40.24l-.16-1.12-.63.94.8.18zm-.2-2.13l.53.13.64 3.87-.72-.17-.15-1-1.3-.3-.57.83-.72-.17 2.3-3.2zM28.1 38.58h.67l.66 2.52.6-2.54h.48l.65 2.53.6-2.55h.7l-1.02 3.62h-.54l-.62-2.38-.57 2.38h-.52zM34.9 40.03l-.64-.94-.16 1.1.8-.17zm-1.12-1.83l.53-.12 2.28 3.2-.72.15-.57-.82-1.3.3-.16 1-.72.16.66-3.86z"/><g fill="#FEFEFE"><path d="M37.25 38.96l.36-.16c.16-.06.62-.28.42-.76s-.7-.3-.83-.22l-.38.15.43 1zm-1.3-1.32l.96-.4c1.13-.5 1.58.18 1.7.5.24.53.1 1.14-.43 1.43l1.46.82-.76.32-1.4-.85.53 1.23-.6.26-1.45-3.32zM41.13 38.35c.3-.2 1.03-.75.4-1.66-.64-.95-1.43-.45-1.74-.24l-.25.17 1.3 1.9.28-.18zm-2.5-1.88l.83-.57c1.37-.94 2.23-.17 2.63.4.2.33.92 1.55-.6 2.58l-.83.57-2.04-2.98z"/></g><path fill="#D1B251" d="M36.44 14.43c-.05-.1-.17-.17-.28-.12-.07.04-.1.1-.12.16-1.87-.5-3.33.54-4.37 2.47.08-1.5.75-3.1 2.9-4.14.02 0 .03.02.04.03.12.1.3.1.4 0 .12-.1.12-.28.02-.4-.1-.1-.3-.1-.4 0-.1.08-.1.2-.07.32-1.8.62-2.5 1.43-3 2.33-.44.77-.6 1.5-.64 2.24 0 0-.1-.33-.1-.75.08-1.83.67-3.96 3.27-5.1.02.07.06.13.12.16.12.08.3.04.38-.1.08-.13.03-.3-.1-.4-.14-.07-.3-.02-.4.1-.03.08-.04.17-.02.24-1.74.7-3.4 2.52-3.67 4.38.02-.16.07-1.58.43-2.73.5-1.58 1.4-3.06 3.28-4 .02.04.04.08.07.1.1.12.3.13.4.02.12-.1.12-.3 0-.4-.1-.1-.27-.12-.4 0a.29.29 0 00-.07.24c-3.1 1.22-3.96 3.67-4.1 5.97v.02c-.55-1.12-1.34-2.56-2.86-3.58-.4-.3-1.07-.63-1.6-.4-.3.14-.48.52-.38 1.3-.04 0-.1.02-.13.06-.1.1-.1.3 0 .4.1.1.28.12.4 0 .1-.1.1-.28 0-.4-.06-.06-.15-.1-.23-.08-.03-.42.04-.75.2-.95.44-.5 1.3.13 1.67.4 1.38 1.07 2.55 3.25 3.03 4.87-.8-.83-1.87-2.3-3.17-2.93-1.6-.77-2.15-.9-3.52-.97.04-.13 0-.26-.1-.36a.349.349 0 00-.52 0c-.15.13-.16.37 0 .53.13.15.37.15.52 0a.4.4 0 00.1-.12c1.63.26 1.8.35 3.2 1.1 1.56.82 3.03 3.53 3.03 3.53s-.8-1.27-2.53-2.46c-1.44-1-3.13-1.82-5.3-1.62 0-.07-.02-.13-.07-.18-.1-.12-.28-.12-.4 0-.1.1-.1.28 0 .4.1.1.28.1.4 0 .04-.05.07-.1.08-.16 1-.05 2.03.17 3.5.82 2.25 1 4 3.63 4 3.63s-1.74-1.6-2.56-2.06c-1.32-.73-2.73-.74-3.68-.62 0-.05-.03-.1-.07-.14-.1-.1-.3-.1-.4 0-.12.1-.12.28-.02.4.1.1.3.1.4 0 .07-.06.1-.14.1-.22 1.88-.02 3.7.78 4.86 1.94-1.5-.92-3.45-1.52-5.56-.9 0-.03-.03-.07-.06-.1-.1-.12-.3-.12-.4 0-.12.1-.12.27 0 .4.1.1.27.1.4 0 .06-.08.1-.18.06-.28 1.75-.42 3.1-.08 4.4.6.52.27 1.04.6 1.5 1 .1.08.18.18.25.28l2.82-.5.33-.06.2-.03c.57-1.13 1.7-3.43 4.15-3.1v.1c.06.1.18.15.3.1.1-.04.15-.16.1-.27"/><g fill="#FEFEFE"><path d="M23.05 5.5c.45.74.57 1.92-.6 2.66-1.12.7-2.17.18-2.63-.56-.47-.74-.46-1.96.6-2.63.72-.44 1.5-.43 2.1.03l-.68.42c-.48-.24-.9 0-1.06.1-.72.45-.7 1.22-.4 1.7.32.52 1.03.82 1.74.38.37-.24.62-.63.55-1.1l-1.28.8-.35-.55 2-1.25zM26.56 4.3c-.2-.65-.9-1-1.56-.78-.67.22-1 .9-.8 1.55.23.65.9 1 1.57.8.68-.23 1-.93.8-1.58m.63-.2c.33 1-.2 2.04-1.22 2.38-1.02.34-2.07-.2-2.4-1.2-.33-.98.2-2.04 1.22-2.38 1.02-.34 2.07.2 2.4 1.2M27.74 2.22l.67-.07.34 2.95 1.1-.12.06.65-1.76.2zM31.4 5c.36.03 1.27.06 1.36-1.03.1-1.14-.84-1.25-1.2-1.28l-.3-.03-.2 2.3.34.03zm-.75-3.04l1 .1c1.65.12 1.84 1.27 1.78 1.97-.03.38-.24 1.77-2.07 1.62l-1-.08.3-3.6z"/></g></g></svg>