<?xml version="1.0" encoding="UTF-8"?>
<svg width="339px" height="400px" viewBox="0 0 339 400" version="1.1" xmlns="http://www.w3.org/2000/svg" xmlns:xlink="http://www.w3.org/1999/xlink">
    <!-- Generator: sketchtool 59.1 (101010) - https://sketch.com -->
    <title>CA2E7096-9F7D-4E3A-AE18-7D2693BCD15F</title>
    <desc>Created with sketchtool.</desc>
    <g id="LOT-2" stroke="none" stroke-width="1" fill="none" fill-rule="evenodd">
        <g id="02-Hub-Exposant" transform="translate(-1006.000000, -2374.000000)" fill="#FFD200" fill-rule="nonzero">
            <g id="PLUS" transform="translate(0.000000, 2266.000000)">
                <g id="round-add-button">
                    <g transform="translate(1011.000000, 113.000000)">
                        <path d="M258.493684,0 C401.038579,0 517,115.95822 517,258.5 C517,401.040949 401.038147,517 258.493684,517 C115.95403,517 0,401.041968 0,258.5 C0,115.9572 115.953598,0 258.493684,0 Z M258.493684,11.6968328 C122.413662,11.6968328 11.6968328,122.417101 11.6968328,258.5 C11.6968328,394.582076 122.414102,505.303167 258.493684,505.303167 C394.578228,505.303167 505.303167,394.580903 505.303167,258.5 C505.303167,122.418274 394.578668,11.6968328 258.493684,11.6968328 Z" id="Shape" stroke="#FFD200" stroke-width="10"></path>
                        <path d="M258.799993,135.296616 C252.221234,135.296616 246.886534,140.631598 246.886534,147.210076 L246.886534,246.890746 L147.215692,246.890746 C140.637775,246.890746 135.302232,252.226289 135.302232,258.804205 C135.302232,265.382965 140.637214,270.717665 147.215692,270.717665 L246.882322,270.717665 L246.882322,370.389911 C246.882322,376.967968 252.216601,382.301966 258.795781,382.301966 C265.374119,382.301966 270.709241,376.967407 270.709241,370.389911 L270.709241,270.713453 L370.388507,270.713453 C376.96516,270.713453 382.300562,265.37777 382.300562,258.799993 C382.300562,252.220813 376.96516,246.88513 370.387103,246.88513 L270.713453,246.88513 L270.713453,147.210076 C270.713453,140.630755 265.379314,135.296616 258.799993,135.296616 Z" id="Path"></path>
                    </g>
                </g>
            </g>
        </g>
    </g>
</svg>