<?xml version="1.0" encoding="UTF-8"?>
<svg width="287px" height="234px" viewBox="0 0 287 234" version="1.1" xmlns="http://www.w3.org/2000/svg" xmlns:xlink="http://www.w3.org/1999/xlink">
    <!-- Generator: sketchtool 60.1 (101010) - https://sketch.com -->
    <title>8EA89510-B4A0-42F3-9BF9-957A1AB95141</title>
    <desc>Created with sketchtool.</desc>
    <g id="LOT-3" stroke="none" stroke-width="1" fill="none" fill-rule="evenodd">
        <g id="12-Presentez-vos-produits" transform="translate(-775.000000, -4104.000000)" fill="#FFD200" fill-rule="nonzero">
            <g id="REBOOKING" transform="translate(0.000000, 4088.000000)">
                <g id="FOND">
                    <path d="M892.054012,16.9005525 C888.780968,17.2103738 886.005882,20.2844898 886.020057,23.584939 L886.020057,90.4288046 L859.387422,90.4288046 C856.930295,90.4588843 854.548656,91.9747027 853.475549,94.1940193 C852.402442,96.4133359 852.688545,99.2303035 854.185734,101.186489 L914.109164,178.056834 C916.593902,181.178109 922.027798,181.178109 924.512536,178.056834 L984.435966,101.186489 C985.933155,99.2303035 986.219261,96.4133359 985.146151,94.1940193 C984.073047,91.9747027 981.691405,90.4578817 979.234278,90.4288046 L952.601646,90.4288046 L952.601646,23.584939 C952.601296,20.0850945 949.429594,16.9005525 945.943484,16.9005525 C928.00044,16.9005525 909.950269,16.9005525 892.054012,16.9005525 Z M898.561539,31.4696133 L938.438692,31.4696133 L938.438692,98.2571678 C938.439041,101.754064 941.605043,104.935589 945.084884,104.935923 L964.711922,104.935923 L918.500117,164.209945 L872.288312,104.935923 L891.915348,104.935923 C895.395192,104.935589 898.56119,101.754064 898.561539,98.2571678 L898.561539,31.4696133 Z M821.097278,54.1400921 C818.429163,54.3692857 816.000722,56.3606714 815.257216,58.9288388 L775.419644,198.322909 C775.04293,199.390924 774.995559,199.772025 775.000301,200.196766 C775.000301,225.765842 775.000301,251.666715 775.000301,277.337396 C775.000301,280.825602 778.182264,284 781.676854,284 L1055.32551,284 C1058.8201,284 1061.99993,280.825602 1061.99993,277.337396 C1061.99993,251.609417 1061.99993,225.493008 1061.99993,199.884623 C1062.0042,199.658095 1061.80327,199.201373 1061.687,198.739322 L1025.08233,59.032942 C1024.30999,56.2354478 1021.52342,54.1267669 1018.61654,54.1400921 L971.89604,54.1400921 C971.687631,54.1300982 971.478739,54.1300982 971.270321,54.1400921 C967.775156,54.3029928 964.743655,57.6260998 964.907492,61.1150724 C965.071315,64.604045 968.400942,67.6295335 971.89604,67.4653003 L1013.50649,67.4653003 L1046.6697,194.054845 L971.89604,194.054845 C968.401449,194.055178 965.222034,197.228909 965.221683,200.717449 L965.221683,220.705261 L871.780677,220.705261 L871.780677,200.717449 C871.780327,197.228909 868.600912,194.055178 865.106321,194.054845 L790.541234,194.054845 L826.833053,67.4653003 L865.106321,67.4653003 C868.632508,67.5152698 871.875854,64.3230163 871.875854,60.8026962 C871.875854,57.2823761 868.632508,54.0902558 865.106321,54.1400921 C850.45854,54.1400921 835.697457,54.1400921 821.097278,54.1400921 L821.097278,54.1400921 Z M787.972036,207.917127 L858.256388,207.917127 L858.256388,227.853737 C858.256739,231.333007 861.445395,234.498941 864.950135,234.499273 L972.050099,234.499273 C975.554843,234.498941 978.743495,231.333007 978.743847,227.853737 L978.743847,207.917127 L1049.0282,207.917127 L1049.0282,271.049724 L787.972036,271.049724 L787.972036,207.917127 Z" id="Shape"></path>
                </g>
            </g>
        </g>
    </g>
</svg>