<?xml version="1.0" encoding="UTF-8"?>
<svg width="152px" height="209px" viewBox="0 0 152 209" version="1.1" xmlns="http://www.w3.org/2000/svg" xmlns:xlink="http://www.w3.org/1999/xlink">
    <!-- Generator: sketchtool 60.1 (101010) - https://sketch.com -->
    <title>329C9880-027F-44BF-BAFC-BCB4D7EC7DFF</title>
    <desc>Created with sketchtool.</desc>
    <g id="LOT-3" stroke="none" stroke-width="1" fill="none" fill-rule="evenodd">
        <g id="12-Presentez-vos-produits" transform="translate(-173.000000, -639.000000)" fill="#FFD200" fill-rule="nonzero">
            <g id="LE-SAVIEZ-VOUS" transform="translate(95.000000, 618.000000)">
                <g id="idea">
                    <path d="M166.651527,21.0004381 C163.984487,21.1243549 161.671252,23.6522064 161.79627,26.30623 C161.921278,28.9602536 164.462003,31.2617099 167.128995,31.1367795 L207.872806,31.1367795 C210.563521,31.1747908 213.038409,28.7464782 213.038409,26.0686088 C213.038409,23.3907394 210.563521,20.9625282 207.872806,21.0004381 C194.147768,21.0004381 180.340764,21.0004381 166.651527,21.0004381 Z M166.651527,41.2731209 C164.147902,41.5080306 162.025176,43.838857 162.036019,46.3412916 L162.036019,97.0229987 L141.664112,97.0229987 C139.7846,97.0458055 137.96283,98.1951146 137.141986,99.8778233 C136.321142,101.560532 136.539989,103.696386 137.685223,105.179586 L183.522013,163.463473 C185.422645,165.830055 189.579156,165.830055 191.479788,163.463473 L237.316578,105.179586 C238.461812,103.696386 238.680661,101.560532 237.859815,99.8778233 C237.038973,98.1951146 235.217201,97.0450453 233.33769,97.0229987 L212.965785,97.0229987 L212.965785,46.3412916 C212.965518,43.6876735 210.539411,41.2731209 207.872806,41.2731209 C194.147765,41.2731209 180.34078,41.2731209 166.651527,41.2731209 Z M172.221971,51.4094623 L202.77983,51.4094623 L202.77983,102.091169 C202.780098,104.744788 205.206205,107.159087 207.872806,107.15934 L222.913005,107.15934 L187.500902,152.139406 L152.088799,107.15934 L167.128995,107.15934 C169.795599,107.159087 172.221704,104.744788 172.221971,102.091169 L172.221971,51.4094623 Z M113.175275,69.1480598 C111.139326,69.3224049 109.286265,70.8372304 108.718921,72.7908075 L78.320216,178.826366 C78.0327583,179.638793 77.9966113,179.928693 78.00023,180.251789 C78.00023,199.701907 78.00023,219.404421 78.00023,238.931829 C78.00023,241.58527 80.4282783,244 83.0948816,244 L291.90692,244 C294.573524,244 296.999949,241.58527 296.999949,238.931829 C296.999949,219.360835 296.999949,199.494366 296.999949,180.014345 C297.003207,179.842027 296.849881,179.494604 296.761161,179.143126 L268.829371,72.8699977 C268.24003,70.7419742 266.113693,69.1379235 263.895549,69.1480598 L228.244713,69.1480598 C228.085684,69.1404576 227.926285,69.1404576 227.767248,69.1480598 C225.100206,69.2719766 222.78697,71.7998281 222.911989,74.4538517 C223.036997,77.1078753 225.577722,79.4093317 228.244713,79.2844012 L259.996238,79.2844012 L285.301967,175.579695 L228.244713,175.579695 C225.578109,175.579949 223.152005,177.994172 223.151737,180.647866 L223.151737,195.852378 L151.850064,195.852378 L151.850064,180.647866 C151.849797,177.994172 149.423692,175.579949 146.757088,175.579695 L89.8589907,175.579695 L117.552051,79.2844012 L146.757088,79.2844012 C149.447802,79.3224125 151.92269,76.8940999 151.92269,74.2162305 C151.92269,71.5383612 149.447802,69.1101499 146.757088,69.1480598 C135.579861,69.1480598 124.316178,69.1480598 113.175275,69.1480598 L113.175275,69.1480598 Z M88.1878573,185.716037 L141.664112,185.716037 L141.664112,200.920549 C141.664379,203.57399 144.090486,205.988466 146.757088,205.98872 L228.244713,205.98872 C230.911318,205.988466 233.337422,203.57399 233.33769,200.920549 L233.33769,185.716037 L286.813944,185.716037 L286.813944,233.863659 L88.1878573,233.863659 L88.1878573,185.716037 Z" id="Shape"></path>
                </g>
            </g>
        </g>
    </g>
</svg>