<svg width="168" height="171" viewbox="0 0 168 171" xmlns="http://www.w3.org/2000/svg"><g fill="#D7DBE6" fill-rule="nonzero" opacity=".696"><path d="M123.028 136.482c8.137 0 14.755-6.617 14.755-14.755 0-8.137-6.618-14.754-14.755-14.754-8.138 0-14.755 6.617-14.755 14.754 0 8.138 6.614 14.755 14.755 14.755zm0-22.132c4.068 0 7.377 3.309 7.377 7.377 0 4.07-3.309 7.378-7.377 7.378-4.069 0-7.378-3.309-7.378-7.378 0-4.068 3.31-7.377 7.378-7.377zM34.498 44.264c.944 0 1.889-.362 2.608-1.08l7.377-7.378a3.685 3.685 0 000-5.216 3.685 3.685 0 00-5.215 0l-7.378 7.377a3.685 3.685 0 000 5.216c.72.72 1.664 1.081 2.608 1.081z"/><path d="M167.293 109.732a12.07 12.07 0 00-3.56-8.591l-2.055-2.055c3.501-3.099 5.611-7.58 5.611-12.402 0-9.151-7.448-16.599-16.6-16.599-.67 0-1.335.067-1.991.148.08-.66.147-1.317.147-1.992 0-9.152-7.447-16.6-16.6-16.6-.67 0-1.334.067-1.991.148.081-.66.148-1.317.148-1.992 0-9.152-7.448-16.6-16.6-16.6-.671 0-1.335.067-1.992.148.081-.66.148-1.317.148-1.992 0-9.151-7.448-16.599-16.6-16.599-4.824 0-9.302 2.114-12.401 5.61l-2.929-2.928-13.88-13.881c-4.74-4.74-12.45-4.74-17.183 0L3.55 48.971c-4.732 4.74-4.732 12.446 0 17.186l13.881 13.88L35.542 98.15c-5.002 2.863-8.421 8.193-8.421 14.357 0 5.765 2.962 10.848 7.44 13.825.225.299.487.594.837.893l39.676 39.525v6.625h-7.377v47.953H163.604v-47.953h-7.378v-11.177c7.057-5.98 11.067-14.578 11.067-23.87 0-6.419-2.003-12.653-5.666-17.898l2.106-2.106a12.07 12.07 0 003.56-8.591zm-7.378-23.048a9.212 9.212 0 01-3.456 7.182l-12.951-12.95a9.217 9.217 0 017.182-3.457c5.086.004 9.225 4.139 9.225 9.225zm-18.444-18.443a9.212 9.212 0 01-3.456 7.182l-12.951-12.951a9.217 9.217 0 017.182-3.457c5.087.004 9.225 4.139 9.225 9.226zm-18.443-18.444a9.212 9.212 0 01-3.457 7.182l-12.95-12.951a9.217 9.217 0 017.181-3.456c5.087.003 9.226 4.138 9.226 9.225zM95.362 22.132c5.087 0 9.222 4.135 9.222 9.221a9.212 9.212 0 01-3.456 7.182l-12.951-12.95a9.227 9.227 0 017.185-3.453zM8.765 60.944a4.787 4.787 0 010-6.754L54.181 8.775c.461-.462 1-.808 1.572-1.04.258-.108.55-.104.822-.163a4.632 4.632 0 011.963 0c.272.06.564.055.822.162.572.233 1.107.58 1.572 1.04l8.664 8.665L17.43 69.606l-8.665-8.662zm66.047-38.289l4.346 4.346L97.6 45.444l2.114 2.114 16.33 16.33 2.114 2.114 16.33 16.33 2.113 2.113 18.444 18.444 3.467 3.468a4.776 4.776 0 010 6.75l-1.612 1.616-43.8 43.803a4.78 4.78 0 01-6.754 0L76.93 129.105h3.674c9.151 0 16.599-7.448 16.599-16.6 0-9.151-7.448-16.599-16.6-16.599H43.728L22.642 74.821l52.17-52.166zm-33.084 80.857l1.53-.173c.152-.022.303-.055.458-.055h36.888c5.086 0 9.221 4.135 9.221 9.222 0 5.086-4.135 9.221-9.221 9.221H43.716c-5.087 0-9.222-4.135-9.222-9.221.004-4.401 3.106-8.079 7.234-8.994zm33.346 110.434v-33.199h31.081c11.336 0 20.562 9.226 20.562 20.561v12.638H75.074zm81.152 0h-22.132v-12.638c0-8.137-3.52-15.448-9.09-20.56h31.222v33.198zm.093-88.205a23.863 23.863 0 013.596 12.586c0 7.58-3.497 14.556-9.598 19.148l-1.468 1.107v14.788H82.448v-10.026l-1.302-1.103a11.837 11.837 0 00-.664-.517l-32.745-32.623h18.757l34.634 34.638a12.121 12.121 0 008.59 3.552c3.114 0 6.227-1.184 8.596-3.552l38.005-37.998z"/></g></svg>