<?xml version="1.0" standalone="no"?>
<!DOCTYPE svg PUBLIC "-//W3C//DTD SVG 1.1//EN" "http://www.w3.org/Graphics/SVG/1.1/DTD/svg11.dtd" >
<svg xmlns="http://www.w3.org/2000/svg">
<metadata>Generated by IcoMoon</metadata>
<defs>
<font id="icomoon" horiz-adv-x="1024">
<font-face units-per-em="1024" ascent="960" descent="-64" />
<missing-glyph horiz-adv-x="1024" />
<glyph unicode="&#x20;" horiz-adv-x="512" d="" />
<glyph unicode="&#x2139;" glyph-name="exponent" d="M512 960c-282.77 0-512-229.23-512-512s229.23-512 512-512c282.77 0 512 229.23 512 512v0c0 0.113 0 0.246 0 0.379 0 282.56-229.060 511.621-511.621 511.621-0.133 0-0.267 0-0.4 0h0.021zM610.987 182.519c-26.548-9.861-47.407-17.825-62.957-23.135-15.549-5.068-33.442-7.99-52.018-7.99-1.046 0-2.090 0.009-3.132 0.028l0.157-0.002c-2.421-0.188-5.244-0.295-8.091-0.295-25.622 0-49.218 8.671-68.015 23.24l0.254-0.189c-16.27 13.386-26.565 33.522-26.565 56.063 0 0.557 0.006 1.113 0.019 1.667l-0.001-0.082c0.086 9.848 0.772 19.447 2.025 28.868l-0.128-1.182c0 9.481 3.793 20.101 6.447 32.237l32.996 113.778c3.034 10.999 5.31 21.239 7.585 30.72 1.769 8.022 2.865 17.298 3.032 26.799l0.002 0.128c0.124 1.182 0.195 2.553 0.195 3.941 0 9.97-3.664 19.085-9.719 26.070l0.042-0.050c-8.276 5.66-18.502 9.038-29.517 9.038-2.027 0-4.028-0.114-5.996-0.337l0.241 0.022c-9.396-0.218-18.378-1.589-26.937-3.975l0.768 0.183-22.756-7.585 8.723 34.892c21.618 8.723 42.098 15.929 61.819 21.997 16.733 5.575 36.008 8.889 56.026 9.101l0.104 0.001c2.036 0.136 4.414 0.213 6.809 0.213 25.104 0 48.222-8.498 66.636-22.775l-0.248 0.185c15.842-13.511 25.824-33.489 25.824-55.799 0-0.783-0.012-1.564-0.037-2.341l0.003 0.114c0-4.551 0-13.274 0-25.79-1.135-12.634-3.415-24.239-6.77-35.379l0.322 1.246-32.996-113.778c-2.655-9.102-4.93-19.342-7.206-31.099-1.546-7.636-2.632-16.631-3.022-25.806l-0.012-0.363c-0.172-1.355-0.27-2.924-0.27-4.515 0-10.172 4.004-19.408 10.523-26.219l-0.013 0.014c8.903-5.474 19.688-8.717 31.23-8.717 2.359 0 4.687 0.135 6.975 0.399l-0.279-0.026c9.685 0.25 18.919 1.757 27.679 4.364l-0.751-0.192c8.68 2.196 16.008 4.662 23.086 7.608l-1.089-0.402zM623.123 629.286c-15.525-12.191-35.347-19.552-56.889-19.552s-41.364 7.36-57.089 19.703l0.2-0.152c-14.498 10.98-23.767 28.206-23.767 47.597s9.269 36.617 23.618 47.489l0.149 0.108c15.435 12.44 35.283 19.968 56.889 19.968s41.454-7.528 57.064-20.104l-0.175 0.136c14.358-11.060 23.519-28.259 23.519-47.597s-9.16-36.537-23.378-47.493l-0.14-0.104z" />
<glyph unicode="&#x25b7;" glyph-name="play" horiz-adv-x="819" d="M788.591 490.404l-671.847 453.259c-20.886 15.207-76.584 15.207-81.059-42.186v-906.518c4.973-57.393 61.665-58.374 81.059-42.186l671.847 453.259c17.405 10.301 41.276 52.488 0 84.373zM139.62 91.595v713.245l527.631-356.623-527.631-356.623z" />
<glyph unicode="&#x271a;" glyph-name="plus" d="M35.552 421.088c-19.808 0-35.552 16.256-35.552 36.064s15.744 35.552 35.552 35.552h431.2v431.232c0.032 19.808 16.288 36.064 36.096 36.064s35.552-16.256 35.552-36.064v-431.232h431.2c19.808 0 36.064-15.744 36.064-35.552s-16.256-36.064-36.064-36.064h-431.2v-431.232c0-19.808-15.744-36.064-35.552-36.064s-36.064 16.256-36.064 36.064v431.232h-431.232z" />
<glyph unicode="&#x2b50;" glyph-name="star" d="M1022.595 573.028c-3.363 10.786-12.19 18.49-22.909 20.251l-319.46 47.546-143.757 302.666c-4.834 10.126-14.712 16.509-25.431 16.509s-20.597-6.383-25.431-16.729l-141.865-303.546-319.46-49.747c-10.719-1.761-19.546-9.465-22.909-20.251s-0.42-22.672 7.356-30.377l231.819-235.309-53.594-333.262c-1.892-11.226 2.522-22.452 11.349-29.056 4.834-3.742 10.719-5.723 16.604-5.723 4.624 0 9.037 1.101 13.241 3.522l285.202 158.267 286.043-156.506c4.203-2.201 8.617-3.302 13.031-3.302 15.553 0 28.373 13.427 28.373 29.716 0 2.421-0.21 4.623-0.841 6.824l-55.275 331.281 230.347 236.629c8.197 7.924 10.929 19.811 7.566 30.597z" />
<glyph unicode="&#xe900;" glyph-name="facebook" d="M511.836 960c-282.861 0-512.164-229.304-512.164-512.164s229.304-512.164 512.164-512.164c282.861 0 512.164 229.304 512.164 512.164 0 0.116 0 0.231 0 0.347v-0.018c0 282.679-229.157 511.836-511.836 511.836-0.116 0-0.231 0-0.347 0h0.018zM583.874 454.743h-43.092v-147.367h-59.21v147.367h-39.473v50.657h39.473v29.934c0 41.447 11.842 65.789 64.144 65.789h43.42v-50.657h-27.302c-20.066 0-21.052-7.237-21.052-20.394v-25.658h49.013z" />
<glyph unicode="&#xe901;" glyph-name="insta" d="M603.499 625.714h-189.935c-0.098 0-0.215 0.001-0.331 0.001-43.601 0-78.947-35.346-78.947-78.947 0-0.116 0-0.233 0.001-0.349v0.018-189.935c0-43.784 35.494-79.277 79.277-79.277v0h189.935c43.708 0.187 79.091 35.569 79.277 79.26v189.953c0 43.784-35.494 79.277-79.277 79.277v0zM508.366 342.297c-60.385 0-109.337 48.952-109.337 109.337s48.952 109.337 109.337 109.337c60.385 0 109.337-48.952 109.337-109.337v0c0-60.385-48.952-109.337-109.337-109.337v0zM640.495 545.445c-5.068-4.834-11.919-7.837-19.471-7.928h-0.018c-7.582 0.018-14.455 3.038-19.496 7.934l0.007-0.007c-4.292 4.806-6.921 11.179-6.937 18.164v0.003c0.184 15.25 12.497 27.563 27.73 27.747h0.017c7.639-0.035 14.534-3.189 19.484-8.253l0.005-0.005c4.89-5.034 7.91-11.907 7.928-19.485v-0.004c-0.434-7.088-3.374-13.417-7.937-18.178l0.010 0.010zM508.366 960c-280.945 0-508.697-227.751-508.697-508.697s227.751-508.697 508.697-508.697c280.945 0 508.697 227.751 508.697 508.697 0 0.116 0 0.232 0 0.348v-0.018c0 280.763-227.603 508.367-508.366 508.367-0.116 0-0.232 0-0.348 0h0.018zM720.434 356.501c-0.187-64.506-52.429-116.747-116.916-116.934h-189.953c-64.222 0.56-116.089 52.659-116.274 116.917v189.953c0.556 63.991 52.282 115.718 116.221 116.273h189.988c64.506-0.187 116.747-52.429 116.934-116.916v-0.018zM580.046 451.634c0-0.098 0.001-0.214 0.001-0.33 0-39.588-32.092-71.68-71.68-71.68s-71.68 32.092-71.68 71.68c0 39.588 32.092 71.68 71.679 71.68v0c0 0 0 0 0.001 0 39.472 0 71.492-31.904 71.679-71.332v-0.018z" />
<glyph unicode="&#xe902;" glyph-name="linkedin" d="M511.836 960c-282.861 0-512.164-229.304-512.164-512.164s229.304-512.164 512.164-512.164c282.861 0 512.164 229.304 512.164 512.164 0 0.116 0 0.231 0 0.347v-0.018c0 282.679-229.157 511.836-511.836 511.836-0.116 0-0.231 0-0.347 0h0.018zM463.152 349.482h-63.157v189.471h63.157zM430.258 560.005c-18.167 0-32.894 14.727-32.894 32.894s14.727 32.894 32.894 32.894c18.167 0 32.894-14.727 32.894-32.894v0c0-0.008 0-0.017 0-0.026 0-17.704-13.987-32.142-31.513-32.866l-0.066-0.002zM651.307 349.482h-54.934v117.104c0 13.816-3.947 23.355-21.381 23.355-0.904 0.088-1.954 0.139-3.017 0.139-14.815 0-27.343-9.794-31.461-23.261l-0.061-0.233v-117.104h-56.249v189.471h56.249v-18.092c15.449 11.307 34.827 18.092 55.79 18.092 0.046 0 0.092 0 0.138 0h-0.007c18.421 0 56.249-10.526 56.249-74.012z" />
<glyph unicode="&#xe903;" glyph-name="twitter" d="M511.836 960c-282.861 0-512.164-229.304-512.164-512.164s229.304-512.164 512.164-512.164c282.861 0 512.164 229.304 512.164 512.164 0 0.116 0 0.231 0 0.347v-0.018c0 282.679-229.157 511.836-511.836 511.836-0.116 0-0.231 0-0.347 0h0.018zM643.413 502.44v-7.566c-0.904-92.144-75.811-166.492-168.082-166.492-1.391 0-2.777 0.017-4.16 0.050l0.205-0.004c-0.25-0.001-0.546-0.002-0.843-0.002-34.057 0-65.824 9.802-92.634 26.739l0.715-0.422c2.165-0.161 4.69-0.253 7.237-0.253s5.071 0.092 7.572 0.272l-0.335-0.019c28.278 0.026 54.36 9.413 75.316 25.229l-0.317-0.229c-26.036 0.487-48.054 17.164-56.444 40.363l-0.135 0.426c1.724-0.155 3.73-0.244 5.757-0.244s4.032 0.089 6.014 0.262l-0.257-0.018c0.11-0.001 0.24-0.001 0.37-0.001 5.48 0 10.792 0.721 15.847 2.072l-0.428-0.097c-27.45 5.12-48.006 28.727-48.354 57.199v0.037c7.865-4.486 17.229-7.253 27.211-7.563l0.091-0.002c-16.068 10.488-26.561 28.352-26.644 48.671v0.013c0.037 10.895 2.962 21.098 8.049 29.895l-0.155-0.29c30.339-35.797 74.594-58.992 124.306-61.171l0.363-0.013c-0.24 1.975-0.377 4.261-0.377 6.579s0.137 4.604 0.403 6.851l-0.026-0.272c0.735 32.495 27.251 58.556 59.853 58.556 0.236 0 0.472-0.001 0.708-0.004h-0.036c17.345-0.011 33.044-7.049 44.407-18.42v0c14.375 2.873 27.154 7.776 38.771 14.47l-0.613-0.326c-4.514-14.191-13.999-25.705-26.362-32.746l-0.282-0.148c12.422 1.396 23.77 4.411 34.37 8.857l-0.817-0.304c-8.348-11.769-18.379-21.695-29.866-29.673l-0.396-0.261z" />
<glyph unicode="&#xe904;" glyph-name="youtube" d="M512 960c-282.77 0-512-229.23-512-512s229.23-512 512-512c282.77 0 512 229.23 512 512v0c0 282.77-229.23 512-512 512v0zM670.947 401.684c-1.967-23.067-17.758-41.978-38.975-48.527l-0.394-0.105c-34.43-2.263-74.643-3.553-115.158-3.553s-80.728 1.29-120.602 3.831l5.444-0.278c-22.257 5.823-38.646 25.14-39.993 48.489l-0.007 0.143c-1.709 15.942-2.684 34.436-2.684 53.158s0.975 37.216 2.876 55.434l-0.193-2.276c1.298 23.030 17.101 42.041 38.363 48.119l0.374 0.092c34.444 2.414 74.64 3.79 115.158 3.79s80.716-1.376 120.548-4.083l-5.39 0.294c22.625-3.108 39.883-22.258 40-45.461v-0.012c1.916-17.315 3.009-37.393 3.009-57.726 0-18.072-0.864-35.942-2.552-53.572l0.174 2.245zM484.211 517.895l84.211-63.158-84.211-63.158z" />
<glyph unicode="&#xe905;" glyph-name="android" horiz-adv-x="904" d="M61.48 598.588h-2.533c-32.472 0-58.947-25.626-58.947-56.875v-247.623c0-31.371 26.476-56.914 58.947-56.914h2.576c32.472 0 58.947 25.626 58.947 56.914v247.625c-0.043 31.247-26.56 56.873-58.99 56.873zM180.706 189.895c0-30.065 24.187-54.552 53.783-54.552h57.474v-139.808c0-32.833 26.368-59.535 58.521-59.535h2.515c32.28 0 58.605 26.743 58.605 59.535v139.808h80.32v-139.808c0-32.833 26.452-59.535 58.605-59.535h2.474c32.278 0 58.562 26.743 58.562 59.535v139.808h57.515c29.553 0 53.743 24.486 53.743 54.552v408.693h-542.118v-408.693zM585.838 875.623l45.344 69.562c2.915 4.387 1.623 10.386-2.832 13.243-4.413 2.897-10.45 1.696-13.325-2.814l-47.008-71.964c-35.266 14.359-74.655 22.428-116.252 22.428-41.638 0-80.944-8.069-116.293-22.428l-46.925 71.964c-2.872 4.51-8.953 5.711-13.408 2.814-4.455-2.855-5.746-8.855-2.832-13.243l45.384-69.562c-81.818-39.851-136.987-114.96-136.987-201.116 0-5.297 0.334-10.511 0.791-15.683h540.577c0.457 5.172 0.749 10.386 0.749 15.683 0 86.156-55.21 161.265-136.985 201.116zM326.437 751.063c-14.365 0-26.024 11.505-26.024 25.822s11.659 25.782 26.024 25.782c14.448 0 26.024-11.463 26.024-25.782s-11.659-25.822-26.024-25.822zM577.054 751.063c-14.365 0-26.024 11.505-26.024 25.822s11.659 25.782 26.024 25.782c14.406 0 25.981-11.463 25.981-25.782 0-14.317-11.576-25.822-25.981-25.822zM844.539 598.588h-2.449c-32.472 0-59.031-25.626-59.031-56.875v-247.623c0-31.371 26.603-56.914 59.031-56.914h2.492c32.513 0 58.947 25.626 58.947 56.914v247.625c0 31.247-26.519 56.873-58.99 56.873z" />
<glyph unicode="&#xe906;" glyph-name="apple" horiz-adv-x="843" d="M45.513 588.556c-85.424-148.238-31.118-373.196 63.347-509.597 47.153-68.194 94.893-129.407 160.28-129.407 1.232 0 2.468 0.023 3.734 0.073 30.721 1.226 52.921 10.684 74.385 19.825 24.098 10.27 49.022 20.888 88.114 20.888 37.191 0 60.925-10.273 83.877-20.206 22.621-9.786 45.921-19.911 80.349-19.265 73.653 1.372 118.875 67.425 158.773 125.696 41.634 60.842 62.519 119.915 69.565 142.49l0.285 0.898c1.342 4.012-0.553 8.392-4.4 10.157-0.106 0.050-0.497 0.212-0.606 0.258-12.97 5.304-126.743 55.777-127.939 193.343-1.11 111.765 85.351 170.951 102.691 181.678l0.808 0.504c1.878 1.209 3.187 3.127 3.631 5.321 0.444 2.19-0.020 4.469-1.279 6.311-59.679 87.336-151.15 100.498-187.976 102.082-5.344 0.533-10.86 0.802-16.399 0.802-43.254 0-84.689-16.336-117.977-29.462-22.979-9.061-42.826-16.886-56.515-16.886-15.382 0-35.342 7.921-58.457 17.091-30.91 12.268-65.944 26.169-103.032 26.169-0.885 0-1.756-0.010-2.614-0.027-86.236-1.269-167.721-50.605-212.644-128.738zM613.229 959.993c-52.222-2.127-114.866-34.272-152.309-78.129-31.821-36.863-62.906-98.325-54.717-160.277 0.514-3.876 3.667-6.868 7.567-7.169 3.525-0.275 7.123-0.414 10.707-0.417 51.062 0 106.147 28.249 143.765 73.736 39.593 48.031 59.613 109.672 53.557 164.885-0.477 4.327-4.284 7.54-8.571 7.371z" />
<glyph unicode="&#x1f331;" glyph-name="bio-bien-etre" horiz-adv-x="1126" d="M1100.878 858.727c-136.317 0-328.902-11.417-427.319-109.875-42.61-42.65-63.887-112.179-58.363-190.875 0.717-10.394 7.622-19.25 17.544-22.529 9.871-3.226 20.716-0.204 27.468 7.73 54.733 64.462 122.763 116.122 202.355 153.55 6.752 3.226 14.732 3.482 21.994 0.922 6.395-2.304 11.406-6.655 14.015-12.238 5.421-11.47 3.683-26.573-14.322-35.071-1.024-0.511-1.945-1.178-2.966-1.639-0.357-0.154-0.767-0.103-1.074-0.257-196.114-92.263-292.534-253.236-336.321-418.765-31.918 207.257-99.335 329.269-163.018 404.173-46.087 59.801-91.408 91.495-117.596 109.414-4.86 3.329-19.539 13.363-25.627 19.457-9.975 9.984-9.975 26.215 0 36.199 9.975 9.934 26.241 9.934 37.34-1.126 2.712-2.407 7.059-5.479 12.583-9.166l4.553-3.072c37.033-25.394 105.986-72.55 167.162-174.079 5.474-9.062 16.062-13.927 26.344-11.981 10.435 1.843 18.618 9.881 20.666 20.275 13.35 68.249 7.366 169.524-53.452 230.4-98.414 98.407-290.999 109.824-427.266 109.824-14.12 0-25.579-11.467-25.579-25.598 0-136.447 11.406-329.216 109.77-427.726 41.023-41.062 104.298-59.494 167.162-59.494 51.304 0 101.587 12.852 140.103 35.124 52.532-108.953 94.477-271.719 94.477-520.705 0-14.131 11.459-25.601 25.576-25.601s25.576 11.47 25.576 25.601c0 138.905 23.785 305.614 112.225 442.829 35.448-34.663 96.472-56.628 164.093-58.675 3.376-0.103 6.702-0.154 10.025-0.154 68.697 0 129.412 21.554 167.622 59.854 98.414 98.508 109.77 291.276 109.77 427.726 0.055 14.129-11.353 25.546-25.522 25.546z" />
<glyph unicode="&#x1f354;" glyph-name="fruits-et-legumes" horiz-adv-x="1229" d="M217.636 601.229h3.553c2.624 6.115 5.268 11.931 8.026 17.323 9.824 19.668 21.889 38.127 35.958 55.006l-38.075 38.086h-97.078v42.269h54.706l-69.663 69.663 29.915 29.915 69.663-69.674v54.716h42.31v-97.027l37.569-37.569c21.754 19.409 46.411 35.307 73.072 47.114-32.786 78.826-109.898 130.082-195.262 129.794h-84.623v-84.622c-0.339-85.365 51.020-162.445 129.929-194.994zM266.992 599.473c-0.506-1.012-0.992-2.118-1.518-3.213 53.559-12.551 106.54-48.663 156.361-107.749 58.394-70.397 100.704-152.704 123.967-241.167 7.468-31.475 9.224-64.044 5.206-96.149l391.495 79.9c39.873 8.202 81.367 0.516 115.662-21.424l20.35 45.378c30.018 66.874 45.626 139.317 45.802 212.626-0.041 45.761-10.712 90.881-31.185 131.797-19.905 40.079-50.636 73.795-88.701 97.316-86.666 53.436-197.545 46.732-277.135-16.755l-26.082-20.897v29.801c-0.248 90.22 35.606 176.793 99.578 240.413l-29.915 29.915c-71.936-71.543-112.253-168.88-111.974-270.328v-29.801l-26.134 20.938c-42.713 34.036-95.694 52.599-150.307 52.681-91.376 0.372-174.995-51.349-215.467-133.284zM667.887 797.72c-10.319 75.448-69.643 134.772-145.081 145.081 10.319-75.438 69.643-134.761 145.081-145.081zM244.256 328.814c-79.549-18.686-128.925-98.266-110.352-177.826 6.818-29.295 22.56-55.739 45.068-75.675l233.596 47.661c23.676 51.37 15.98 111.736-19.823 155.524s-93.442 63.321-148.489 50.316v0zM84.466 55.976l45.554 9.286c-49.211 60.945-56.059 145.804-17.282 213.866 38.778 68.052 115.279 105.415 192.793 94.155s140.226-68.847 158.034-145.122c7.22-31.475 6.384-64.261-2.427-95.333l45.316 9.245c6.156 31.661 5.547 64.261-1.777 95.663-21.62 82.049-60.925 158.365-115.176 223.597-45.223 53.518-116.354 113.306-198.175 94.052-81.832-19.255-119.132-104.247-135.928-172.289-19.688-82.503-21.052-168.322-3.998-251.404 6.363-27.033 17.56-52.681 33.065-75.717v0zM1209.969 98.545l-8.718 41.422-48.653-10.268 28.179 41.061-34.904 23.913-58.053-84.621c-1.095-1.673-1.942-3.502-2.5-5.423-12.354 51.37-58.383 87.513-111.21 87.358-7.768 0-15.515-0.785-23.128-2.335l-2.107-0.444c2.965-25.628 1.178-51.576-5.268-76.553l-2.118-8.088-40.916 10.733 2.118 8.057c4.845 18.707 6.415 38.127 4.648 57.371l-121.663-24.812c4.049-32.012 0.568-64.53-10.154-94.971l-39.852 14.224c8.191 23.149 11.135 47.847 8.605 72.287l-103.256-21.155c1.983-28.355-1.849-56.813-11.249-83.629l-39.862 14.214c6.911 19.533 10.092 40.193 9.39 60.904l-103.462-21.155c0.351-24.585-3.646-49.035-11.828-72.225l-39.883 14.451c5.578 15.866 8.698 32.487 9.245 49.293l-103.421-21.155c-0.816-20.69-4.783-41.143-11.745-60.656l-39.831 14.265c4.297 12.137 7.138 24.75 8.46 37.569l-283.395-57.815c-12.995-2.396-21.982-14.348-20.67-27.498 1.312-13.139 12.489-23.087 25.7-22.849h933.65c30.535-0.093 59.83 12.044 81.357 33.695l11.869 11.889c21.651 21.527 33.788 50.812 33.706 81.346 0 3.13-0.64 6.105-0.888 9.173 0.485-0.868 1.033-1.704 1.642-2.489l79.208-84.621 30.886 28.933-53.539 57.123 63.61 13.48z" />
<glyph unicode="&#x1f356;" glyph-name="viandes" horiz-adv-x="1236" d="M942.335 50.685c-106.422 0-227.493 38.91-359.752 115.594-106.293 61.647-216.151 81.283-313.091 98.619-99.033 17.776-200.029 36.12-260.332 104.639 6.382-276.919 310.042-152.334 601.068-321.023 358.176-207.651 577.634-93.478 610.99 150.164-57.978-93.529-155.099-147.993-278.883-147.993zM315.223 407.776c92.212-14.934 196.696-31.831 301.748-86.941 109.471-57.384 207.961-86.502 292.757-86.528v0c75.469 0 137.607 24.106 179.747 69.63 40.822 44.129 62.37 107.249 62.37 182.589 0 227.312-242.66 412.253-540.894 412.253-335.621 0-528.079-117.041-528.079-321.126-0.026-132.233 92.418-147.244 232.351-169.877zM391.209 776.907c84.073 0 152.231-52.759 152.231-117.79 0-65.057-68.158-117.816-152.231-117.816-84.047 0-152.205 52.759-152.205 117.816 0 65.031 68.158 117.79 152.205 117.79zM610.228 213.999c389.878-226.021 615.614-70.845 615.614 217.753s-275.576 522.602-615.614 522.602c-340.013-0.026-601.352-122.002-601.352-410.625s307.2-159.232 601.352-329.73zM610.952 924.642c312.522 0 566.757-196.515 566.757-438.089 0-81.954-23.977-151.171-69.243-200.158-47.178-50.976-115.852-77.95-198.711-77.95v0c-89.008 0-191.554 30.126-304.771 89.499-101.306 53.095-203.594 69.656-293.868 84.28-141.948 23.021-254.054 41.184-254.054 195.404-0.052 220.543 201.863 347.015 553.89 347.015zM466.653 659.091c0-32.249-33.777-58.391-75.444-58.391s-75.444 26.143-75.444 58.391c0 32.249 33.777 58.391 75.444 58.391s75.444-26.143 75.444-58.391z" />
<glyph unicode="&#x1f359;" glyph-name="epicerie" horiz-adv-x="1195" d="M1181.457 902.625c-12.592 41.484-56.424 64.905-97.907 52.313l-672.348-204.069c-37.245 57.513-121.829 85.797-208.892 64.466-104.29-25.554-220.071-124.224-200.026-206.032s168.329-115.774 272.619-90.22c87.063 21.335 148.992 85.516 155.429 153.735l690.526 129.871c2.737 0.52 5.563 1.205 8.288 2.033 41.484 12.588 64.905 56.424 52.313 97.904zM263.584 368.224c0-26.576-21.544-48.12-48.12-48.12s-48.12 21.544-48.12 48.12c0 26.576 21.544 48.12 48.12 48.12s48.12-21.544 48.12-48.12zM163.701 177.626c0-26.576-21.544-48.12-48.12-48.12s-48.12 21.544-48.12 48.12c0 26.576 21.544 48.12 48.12 48.12s48.12-21.544 48.12-48.12zM363.466 177.626c0-26.576-21.544-48.12-48.12-48.12s-48.12 21.544-48.12 48.12c0 26.576 21.544 48.12 48.12 48.12s48.12-21.544 48.12-48.12zM263.584-13.401c0-26.576-21.544-48.12-48.12-48.12s-48.12 21.544-48.12 48.12c0 26.576 21.544 48.12 48.12 48.12s48.12-21.544 48.12-48.12z" />
<glyph unicode="&#x1f364;" glyph-name="produits-mer" horiz-adv-x="1126" d="M488.091 694.752c-4.835 19.829-11.030 37.886-17.64 53.94-5.297 12.875-10.893 24.437-16.285 34.549-7.877 14.787-15.363 26.465-20.959 34.549l-328.64 0.007c-19.558 0-35.471 15.913-35.471 35.471s15.913 35.471 35.471 35.471h159.051v69.094h-159.048c-57.66 0-104.569-46.912-104.569-104.567 0-53.144 39.859-97.121 91.248-103.69 0-0.011 0-0.020 0-0.033 3.317-63.43 16.214-120.205 38.441-169.103 22.019-48.414 53.181-89.389 92.682-121.747 68.52-56.175 142.524-70.869 171.151-74.602 5.966-0.761 9.65-1.014 10.319-1.060l1.060-0.068h19.809c7.6 11.494 14.602 23.009 20.983 34.549 6.425 11.494 12.231 23.009 17.459 34.549 36.386 80.196 44.793 161.523 24.939 242.692zM372.91 633.966h-53.942v53.942h53.942v-53.942zM1104.505 563.304c-2.787-11.355-6.172-23.124-10.227-35.17-2.673-7.899-5.689-16.076-9.144-24.461v-0.022c-7.371-17.987-16.606-36.921-28.168-56.153-26.786-44.613-66.102-90.955-123.729-131.422-9.536-6.703-19.554-13.22-30.126-19.554-9.996-5.988-20.453-11.815-31.393-17.413 1.705-8.361 2.602-16.997 2.602-25.843 0-59.882-40.832-110.434-96.105-125.269-11.45 54.897-60.106 96.142-118.399 96.142h-141.402v-22.569c0-66.802 54.156-120.958 120.96-120.958-66.804 0-120.96-54.156-120.96-120.958v-22.569h141.404c66.179 0 119.913 53.157 120.911 119.097 0.004 0 0.009 0 0.011 0 193.562 18.238 345.53 181.699 345.53 379.96 0 44.567-7.671 87.361-21.767 127.161zM789.47 815.16c5.759-11.263 11.562-23.768 17.068-37.427 4.813-11.885 9.397-24.668 13.544-38.256 2.096-6.863 4.076-13.957 5.92-21.236 17.367-68.659 24.16-165.417-19.186-276.156-4.1-10.502-8.66-21.12-13.704-31.855-4.883-10.365-10.202-20.821-16.008-31.393 24.714-6.403 46.595-19.899 63.293-38.21 10.686 5.46 20.959 11.195 30.84 17.228 10.020 6.104 19.646 12.484 28.837 19.186 61.012 44.336 103.806 101.364 127.783 170.415 1.406 4.054 2.719 8.084 3.938 12.070 5.759 18.724 9.558 36.551 12.024 52.697 3.385 22.226 4.239 41.274 4.215 55.185-61.222 80.13-153.42 135.406-258.563 147.751zM759.023 701.288c-4.353 17.204-9.628 33.051-15.271 47.4-4.998 12.715-10.295 24.276-15.502 34.549-7.070 13.982-14.004 25.565-19.853 34.549h-194.299c5.55-10.273 11.263-21.835 16.791-34.549 4.674-10.711 9.191-22.248 13.381-34.549 3.685-10.803 7.094-22.18 10.11-34.134 16.56-65.458 23.194-157.311-16.652-262.498-4.285-11.355-9.144-22.895-14.58-34.549-5.297-11.377-11.17-22.917-17.666-34.549h193.84c7.325 11.494 14.072 23.009 20.244 34.549 6.197 11.494 11.793 23.009 16.837 34.549 36.069 82.411 43.694 165.881 22.62 249.232z" />
<glyph unicode="&#x1f372;" glyph-name="traiteur-snacking" horiz-adv-x="1165" d="M0 345.458v-68.006h83.672l68.006-136.723h315.104l-45.218-136.367h-77.975v-68.362h477.819v68.362h-77.619l-45.574 136.367h315.104l68.362 136.723h83.316v68.006h-1164.996zM676.495 815.088c6.052 12.394 9.597 26.966 9.613 42.364v0.006c0.113 1.805 0.178 3.915 0.178 6.040 0 56.633-45.91 102.542-102.542 102.542s-102.542-45.91-102.542-102.542c0-2.125 0.065-4.234 0.192-6.327l-0.014 0.287c0.016-15.404 3.562-29.976 9.87-42.956l-0.257 0.586c-206.080-38.92-366.765-196.615-409.571-397.907l-0.599-3.362h1003.349c-42.969 204.057-202.589 361.525-404.442 400.745l-3.236 0.524zM548.317 857.458c0 19.664 15.941 35.605 35.605 35.605s35.605-15.941 35.605-35.605c0-19.664-15.941-35.605-35.605-35.605v0c-19.664 0-35.605 15.941-35.605 35.605v0z" />
<glyph unicode="&#x1f37a;" glyph-name="boissons" horiz-adv-x="717" d="M141.241 960h105.931v-70.621h-105.931zM247.172 730.483v123.586h-105.931v-123.586c0-5.932-0.512-11.794-1.042-17.655h108.032c-0.547 5.862-1.059 11.723-1.059 17.655zM324.838 575.117c-34.163 25.618-58.368 62.005-69.914 102.4h-121.432c-11.546-40.395-35.752-76.765-69.914-102.4-39.812-29.855-63.576-77.383-63.576-127.117v-459.034c0-29.202 23.764-52.966 52.966-52.966h282.483c29.202 0 52.966 23.764 52.966 52.966v459.034c0 49.735-23.764 97.262-63.576 127.117zM353.103 59.586c0-9.763-7.892-17.655-17.655-17.655h-282.483c-9.763 0-17.655 7.892-17.655 17.655v353.103c0 9.763 7.892 17.655 17.655 17.655h282.483c9.763 0 17.655-7.892 17.655-17.655v-353.103zM70.621 395.034h247.172v-317.793h-247.172zM705.201 218.483l-11.776-211.862h-186.297l-11.776 211.862h209.849zM511.047-64l-1.96 35.31h182.378l-1.96-35.31h-178.458z" />
<glyph unicode="&#x1f37d;" glyph-name="restaurateur" d="M998.362 89.349l-847.722 870.651h-35.697l-7.289-19.022c-19.238-50.208-27.457-101.56-23.767-148.498 4.206-53.504 23.997-99.826 57.236-133.964l356.576-366.219 47.032 48.304 329.654-378.585c32.793-33.68 89.236-35.68 123.977 0 34.183 35.108 34.183 92.228 0 127.334zM314.806 378.811l-288.338-288.472c-35.29-35.306-35.29-92.756 0-128.062 33.524-33.54 91.519-36.501 128.003 0l288.34 288.474-128.005 128.060zM981.89 791.569l-161.413-161.411-42.11 42.108 161.413 161.413-42.108 42.108-161.411-161.411-42.108 42.108 161.413 161.411-42.106 42.106-210.539-210.539c-25.756-25.756-41.135-59.955-43.31-96.301-0.55-9.208-2.637-18.266-6.099-26.881l136.766-136.766c8.615 3.466 17.675 5.552 26.881 6.101 36.346 2.169 70.545 17.552 96.301 43.308l210.539 210.537-42.11 42.11z" />
<glyph unicode="&#x1f3ab;" glyph-name="wallet" horiz-adv-x="1203" d="M358.613 772.983l1.969-5.25c17.88-35.004 53.678-58.554 94.976-58.554 58.71 0 106.304 47.594 106.304 106.304 0 10.817-1.616 21.256-4.619 31.090l0.198-0.753-40.684 114.179-199.813-72.838zM1197.893 356.952l-193.579 532.178c-11.807 33.463-43.159 57.012-80.011 57.012-9.765 0-19.144-1.653-27.872-4.696l0.594 0.18-273.635-100.070c1.999-9.511 3.144-20.44 3.144-31.637 0-67.476-41.569-125.243-100.495-149.089l-1.078-0.386c-16.478-6.242-35.528-9.855-55.423-9.855-60.784 0-113.69 33.733-141.017 83.5l-0.42 0.834-274.292-100.070c-31.977-12.684-54.177-43.349-54.177-79.199 0-10.925 2.062-21.369 5.818-30.964l-0.199 0.578 193.907-531.85c11.857-33.585 43.327-57.218 80.316-57.218 9.65 0 18.925 1.609 27.571 4.572l-0.598-0.178 841.905 307.102c32.452 12.228 55.119 43.019 55.119 79.103 0 10.842-2.046 21.206-5.774 30.727l0.198-0.573zM613.219 168.295l-285.119-103.351c-2.721-0.961-5.859-1.517-9.127-1.517-12.248 0-22.673 7.803-26.575 18.709l-0.062 0.197-13.124 37.731c-7.636 19.675-12.061 42.448-12.061 66.253 0 61.231 29.272 115.625 74.587 149.952l0.47 0.341c-41.83 5.947-75.758 34.512-89.331 72.719l-0.24 0.775c-4.559 11.54-7.203 24.907-7.203 38.892 0 45.807 28.36 84.99 68.48 100.949l0.734 0.257c10.37 3.623 22.325 5.716 34.769 5.716 47.339 0 87.604-30.289 102.472-72.544l0.233-0.761c4.228-11.289 6.675-24.334 6.675-37.951 0-29.056-11.141-55.509-29.385-75.322l0.071 0.078c2.568 0.126 5.578 0.197 8.604 0.197 81.746 0 151.286-52.265 177.025-125.202l0.404-1.314 13.78-37.731c1.4-3.213 2.214-6.957 2.214-10.89 0-11.958-7.526-22.157-18.099-26.122l-0.192-0.063zM643.076 505.253c-1.253 3.056-1.98 6.604-1.98 10.321 0 11.87 7.415 22.008 17.866 26.034l0.191 0.065 145.020 52.824c2.692 0.94 5.796 1.482 9.026 1.482 12.357 0 22.858-7.943 26.678-19.002l0.060-0.198c1.133-2.956 1.789-6.375 1.789-9.947 0-11.917-7.302-22.128-17.676-26.403l-145.21-52.893c-2.75-0.997-5.924-1.573-9.233-1.573-12.329 0-22.79 8.001-26.473 19.093l-0.057 0.197zM1017.11 415.026l-275.604-100.070c-2.721-0.961-5.859-1.517-9.127-1.517-12.248 0-22.673 7.803-26.575 18.709l-0.062 0.197c-1.21 3.066-1.912 6.617-1.912 10.332 0 12.022 7.348 22.328 17.798 26.672l0.191 0.070 274.948 98.43c2.927 1.105 6.31 1.744 9.843 1.744 15.822 0 28.648-12.826 28.648-28.648 0-12.289-7.738-22.771-18.608-26.839l-0.198-0.065zM371.081 390.418c22.21 6.835 38.074 27.171 38.074 51.213 0 29.536-23.944 53.48-53.48 53.48s-53.48-23.944-53.48-53.48c0-6.606 1.198-12.931 3.387-18.772l-0.121 0.369c7.466-20.701 26.94-35.232 49.809-35.232 5.646 0 11.085 0.886 16.185 2.526l-0.374-0.104zM568.925 223.744c-18.421 51.669-66.923 87.987-123.908 87.987-14.344 0-28.15-2.301-41.070-6.554l0.928 0.264c-48.285-20.931-81.448-68.18-81.448-123.176 0-18.538 3.768-36.196 10.581-52.25l-0.33 0.877 4.265-11.483 237.872 85.962-4.265 11.155z" />
<glyph unicode="&#x1f3c6;" glyph-name="celebrity" horiz-adv-x="1001" d="M501.303 948.908c-11.798-1.297-20.651-11.392-20.396-23.258v-68.701c-0.117-8.259 4.222-15.941 11.356-20.104s15.956-4.163 23.089 0c7.133 4.163 11.472 11.845 11.356 20.104v68.701c0.097 6.198-2.322 12.17-6.705 16.553s-10.355 6.802-16.553 6.705c-0.715 0.034-1.432 0.034-2.147 0zM192.148 845.856c-8.631-0.693-16.134-6.196-19.389-14.22s-1.706-17.198 4.003-23.709l103.052-125.952c5.241-6.392 13.494-9.503 21.651-8.16s14.977 6.936 17.892 14.671c2.915 7.735 1.481 16.438-3.761 22.83l-103.052 125.952c-4.427 5.531-11.165 8.702-18.249 8.588-0.715 0.034-1.432 0.034-2.147 0v0zM810.458 845.856c-6.069-0.696-11.608-3.788-15.386-8.588l-103.052-125.952c-5.242-6.392-6.676-15.095-3.761-22.83s9.735-13.328 17.892-14.671c8.157-1.343 16.41 1.768 21.651 8.16l103.052 125.952c6.016 6.903 7.342 16.726 3.372 24.977s-12.473 13.345-21.621 12.952c-0.715 0.034-1.432 0.034-2.147 0zM503.808 685.196c-50.59 0-91.601-41.012-91.601-91.601s41.011-91.601 91.601-91.601c50.59 0 91.601 41.011 91.601 91.601s-41.011 91.601-91.601 91.601zM974.339 571.052c-1.081-0.043-2.157-0.163-3.22-0.358-0.601-0.095-1.198-0.215-1.789-0.358l-68.701-11.45c-8.332-1.107-15.389-6.689-18.384-14.542s-1.448-16.717 4.032-23.091c5.479-6.374 14.010-9.234 22.224-7.452l68.701 11.45c12.648 0.79 22.26 11.684 21.469 24.332s-11.684 22.26-24.332 21.469v0zM31.13 570.694c-11.477-1.258-20.223-10.862-20.405-22.406s8.258-21.419 19.689-23.037l68.701-11.45c8.214-1.782 16.745 1.078 22.224 7.452s7.027 15.237 4.032 23.091c-2.995 7.854-10.052 13.436-18.384 14.542l-68.701 11.45c-2.352 0.494-4.767 0.615-7.156 0.358v0zM503.808 479.092c-107.504 0-194.653-82.024-194.653-183.203h389.306c0 101.179-87.149 183.203-194.653 183.203zM788.631 342.048c-0.841-0.073-1.677-0.192-2.505-0.358-10.102-1.518-17.978-9.542-19.306-19.67s4.212-19.912 13.581-23.983l148.852-68.701c7.458-3.753 16.368-3.15 23.252 1.573s10.653 12.819 9.836 21.128c-0.818 8.309-6.092 15.515-13.765 18.806l-148.852 68.701c-3.428 1.754-7.243 2.616-11.092 2.505v0zM216.122 341.69c-2.853-0.196-5.645-0.924-8.23-2.147l-148.852-68.701c-7.673-3.291-12.948-10.497-13.765-18.806s2.951-16.405 9.836-21.128c6.885-4.723 15.794-5.326 23.252-1.573l148.852 68.701c10.029 4.621 15.333 15.739 12.613 26.441s-12.688 17.94-23.706 17.213zM501.303 147.395c-11.798-1.297-20.651-11.392-20.396-23.258v-160.303c-0.117-8.259 4.222-15.941 11.356-20.104s15.956-4.163 23.089 0c7.133 4.163 11.472 11.845 11.356 20.104v160.303c0.097 6.198-2.322 12.17-6.705 16.553s-10.355 6.802-16.553 6.705c-0.715 0.034-1.432 0.034-2.147 0zM273.373 124.495c-7.61-0.539-14.453-4.832-18.249-11.45l-34.351-57.251c-4.219-7.031-4.366-15.778-0.386-22.947s11.482-11.67 19.68-11.808c8.198-0.138 15.847 4.108 20.066 11.139l34.351 57.251c4.624 7.321 4.724 16.624 0.258 24.043s-12.735 11.684-21.369 11.023zM731.38 124.495c-8.123-0.405-15.422-5.087-19.177-12.302s-3.401-15.88 0.928-22.765l34.351-57.251c4.219-7.031 11.868-11.277 20.066-11.139s15.7 4.639 19.68 11.808c3.98 7.169 3.833 15.916-0.386 22.947l-34.351 57.251c-4.311 7.496-12.477 11.925-21.111 11.45v0z" />
<glyph unicode="&#x1f3ed;" glyph-name="industriel" d="M141.801 173.978c-44.954 0-79.326-34.372-79.326-79.326s34.372-79.337 79.326-79.337c44.954 0 79.326 34.372 79.326 79.337s-34.361 79.326-79.326 79.326zM141.801 68.21c-15.861 0-26.442 10.581-26.442 26.442s10.581 26.442 26.442 26.442c15.872 0 26.442-10.581 26.442-26.442s-10.57-26.442-26.442-26.442zM379.79 173.978c-44.954 0-79.326-34.372-79.326-79.326s34.372-79.337 79.326-79.337c44.954 0 79.326 34.372 79.326 79.337s-34.372 79.326-79.326 79.326zM379.79 68.21c-15.872 0-26.442 10.581-26.442 26.442s10.581 26.442 26.442 26.442c15.861 0 26.442-10.581 26.442-26.442s-10.581-26.442-26.442-26.442zM935.083 94.652c0 44.954-34.372 79.326-79.326 79.326s-79.326-34.372-79.326-79.326c0-44.954 34.372-79.337 79.326-79.337 44.954 0.011 79.326 34.384 79.326 79.337zM829.315 94.652c0 15.872 10.57 26.442 26.442 26.442s26.442-10.581 26.442-26.442c0-15.861-10.581-26.442-26.442-26.442s-26.442 10.581-26.442 26.442zM617.768 173.978c-44.954 0-79.326-34.372-79.326-79.326s34.372-79.337 79.326-79.337c44.954 0 79.326 34.372 79.326 79.337s-34.372 79.326-79.326 79.326zM617.768 68.21c-15.861 0-26.442 10.581-26.442 26.442s10.581 26.442 26.442 26.442c15.872 0 26.442-10.581 26.442-26.442s-10.581-26.442-26.442-26.442zM855.745 325.393v581.723c0 29.082-23.791 52.884-52.884 52.884h-634.607c-29.082 0-52.884-23.802-52.884-52.884v-581.723c0-29.093 23.802-52.884 52.884-52.884h634.618c29.082-0.011 52.873 23.791 52.873 52.884zM578.105 748.453h-185.094c-21.151 0-39.663 18.512-39.663 39.663s18.512 39.663 39.663 39.663h185.094c21.151 0 39.663-18.512 39.663-39.663s-18.512-39.663-39.663-39.663zM855.745 253.315h-846.154v-52.884h846.154c58.175 0 105.768-47.593 105.768-105.768s-47.605-105.768-105.768-105.768h-846.154v-52.895h846.154c87.256 0 158.652 71.384 158.652 158.652 0.011 87.256-71.384 158.663-158.652 158.663z" />
<glyph unicode="&#x1f4c7;" glyph-name="contacts" horiz-adv-x="1126" d="M790.445 830.148l-757.323-275.643c-16.73-6.089-25.393-24.489-19.348-41.096l197.004-541.263c6.045-16.607 24.507-25.134 41.238-19.044l757.323 275.643c16.73 6.089 25.393 24.489 19.348 41.096l-197.004 541.263c-6.045 16.607-24.507 25.134-41.238 19.044zM278.006 541.475c50.191 18.268 105.579-7.311 123.713-57.133s-7.854-105.020-58.045-123.288c-50.191-18.268-105.579 7.311-123.713 57.133s7.854 105.020 58.045 123.288zM571.751 205.691c6.045-16.607-2.618-35.007-19.348-41.096l-242.343-88.206c-16.73-6.089-35.193 2.437-41.238 19.044l-21.889 60.14c-24.178 66.429 10.472 140.026 77.393 164.384l60.586 22.051c66.921 24.357 140.772-9.749 164.95-76.178l21.889-60.14zM770.316 414.178l-181.757-66.154c-16.73-6.089-35.193 2.437-41.238 19.044s2.618 35.007 19.348 41.096l181.757 66.154c16.73 6.089 35.193-2.437 41.238-19.044s-2.618-35.007-19.348-41.096zM798.068 526.44l-242.343-88.206c-16.73-6.089-35.193 2.437-41.238 19.044s2.618 35.007 19.348 41.096l242.343 88.206c16.73 6.089 35.193-2.437 41.238-19.044s-2.618-35.007-19.348-41.096zM867.245 958.148l-757.323-275.643c-16.73-6.089-25.393-24.489-19.348-41.096l10.945-30.070 696.737 253.591c33.461 12.179 70.386-4.874 82.475-38.089l175.114-481.123 30.293 11.026c16.73 6.089 25.393 24.489 19.348 41.096l-197.004 541.263c-6.045 16.607-24.507 25.134-41.238 19.044z" />
<glyph unicode="&#x1f4cc;" glyph-name="map" horiz-adv-x="1176" d="M369.399 960v-895.052l-318.578-126.293c-3.807-1.604-8.227-2.571-12.862-2.654h-0.032c-7.656 0.142-14.726 2.531-20.612 6.532l0.132-0.085c-9.282 5.436-15.81 14.714-17.422 25.595l-0.024 0.195v820.717c0.311 13.798 7.945 25.745 19.156 32.139l0.187 0.098 3.793 1.896zM1124.883 957.345c4.027 1.59 8.693 2.512 13.573 2.512 7.799 0 15.049-2.354 21.077-6.391l-0.137 0.086c9.91-6.939 16.309-18.304 16.309-31.163 0-0.111 0-0.222-0.001-0.333v0.017-815.028c-0.33-15.29-9.659-28.323-22.889-34.039l-0.246-0.095-346.264-136.913v895.052zM436.527 960l303.407-113.778v-877.227l-303.407 113.778z" />
<glyph unicode="&#x1f4e2;" glyph-name="speaker" d="M298.869 722.193l-95.115 94.958c-17.273 13.592-41.952 12.108-57.479-3.458s-17.008-40.306-3.449-57.621v0l94.723-94.958c16.933-17.002 44.409-17.024 61.369-0.049s16.982 44.519 0.049 61.521l-0.098-0.393zM333.697 955.156c10.058 5.591 21.761 6.377 32.362 2.174s19.163-13.026 23.678-24.396l52.117-132.511c8.51-21.746 0.367-47.043-18.68-58.025-15.828-8.96-35.094-5.679-47.727 8.128v0c-3.726 4.069-6.707 8.889-8.78 14.198l-51.65 132.408c-8.51 21.746-0.367 47.043 18.68 58.025zM62.883 645.333l134.106-52.077c21.923-9.712 31.542-33.272 21.854-53.526s-35.269-30.062-58.116-22.282l-134.106 52.548c-5.328 2.079-10.172 5.050-14.276 8.758-14.667 14.164-16.465 35.639-4.323 51.636s34.959 22.212 54.86 14.944v0zM103.303 317.354c-12.298-12.293-17.101-30.21-12.599-47.003s17.623-29.909 34.422-34.409c16.799-4.5 34.723 0.301 47.021 12.594l28.553 28.542 141.6-62.897c-50.315-69.614-38.583-166.206 26.936-221.762s162.768-51.373 223.271 9.602l70.007 69.98 131.342-58.352c-14.663-19.222-12.856-46.319 4.23-63.426v0c19.027-18.964 49.817-18.964 68.844 0l143.504 143.343c17.434 18.106 18.152 46.522 1.656 65.486s-44.748 22.198-65.106 7.454l-263.742 592.927 28.553 28.542c13.889 13.906 18.039 34.801 10.52 52.957s-25.231 30.003-44.889 30.026c-12.905 0.032-25.285-5.109-34.369-14.271l-539.752-539.332zM417.402 196.327l5.221 6.803 111.638-64.628-36.197-47.167c-14.409-18.775-35.41-26.108-55.093-19.236s-35.057 26.905-40.331 52.553c-5.274 25.648 0.353 53.013 14.762 71.789v-0.113z" />
<glyph unicode="&#x1f50e;" glyph-name="search" d="M982.875 19.008l-240.964 240.964c64.638 74.312 103.773 171.269 103.773 277.241 0 233.269-189.737 422.787-422.787 422.787-233.269 0-422.787-189.737-422.787-422.787s189.737-422.787 422.787-422.787c105.972 0 202.929 39.135 277.241 103.773l240.964-240.964c5.716-5.716 13.411-8.794 20.887-8.794s15.17 2.858 20.887 8.794c11.433 11.433 11.433 30.34 0 41.773zM59.252 537.213c0 200.511 163.135 363.425 363.425 363.425 200.511 0 363.425-163.135 363.425-363.425s-162.915-363.645-363.425-363.645c-200.291 0-363.425 163.135-363.425 363.645z" />
<glyph unicode="&#x1f51d;" glyph-name="arrow-top" horiz-adv-x="1906" d="M953.001 864.342l-860.858-883.611c-21.145-21.74-55.095-60.039-76.3-38.299-9.824 10.112-15.881 23.93-15.881 39.162s6.057 29.050 15.894 39.176l-0.013-0.013 899.395 923.22c9.626 10.058 23.158 16.31 38.15 16.31s28.524-6.252 38.131-16.29l0.018-0.019 898.74-923.22c9.786-10.066 15.855-23.791 15.963-38.933v-0.021c0.001-0.094 0.001-0.206 0.001-0.317 0-15.081-6.099-28.738-15.965-38.638l0.002 0.002c-21.145-21.74-55.095 16.558-76.3 38.299z" />
<glyph unicode="&#x1f680;" glyph-name="launch" d="M286.012 575.93c4.178-4.178 12.411-0.79 12.411 5.143v98.058h70.217c29.035 0 52.663 23.628 52.663 52.663v175.543c0 29.035-23.628 52.663-52.663 52.663h-315.977c-29.035 0-52.663-23.628-52.663-52.663v-175.543c0-29.035 23.628-52.663 52.663-52.663h130.147l103.202-103.202zM131.657 778.974l15.122 14.648 24.523-23.754 120.775 116.989 15.122-14.648-135.898-131.637-39.645 38.402zM596.846 398.263v70.217h-175.543v-70.217h35.109v35.109h35.109v-35.109h35.109v35.109h35.109v-35.109zM938.347 360.521c-4.898-11.691-10.076-23.277-15.746-34.617l-9.778-19.555v-48.52h6.987c33.336 0 65.881-7.267 95.724-21.206-8.303 49.644-36.074 94.354-77.186 123.898v0zM561.737-23.040h-35.109v35.109h-35.109v-35.109h-35.109v35.109h-35.109v-70.217h175.543v70.217h-35.109zM840.464 904.353l-25.945 34.582c-9.883 13.183-25.647 21.065-42.13 21.065s-32.23-7.882-42.13-21.065l-25.945-34.582c-11.902-15.887-22.54-32.616-32.563-49.679h201.277c-10.023 17.063-20.661 33.792-32.563 49.679v0zM860.16 468.48h-228.206v-105.326h-245.76v105.326h-228.206c-9.672 0-17.554-7.882-17.554-17.554v-491.52c0-9.69 7.882-17.554 17.554-17.554h228.206v105.326h245.76v-105.326h228.206c9.672 0 17.554 7.864 17.554 17.554v491.52c0 9.672-7.882 17.554-17.554 17.554zM210.651-23.040h-35.109v35.109h35.109v-35.109zM280.869-23.040h-35.109v35.109h35.109v-35.109zM351.086-23.040h-35.109v35.109h35.109v-35.109zM351.086 47.177h-175.543v35.109h175.543v-35.109zM842.606-23.040h-35.109v35.109h35.109v-35.109zM842.606 47.177h-35.109v35.109h35.109v-35.109zM842.606 117.394h-35.109v35.109h35.109v-35.109zM860.16 661.577c0-48.475-39.297-87.771-87.771-87.771s-87.771 39.297-87.771 87.771c0 48.475 39.297 87.771 87.771 87.771s87.771-39.297 87.771-87.771zM912.823 391.452c22.961 60.72 35.109 125.601 35.109 190.464 0 82.33-19.713 163.975-55.928 237.65h-239.23c-36.214-73.658-55.928-155.32-55.928-237.65 0-26.138 2.036-52.417 5.863-78.327h257.451c29.035 0 52.663-23.628 52.663-52.663v-59.474zM772.389 538.697c-67.76 0-122.88 55.12-122.88 122.88s55.12 122.88 122.88 122.88c67.76 0 122.88-55.12 122.88-122.88s-55.12-122.88-122.88-122.88z" />
<glyph unicode="&#x1f69a;" glyph-name="distributeur" horiz-adv-x="1467" d="M1085.637 717.399l-526.14 238.052c-4.549 3.033-10.614 3.033-16.679 0l-523.107-238.052c-7.581-3.033-12.13-10.614-12.13-18.195v-718.704c0-10.614 9.098-19.711 19.711-19.711h147.077c10.614 0 19.711 9.098 19.711 19.711v565.563c0 10.614 9.098 19.711 19.711 19.711h677.765c10.614 0 19.711-9.098 19.711-19.711v-34.874c0-10.614 9.098-19.711 19.711-19.711h145.56c10.614 0 19.711 9.098 19.711 19.711v188.015c0 7.581-4.549 15.163-10.614 18.195zM389.677 109.382h-109.17c-10.614 0-19.711-9.098-19.711-19.711v-109.17c0-10.614 9.098-19.711 19.711-19.711h109.17c10.614 0 19.711 9.098 19.711 19.711v109.17c0 10.614-9.098 19.711-19.711 19.711zM606.501 109.382h-109.17c-10.614 0-19.711-9.098-19.711-19.711v-109.17c0-10.614 9.098-19.711 19.711-19.711h109.17c10.614 0 19.711 9.098 19.711 19.711v109.17c0 10.614-9.098 19.711-19.711 19.711zM389.677 303.462h-109.17c-10.614 0-19.711-9.098-19.711-19.711v-109.17c0-10.614 9.098-19.711 19.711-19.711h109.17c10.614 0 19.711 9.098 19.711 19.711v109.17c0 10.614-9.098 19.711-19.711 19.711zM606.501 303.462h-109.17c-10.614 0-19.711-9.098-19.711-19.711v-109.17c0-10.614 9.098-19.711 19.711-19.711h109.17c10.614 0 19.711 9.098 19.711 19.711v109.17c0 10.614-9.098 19.711-19.711 19.711zM389.677 496.026h-109.17c-10.614 0-19.711-9.098-19.711-19.711v-107.654c0-10.614 9.098-19.711 19.711-19.711h109.17c10.614 0 19.711 9.098 19.711 19.711v109.17c0 9.098-9.098 18.195-19.711 18.195zM606.501 496.026h-109.17c-10.614 0-19.711-9.098-19.711-19.711v-107.654c0-10.614 9.098-19.711 19.711-19.711h109.17c10.614 0 19.711 9.098 19.711 19.711v109.17c0 9.098-9.098 18.195-19.711 18.195zM1064.41 115.447h-353.287c-9.098 0-16.679-7.581-16.679-16.679v-51.553c0-9.098 7.581-16.679 16.679-16.679h37.906c3.033-37.906 34.874-69.748 74.296-69.748s71.264 30.325 74.296 69.748h165.272c9.098 0 16.679 7.581 16.679 16.679v51.553c1.516 9.098-6.065 16.679-15.163 16.679zM824.842-2.821c-21.228 0-39.423 18.195-39.423 39.423s18.195 39.423 39.423 39.423c21.228 0 39.423-18.195 39.423-39.423s-18.195-39.423-39.423-39.423zM1419.213 185.195l-86.426 12.13-50.036 87.943c-13.646 24.26-39.423 37.906-65.199 37.906h-95.524c-9.098 0-16.679-7.581-16.679-16.679v-257.763c0-9.098 7.581-16.679 16.679-16.679h121.3c3.033-37.906 34.874-69.748 74.296-69.748s71.264 30.325 74.296 69.748h22.744c18.195 0 33.358 15.163 33.358 33.358v87.943c0 15.163-12.13 30.325-28.809 31.841zM1270.62 198.841h-107.654c-1.516 0-3.033 1.516-3.033 3.033v69.748c0 1.516 1.516 3.033 3.033 3.033h54.585c10.614 0 19.711-6.065 24.26-15.163l31.841-56.101c1.516-1.516 0-4.549-3.033-4.549zM1316.108-2.821c-21.228 0-39.423 18.195-39.423 39.423s18.195 39.423 39.423 39.423c21.228 0 39.423-18.195 39.423-39.423s-16.679-39.423-39.423-39.423zM711.123 139.707h353.287c9.098 0 16.679 7.581 16.679 16.679v248.666c0 9.098-7.581 16.679-16.679 16.679h-353.287c-9.098 0-16.679-7.581-16.679-16.679v-248.666c0-9.098 7.581-16.679 16.679-16.679z" />
<glyph unicode="&#x1f69b;" glyph-name="truck" horiz-adv-x="1730" d="M516.895 126.111c10.076-21.079 15.867-44.613 15.867-69.491 0-16.099-2.432-31.618-6.833-46.327h708.551c-4.378 14.709-6.81 30.228-6.81 46.327 0 24.878 5.814 48.412 15.89 69.491h-726.665zM57.909 126.111c-31.85 0-57.909-26.059-57.909-57.909s26.059-57.909 57.909-57.909h157.397c-4.401 14.709-6.833 30.228-6.833 46.327 0 24.878 5.791 48.412 15.867 69.491h-166.43zM370.617 172.438c-63.862 0-115.818-51.933-115.818-115.818 0-63.839 51.956-115.818 115.818-115.818s115.818 51.979 115.818 115.818c0 63.885-51.956 115.818-115.818 115.818zM370.617 10.293c-25.526 0-46.327 20.801-46.327 46.327s20.824 46.327 46.327 46.327c25.503 0 46.327-20.801 46.327-46.327s-20.801-46.327-46.327-46.327zM1390.047 172.438v0c-0.069 0-0.162 0-0.232 0s-0.162 0-0.232 0v0c-63.746-0.139-115.586-52.025-115.586-115.818 0-63.839 51.956-115.818 115.818-115.818s115.818 51.979 115.818 115.818c0 63.793-51.84 115.679-115.586 115.818zM1389.815 10.293c-25.526 0-46.327 20.801-46.327 46.327s20.801 46.327 46.327 46.327c25.526 0 46.35-20.801 46.35-46.327s-20.824-46.327-46.35-46.327zM1656.196 126.111h-120.126c10.076-21.079 15.89-44.613 15.89-69.491 0-16.099-2.432-31.618-6.833-46.327h111.069c31.85 0 57.909 26.059 57.909 57.909s-26.059 57.909-57.909 57.909zM1276.522 172.438c29.279 28.63 69.213 46.327 113.293 46.327s84.014-17.697 113.293-46.327h141.391v63.283c0 71.969-38.359 135.669-96.407 168.353h-436.24c-12.809 0-23.164 10.354-23.164 23.164v183.873c0 12.809 10.354 23.164 23.164 23.164s23.164-10.354 23.164-23.164v-160.709h290.008l-197.307 278.033h-254.823c-0.533-208.472-0.023-347.477-0.023-555.996h303.651zM393.781 450.401l-69.491 23.164-69.491-23.164v92.654h-115.818v-370.617h118.76c29.209 28.491 68.912 46.327 112.899 46.327 43.964 0 83.667-17.836 112.876-46.327h26.082v370.617h-115.818v-92.654zM718.071 589.383v370.617h-115.818v-92.654l-69.491 23.164-69.491-23.164v92.654h-115.818v-370.617h185.309zM671.744 543.055h-115.818v-370.617h370.617v370.617h-115.818v-92.654l-69.491 23.164-69.491-23.164z" />
<glyph unicode="&#x1f6eb;" glyph-name="importateur" horiz-adv-x="1079" d="M1073.096 466.109c0-246.447-181.779-451.233-418.297-487.342 1.995 10.938 2.555 22.265 1.212 33.743 0 0-1.413 12.078-3.261 27.885 83.973 14.306 159.788 52.838 219.879 108.251-3.607 3-7.2 6.891-10.741 12.057-15.96 23.287 4.91 46.394 4.91 66.758 0 19.975-40.271 18.332-41.746 31.562-5.088 45.817 28.116 46.441 45.819 64.144s-17.497 57.949-40.234 55.352c-22.891-2.444-87.324 10.571-81.436 59.869 7.173 60.043-76.497 54.745-88.478 82.77-17.466 40.85 11.569 90.955 49.44 102.339 53.641 16.123 106.484 59.883 102.356 108.597-4.676 55.172-29.649 104.928-70.779 134.486-42.801 17.34-88.953 28.062-137.239 30.767-43.094-1.704-80.982-11.282-79.253-31.011 4.238-48.349 141.726-60.907 118.654-106.103-12.028-23.561-102.302-56.814-85.443-91.879 10.966-22.803 37.953-3.26 27.878-47.037-4.636-20.143-22.298-57.991-49.461-60.434-27.776-2.593-50.905 70.991-126.51 73.404-35.742 1.143-86.095-55.766-43.339-96.14 25.891-24.45 74.477 29.386 88.816-12.668 10.105-29.635-1.361-91.888 45.801-117.906 17.192-9.484 43.548-17.752 69.614-30.997-38.689-7.901-86.228-22.644-142.364-44.267l-47.297 12.479c19.8 16.482 51.97 28.085 43.876 64.1-11.89 52.913-103.764 32.957-167.103 96.295-19.431 19.428-60.877 83.942-60.707 161.45-31.572-59.971-49.541-128.172-49.541-200.523 0-22.27 1.699-44.153 4.966-65.525-0.745 0.012-1.482 0.142-2.225 0.142-19.947 0-39.51-4.191-57.64-12.114-4.005 25.258-6.142 51.128-6.142 77.496 0 271.842 221.165 493.014 493.005 493.014 271.846 0 493.010-221.168 493.010-493.010zM703.279 322.413l-120.408-55.347 1.867 26.236 78.003 35.212c-11.125 0.796-22.652 1.099-34.162 1.099-43.097 0-115.912-21.816-196.447-53.783l-258.292 68.129c-24.138 6.368-49.836 2.446-70.977-10.836l-12.7-7.978c-12.398-7.789-12.53-25.814-0.247-33.785l155.264-100.731c-37.090-18.969-72.28-38.233-103.301-56.632l-79.672 42.18c-13.014 6.889-28.4 7.706-42.068 2.232l-7.541-3.023c-11.246-4.501-15.958-17.876-10.014-28.434l43.909-77.971c-16.559-14.247-25.996-26.061-25.996-34.237 0-24.471 30.113-30.587 56.657-30.587 47.342 0 672.556 143.151 672.556 272.842 0 25.684-17.569 38.53-46.431 45.412zM439.673 69.202l137.579 48.465c6.060 2.136 12.535-1.904 13.282-8.287l12.062-103.128c3.014-25.77-10.847-50.569-34.374-61.507l-12.903-5.997c-8.059-3.745-17.618-1.738-23.491 4.931l-96.347 109.449c-4.69 5.33-2.506 13.714 4.192 16.074z" />
<glyph unicode="&#x1f916;" glyph-name="food-processing" d="M496.844 226.391c-0.789 33.133-9.633 64.578-26.078 90.469-14.062 22.148-33.125 38.992-55.047 48.977 0.57 0.477 1.102 0.953 1.578 1.43 34.695 34.523 29.008 91.352 28.242 97.719l-2.375 19.828-19.797 2.602c-1.578 0.203-15.945 1.969-34.195-0.023-26.422-2.883-48.383-12.367-63.531-27.43-11.813-11.766-18.937-26.109-23.18-40.172-16.812 17.703-40.508 28.766-66.742 28.766h-20.945v-60h20.945c12.516 0 23.359-7.242 28.711-17.773-0.719 0.195-1.445 0.383-2.172 0.586-19.719 5.711-39.57 6.437-58.992 2.156-31.555-6.945-59.273-27.070-78.063-56.664-16.578-26.117-25.437-57.875-26.102-91.313 5.625 0.555 11.328 0.844 17.094 0.844h380.648zM926 225.477c-0.648 33.461-9.508 65.25-26.102 91.383-14.438 22.742-34.156 39.859-56.828 49.734 0.25 0.227 0.516 0.445 0.742 0.672 34.695 34.523 29.008 91.352 28.242 97.719l-2.375 19.828-19.797 2.602c-1.578 0.203-15.945 1.969-34.195-0.023-26.422-2.875-48.383-12.367-63.531-27.43-11.25-11.195-18.234-24.734-22.531-38.141-16.672 16.516-39.555 26.734-64.773 26.734h-20.945v-60h20.945c12.508 0 23.352-7.234 28.711-17.773-0.727 0.203-1.453 0.383-2.172 0.586-19.727 5.711-39.57 6.43-59 2.156-31.547-6.945-59.266-27.070-78.055-56.664-16.445-25.891-25.289-57.344-26.078-90.469h379.836c6.047 0 12.016-0.313 17.906-0.914zM908.094 168.391h-791.898c-63.914 0-115.906-52.008-115.906-115.938s51.992-115.937 115.906-115.937h791.898c63.914 0 115.906 52.008 115.906 115.937s-51.992 115.938-115.906 115.938zM122.055 22.688c-16.812 0-29.266 13.75-29.992 30-0.727 16.203 14.305 30 29.992 30 16.812 0 29.266-13.742 29.992-30 0.727-16.195-14.305-30-29.992-30zM233.023 22.688c-16.82 0-29.266 13.75-29.992 30-0.727 16.203 14.297 30 29.992 30 16.812 0 29.258-13.742 29.992-30 0.719-16.195-14.305-30-29.992-30zM343.984 22.688c-16.813 0-29.266 13.75-29.992 30-0.727 16.203 14.305 30 29.992 30 16.812 0 29.266-13.742 29.992-30 0.727-16.195-14.305-30-29.992-30zM454.953 22.688c-16.82 0-29.266 13.75-29.992 30-0.727 16.203 14.305 30 29.992 30 16.812 0 29.258-13.742 29.992-30 0.719-16.195-14.312-30-29.992-30zM565.914 22.688c-16.812 0-29.266 13.75-29.992 30-0.727 16.203 14.305 30 29.992 30 16.812 0 29.266-13.742 29.992-30 0.727-16.195-14.305-30-29.992-30zM676.875 22.688c-16.812 0-29.258 13.75-29.992 30-0.727 16.203 14.305 30 29.992 30 16.82 0 29.266-13.742 29.992-30 0.727-16.195-14.305-30-29.992-30zM787.844 22.688c-16.812 0-29.266 13.75-29.992 30-0.727 16.203 14.305 30 29.992 30 16.812 0 29.266-13.742 29.992-30 0.727-16.195-14.305-30-29.992-30zM898.805 22.688c-16.812 0-29.266 13.75-29.992 30-0.727 16.203 14.305 30 29.992 30 16.812 0 29.266-13.742 29.992-30 0.727-16.195-14.305-30-29.992-30zM372.789 776.437h109.086v-34.727h-46.422l-64.984-108.812 23.211-88.102 58 15.281-16.781 63.703 34.594 57.93h84.648l34.523-57.813-16.656-61.383 57.891-15.719 23.328 85.984-65.047 108.93h-46.32v34.727h109.078v123.563h372.773v60h-1023.711v-60h372.789z" />
<glyph unicode="&#x1f9c0;" glyph-name="produits-laitiers" horiz-adv-x="1126" d="M469.628 215.988c0-79.887 27.167-146.731 78.587-193.291 45.534-41.237 106.808-63.942 172.529-63.942 93.368 0 185.258 50.434 221.622 138.888 22.911 55.731 21.446 117.387 17.614 176.416-3.901 59.973-13.727 119.782-29.932 177.689-43.974 157.297-127.433 273.438-214.149 273.438-126.598 0-246.271-247.462-246.271-509.198v0zM547.639 154.372c-2.655-2.669-6.173-4.010-9.676-4.010s-7.007 1.341-9.676 4.010c-17.696 17.696-17.696 40.388-17.696 64.421 0 7.569 6.131 13.686 13.686 13.686s13.686-6.118 13.686-13.686c0-23.253 0.424-35.817 9.676-45.069 5.365-5.351 5.365-14.001 0-19.352zM715.871 26.542c-0.342-7.336-6.391-13.043-13.659-13.043-0.219 0-0.438 0-0.657 0.014-56.196 2.655-108.519 33.846-147.333 87.798-4.407 6.131-3.011 14.685 3.12 19.106s14.685 3.038 19.106-3.12c33.833-47.040 78.71-74.18 126.393-76.438 7.569-0.356 13.385-6.775 13.029-14.316v0zM1039.593-8.002c69.554 44.946 88.372 126.667 86.675 204.665-1.957 89.987-19.174 181.59-54.389 264.624-25.566 60.274-75.288 154.409-152.465 154.409-7.965 0-15.986-1.163-24.006-3.463 5.256 1.505 35.598-75.863 38.417-83.158 32.998-85.389 48.272-174.391 54.554-265.363 3.969-84.349-2.108-166.713-55.361-235.883-18.326-23.8-41.264-44.631-69.047-60.767 59.481-16.218 125.449-7.5 175.622 24.936v0zM412.066 833.441c33.201 1.739 59.658 29.197 59.658 63.116 0 35.040-28.16 63.443-62.898 63.443h-314.481c-34.738 0-62.898-28.403-62.898-63.443 0-33.919 26.457-61.378 59.658-63.114-19.635-179.115-91.105-190.914-91.105-371.079v-379.998c0-52.476 42.321-95.165 94.345-95.165h314.483c52.024 0 94.345 42.689 94.345 95.165v379.998c0 180.468-71.425 191.518-91.107 371.078zM231.050 567.827c-43.562 29.296-95.224 40.346-144.264 34.229 5.696 16.291 12.313 32.247 19.966 47.688 25.583 51.644 41.494 121.932 47.603 183.371h194.463c6.107-61.438 22.018-131.727 47.603-183.371 10.659-21.502 19.433-43.964 26.275-67.013-23.052-11.539-98.769-77.36-191.645-14.904z" />
</font>
</defs>
</svg>
