<?xml version="1.0" standalone="no"?>
<!DOCTYPE svg PUBLIC "-//W3C//DTD SVG 1.1//EN" "http://www.w3.org/Graphics/SVG/1.1/DTD/svg11.dtd" >
<svg>
<metadata>
Created by FontForge 20120731 at Mon May  2 12:33:08 2016
 By ,,,
Copyright (c) 2014 by Fontfabric LLC. All rights reserved.
</metadata>
<defs>
<font id="GloberBoldItalic" horiz-adv-x="549" >
  <font-face 
    font-family="Glober Bold Italic"
    font-weight="700"
    font-style="italic"
    font-stretch="normal"
    units-per-em="1000"
    panose-1="0 0 0 0 0 0 0 0 0 0"
    ascent="750"
    descent="-250"
    x-height="526"
    cap-height="720"
    bbox="-237 -308 1040.32 1038.67"
    underline-thickness="50"
    underline-position="-50"
    unicode-range="U+0020-FB02"
  />
<missing-glyph horiz-adv-x="618" 
d="M422 0h-538l153 720h538zM416 487q16 76 -23.5 111t-114.5 35q-37 0 -71 -7.5t-50 -14.5l-16 -7q-14 -45 16 -72q35 19 88 19q38 0 56.5 -14.5t10.5 -53.5q-6 -29 -22 -49t-35.5 -32.5t-39.5 -28t-38 -46.5t-28 -77q13 -10 38 -10q12 0 22 2.5t14 5.5l4 2q7 31 25.5 52.5
t42 35.5t47.5 30.5t44.5 46t29.5 72.5zM224 179q-17 7 -50 7q-16 0 -28.5 -2t-17.5 -4l-5 -1l-20 -92q14 -6 49 -6q15 0 28 1.5t18 3.5l6 1z" />
    <glyph glyph-name="fi" unicode="fi" horiz-adv-x="590" 
d="M161 586q16 78 74.5 121t154.5 43q60 0 113 -8.5t76 -17.5l23 -8q-13 -50 -51 -87q-66 22 -174 22q-76 0 -89 -60l-14 -65h232q18 0 33.5 -2t21.5 -4l6 -2l-108 -510q-24 -8 -65 -8q-20 0 -35 2t-21 4l-5 2l90 425h-169l-90 -425q-24 -8 -65 -8q-20 0 -35 2t-20 4l-6 2
l90 425h-64q-2 20 4 48q3 12 7 23.5t7 16.5l2 5h64z" />
    <glyph glyph-name="fl" unicode="fl" horiz-adv-x="591" 
d="M161 586q16 78 74.5 121t154.5 43q53 0 108 -8.5t83 -17.5l28 -8l-150 -708q-24 -8 -65 -8q-20 0 -35 2t-21 4l-5 2l135 638q-43 5 -91 5q-76 0 -89 -60l-14 -65h82q1 -19 -4 -46q-3 -18 -16 -47h-82l-90 -425q-24 -8 -65 -8q-20 0 -35 2t-20 4l-6 2l90 425h-64
q0 22 5 47q5 26 15 46h64z" />
    <glyph glyph-name=".notdef" horiz-adv-x="618" 
d="M422 0h-538l153 720h538zM416 487q16 76 -23.5 111t-114.5 35q-37 0 -71 -7.5t-50 -14.5l-16 -7q-14 -45 16 -72q35 19 88 19q38 0 56.5 -14.5t10.5 -53.5q-6 -29 -22 -49t-35.5 -32.5t-39.5 -28t-38 -46.5t-28 -77q13 -10 38 -10q12 0 22 2.5t14 5.5l4 2q7 31 25.5 52.5
t42 35.5t47.5 30.5t44.5 46t29.5 72.5zM224 179q-17 7 -50 7q-16 0 -28.5 -2t-17.5 -4l-5 -1l-20 -92q14 -6 49 -6q15 0 28 1.5t18 3.5l6 1z" />
    <glyph glyph-name=".null" horiz-adv-x="0" 
 />
    <glyph glyph-name="nonmarkingreturn" horiz-adv-x="333" 
 />
    <glyph glyph-name="space" unicode=" " horiz-adv-x="221" 
 />
    <glyph glyph-name="exclam" unicode="!" horiz-adv-x="287" 
d="M76 207l86 505q26 8 70 8q18 0 34.5 -2t23.5 -4l8 -2l-128 -505q-19 -9 -48 -9q-13 0 -24.5 2t-16.5 4zM168 123l-24 -115q-24 -8 -65 -8q-20 0 -35 2t-20 4l-6 2l24 115q21 8 65 8q18 0 33.5 -2t21.5 -4z" />
    <glyph glyph-name="quotedbl" unicode="&#x22;" horiz-adv-x="384" 
d="M110 507l22 205q20 8 64 8q18 0 33 -2t21 -4l6 -2l-64 -205q-16 -7 -43 -7q-12 0 -22 2t-13 4zM274 507l22 205q20 8 64 8q18 0 33 -2t21 -4l6 -2l-64 -205q-16 -7 -43 -7q-12 0 -21.5 2t-13.5 4z" />
    <glyph glyph-name="numbersign" unicode="#" horiz-adv-x="666" 
d="M547 614q29 9 57 9q30 0 51 -9l-56 -113h67q3 -23 -1 -46q-7 -30 -20 -54h-95l-93 -189h65q4 -20 -3 -50q-3 -13 -7.5 -25.5t-7.5 -18.5l-3 -6h-93l-51 -103q-25 -9 -55 -9q-29 0 -53 9l51 103h-122l-51 -103q-27 -9 -58 -9q-27 0 -50 9l51 103h-72q-3 18 3 49
q3 15 7.5 28t7.5 18l3 5h100l93 189h-70q-2 27 4 51q7 31 17 49h98l56 113q27 9 55 9q30 0 53 -9l-56 -113h122zM320 401l-93 -189h122l93 189h-122z" />
    <glyph glyph-name="dollar" unicode="$" horiz-adv-x="562" 
d="M333 781q22 8 53 8q15 0 27.5 -2t17.5 -4l5 -2l-33 -114q40 -2 78.5 -8.5t56.5 -12.5l19 -5q-3 -22 -18 -50q-7 -12 -16 -22.5t-15 -14.5l-5 -5q-58 21 -138 21q-137 0 -154 -79q-5 -26 10.5 -43.5t44.5 -28.5t64.5 -21t70 -24.5t61.5 -35t39 -57.5t1 -86
q-35 -172 -241 -191l-17 -125q-18 -8 -52 -8q-14 0 -27 2t-19 4l-5 2l35 123q-51 2 -96.5 12t-65.5 19l-20 9q0 17 14 48q6 13 14.5 24.5t13.5 16.5l5 5q90 -29 183 -29q66 0 102 18t45 62q6 30 -9 50t-43 31.5t-63.5 21t-70 22.5t-61 31.5t-38.5 52.5t-2 82q35 167 233 187
z" />
    <glyph glyph-name="percent" unicode="%" horiz-adv-x="766" 
d="M709 695l-534 -698q-16 -7 -48 -7q-14 0 -25.5 1.5t-15.5 3.5l-5 2l534 698q16 7 48 7q14 0 25.5 -2t15.5 -4zM182 345q-69 0 -96 41t-7 132q37 173 177 173q141 0 104 -173t-178 -173zM241 622q-27 0 -43.5 -21.5t-29.5 -82.5q-12 -66 -5 -84.5t34 -18.5q26 0 42.5 20.5
t29.5 82.5q12 64 5 84t-33 20zM525 -10q-69 0 -96 41t-7 132q37 173 176 173q141 0 105 -173q-37 -173 -178 -173zM584 267q-27 0 -43.5 -21.5t-29.5 -82.5q-12 -66 -5 -84.5t34 -18.5q26 0 42.5 20.5t29.5 82.5q12 65 5 84.5t-33 19.5z" />
    <glyph glyph-name="ampersand" unicode="&#x26;" horiz-adv-x="640" 
d="M398 690q73 0 108.5 -33.5t22.5 -92.5q-14 -67 -65 -114.5t-134 -94.5q34 -75 97 -143q21 26 57 85q29 4 52.5 -6t33.5 -30q-32 -51 -83 -103q47 -36 95 -59q-4 -29 -26 -57.5t-50 -42.5q-63 28 -118 72q-101 -81 -221 -81q-82 0 -130 44t-30 129q8 39 30.5 75t53.5 62
t56 42.5t51 29.5q-20 87 -4 158q15 73 67 116.5t137 43.5zM374 609q-54 0 -70 -73q-11 -50 3 -109q92 56 107 129q5 25 -5 39t-35 14zM209 91q63 0 121 35q-71 78 -108 173q-80 -54 -94 -118q-8 -40 13.5 -65t67.5 -25z" />
    <glyph glyph-name="quotesingle" unicode="'" horiz-adv-x="220" 
d="M110 507l22 205q20 8 64 8q18 0 33 -2t21 -4l6 -2l-64 -205q-16 -7 -43 -7q-12 0 -22 2t-13 4z" />
    <glyph glyph-name="parenleft" unicode="(" horiz-adv-x="304" 
d="M332 797q12 -7 20.5 -16t11.5 -15l2 -5q-6 -7 -15.5 -20.5t-36 -57.5t-50 -92t-50 -122t-42.5 -149q-25 -135 -23.5 -233t15.5 -153l14 -55q-15 -22 -47 -36q-14 -6 -28.5 -9.5t-21.5 -3.5l-7 -1l-8.5 25.5t-16.5 69t-16.5 107t-2.5 134t19 155.5t46 154.5t61.5 136
t60 104.5t47.5 71l18 25q25 1 50 -14z" />
    <glyph glyph-name="parenright" unicode=")" horiz-adv-x="304" 
d="M138 320q25 135 23.5 233t-15.5 153l-14 55q15 20 48 36q15 7 29 10.5t21 3.5h6l8.5 -25.5t16.5 -69t16.5 -107t2.5 -134t-19 -155.5t-46 -154.5t-61.5 -136t-60 -104.5t-47.5 -71l-18 -25q-25 0 -51 14q-12 6 -20 15t-11 15l-2 6q6 7 15.5 20.5t36 57.5t50 92t50 122
t42.5 149z" />
    <glyph glyph-name="asterisk" unicode="*" horiz-adv-x="336" 
d="M203 634l16 77q34 10 65 -1l-16 -76l78 24q14 -21 6 -61l-77 -24l33 -62q-31 -27 -62 -37l-31 61l-57 -61q-32 11 -46 37l57 61l-66 25q8 37 33 61z" />
    <glyph glyph-name="plus" unicode="+" horiz-adv-x="465" 
d="M173 244h-139q-3 18 3 46q3 12 7 23.5t6 16.5l3 6h139l30 139q19 7 47 7q12 0 23.5 -2t16.5 -4l5 -1l-30 -139h139q4 -18 -2 -46q-3 -12 -7 -23.5t-7 -16.5l-3 -6h-139l-30 -139q-19 -7 -47 -7q-12 0 -23.5 2t-16.5 4l-5 1z" />
    <glyph glyph-name="comma" unicode="," horiz-adv-x="245" 
d="M11 -137l-38 30q42 38 61 107q-12 1 -21 3t-13 3l-3 2l24 115q24 8 65 8q18 0 33.5 -2t21.5 -4l6 -2l-16 -75q-12 -55 -42 -101t-54 -65z" />
    <glyph glyph-name="hyphen" unicode="-" horiz-adv-x="362" 
d="M278 244h-220q-3 18 3 46q3 12 7 23.5t6 16.5l3 6h220q4 -18 -2 -46q-3 -12 -7 -23.5t-7 -16.5z" />
    <glyph glyph-name="period" unicode="." horiz-adv-x="243" 
d="M147 123l-24 -115q-24 -8 -65 -8q-20 0 -35 2t-21 4l-5 2l24 115q21 8 65 8q18 0 33.5 -2t21.5 -4z" />
    <glyph glyph-name="slash" unicode="/" horiz-adv-x="498" 
d="M-52 -38l498 779q24 9 63 9q18 0 33.5 -2t21.5 -4l6 -3l-498 -779q-24 -9 -63 -9q-18 0 -33.5 2.5t-21.5 4.5z" />
    <glyph glyph-name="zero" unicode="0" horiz-adv-x="614" 
d="M240 -10q-123 0 -168 92.5t-6 276.5q38 178 117.5 254.5t205.5 76.5q252 0 174 -368q-38 -180 -117 -256t-206 -76zM366 584q-41 0 -69 -18t-55 -73t-48 -153q-23 -98 -17.5 -152.5t25.5 -73t60 -18.5q62 0 101.5 50.5t69.5 193.5q24 99 19 153t-25 72.5t-61 18.5z" />
    <glyph glyph-name="one" unicode="1" horiz-adv-x="423" 
d="M75 547q123 31 212 124q20 9 63 9q19 0 34.5 -2t21.5 -4l6 -3l-141 -662q-22 -9 -65 -9q-18 0 -33.5 2t-22.5 4l-7 3l81 383q15 68 32 125q-75 -52 -173 -74q-32 40 -8 104z" />
    <glyph glyph-name="two" unicode="2" horiz-adv-x="532" 
d="M161 564q-35 34 -17 90q89 36 195 36q99 0 151 -51.5t31 -149.5q-9 -44 -24.5 -74.5t-49 -58t-56.5 -41.5t-82 -45q-17 -9 -26 -14q-6 -3 -37 -19.5t-42 -23.5t-32 -22t-30.5 -30t-13.5 -33q-1 -5 -1 -15h297q7 -19 0 -56q-6 -32 -24 -57h-415q2 32 8 67q5 29 12.5 54
t20 47t21 37.5t28 33t28 26t34 24.5t32.5 20t37 20.5t36 19.5q80 44 112 74t42 75q9 44 -17.5 66t-81.5 22q-30 0 -64 -5.5t-53 -10.5z" />
    <glyph glyph-name="three" unicode="3" horiz-adv-x="530" 
d="M454 187q-21 -97 -92.5 -147t-206.5 -50q-51 0 -94 9t-61 18l-17 9q10 59 51 93q60 -21 135 -21q69 0 107.5 23t50.5 81q11 53 -12 77.5t-86 24.5h-85q-11 52 21 100h85q98 0 117 88q10 49 -14 71t-82 22q-32 0 -63.5 -5.5t-47.5 -10.5l-15 -5q-39 32 -20 90
q72 36 181 36t160 -46.5t32 -136.5q-23 -110 -112 -149q96 -41 68 -171z" />
    <glyph glyph-name="four" unicode="4" horiz-adv-x="581" 
d="M27 265l386 406q23 9 65 9q19 0 34 -2t20 -4l6 -3l-87 -406h82q5 -18 -1 -50q-3 -14 -8 -26.5t-8 -18.5l-4 -5h-82l-33 -156q-24 -9 -60 -9q-17 0 -32 2t-21 4l-7 3l33 156h-304q-6 18 1 50q3 14 8 26.5t9 18.5zM383 509l-232 -244h180z" />
    <glyph glyph-name="five" unicode="5" horiz-adv-x="527" 
d="M264 570l-34 -160q11 1 37 1q115 0 163.5 -50.5t25.5 -158.5q-45 -212 -307 -212q-55 0 -96.5 9t-55.5 18l-14 9q10 59 51 93q48 -21 126 -21q144 0 166 104q14 64 -16 85t-113 21q-62 0 -113 -4l79 376h365q10 -58 -23 -110h-241z" />
    <glyph glyph-name="six" unicode="6" horiz-adv-x="553" 
d="M520 680q12 -49 -21 -101q-106 -12 -173 -53t-107 -123q56 13 106 13q91 0 139 -59.5t24 -169.5q-22 -107 -87 -152t-177 -45q-111 0 -161 66t-21 201q84 399 478 423zM360 203q13 58 -8.5 86.5t-68.5 28.5q-48 0 -102 -16q-7 -26 -11 -49q-36 -167 65 -167q99 0 125 117
z" />
    <glyph glyph-name="seven" unicode="7" horiz-adv-x="496" 
d="M118 680h419q4 -29 -7 -70q-16 -62 -54.5 -119t-83.5 -104.5t-90.5 -99t-85 -124t-57.5 -157.5q-28 -6 -61 -6q-34 0 -60 6q20 92 56.5 168t78.5 127t83 93t80 87t58 87h-299q-5 22 3 57q3 16 8 29.5t8 19.5z" />
    <glyph glyph-name="eight" unicode="8" horiz-adv-x="577" 
d="M217 -10q-108 0 -159.5 51.5t-32.5 141.5q21 98 151 162q-85 60 -60 177q17 81 83 124.5t170 43.5q97 0 143 -50.5t28 -131.5q-8 -37 -28 -66t-39 -44t-51 -35q104 -66 77 -193q-39 -180 -282 -180zM349 597q-46 0 -75 -20t-37 -56q-5 -22 1.5 -39.5t27.5 -33t36.5 -24
t49.5 -24.5q66 50 79 113q17 84 -82 84zM242 88q51 0 86.5 23.5t45.5 65.5q6 29 -12 53.5t-36 35t-65 32.5l-18 9q-85 -53 -101 -129q-9 -43 17 -66.5t83 -23.5z" />
    <glyph glyph-name="nine" unicode="9" 
d="M43 0q-7 53 21 101q106 11 173 52t108 124q-50 -13 -107 -13q-87 0 -134.5 58t-24.5 167q23 107 91 154t179 47q110 0 156 -65.5t17 -201.5q-86 -399 -479 -423zM203 477q-24 -115 78 -115q46 0 100 15q1 5 6 22.5t7 27.5q36 167 -66 167q-99 0 -125 -117z" />
    <glyph glyph-name="colon" unicode=":" horiz-adv-x="254" 
d="M235 518l-24 -115q-24 -8 -65 -8q-20 0 -35 2t-21 4l-5 2l24 115q21 8 65 8q18 0 33.5 -2t21.5 -4zM151 123l-24 -115q-24 -8 -65 -8q-20 0 -35 2t-21 4l-5 2l24 115q21 8 65 8q18 0 33.5 -2t21.5 -4z" />
    <glyph glyph-name="semicolon" unicode=";" horiz-adv-x="254" 
d="M235 518l-24 -115q-24 -8 -65 -8q-20 0 -35 2t-21 4l-5 2l24 115q21 8 65 8q18 0 33.5 -2t21.5 -4zM15 -137l-38 30q42 38 61 107q-12 1 -21 3t-13 3l-3 2l24 115q21 8 65 8q18 0 33.5 -2t21.5 -4l6 -2l-16 -75q-12 -55 -42 -101t-54 -65z" />
    <glyph glyph-name="less" unicode="&#x3c;" horiz-adv-x="437" 
d="M323 100l-289 143q-3 21 3 48q3 12 7 23.5t6 16.5l3 5l351 143q4 -15 -3 -46q-3 -13 -7 -25t-7 -17l-3 -5l-237 -98l196 -95q4 -15 -3 -46q-3 -13 -7 -25t-7 -17z" />
    <glyph glyph-name="equal" unicode="=" horiz-adv-x="522" 
d="M452 336h-370q-3 51 20 93h370q6 -45 -20 -93zM413 150h-370q-3 51 20 93h370q6 -43 -20 -93z" />
    <glyph glyph-name="greater" unicode="&#x3e;" horiz-adv-x="437" 
d="M377 243l-351 -143q-3 17 3 47q3 14 7.5 25.5t7.5 15.5l2 5l236 95l-195 98q-3 17 3 47q3 14 7.5 25.5t6.5 15.5l3 5l289 -143q4 -17 -2 -45q-3 -12 -7 -24t-7 -18z" />
    <glyph glyph-name="question" unicode="?" horiz-adv-x="437" 
d="M445 508q-11 -54 -37 -91t-56 -57t-59 -38t-53 -45t-32 -66q-17 -12 -50 -12q-14 0 -25.5 3t-16.5 6l-5 3q12 58 35 96.5t47.5 58t48.5 35.5t44 40.5t28 61.5q10 48 -13 66t-70 18q-30 0 -57.5 -5.5t-39.5 -11.5l-13 -6q-39 32 -20 90q67 36 171 36q94 0 143.5 -43.5
t29.5 -138.5zM204 123l-24 -115q-24 -8 -65 -8q-20 0 -35 2t-20 4l-6 2l24 115q21 8 65 8q18 0 33.5 -2t21.5 -4z" />
    <glyph glyph-name="at" unicode="@" horiz-adv-x="913" 
d="M860 303q-22 -106 -83 -162t-147 -56q-103 0 -122 56q-48 -56 -140 -56q-156 0 -114 193q41 194 196 194q77 0 106 -35l6 30q19 10 56 10q16 0 28.5 -2.5t17.5 -4.5l4 -3l-52 -247q-12 -52 35 -52q80 0 109 135t-30 216t-195 81q-145 0 -246 -85.5t-133 -235.5
q-33 -157 39.5 -234t204.5 -77q133 0 271 72q30 -18 24 -62q-161 -94 -328 -94q-79 0 -145.5 24t-115 72.5t-65.5 123t2 175.5q40 186 181.5 293.5t327.5 107.5q180 0 262.5 -102t45.5 -275zM369 278q-14 -67 0 -91.5t55 -24.5q32 0 56 19t32 49l21 98q4 30 -11.5 48.5
t-47.5 18.5q-41 0 -65.5 -24t-39.5 -93z" />
    <glyph glyph-name="A" unicode="A" horiz-adv-x="664" 
d="M340 711q35 9 80 9q22 0 41 -2t27 -4l8 -3l90 -702q-25 -9 -72 -9q-19 0 -31.5 2t-15.5 4l-3 3l-20 160h-273l-88 -160q-34 -9 -74 -9q-17 0 -31 2t-20 4l-6 3zM396 590h-4q-20 -55 -53 -115l-111 -203h203l-27 203q-4 28 -6 56.5t-2 43.5v15z" />
    <glyph glyph-name="B" unicode="B" horiz-adv-x="631" 
d="M171 720h282q88 0 129.5 -61t21.5 -154q-20 -91 -107 -134q40 -21 58 -70.5t5 -106.5q-19 -93 -85 -143.5t-164 -50.5h-293zM234 413h125q47 0 77 28.5t40 75.5q10 49 -8 77t-65 28h-125zM167 98h131q109 0 131 110q24 111 -84 111h-131z" />
    <glyph glyph-name="C" unicode="C" horiz-adv-x="561" 
d="M67 380q39 179 132.5 264.5t243.5 85.5q49 0 90.5 -9t58.5 -17l17 -9q-13 -55 -59 -95q-52 21 -116 21q-88 0 -148 -58.5t-91 -203.5q-14 -78 -13.5 -128t21.5 -79t49.5 -40t70.5 -11q32 0 66 5.5t52 11.5l18 5q31 -35 17 -98q-74 -35 -190 -35q-146 0 -202 103t-17 287z
" />
    <glyph glyph-name="D" unicode="D" horiz-adv-x="664" 
d="M171 720h235q141 0 198 -92.5t16 -281.5q-40 -187 -127.5 -266.5t-230.5 -79.5h-244zM168 106h98q82 0 136.5 53.5t85.5 200.5q13 62 14.5 107.5t-6.5 73.5t-27 44.5t-41.5 22.5t-53.5 6h-98z" />
    <glyph glyph-name="E" unicode="E" horiz-adv-x="554" 
d="M171 720h413q4 -22 0 -48q-7 -31 -22 -55h-285l-43 -202h235q5 -24 0 -50q-6 -29 -22 -53h-235l-44 -209h295q4 -30 -1 -50q-7 -31 -21 -53h-423z" />
    <glyph glyph-name="F" unicode="F" horiz-adv-x="532" 
d="M209 298l-61 -289q-24 -9 -67 -9q-19 0 -34 2t-21 4l-6 3l151 711h403q5 -25 -1 -51q-7 -30 -21 -52h-275l-46 -216h245q6 -21 0 -49q-7 -32 -22 -54h-245z" />
    <glyph glyph-name="G" unicode="G" horiz-adv-x="632" 
d="M67 378q76 352 393 352q54 0 99.5 -9t64.5 -17l19 -9q-13 -59 -58 -94q-60 21 -134 21q-96 0 -160.5 -58.5t-95.5 -204.5q-14 -78 -12.5 -128t25 -79t55 -40.5t77.5 -11.5l70 4l43 203h-129q-6 19 1 51q3 15 8.5 28t8.5 18l4 6h246l-82 -385q-81 -35 -207 -35
q-154 0 -214.5 102.5t-21.5 285.5z" />
    <glyph glyph-name="H" unicode="H" horiz-adv-x="684" 
d="M499 424l61 287q24 9 66 9q19 0 34.5 -2t21.5 -4l6 -3l-149 -702q-23 -9 -65 -9q-21 0 -36.5 2t-21.5 4l-5 3l65 305h-264l-65 -305q-25 -9 -66 -9q-20 0 -35.5 2t-21.5 4l-5 3l149 702q23 9 65 9q19 0 35 -2t22 -4l6 -3l-61 -287h264z" />
    <glyph glyph-name="I" unicode="I" horiz-adv-x="292" 
d="M19 9l149 702q23 9 65 9q19 0 35 -2t22 -4l6 -3l-149 -702q-25 -9 -66 -9q-20 0 -35.5 2t-21.5 4z" />
    <glyph glyph-name="J" unicode="J" horiz-adv-x="453" 
d="M226 201l108 510q20 9 66 9q19 0 34.5 -2t21.5 -4l6 -3l-107 -506q-22 -105 -92 -160t-163 -55q-36 0 -72.5 7.5t-54.5 14.5l-18 8q11 59 55 96q37 -15 83 -15q111 0 133 100z" />
    <glyph glyph-name="K" unicode="K" horiz-adv-x="617" 
d="M279 425l252 286q34 9 73 9q32 0 66 -9l-292 -334l174 -368q-22 -9 -72 -9q-20 0 -37 2t-24 4l-7 3l-146 314h-52l-67 -314q-20 -9 -66 -9q-18 0 -33.5 2t-21.5 4l-7 3l149 702q24 9 67 9q19 0 34 -2t21 -4l6 -3l-61 -286h44z" />
    <glyph glyph-name="L" unicode="L" horiz-adv-x="522" 
d="M18 0l151 711q23 9 65 9q19 0 35 -2t22 -4l6 -3l-128 -601h287q6 -23 -1 -55q-5 -25 -22 -55h-415z" />
    <glyph glyph-name="M" unicode="M" horiz-adv-x="834" 
d="M664 711q42 9 93 9q22 0 42 -2t29 -4l10 -3l-149 -702q-24 -9 -65 -9q-18 0 -34 2t-22 4l-7 3l46 219q6 26 18 84t19.5 93.5t19 80t21.5 73.5h-6q-11 -22 -32 -56t-38.5 -60t-49 -72t-44.5 -65l-101 -147q-16 -5 -38 -5q-10 0 -17.5 1t-10.5 3l-3 1q-5 20 -19 68t-21 74
q-56 195 -58 258h-6q0 -20 -3 -46.5t-9.5 -62.5t-12 -61.5t-15 -71.5t-13.5 -64l-52 -244q-23 -9 -62 -9q-16 0 -29.5 2t-19.5 4l-6 3l149 702q33 9 79 9q17 0 33 -2t24 -4l8 -3l97 -379h5z" />
    <glyph glyph-name="N" unicode="N" horiz-adv-x="704" 
d="M406 9l-120 402q-9 32 -18 68.5t-14 57.5l-4 21h-4q-9 -79 -31 -183l-78 -366q-21 -9 -62 -9q-18 0 -32 2t-19 4l-5 3l149 702q29 9 79 9q23 0 41.5 -2t25.5 -4l7 -3l118 -400q10 -32 19.5 -69.5t13.5 -59.5l5 -21h4q10 84 32 186l77 364q20 9 62 9q19 0 33 -2t19 -4
l4 -3l-149 -702q-26 -9 -77 -9q-22 0 -41 2t-27 4z" />
    <glyph glyph-name="O" unicode="O" horiz-adv-x="678" 
d="M67 378q40 185 129.5 268.5t227.5 83.5q136 0 193.5 -97.5t16.5 -286.5q-40 -188 -128.5 -272t-227.5 -84q-137 0 -194 99t-17 289zM504 360q17 78 18 130.5t-14 81.5t-39.5 40.5t-61.5 11.5q-76 0 -127.5 -57.5t-83.5 -206.5q-24 -104 -14.5 -162.5t36.5 -80t76 -21.5
q77 0 128 57.5t82 206.5z" />
    <glyph glyph-name="P" unicode="P" horiz-adv-x="606" 
d="M203 270l-55 -261q-23 -9 -65 -9q-21 0 -36.5 2t-20.5 4l-6 3l151 711h268q99 0 144.5 -69.5t23.5 -172.5q-21 -99 -91 -153.5t-173 -54.5h-140zM226 376h122q52 0 86 31t46 88t-9 88t-73 31h-122z" />
    <glyph glyph-name="Q" unicode="Q" horiz-adv-x="678" 
d="M424 730q136 0 193.5 -97.5t16.5 -286.5q-44 -208 -151 -292q45 -42 121 -56q-11 -33 -37 -64t-56 -44q-82 31 -126 114q-46 -14 -107 -14q-137 0 -194 99t-17 289q40 185 129.5 268.5t227.5 83.5zM196 360q-24 -104 -14.5 -162.5t36.5 -80t76 -21.5q77 0 128 57.5
t82 206.5q17 78 18 130.5t-14 81.5t-39.5 40.5t-61.5 11.5q-76 0 -127.5 -57.5t-83.5 -206.5z" />
    <glyph glyph-name="R" unicode="R" horiz-adv-x="632" 
d="M171 720h263q100 0 147 -65.5t26 -164.5q-31 -146 -178 -189l113 -292q-23 -9 -73 -9q-20 0 -36.5 2t-22.5 4l-6 3l-102 279h-95l-59 -279q-23 -9 -65 -9q-21 0 -36.5 2t-20.5 4l-6 3zM347 394q106 0 130 110q11 53 -10.5 81.5t-73.5 28.5h-117l-46 -220h117z" />
    <glyph glyph-name="S" unicode="S" horiz-adv-x="571" 
d="M101 539q19 91 92.5 141t198.5 50q55 0 104 -7.5t70 -14.5l21 -8q-15 -64 -56 -100q-60 22 -144 22q-144 0 -163 -94q-3 -17 1.5 -31t12.5 -23t26 -19t31 -14.5t39 -14t39 -14.5q163 -65 130 -231q-20 -102 -92.5 -146.5t-204.5 -44.5q-61 0 -114.5 11t-76.5 22l-23 11
q9 52 52 102q89 -31 181 -31q132 0 153 97q8 38 -13.5 60.5t-67.5 40.5q-8 3 -29 11l-31.5 12t-30 13t-30 15.5t-26 18t-23.5 22.5t-17 26.5t-11.5 32.5t-2.5 39t5 46z" />
    <glyph glyph-name="T" unicode="T" 
d="M119 720h487q5 -24 -1 -54q-3 -14 -8.5 -28t-9.5 -21l-4 -7h-177l-128 -601q-25 -9 -66 -9q-20 0 -35.5 2t-20.5 4l-6 3l128 601h-182q-6 21 1 54q3 14 8.5 28t9.5 21z" />
    <glyph glyph-name="U" unicode="U" horiz-adv-x="677" 
d="M685 711l-101 -478q-51 -243 -300 -243q-121 0 -182.5 70.5t-35.5 191.5l98 459q23 9 65 9q19 0 35 -2t22 -4l6 -3l-102 -473q-14 -64 14 -102t92 -38t105.5 35t55.5 99l102 479q22 9 64 9q19 0 34.5 -2t21.5 -4z" />
    <glyph glyph-name="V" unicode="V" horiz-adv-x="652" 
d="M227 710l51 -429q4 -35 5.5 -71t0.5 -54v-19h4q25 64 69 145l234 428q27 10 68 10q18 0 34 -2.5t23 -5.5l7 -2l-383 -702q-35 -8 -79 -8q-20 0 -38.5 2t-27.5 4l-9 2l-85 700q27 12 74 12q19 0 32 -2.5t17 -5.5z" />
    <glyph glyph-name="W" unicode="W" horiz-adv-x="972" 
d="M544 9l-4 411q0 47 3 90t6 62l3 19h-5q-17 -65 -63 -171l-177 -411q-38 -9 -87 -9q-42 0 -74 9l-38 702q24 9 67 9q20 0 34 -2t18 -4l4 -3l21 -428v-148h4q26 77 57 147l189 429q30 9 77 9q22 0 37 -2t20 -4l4 -3l6 -428q0 -33 -1.5 -70t-3.5 -57l-2 -21h4q24 68 62 147
l204 429q31 9 65 9q16 0 32 -2t24 -4l7 -3l-339 -702q-32 -9 -77 -9q-20 0 -39 2t-28 4z" />
    <glyph glyph-name="X" unicode="X" horiz-adv-x="640" 
d="M557 711q32 9 74 9q39 0 66 -9l-281 -331l154 -368q-29 -12 -77 -12q-19 0 -34.5 2.5t-21.5 5.5l-6 2l-114 269l-228 -271q-30 -8 -71 -8q-49 0 -74 8l316 374l-136 329q28 9 76 9q19 0 35 -2t23 -4l6 -3l98 -230z" />
    <glyph glyph-name="Y" unicode="Y" horiz-adv-x="636" 
d="M568 711q34 9 77 9q18 0 35.5 -2t25.5 -4l8 -3l-334 -411l-62 -291q-23 -9 -64 -9q-20 0 -36 2t-22 4l-6 3l61 288l-152 414q29 9 80 9q20 0 35.5 -2t20.5 -4l5 -3l103 -283z" />
    <glyph glyph-name="Z" unicode="Z" horiz-adv-x="598" 
d="M159 720h469q5 -20 -2 -53q-9 -36 -22 -59l-461 -495h369q2 -27 -4 -54q-9 -36 -20 -59h-510q-3 29 3 58q6 30 21 55l455 495h-322q-1 23 6 60q6 30 18 52z" />
    <glyph glyph-name="bracketleft" unicode="[" horiz-adv-x="337" 
d="M193 810h213q4 -16 -3 -47q-3 -14 -7 -25.5t-7 -15.5l-3 -5h-97l-168 -794h97q3 -16 -3 -47q-3 -14 -7.5 -25.5t-7.5 -16.5l-2 -4h-213z" />
    <glyph glyph-name="backslash" unicode="\" horiz-adv-x="500" 
d="M240 741l168 -779q-25 -9 -67 -9q-18 0 -33 2.5t-22 4.5l-6 2l-168 779q25 9 67 9q18 0 33 -2t22 -4z" />
    <glyph glyph-name="bracketright" unicode="]" horiz-adv-x="337" 
d="M151 -170h-213q-4 15 3 46q3 14 7 25.5t7 16.5l3 5h97l168 794h-97q-3 15 3 46q3 14 7.5 25.5t7.5 16.5l2 5h213z" />
    <glyph glyph-name="asciicircum" unicode="^" horiz-adv-x="521" 
d="M399 713l119 -254q-20 -7 -48 -7q-13 0 -25.5 2t-18.5 4l-7 1l-85 181l-161 -181q-26 -7 -55 -7q-12 0 -23 2t-16 4l-5 1l227 254q19 7 50 7q14 0 26 -2t17 -4z" />
    <glyph glyph-name="underscore" unicode="_" horiz-adv-x="554" 
d="M412 -102h-440q-4 13 2 41q3 12 7 22.5t7 14.5l2 4h440q4 -13 -2 -41q-3 -12 -7 -22.5t-7 -14.5z" />
    <glyph glyph-name="grave" unicode="`" horiz-adv-x="238" 
d="M129 635l-97 130q18 21 53.5 35t64.5 10l57 -137q-27 -29 -78 -38z" />
    <glyph glyph-name="a" unicode="a" horiz-adv-x="555" 
d="M418 520q15 7 57 7q19 0 34 -2t21 -4l5 -2l-108 -511q-24 -8 -55 -8q-14 0 -27.5 1.5t-20.5 3.5l-6 2l-1 44q-56 -61 -143 -61q-89 0 -127 72.5t-7 219.5q30 143 92.5 198.5t155.5 55.5q80 0 115 -59zM367 321q10 47 -8 80t-58 33q-52 0 -83.5 -35t-52.5 -134
q-17 -69 -11 -107.5t23.5 -52t51.5 -13.5q41 0 71 30t41 78z" />
    <glyph glyph-name="b" unicode="b" horiz-adv-x="558" 
d="M285 742l-55 -258q54 52 144 52q88 0 123 -70t4 -217q-30 -144 -90 -201.5t-151 -57.5q-84 0 -122 61l-15 -45q-18 -6 -60 -6q-19 0 -34 2t-21 4l-5 2l156 734q21 8 63 8q19 0 34.5 -2t21.5 -4zM373 263q19 106 4 138.5t-66 32.5q-42 0 -73.5 -30t-41.5 -78l-24 -112
q-11 -52 6.5 -87t58.5 -35q51 0 83 35.5t53 135.5z" />
    <glyph glyph-name="c" unicode="c" horiz-adv-x="442" 
d="M313 434q-64 0 -99 -40t-54 -131q-19 -89 1 -128t84 -39q23 0 46 3.5t35 6.5l12 4q13 -14 18 -39.5t0 -50.5q-51 -30 -158 -30q-112 0 -150.5 76t-9.5 214q28 133 94.5 194.5t181.5 61.5q46 0 78.5 -6.5t42.5 -13.5l10 -6q-13 -59 -51 -89q-31 13 -81 13z" />
    <glyph glyph-name="d" unicode="d" horiz-adv-x="557" 
d="M457 742q23 8 65 8q19 0 34 -2t21 -4l6 -2l-156 -734q-24 -8 -55 -8q-14 0 -28 2t-21 4l-7 2l1 43q-56 -61 -150 -61q-88 0 -123 72t-4 219q30 144 88.5 199.5t149.5 55.5q40 0 73 -18.5t48 -47.5zM369 330q8 46 -10 75t-58 29q-51 0 -83 -35.5t-53 -135.5
q-17 -69 -10.5 -107t23.5 -51t51 -13q41 0 71.5 30t40.5 78z" />
    <glyph glyph-name="e" unicode="e" horiz-adv-x="509" 
d="M444 224h-289q-9 -75 15 -101.5t81 -26.5q30 0 59.5 6t44.5 12l15 6q30 -35 20 -91q-68 -39 -179 -39q-118 0 -159 80t-13 215q53 251 275 251q88 0 135 -52.5t26 -154.5q-6 -28 -14 -54.5t-13 -38.5zM365 344q17 94 -67 94q-46 0 -74.5 -29t-48.5 -98h181z" />
    <glyph glyph-name="f" unicode="f" horiz-adv-x="361" 
d="M161 586q34 164 209 164q33 0 61.5 -6t40.5 -12l12 -6q-13 -50 -51 -87q-28 12 -76 12q-30 0 -46 -14t-23 -46l-14 -65h110q0 -27 -4 -48q-7 -25 -16 -45h-110l-90 -425q-24 -8 -65 -8q-20 0 -35 2t-20 4l-6 2l90 425h-64q0 21 5 48q7 30 15 45h64z" />
    <glyph glyph-name="g" unicode="g" horiz-adv-x="561" 
d="M311 26l4 16q-55 -52 -137 -52q-199 0 -139 287q30 144 90.5 201.5t152.5 57.5q90 0 121 -62l16 44q18 8 60 8q19 0 34 -2t21 -4l5 -2l-106 -504q-30 -143 -101 -203.5t-194 -60.5q-50 0 -89 10t-53 20l-14 11q16 57 52 84q43 -21 107 -21q67 0 109 34.5t61 137.5z
M169 263q-17 -69 -10.5 -107t23.5 -51t51 -13q40 0 70 28.5t41 74.5l28 131q11 48 -7.5 78t-59.5 30q-51 0 -83 -35.5t-53 -135.5z" />
    <glyph glyph-name="h" unicode="h" 
d="M498 361l-75 -353q-24 -8 -65 -8q-20 0 -35 2t-21 4l-5 2l75 354q15 72 -65 72q-49 0 -96 -37l-82 -389q-24 -8 -65 -8q-20 0 -35 2t-21 4l-5 2l156 734q20 8 64 8q18 0 33.5 -2t21.5 -4l7 -2l-54 -254q61 48 137 48q77 0 112 -48t18 -127z" />
    <glyph glyph-name="i" unicode="i" horiz-adv-x="260" 
d="M283 729l-25 -115q-23 -8 -64 -8q-20 0 -35.5 2t-20.5 4l-6 2l25 115q21 8 65 8q18 0 33.5 -2t21.5 -4zM238 518l-108 -510q-24 -8 -65 -8q-20 0 -35 2t-20 4l-6 2l108 510q21 8 65 8q18 0 33.5 -2t21.5 -4z" />
    <glyph glyph-name="j" unicode="j" horiz-adv-x="262" 
d="M284 729l-25 -115q-23 -8 -64 -8q-20 0 -35.5 2t-21.5 4l-5 2l25 115q21 8 65 8q18 0 33.5 -2t21.5 -4zM-17 -92l130 610q21 8 65 8q18 0 33.5 -2t21.5 -4l6 -2l-129 -606q-35 -162 -185 -162q-19 0 -36 2t-25 4l-8 3q-2 13 2 29q4 20 11 36t11 22l5 7q15 -4 32 -4
q54 0 66 59z" />
    <glyph glyph-name="k" unicode="k" horiz-adv-x="505" 
d="M229 321l156 197q36 8 73 8q15 0 30 -2t22 -4l7 -2l-195 -247l115 -263q-35 -9 -76 -9q-17 0 -31.5 2.5t-20.5 4.5l-6 2l-88 220h-40l-46 -220q-27 -8 -64 -8q-17 0 -32.5 2t-22.5 4l-7 2l156 736q27 6 65 6l61 -6l-90 -423h34z" />
    <glyph glyph-name="l" unicode="l" horiz-adv-x="264" 
d="M288 742l-156 -734q-24 -8 -65 -8q-20 0 -35 2t-20 4l-6 2l156 734q20 8 64 8q18 0 33.5 -2t22.5 -4z" />
    <glyph glyph-name="m" unicode="m" horiz-adv-x="823" 
d="M487 477q72 59 160 59q73 0 107 -50t17 -128l-74 -350q-24 -8 -65 -8q-20 0 -35 2t-21 4l-5 2l75 354q15 72 -60 72q-49 0 -90 -36l-83 -390q-24 -8 -65 -8q-20 0 -35 2t-21 4l-5 2l75 354q15 72 -60 72q-49 0 -90 -36l-83 -390q-24 -8 -65 -8q-20 0 -35 2t-21 4l-5 2
l108 510q21 8 65 8q18 0 32 -2t19 -4l5 -2l-3 -36q64 54 133 54q95 0 125 -59z" />
    <glyph glyph-name="n" unicode="n" 
d="M498 359l-75 -351q-24 -8 -65 -8q-20 0 -35 2t-21 4l-5 2l75 354q15 72 -65 72q-44 0 -97 -44l-81 -382q-24 -8 -65 -8q-20 0 -35 2t-21 4l-5 2l108 510q18 8 62 8q18 0 32 -2t19 -4l5 -2l-1 -38q65 56 142 56t111 -46.5t17 -130.5z" />
    <glyph glyph-name="o" unicode="o" horiz-adv-x="544" 
d="M38 278q30 142 97 200t179 58q110 0 157.5 -73t16.5 -217q-30 -142 -96 -199t-178 -57q-110 0 -158 72t-18 216zM363 263q17 70 10 109t-24.5 53.5t-48.5 14.5q-50 0 -83.5 -38.5t-54.5 -138.5q-17 -70 -10 -109t24.5 -53.5t48.5 -14.5q49 0 83 38.5t55 138.5z" />
    <glyph glyph-name="p" unicode="p" horiz-adv-x="557" 
d="M228 478q60 58 138 58q89 0 126.5 -72.5t6.5 -219.5q-30 -143 -90.5 -198.5t-148.5 -55.5q-83 0 -124 52l-55 -258q-24 -8 -66 -8q-19 0 -34 2t-21 4l-5 2l156 734q22 8 64 8q19 0 33 -2t19 -4l5 -2zM373 263q38 171 -64 171q-41 0 -71.5 -30t-41.5 -78l-25 -114
q-11 -49 8 -84.5t60 -35.5q49 0 81 38.5t53 132.5z" />
    <glyph glyph-name="q" unicode="q" horiz-adv-x="555" 
d="M252 -216l55 258q-55 -52 -136 -52q-192 0 -131 289q30 145 88 201t149 56q88 0 122 -64l13 46q17 8 59 8q19 0 34.5 -2t22.5 -4l6 -2l-156 -734q-22 -8 -64 -8q-19 0 -34.5 2t-21.5 4zM164 263q-17 -69 -10.5 -107t23.5 -51t51 -13q40 0 70 28.5t41 74.5l28 131
q10 47 -9.5 77.5t-57.5 30.5q-51 0 -83 -35.5t-53 -135.5z" />
    <glyph glyph-name="r" unicode="r" horiz-adv-x="398" 
d="M225 461q69 74 127 74q47 0 82 -26q-20 -66 -77 -107q-21 22 -53 22q-49 0 -98 -52l-77 -364q-24 -8 -65 -8q-20 0 -35 2t-21 4l-5 2l108 510q21 8 65 8q18 0 33.5 -2t21.5 -4l6 -2z" />
    <glyph glyph-name="s" unicode="s" horiz-adv-x="443" 
d="M63 390q32 146 222 146q79 0 137 -30q-11 -58 -47 -88q-44 16 -99 16q-87 0 -98 -56q-2 -12 2.5 -21.5t17.5 -16.5t24 -11.5t33 -11.5t34 -12q47 -18 72.5 -59.5t11.5 -106.5q-16 -79 -70 -114t-153 -35q-48 0 -90.5 9.5t-60.5 18.5l-18 10q17 55 50 93q64 -24 132 -24
q78 0 89 56q7 29 -15.5 44.5t-71.5 30.5q-127 41 -102 162z" />
    <glyph glyph-name="t" unicode="t" horiz-adv-x="383" 
d="M252 433l-51 -238q-13 -62 0.5 -83t62.5 -21l46 3q4 -22 -2 -50q-2 -12 -6 -23.5t-7 -16.5l-3 -5q-33 -9 -76 -9q-95 0 -129 49.5t-13 149.5l52 244h-76q-3 18 3 46q3 14 7 25.5t7 16.5l3 5h76l18 86q58 31 131 25l-23 -111h118q3 -17 -3 -46q-3 -12 -7 -24t-7 -18l-3 -5
h-118z" />
    <glyph glyph-name="u" unicode="u" 
d="M33 170l74 348q24 8 65 8q20 0 35 -2t21 -4l5 -2l-75 -354q-15 -72 65 -72q61 0 97 49l81 377q24 8 65 8q20 0 35 -2t21 -4l5 -2l-108 -510q-21 -8 -65 -8q-17 0 -30 2t-18 4l-5 2l3 42q-54 -60 -142 -60q-83 0 -114.5 51t-14.5 129z" />
    <glyph glyph-name="v" unicode="v" horiz-adv-x="523" 
d="M181 518l30 -290q3 -25 4 -53t1 -43l-1 -16h4q23 54 55 113l154 289q31 8 67 8q17 0 31 -2t20 -4l5 -2l-274 -510q-35 -8 -80 -8q-21 0 -40 2t-27 4l-9 2l-62 510q26 8 67 8q20 0 33.5 -2t17.5 -4z" />
    <glyph glyph-name="w" unicode="w" horiz-adv-x="793" 
d="M419 8l-9 238q-2 73 9 153h-4q-23 -84 -58 -153l-111 -238q-33 -8 -76 -8q-46 0 -74 8l-35 510q25 8 65 8q12 0 21.5 -1t14 -2t7.5 -2t3 -2l1 -1l19 -290q3 -43 -1 -105h3q18 50 45 106l135 289q34 8 72 8q18 0 33 -2t21 -4l6 -2l10 -288q1 -47 -3 -107h3q6 15 48 106
l137 289q27 8 67 8q17 0 29.5 -2t16.5 -4l5 -2l-251 -510q-36 -8 -76 -8q-41 0 -73 8z" />
    <glyph glyph-name="x" unicode="x" horiz-adv-x="510" 
d="M174 269l-105 249q27 8 70 8q20 0 35 -2t20 -4l4 -2l66 -155l134 155q33 8 70 8q18 0 34 -2t22 -4l7 -2l-210 -241l116 -269q-27 -8 -70 -8q-20 0 -34.5 2t-18.5 4l-4 2l-76 175l-152 -175q-35 -8 -72 -8q-18 0 -34 2t-22 4l-7 2z" />
    <glyph glyph-name="y" unicode="y" 
d="M402 518q24 8 65 8q20 0 35 -2t20 -4l6 -2l-106 -497q-30 -144 -101.5 -207.5t-193.5 -63.5q-50 0 -89 10t-53 20l-14 11q15 54 52 82q43 -23 107 -23q65 0 105 34t61 137l3 12q-56 -43 -133 -43q-82 0 -116 49t-17 125l75 354q24 8 65 8q20 0 35 -2t20 -4l6 -2l-75 -354
q-15 -72 65 -72q50 0 95 37z" />
    <glyph glyph-name="z" unicode="z" horiz-adv-x="472" 
d="M133 103h246q4 -19 -3 -52q-3 -13 -8 -26t-8 -19l-3 -6h-379q-1 22 4 54q6 27 18 49l317 320h-236q-2 23 4 53q3 14 7.5 26.5t7.5 17.5l3 6h368q2 -16 -3 -48q-6 -29 -19 -55z" />
    <glyph glyph-name="braceleft" unicode="{" horiz-adv-x="357" 
d="M345 810h80q3 -22 -3 -46q-4 -21 -17 -47h-55q-42 0 -51 -42l-49 -234q-16 -72 -67 -106q37 -34 21 -107l-49 -234q-9 -42 33 -42h55q2 -18 -3 -48q-7 -27 -17 -45h-80q-65 0 -91.5 35.5t-13.5 97.5l54 254q9 42 -33 42h-25q-2 17 3 47q6 24 17 46h25q42 0 51 42l54 254
q13 62 54.5 97.5t106.5 35.5z" />
    <glyph glyph-name="bar" unicode="|" horiz-adv-x="296" 
d="M186 782q21 8 65 8q18 0 33.5 -2t21.5 -4l6 -2l-206 -971q-24 -8 -65 -8q-20 0 -35 2t-20 4l-6 2z" />
    <glyph glyph-name="braceright" unicode="}" horiz-adv-x="356" 
d="M145 810h80q65 0 91.5 -35.5t13.5 -97.5l-54 -254q-9 -42 33 -42h25q2 -26 -3 -46q-4 -25 -17 -47h-25q-42 0 -51 -42l-54 -254q-13 -62 -54.5 -97.5t-106.5 -35.5h-80q-3 21 3 45q4 24 17 48h55q42 0 51 42l49 234q15 73 66 107q-36 34 -20 106l49 234q9 42 -33 42h-55
q-2 22 3 47q7 29 17 46z" />
    <glyph glyph-name="asciitilde" unicode="~" horiz-adv-x="513" 
d="M166 254q-21 0 -40 -9t-28 -19l-8 -9q-43 15 -40 60q2 3 5.5 7.5t17 17t28 22t38.5 17t49 7.5q33 0 74 -25.5t72 -25.5q21 0 40 9.5t28 18.5l8 9q43 -15 40 -60q-2 -3 -5.5 -7.5t-17 -17t-28 -22t-38.5 -17t-49 -7.5q-33 0 -74 25.5t-72 25.5z" />
    <glyph glyph-name="exclamdown" unicode="&#xa1;" horiz-adv-x="274" 
d="M117 510q24 8 65 8q20 0 35 -2t21 -4l5 -2l-24 -115q-21 -8 -65 -8q-18 0 -33.5 2t-21.5 4l-6 2zM91 311q19 7 48 7q13 0 24.5 -2t16.5 -4l5 -1l-86 -505q-26 -8 -70 -8q-18 0 -34.5 2t-24.5 4l-7 2z" />
    <glyph glyph-name="cent" unicode="&#xa2;" horiz-adv-x="462" 
d="M290 627q24 10 53 10q15 0 27.5 -2.5t17.5 -4.5l5 -3l-29 -93q31 -3 54 -9t30 -11l8 -4q-11 -48 -52 -83q-32 13 -82 13q-63 0 -99 -43t-55 -134q-19 -90 1 -131.5t83 -41.5q23 0 46 3.5t35 6.5l12 4q26 -30 17 -83q-36 -22 -113 -29l-11 -93q-21 -10 -54 -10
q-13 0 -25 2.5t-18 4.5l-6 3l28 94q-176 23 -124 270q52 245 239 270z" />
    <glyph glyph-name="sterling" unicode="&#xa3;" horiz-adv-x="537" 
d="M413 293h-154q-7 -102 -105 -180h286q5 -22 -2 -56q-3 -16 -8.5 -30t-9.5 -21l-4 -6h-415l24 113q62 51 86 93.5t24 86.5h-82q-3 16 3 45q2 12 6 22.5t7 15.5l3 5h56q-8 66 4 120q21 97 90 143.5t169 46.5q90 0 169 -37q-6 -56 -55 -90q-56 22 -114 23q-111 0 -129 -89
q-10 -44 -4 -117h174q4 -16 -2 -42q-3 -12 -7 -23.5t-7 -17.5z" />
    <glyph glyph-name="currency" unicode="&#xa4;" horiz-adv-x="597" 
d="M426 23l-59 73q-57 -33 -120 -33q-61 0 -107 33l-88 -73q-19 1 -35 23q-7 9 -10.5 18.5t-2.5 14.5v5l90 74q-23 50 -10 113q11 58 58 113l-59 74q6 19 31 39q11 10 22 15.5t16 5.5l5 1l58 -74q57 34 121 34q61 0 106 -34l89 74q18 0 35 -22q7 -9 10 -18.5t3 -14.5v-6
l-89 -74q22 -50 10 -113q-13 -59 -59 -114l59 -73q-5 -20 -30 -40q-11 -10 -22 -15t-16 -5zM318 394q-51 0 -95 -36t-54 -87q-11 -52 17 -87.5t79 -35.5q52 0 95.5 35.5t54.5 87.5t-17 87.5t-80 35.5z" />
    <glyph glyph-name="yen" unicode="&#xa5;" horiz-adv-x="625" 
d="M552 676q25 8 66 8q16 0 31 -2t22 -4l7 -2l-260 -318h115q3 -17 -2 -38q-4 -17 -14 -39h-157l-15 -68h157q3 -17 -2 -37q-5 -23 -14 -40h-157l-27 -127q-23 -9 -61 -9q-16 0 -30 2t-20 4l-6 3l27 127h-160q-2 21 3 41q3 15 13 36h160l15 68h-160q-2 24 2 39q4 19 14 38
h117l-113 315q26 11 72 11q19 0 35.5 -2.5t23.5 -5.5l6 -2l93 -271z" />
    <glyph glyph-name="brokenbar" unicode="&#xa6;" horiz-adv-x="290" 
d="M94 361l89 421q21 8 65 8q18 0 33.5 -2t21.5 -4l6 -2l-89 -421q-24 -8 -65 -8q-20 0 -35 2t-20 4zM-23 -189l91 431q21 8 65 8q18 0 33.5 -2t21.5 -4l6 -2l-91 -431q-24 -8 -65 -8q-20 0 -35 2t-21 4z" />
    <glyph glyph-name="section" unicode="&#xa7;" horiz-adv-x="486" 
d="M283 137q4 21 -12.5 34.5t-44 19.5t-59.5 16t-58.5 21.5t-40 38.5t-5.5 66q11 57 70 108q-29 36 -16 100q15 73 75.5 111t147.5 38q72 0 136 -23q-4 -50 -42 -78q-46 13 -96 13q-100 0 -113 -59q-5 -25 18.5 -38.5t59 -21t70.5 -18.5t55 -40.5t10 -76.5q-11 -53 -65 -101
q41 -38 26 -112q-16 -73 -81.5 -109t-155.5 -36q-42 0 -82.5 6.5t-59.5 13.5l-20 6q0 53 43 80q59 -16 124 -16q105 0 116 57zM200 400q-24 -26 -29 -51q-3 -14 3 -23.5t21 -16t29.5 -10t39 -8.5t38.5 -9q22 24 28 50q3 14 -3 23.5t-21 15.5t-30 10t-38 9t-38 10z" />
    <glyph glyph-name="dieresis" unicode="&#xa8;" horiz-adv-x="455" 
d="M186 715l-21 -97q-20 -7 -55 -7q-16 0 -29.5 1.5t-18.5 3.5l-5 2l21 97q18 7 55 7q16 0 29 -2t18 -4zM367 715l-21 -97q-20 -7 -55 -7q-16 0 -29.5 1.5t-18.5 3.5l-5 2l21 97q18 7 55 7q16 0 29 -2t19 -4z" />
    <glyph glyph-name="copyright" unicode="&#xa9;" horiz-adv-x="797" 
d="M332 -10q-145 0 -226 102t-50 248q31 145 155 247.5t270 102.5q145 0 225.5 -102t49.5 -248q-31 -145 -154.5 -247.5t-269.5 -102.5zM463 609q-112 0 -207 -78.5t-119 -190.5q-23 -112 38.5 -190.5t173.5 -78.5t207.5 78.5t118.5 190.5q24 112 -38 190.5t-174 78.5z
M369 147q-87 0 -121.5 51.5t-14.5 148.5q43 199 221 199q29 0 54.5 -5.5t36.5 -10.5l11 -6q-9 -41 -43 -66q-32 14 -67 14q-93 0 -119 -126q-15 -68 4 -94.5t63 -26.5q17 0 36 2.5t30 5.5l10 3q26 -18 16 -66q-48 -23 -117 -23z" />
    <glyph glyph-name="ordfeminine" unicode="&#xaa;" horiz-adv-x="361" 
d="M133 603q55 27 119 27q66 0 89 -28t10 -87l-44 -207q-13 -8 -36 -8q-8 0 -16.5 2t-12.5 4l-5 2l-3 22q-35 -35 -93 -35q-45 0 -65.5 27.5t-9.5 79.5q22 101 144 101l52 -2l3 13q10 43 -39 43q-17 0 -37 -3.5t-32 -7.5l-12 -4q-17 28 -12 61zM250 441q-19 1 -44 1
q-43 0 -53 -40q-8 -40 31 -40q25 0 41.5 20t21.5 46zM41 244h250q5 -34 -16 -73h-250q-2 42 16 73z" />
    <glyph glyph-name="guillemotleft" unicode="&#xab;" horiz-adv-x="533" 
d="M54 322l241 187q24 -23 26 -73l-177 -167l106 -166q-22 -49 -57 -73l-162 184q-5 19 2 51q4 16 9 30t8 21zM260 319l229 178q22 -22 24 -69l-168 -159l101 -158q-23 -47 -54 -69l-154 175q-5 18 1 48q3 15 8.5 28.5t8.5 19.5z" />
    <glyph glyph-name="logicalnot" unicode="&#xac;" horiz-adv-x="605" 
d="M563 439l-57 -270q-22 -11 -55 -11q-15 0 -28 3t-19 5l-5 3l35 164h-373q-7 22 0 52q3 14 8.5 27.5t9.5 19.5l4 7h480z" />
    <glyph glyph-name="uni00AD" unicode="&#xad;" horiz-adv-x="305" 
 />
    <glyph glyph-name="registered" unicode="&#xae;" horiz-adv-x="525" 
d="M251 252q-91 0 -141.5 64t-31.5 155q20 91 97.5 155t168.5 64t141 -64t31 -155q-20 -91 -97 -155t-168 -64zM332 636q-68 0 -126.5 -48t-73.5 -117q-14 -69 24 -117t106 -48q69 0 127.5 48t72.5 117q15 69 -23 117t-107 48zM336 589q36 0 54 -19.5t11 -51.5
q-10 -49 -58 -65l40 -84q-16 -8 -35 -8l-26 5l-40 81h-16l-17 -81q-14 -5 -27 -5l-26 5l47 223h93zM275 491h35q30 0 36 27t-24 27h-35z" />
    <glyph glyph-name="macron" unicode="&#xaf;" horiz-adv-x="407" 
d="M339 630h-323q-3 38 15 72h323q5 -34 -15 -72z" />
    <glyph glyph-name="degree" unicode="&#xb0;" horiz-adv-x="345" 
d="M106 617q11 52 55 91t106 39q61 0 87.5 -38t15.5 -89q-11 -52 -53.5 -89.5t-103.5 -37.5q-64 0 -91 36.5t-16 87.5zM297 619q5 24 -6.5 42t-39.5 18t-47.5 -18t-25.5 -43q-5 -24 7 -41t41 -17q28 0 46.5 17.5t24.5 41.5z" />
    <glyph glyph-name="plusminus" unicode="&#xb1;" horiz-adv-x="505" 
d="M218 356h-139q-4 18 2 46q3 12 7 23.5t7 16.5l3 6h139l23 109q20 7 48 7q12 0 23 -2t16 -4l5 -1l-23 -109h139q3 -18 -3 -46q-3 -12 -7 -23.5t-6 -16.5l-3 -6h-139l-24 -109q-19 -7 -47 -7q-12 0 -23.5 2t-16.5 4l-5 1zM398 118h-370q-3 18 3 46q3 12 7 23.5t7 16.5l3 6
h370q3 -18 -3 -46q-3 -12 -7 -23.5t-7 -16.5z" />
    <glyph glyph-name="twosuperior" unicode="&#xb2;" horiz-adv-x="302" 
d="M44 387q10 46 42 79t65 47t62 33t34 41q4 20 -10 28.5t-40 8.5q-31 0 -62 -9q-19 25 -8 62q46 17 103 17q55 0 85.5 -26t19.5 -76q-8 -36 -32.5 -62t-51.5 -38.5t-61 -32t-54 -40.5h145q3 -19 -1 -37q-3 -17 -14 -36h-226q-1 18 4 41z" />
    <glyph glyph-name="threesuperior" unicode="&#xb3;" horiz-adv-x="300" 
d="M297 442q-21 -101 -165 -101q-28 0 -51.5 5.5t-32.5 11.5l-10 5q8 38 36 59q29 -11 69 -11q62 0 70 41q5 21 -5 30t-37 9h-48q-5 34 15 67h48q39 0 46 31q4 19 -6 27.5t-35 8.5q-16 0 -33.5 -2.5t-27.5 -4.5l-9 -3q-19 21 -9 60q42 19 100 19q59 0 88.5 -24.5t20.5 -68.5
q-12 -52 -57 -74q46 -22 33 -85z" />
    <glyph glyph-name="acute" unicode="&#xb4;" horiz-adv-x="224" 
d="M221 765l-153 -130q-46 8 -62 38l115 137q30 4 60.5 -10t39.5 -35z" />
    <glyph glyph-name="mu" unicode="&#xb5;" horiz-adv-x="586" 
d="M422 518q24 8 65 8q20 0 35 -2t20 -4l6 -2l-108 -510q-21 -8 -65 -8q-18 0 -33.5 2t-21.5 4l-6 2l4 19q-50 -37 -112 -37q-50 0 -79 29q-8 -66 -9 -126.5t2 -88.5l2 -27q-29 -20 -73 -25.5t-70 5.5q0 62 36 229l113 532q24 8 65 8q20 0 35 -2t20 -4l6 -2l-75 -354
q-15 -72 65 -72q48 0 95 37z" />
    <glyph glyph-name="paragraph" unicode="&#xb6;" horiz-adv-x="655" 
d="M127 -221l101 475q-69 1 -112 34.5t-55 82t0 105.5q21 91 94 157t176 66h90l-196 -920q-18 -6 -50 -6q-15 0 -27 1.5t-16 3.5zM645 693l-194 -914q-18 -6 -50 -6q-15 0 -27 1.5t-16 3.5l-5 1l194 914q17 6 51 6q14 0 26 -1.5t16 -3.5z" />
    <glyph glyph-name="periodcentered" unicode="&#xb7;" horiz-adv-x="236" 
d="M178 333l-21 -97q-21 -8 -56 -8q-17 0 -30 2t-17 4l-5 2l21 97q17 8 55 8q16 0 29 -2t18 -4z" />
    <glyph glyph-name="cedilla" unicode="&#xb8;" horiz-adv-x="296" 
d="M-38 53l62 -18l-24 -61q101 0 81 -98q-11 -49 -50 -75t-97 -26q-28 0 -50 6t-30 12l-8 6q7 35 36 51q24 -13 58 -13q57 0 66 43q9 41 -40 41h-39l-10 16z" />
    <glyph glyph-name="onesuperior" unicode="&#xb9;" horiz-adv-x="248" 
d="M85 627q64 16 109 56q18 5 43 5q17 0 39 -5l-71 -333q-22 -5 -41 -5q-25 0 -45 5l42 195q3 16 9 40q-34 -21 -77 -26q-20 25 -8 68z" />
    <glyph glyph-name="ordmasculine" unicode="&#xba;" horiz-adv-x="373" 
d="M79 463q20 89 63.5 128t112.5 39q70 0 97 -38.5t8 -128.5t-63 -129t-113 -39q-70 0 -97 39t-8 129zM269 463q11 61 4 79.5t-33 18.5q-27 0 -43 -20t-29 -78q-10 -62 -3 -79.5t34 -17.5q26 0 42 19.5t28 77.5zM47 244h250q2 -20 -2 -35q-3 -19 -14 -38h-250q-1 12 3 38
q6 24 13 35z" />
    <glyph glyph-name="guillemotright" unicode="&#xbb;" horiz-adv-x="532" 
d="M324 509l161 -187q5 -22 -3 -57q-3 -14 -8 -27t-8 -18l-4 -6l-240 -184q-25 25 -25 73l176 166l-105 167q19 47 56 73zM126 497l153 -178q4 -21 -3 -54q-3 -13 -7.5 -25t-8.5 -18l-3 -5l-228 -175q-24 23 -24 69l167 158l-100 159q21 47 54 69z" />
    <glyph glyph-name="onequarter" unicode="&#xbc;" horiz-adv-x="682" 
d="M36 -3l534 698q16 7 48 7q14 0 25.5 -2t16.5 -4l4 -1l-535 -698q-20 -7 -48 -7q-12 0 -23 1.5t-16 3.5zM94 627q64 16 109 56q17 5 43 5q17 0 39 -5l-71 -333q-22 -5 -41 -5q-25 0 -45 5l42 195q3 16 9 40q-34 -21 -77 -26q-20 25 -8 68zM572 138h37q2 -14 -1 -31
q-3 -13 -12 -30h-37l-15 -72q-19 -5 -37 -5q-20 0 -35 5l15 72h-164q-2 16 1 28q4 17 10 27l200 205q20 6 42 6q21 0 39 -6zM523 244l-103 -106h80z" />
    <glyph glyph-name="onehalf" unicode="&#xbd;" horiz-adv-x="728" 
d="M570 695q16 7 48 7q14 0 25.5 -2t16.5 -4l4 -1l-535 -698q-20 -7 -48 -7q-12 0 -23 1.5t-16 3.5l-6 2zM203 683q17 5 43 5q17 0 39 -5l-71 -333q-22 -5 -41 -5q-25 0 -45 5l42 195q3 16 9 40q-34 -21 -77 -26q-20 25 -8 68q64 16 109 56zM472 331q47 17 104 17
q54 0 84.5 -26t19.5 -76q-8 -36 -32 -62t-51 -38.5t-61.5 -32t-54.5 -40.5h145q4 -14 0 -37q-5 -22 -15 -36h-226q0 18 5 41q8 38 30.5 66t49.5 44t53 29t45.5 28t23.5 33q4 20 -9.5 28.5t-37.5 8.5q-36 1 -65 -9q-19 27 -8 62z" />
    <glyph glyph-name="threequarters" unicode="&#xbe;" horiz-adv-x="721" 
d="M610 695q16 7 48 7q14 0 25.5 -2t16.5 -4l4 -1l-535 -698q-20 -7 -48 -7q-12 0 -23 1.5t-16 3.5l-6 2zM122 675q42 19 100 19q59 0 88.5 -24.5t20.5 -68.5q-12 -52 -57 -74q46 -22 33 -85q-21 -101 -165 -101q-28 0 -51.5 5.5t-32.5 11.5l-10 5q8 38 36 59q29 -11 69 -11
q62 0 70 41q5 21 -5 30t-37 9h-48q-5 34 15 67h48q39 0 46 31q4 19 -6 27.5t-35 8.5q-16 0 -33.5 -2.5t-27.5 -4.5l-9 -3q-19 21 -9 60zM574 337q20 6 42 6q21 0 39 -6l-43 -199h37q2 -14 -1 -31q-3 -13 -12 -30h-37l-15 -72q-19 -5 -37 -5q-20 0 -35 5l15 72h-164
q-1 14 2 30q4 16 9 25zM460 138h80l23 106z" />
    <glyph glyph-name="questiondown" unicode="&#xbf;" horiz-adv-x="432" 
d="M211 397l25 115q23 8 64 8q20 0 35.5 -2t20.5 -4l6 -2l-25 -115q-20 -8 -64 -8q-18 0 -33.5 2t-21.5 4zM-29 12q11 54 37 91t55.5 57t59 38t53.5 45t32 66q15 7 48 7q14 0 26 -2t18 -4l5 -1q-12 -58 -35 -96.5t-48 -58t-49 -35.5t-43.5 -40.5t-27.5 -61.5q-10 -48 13 -66
t70 -18q30 0 57.5 5.5t39.5 11.5l13 6q38 -33 19 -90q-66 -36 -170 -36q-94 0 -143.5 43.5t-29.5 138.5z" />
    <glyph glyph-name="Agrave" unicode="&#xc0;" horiz-adv-x="664" 
d="M445 924l57 -139q-30 -33 -78 -36l-97 130q18 21 53.5 35t64.5 10zM340 711q35 9 80 9q22 0 41 -2t27 -4l8 -3l90 -702q-25 -9 -72 -9q-19 0 -31.5 2t-15.5 4l-3 3l-20 160h-273l-88 -160q-34 -9 -74 -9q-17 0 -31 2t-20 4l-6 3zM396 590h-4q-20 -55 -53 -115l-111 -203
h203l-27 203q-4 28 -6 56.5t-2 43.5v15z" />
    <glyph glyph-name="Aacute" unicode="&#xc1;" horiz-adv-x="664" 
d="M371 788l116 138q30 4 61.5 -10.5t40.5 -35.5l-145 -130q-59 10 -73 38zM340 711q35 9 80 9q22 0 41 -2t27 -4l8 -3l90 -702q-25 -9 -72 -9q-19 0 -31.5 2t-15.5 4l-3 3l-20 160h-273l-88 -160q-34 -9 -74 -9q-17 0 -31 2t-20 4l-6 3zM396 590h-4q-20 -55 -53 -115
l-111 -203h203l-27 203q-4 28 -6 56.5t-2 43.5v15z" />
    <glyph glyph-name="Acircumflex" unicode="&#xc2;" horiz-adv-x="664" 
d="M468 923l123 -118q-32 -43 -69 -54l-86 63l-111 -62q-33 12 -47 53l164 118h26zM340 711q35 9 80 9q22 0 41 -2t27 -4l8 -3l90 -702q-25 -9 -72 -9q-19 0 -31.5 2t-15.5 4l-3 3l-20 160h-273l-88 -160q-34 -9 -74 -9q-17 0 -31 2t-20 4l-6 3zM396 590h-4
q-20 -55 -53 -115l-111 -203h203l-27 203q-4 28 -6 56.5t-2 43.5v15z" />
    <glyph glyph-name="Atilde" unicode="&#xc3;" horiz-adv-x="664" 
d="M280 833q3 6 9.5 15.5t30.5 26.5t53 19q33 2 68.5 -16t54.5 -17q12 1 23.5 7t16.5 12l6 6q30 -15 47 -43q-4 -6 -11.5 -15t-33 -25t-54.5 -18q-33 -2 -66.5 15t-52.5 16q-14 -1 -26 -7t-17 -11l-5 -6q-30 14 -43 41zM340 711q35 9 80 9q22 0 41 -2t27 -4l8 -3l90 -702
q-25 -9 -72 -9q-19 0 -31.5 2t-15.5 4l-3 3l-20 160h-273l-88 -160q-34 -9 -74 -9q-17 0 -31 2t-20 4l-6 3zM396 590h-4q-20 -55 -53 -115l-111 -203h203l-27 203q-4 28 -6 56.5t-2 43.5v15z" />
    <glyph glyph-name="Adieresis" unicode="&#xc4;" horiz-adv-x="664" 
d="M300 874q19 7 56 7q16 0 29 -1.5t18 -3.5l5 -2l-20 -97q-21 -7 -56 -7q-16 0 -29 2t-18 4l-5 1zM481 874q19 7 56 7q16 0 29 -1.5t18 -3.5l5 -2l-20 -97q-21 -7 -56 -7q-16 0 -29 2t-18 4l-5 1zM340 711q35 9 80 9q22 0 41 -2t27 -4l8 -3l90 -702q-25 -9 -72 -9
q-19 0 -31.5 2t-15.5 4l-3 3l-20 160h-273l-88 -160q-34 -9 -74 -9q-17 0 -31 2t-20 4l-6 3zM396 590h-4q-20 -55 -53 -115l-111 -203h203l-27 203q-4 28 -6 56.5t-2 43.5v15z" />
    <glyph glyph-name="Aring" unicode="&#xc5;" horiz-adv-x="664" 
d="M498 692l88 -683q-25 -9 -72 -9q-12 0 -21.5 1t-15 2t-9 2.5t-4.5 2.5l-1 1l-20 160h-273l-88 -160q-33 -9 -73 -9q-17 0 -31 2t-20 4l-6 3l375 679q-33 31 -21 89q11 53 53.5 82.5t93.5 29.5q50 0 80.5 -29.5t19.5 -82.5t-55 -85zM485 777q5 22 -7 37.5t-39 15.5
q-26 0 -43.5 -16t-22.5 -37q-5 -22 6.5 -37.5t37.5 -15.5q27 0 45.5 16t22.5 37zM430 272l-25 203q-4 28 -5.5 55.5t-1.5 41.5v14h-4q-21 -51 -54 -111l-113 -203h203z" />
    <glyph glyph-name="AE" unicode="&#xc6;" horiz-adv-x="863" 
d="M522 720h372q11 -47 -22 -103h-255l-43 -202h205q8 -54 -22 -103h-205l-44 -209h265q8 -58 -22 -103h-376l36 169h-208l-128 -159q-32 -10 -72 -10q-44 0 -65 10zM286 272h147l61 262z" />
    <glyph glyph-name="Ccedilla" unicode="&#xc7;" horiz-adv-x="562" 
d="M479 78q3 -14 2.5 -26t-2.5 -20l-2 -7q-71 -33 -182 -35l-15 -36q101 0 80 -98q-10 -49 -49 -75t-97 -26q-28 0 -50 6t-30 12l-8 6q5 34 36 51q22 -13 58 -13q57 0 66 43q9 41 -40 41h-39l-11 16l31 78q-113 18 -153 119.5t-6 265.5q39 179 132.5 264.5t243.5 85.5
q49 0 90.5 -9t58.5 -17l17 -9q-2 -21 -19 -50q-8 -14 -18 -25t-15 -15l-6 -4q-53 21 -117 21q-87 0 -147.5 -58.5t-91.5 -204.5q-13 -61 -13.5 -106.5t9 -74.5t29.5 -46.5t44.5 -24.5t58.5 -7q32 0 66 5t52 11l18 5q13 -14 19 -43z" />
    <glyph glyph-name="Egrave" unicode="&#xc8;" horiz-adv-x="554" 
d="M385 749l-97 130q18 21 53.5 35t64.5 10l57 -137q-27 -29 -78 -38zM171 720h413q4 -22 0 -48q-7 -31 -22 -55h-285l-43 -202h235q5 -24 0 -50q-6 -29 -22 -53h-235l-44 -209h295q4 -30 -1 -50q-7 -31 -21 -53h-423z" />
    <glyph glyph-name="Eacute" unicode="&#xc9;" horiz-adv-x="554" 
d="M528 881l-152 -130q-48 9 -62 38l115 137q30 4 60 -10t39 -35zM171 720h413q4 -22 0 -48q-7 -31 -22 -55h-285l-43 -202h235q5 -24 0 -50q-6 -29 -22 -53h-235l-44 -209h295q4 -30 -1 -50q-7 -31 -21 -53h-423z" />
    <glyph glyph-name="Ecircumflex" unicode="&#xca;" horiz-adv-x="554" 
d="M434 923l119 -118q-32 -43 -69 -54l-86 63l-111 -62q-33 12 -47 53l168 118h26zM171 720h413q4 -22 0 -48q-7 -31 -22 -55h-285l-43 -202h235q5 -24 0 -50q-6 -29 -22 -53h-235l-44 -209h295q4 -30 -1 -50q-7 -31 -21 -53h-423z" />
    <glyph glyph-name="Edieresis" unicode="&#xcb;" horiz-adv-x="554" 
d="M368 864l-20 -97q-21 -7 -56 -7q-16 0 -29 2t-18 4l-5 1l20 97q19 7 56 7q16 0 29 -1.5t18 -3.5zM549 864l-20 -97q-21 -7 -56 -7q-16 0 -29 2t-18 4l-5 1l20 97q19 7 56 7q16 0 29 -1.5t18 -3.5zM171 720h413q4 -22 0 -48q-7 -31 -22 -55h-285l-43 -202h235q5 -24 0 -50
q-6 -29 -22 -53h-235l-44 -209h295q4 -30 -1 -50q-7 -31 -21 -53h-423z" />
    <glyph glyph-name="Igrave" unicode="&#xcc;" horiz-adv-x="292" 
d="M244 749l-97 130q18 21 53.5 35t64.5 10l57 -137q-27 -29 -78 -38zM19 9l149 702q23 9 65 9q19 0 35 -2t22 -4l6 -3l-149 -702q-25 -9 -66 -9q-20 0 -35.5 2t-21.5 4z" />
    <glyph glyph-name="Iacute" unicode="&#xcd;" horiz-adv-x="292" 
d="M377 881l-152 -130q-48 9 -62 38l115 137q30 4 60 -10t39 -35zM19 9l149 702q23 9 65 9q19 0 35 -2t22 -4l6 -3l-149 -702q-25 -9 -66 -9q-20 0 -35.5 2t-21.5 4z" />
    <glyph glyph-name="Icircumflex" unicode="&#xce;" horiz-adv-x="292" 
d="M290 923l119 -118q-32 -43 -69 -54l-86 63l-111 -62q-33 12 -47 53l168 118h26zM19 9l149 702q23 9 65 9q19 0 35 -2t22 -4l6 -3l-149 -702q-25 -9 -66 -9q-20 0 -35.5 2t-21.5 4z" />
    <glyph glyph-name="Idieresis" unicode="&#xcf;" horiz-adv-x="292" 
d="M226 862l-20 -97q-21 -7 -56 -7q-16 0 -29 2t-18 4l-5 1l20 97q19 7 56 7q16 0 29 -1.5t18 -3.5zM407 862l-20 -97q-21 -7 -56 -7q-16 0 -29 2t-18 4l-5 1l20 97q19 7 56 7q16 0 29 -1.5t18 -3.5zM19 9l149 702q23 9 65 9q19 0 35 -2t22 -4l6 -3l-149 -702q-25 -9 -66 -9
q-20 0 -35.5 2t-21.5 4z" />
    <glyph glyph-name="Eth" unicode="&#xd0;" horiz-adv-x="682" 
d="M189 720h235q141 0 198 -93t16 -282q-40 -186 -131.5 -265.5t-235.5 -79.5h-235l67 314h-77q-4 46 18 85h77zM294 614l-45 -215h120q5 -40 -18 -85h-120l-45 -208h98q82 0 136.5 53.5t85.5 200.5q13 62 14.5 107.5t-6.5 73.5t-27 44.5t-41.5 22.5t-53.5 6h-98z" />
    <glyph glyph-name="Ntilde" unicode="&#xd1;" horiz-adv-x="704" 
d="M534 840q14 0 28 6.5t20 13.5l7 6q15 -7 23.5 -23t7.5 -34q-4 -6 -12 -14.5t-34 -22.5t-54 -14q-33 0 -66 16t-52 16q-14 0 -27.5 -6.5t-20.5 -13.5l-6 -6q-33 20 -32 57q4 6 12 14.5t34.5 22.5t54.5 14q33 0 65.5 -16t51.5 -16zM406 9l-119 402l-37 147h-4
q-9 -79 -31 -183l-78 -366q-21 -9 -62 -9q-18 0 -32 2t-19 4l-5 3l149 702q29 9 79 9q23 0 41.5 -2t25.5 -4l7 -3l118 -400q10 -32 19.5 -69.5t13.5 -59.5l5 -21h4q10 84 32 186l77 364q20 9 62 9q19 0 33 -2t19 -4l4 -3l-149 -702q-26 -9 -77 -9q-22 0 -41 2t-27 4z" />
    <glyph glyph-name="Ograve" unicode="&#xd2;" horiz-adv-x="678" 
d="M455 921l55 -132q-27 -28 -75 -37l-94 125q17 20 51.5 33.5t62.5 10.5zM67 378q40 185 129.5 268.5t227.5 83.5q136 0 193.5 -97.5t16.5 -286.5q-40 -188 -128.5 -272t-227.5 -84q-137 0 -194 99t-17 289zM504 360q17 78 18 130.5t-14 81.5t-39.5 40.5t-61.5 11.5
q-76 0 -127.5 -57.5t-83.5 -206.5q-24 -104 -14.5 -162.5t36.5 -80t76 -21.5q77 0 128 57.5t82 206.5z" />
    <glyph glyph-name="Oacute" unicode="&#xd3;" horiz-adv-x="678" 
d="M386 805l115 137q30 4 60.5 -10t39.5 -35l-153 -130q-46 8 -62 38zM67 378q40 185 129.5 268.5t227.5 83.5q136 0 193.5 -97.5t16.5 -286.5q-40 -188 -128.5 -272t-227.5 -84q-137 0 -194 99t-17 289zM504 360q17 78 18 130.5t-14 81.5t-39.5 40.5t-61.5 11.5
q-76 0 -127.5 -57.5t-83.5 -206.5q-24 -104 -14.5 -162.5t36.5 -80t76 -21.5q77 0 128 57.5t82 206.5z" />
    <glyph glyph-name="Ocircumflex" unicode="&#xd4;" horiz-adv-x="678" 
d="M480 923l123 -118q-32 -43 -69 -54l-86 65l-111 -64q-33 12 -47 53l164 118h26zM67 378q40 185 129.5 268.5t227.5 83.5q136 0 193.5 -97.5t16.5 -286.5q-40 -188 -128.5 -272t-227.5 -84q-137 0 -194 99t-17 289zM504 360q17 78 18 130.5t-14 81.5t-39.5 40.5
t-61.5 11.5q-76 0 -127.5 -57.5t-83.5 -206.5q-24 -104 -14.5 -162.5t36.5 -80t76 -21.5q77 0 128 57.5t82 206.5z" />
    <glyph glyph-name="Otilde" unicode="&#xd5;" horiz-adv-x="678" 
d="M519 850q14 0 27.5 7t19.5 14l7 7q34 -15 34 -56q-4 -6 -11.5 -14.5t-33.5 -23.5t-55 -16q-26 -1 -62.5 13.5t-56.5 14.5q-14 0 -27.5 -7t-20.5 -14l-6 -7q-34 18 -34 56q4 6 11.5 14.5t33.5 23.5t55 16q33 1 66.5 -13.5t52.5 -14.5zM68 378q40 185 129.5 268.5
t227.5 83.5q136 0 193.5 -97.5t16.5 -286.5q-40 -188 -128.5 -272t-227.5 -84q-137 0 -194 99t-17 289zM505 360q17 78 18 130.5t-14 81.5t-39.5 40.5t-61.5 11.5q-76 0 -127.5 -57.5t-83.5 -206.5q-24 -104 -14.5 -162.5t36.5 -80t76 -21.5q77 0 128 57.5t82 206.5z" />
    <glyph glyph-name="Odieresis" unicode="&#xd6;" horiz-adv-x="678" 
d="M316 884q18 7 55 7q16 0 29 -1.5t18 -3.5l6 -2l-21 -97q-20 -7 -55 -7q-16 0 -29.5 2t-18.5 4l-5 1zM497 884q18 7 55 7q16 0 29 -1.5t19 -3.5l5 -2l-21 -97q-20 -7 -55 -7q-16 0 -29.5 2t-18.5 4l-5 1zM67 378q40 185 129.5 268.5t227.5 83.5q136 0 193.5 -97.5
t16.5 -286.5q-40 -188 -128.5 -272t-227.5 -84q-137 0 -194 99t-17 289zM504 360q17 78 18 130.5t-14 81.5t-39.5 40.5t-61.5 11.5q-76 0 -127.5 -57.5t-83.5 -206.5q-24 -104 -14.5 -162.5t36.5 -80t76 -21.5q77 0 128 57.5t82 206.5z" />
    <glyph glyph-name="multiply" unicode="&#xd7;" horiz-adv-x="476" 
d="M221 224l-144 -118q-16 7 -32 27q-7 9 -12 18.5t-6 14.5l-1 5l143 118l-93 118q11 18 36 38q11 9 21.5 15.5t16.5 9.5l5 2l93 -118l143 118q17 -7 33 -27q7 -9 11.5 -18.5t5.5 -14.5l1 -5l-143 -118l93 -118q-11 -18 -35 -38q-11 -9 -22 -15.5t-17 -9.5l-5 -2z" />
    <glyph glyph-name="Oslash" unicode="&#xd8;" horiz-adv-x="678" 
d="M707 729l-86 -104q52 -100 13 -279q-40 -188 -128.5 -272t-227.5 -84q-90 0 -145 42l-65 -80q-56 0 -79 40l89 107q-49 103 -11 279q40 185 129.5 268.5t227.5 83.5q87 0 141 -39l64 77q50 0 78 -39zM407 624q-76 0 -127.5 -57.5t-83.5 -206.5q-18 -82 -16 -137l309 375
q-27 26 -82 26zM294 96q77 0 128 57.5t82 206.5q19 86 17 143l-311 -379q28 -28 84 -28z" />
    <glyph glyph-name="Ugrave" unicode="&#xd9;" horiz-adv-x="677" 
d="M430 749l-97 130q18 21 53.5 35t64.5 10l57 -137q-27 -29 -78 -38zM685 711l-101 -478q-51 -243 -300 -243q-121 0 -182.5 70.5t-35.5 191.5l98 459q23 9 65 9q19 0 35 -2t22 -4l6 -3l-102 -473q-14 -64 14 -102t92 -38t105.5 35t55.5 99l102 479q22 9 64 9q19 0 34.5 -2
t21.5 -4z" />
    <glyph glyph-name="Uacute" unicode="&#xda;" horiz-adv-x="677" 
d="M583 881l-152 -130q-21 4 -39 15.5t-25 27.5l117 132q30 4 60 -10t39 -35zM685 711l-101 -478q-51 -243 -300 -243q-121 0 -182.5 70.5t-35.5 191.5l98 459q23 9 65 9q19 0 35 -2t22 -4l6 -3l-102 -473q-14 -64 14 -102t92 -38t105.5 35t55.5 99l102 479q22 9 64 9
q19 0 34.5 -2t21.5 -4z" />
    <glyph glyph-name="Ucircumflex" unicode="&#xdb;" horiz-adv-x="677" 
d="M482 923l119 -118q-32 -43 -69 -54l-86 66l-111 -65q-33 12 -47 53l168 118h26zM685 711l-101 -478q-51 -243 -300 -243q-121 0 -182.5 70.5t-35.5 191.5l98 459q23 9 65 9q19 0 35 -2t22 -4l6 -3l-102 -473q-14 -64 14 -102t92 -38t105.5 35t55.5 99l102 479q22 9 64 9
q19 0 34.5 -2t21.5 -4z" />
    <glyph glyph-name="Udieresis" unicode="&#xdc;" horiz-adv-x="677" 
d="M421 874l-20 -97q-21 -7 -56 -7q-16 0 -29 2t-18 4l-5 1l20 97q19 7 56 7q16 0 29 -1.5t18 -3.5zM602 874l-20 -97q-21 -7 -56 -7q-16 0 -29 2t-18 4l-5 1l20 97q19 7 56 7q16 0 29 -1.5t18 -3.5zM685 711l-101 -478q-51 -243 -300 -243q-121 0 -182.5 70.5t-35.5 191.5
l98 459q23 9 65 9q19 0 35 -2t22 -4l6 -3l-102 -473q-14 -64 14 -102t92 -38t105.5 35t55.5 99l102 479q22 9 64 9q19 0 34.5 -2t21.5 -4z" />
    <glyph glyph-name="Yacute" unicode="&#xdd;" horiz-adv-x="636" 
d="M345 789l113 139q30 4 61 -11t40 -36l-151 -135q-46 8 -63 43zM568 711q34 9 77 9q18 0 35.5 -2t25.5 -4l8 -3l-334 -411l-62 -291q-23 -9 -64 -9q-20 0 -36 2t-22 4l-6 3l61 288l-152 414q29 9 80 9q20 0 35.5 -2t20.5 -4l5 -3l103 -283z" />
    <glyph glyph-name="Thorn" unicode="&#xde;" horiz-adv-x="608" 
d="M168 711q23 9 65 9q19 0 35 -2t22 -4l6 -3l-26 -121h140q99 0 146 -68t26 -168q-21 -97 -91.5 -149.5t-173.5 -52.5h-140l-30 -143q-25 -9 -66 -9q-20 0 -35.5 2t-21.5 4l-5 3zM248 484l-48 -226h122q107 0 131 113q11 54 -10 83.5t-73 29.5h-122z" />
    <glyph glyph-name="germandbls" unicode="&#xdf;" horiz-adv-x="573" 
d="M3 8l116 548q41 194 261 194q98 0 140 -50.5t25 -125.5q-11 -49 -41 -93q-4 -1 -9.5 -2t-21.5 -7.5t-29 -15t-25.5 -24.5t-16.5 -35q-5 -26 7 -48.5t31.5 -42t39 -41t29 -56t0.5 -77.5q-30 -142 -207 -142q-31 0 -59 5t-41 10l-12 5q4 49 44 86q31 -11 68 -11q75 0 87 58
q5 23 -7 44.5t-31.5 41t-38 42t-28 55.5t-1.5 72q10 46 38.5 76.5t52.5 38.5l24 8q16 31 20 50q7 35 -8.5 57.5t-51.5 22.5q-93 0 -113 -95l-116 -548q-24 -8 -65 -8q-20 0 -35 2t-21 4z" />
    <glyph glyph-name="agrave" unicode="&#xe0;" horiz-adv-x="555" 
d="M366 780l56 -140q-27 -29 -78 -38l-97 130q19 22 55 37t64 11zM418 520q15 7 57 7q19 0 34 -2t21 -4l5 -2l-108 -511q-24 -8 -55 -8q-14 0 -27.5 1.5t-20.5 3.5l-6 2l-1 44q-56 -61 -143 -61q-89 0 -127 72.5t-7 219.5q30 143 92.5 198.5t155.5 55.5q80 0 115 -59z
M367 321q10 47 -8 80t-58 33q-52 0 -83.5 -35t-52.5 -134q-17 -69 -11 -107.5t23.5 -52t51.5 -13.5q41 0 71 30t41 78z" />
    <glyph glyph-name="aacute" unicode="&#xe1;" horiz-adv-x="555" 
d="M268 637l115 137q31 4 61 -10t39 -35l-153 -130q-46 8 -62 38zM418 520q15 7 57 7q19 0 34 -2t21 -4l5 -2l-108 -511q-24 -8 -55 -8q-14 0 -27.5 1.5t-20.5 3.5l-6 2l-1 44q-56 -61 -143 -61q-89 0 -127 72.5t-7 219.5q30 143 92.5 198.5t155.5 55.5q80 0 115 -59z
M367 321q10 47 -8 80t-58 33q-52 0 -83.5 -35t-52.5 -134q-17 -69 -11 -107.5t23.5 -52t51.5 -13.5q41 0 71 30t41 78z" />
    <glyph glyph-name="acircumflex" unicode="&#xe2;" horiz-adv-x="555" 
d="M370 762l124 -113q-31 -42 -68 -53l-83 61l-109 -60q-32 11 -46 52l157 113h25zM418 520q15 7 57 7q19 0 34 -2t21 -4l5 -2l-108 -511q-24 -8 -55 -8q-14 0 -27.5 1.5t-20.5 3.5l-6 2l-1 44q-56 -61 -143 -61q-89 0 -127 72.5t-7 219.5q30 143 92.5 198.5t155.5 55.5
q80 0 115 -59zM367 321q10 47 -8 80t-58 33q-52 0 -83.5 -35t-52.5 -134q-17 -69 -11 -107.5t23.5 -52t51.5 -13.5q41 0 71 30t41 78z" />
    <glyph glyph-name="atilde" unicode="&#xe3;" horiz-adv-x="555" 
d="M197 669q4 6 12 14.5t34.5 22.5t54.5 14q33 0 65.5 -16t51.5 -16q14 0 28 6.5t21 13.5l6 6q32 -15 32 -57q-4 -6 -12 -14.5t-34.5 -22.5t-54.5 -14q-33 0 -65.5 16t-51.5 16q-14 0 -28 -6.5t-20 -13.5l-7 -6q-33 20 -32 57zM418 520q15 7 57 7q19 0 34 -2t21 -4l5 -2
l-108 -511q-24 -8 -55 -8q-14 0 -27.5 1.5t-20.5 3.5l-6 2l-1 44q-56 -61 -143 -61q-89 0 -127 72.5t-7 219.5q30 143 92.5 198.5t155.5 55.5q80 0 115 -59zM367 321q10 47 -8 80t-58 33q-52 0 -83.5 -35t-52.5 -134q-17 -69 -11 -107.5t23.5 -52t51.5 -13.5q41 0 71 30
t41 78z" />
    <glyph glyph-name="adieresis" unicode="&#xe4;" horiz-adv-x="555" 
d="M218 706q19 7 56 7q16 0 29 -1.5t18 -3.5l5 -2l-21 -97q-20 -7 -55 -7q-16 0 -29.5 2t-18.5 4l-5 1zM399 706q19 7 56 7q16 0 29 -1.5t18 -3.5l5 -2l-21 -97q-20 -7 -55 -7q-16 0 -29.5 2t-18.5 4l-5 1zM418 520q15 7 57 7q19 0 34 -2t21 -4l5 -2l-108 -511
q-24 -8 -55 -8q-14 0 -27.5 1.5t-20.5 3.5l-6 2l-1 44q-56 -61 -143 -61q-89 0 -127 72.5t-7 219.5q30 143 92.5 198.5t155.5 55.5q80 0 115 -59zM367 321q10 47 -8 80t-58 33q-52 0 -83.5 -35t-52.5 -134q-17 -69 -11 -107.5t23.5 -52t51.5 -13.5q41 0 71 30t41 78z" />
    <glyph glyph-name="aring" unicode="&#xe5;" horiz-adv-x="555" 
d="M235 691q9 50 50.5 78.5t92.5 28.5q50 0 81.5 -28.5t22.5 -78.5q-9 -51 -51 -80.5t-95 -29.5t-82 29.5t-19 80.5zM409 691q4 19 -7 32t-36 13q-23 0 -39 -13t-20 -32t6 -32.5t34 -13.5q25 0 41.5 13.5t20.5 32.5zM418 520q15 7 57 7q19 0 34 -2t21 -4l5 -2l-108 -511
q-24 -8 -55 -8q-14 0 -27.5 1.5t-20.5 3.5l-6 2l-1 44q-56 -61 -143 -61q-89 0 -127 72.5t-7 219.5q30 143 92.5 198.5t155.5 55.5q80 0 115 -59zM367 321q10 47 -8 80t-58 33q-52 0 -83.5 -35t-52.5 -134q-17 -69 -11 -107.5t23.5 -52t51.5 -13.5q41 0 71 30t41 78z" />
    <glyph glyph-name="ae" unicode="&#xe6;" horiz-adv-x="779" 
d="M621 536q79 0 112.5 -53t12.5 -154q-5 -26 -13.5 -50.5t-14.5 -36.5l-5 -12h-277q-9 -74 13.5 -105.5t75.5 -31.5q28 0 57 5.5t44 11.5l15 6q24 -27 17 -82q-4 -4 -13 -11t-43.5 -18t-77.5 -11q-92 0 -127 58l-9 -44q-20 -8 -49 -8q-14 0 -26.5 2t-17.5 4l-5 2l1 43
q-29 -33 -57 -47t-78 -14q-79 0 -113.5 71t-3.5 216q55 259 235 259q42 0 65 -13.5t38 -45.5l13 42q15 8 57 8q18 0 30 -2t15 -4l4 -2l-8 -38q58 55 133 55zM454 316h167q5 14 8 28q20 94 -56 94q-81 0 -119 -122zM318 200l28 130q9 48 -5.5 76t-53.5 28q-42 0 -71.5 -36.5
t-50.5 -134.5q-17 -69 -11.5 -107t20 -51t41.5 -13q40 0 66.5 29t36.5 79z" />
    <glyph glyph-name="ccedilla" unicode="&#xe7;" horiz-adv-x="442" 
d="M37 280q28 133 94.5 194.5t181.5 61.5q46 0 78.5 -6.5t42.5 -13.5l10 -6q-13 -59 -51 -89q-31 13 -81 13q-64 0 -99 -40t-54 -131q-19 -89 1 -128t84 -39q23 0 46 3.5t35 6.5l12 4q13 -14 18 -39.5t0 -50.5q-41 -24 -128 -29l-16 -42q101 0 80 -98q-10 -49 -49 -75
t-97 -26q-28 0 -50 6t-30 12l-8 6q5 34 36 51q22 -13 58 -13q57 0 66 43q9 41 -40 41h-39l-11 16l32 81q-89 12 -119 87t-3 200z" />
    <glyph glyph-name="egrave" unicode="&#xe8;" horiz-adv-x="509" 
d="M322 583l-97 130q19 22 51 35.5t61 9.5l61 -137q-27 -30 -76 -38zM444 224h-289q-9 -75 15 -101.5t81 -26.5q30 0 59.5 6t44.5 12l15 6q30 -35 20 -91q-68 -39 -179 -39q-118 0 -159 80t-13 215q53 251 275 251q88 0 135 -52.5t26 -154.5q-6 -28 -14 -54.5t-13 -38.5z
M365 344q17 94 -67 94q-46 0 -74.5 -29t-48.5 -98h181z" />
    <glyph glyph-name="eacute" unicode="&#xe9;" horiz-adv-x="509" 
d="M457 722l-153 -130q-46 8 -62 38l115 137q30 4 60.5 -10t39.5 -35zM444 224h-289q-9 -75 15 -101.5t81 -26.5q30 0 59.5 6t44.5 12l15 6q30 -35 20 -91q-68 -39 -179 -39q-118 0 -159 80t-13 215q53 251 275 251q88 0 135 -52.5t26 -154.5q-6 -28 -14 -54.5t-13 -38.5z
M365 344q17 94 -67 94q-46 0 -74.5 -29t-48.5 -98h181z" />
    <glyph glyph-name="ecircumflex" unicode="&#xea;" horiz-adv-x="509" 
d="M366 760l116 -115q-32 -42 -68 -53l-83 61l-109 -60q-32 11 -46 52l165 115h25zM444 224h-289q-9 -75 15 -101.5t81 -26.5q30 0 59.5 6t44.5 12l15 6q30 -35 20 -91q-68 -39 -179 -39q-118 0 -159 80t-13 215q53 251 275 251q88 0 135 -52.5t26 -154.5q-6 -28 -14 -54.5
t-13 -38.5zM365 344q17 94 -67 94q-46 0 -74.5 -29t-48.5 -98h181z" />
    <glyph glyph-name="edieresis" unicode="&#xeb;" horiz-adv-x="509" 
d="M311 713l-21 -97q-20 -7 -55 -7q-16 0 -29.5 1.5t-18.5 3.5l-5 2l21 97q19 7 56 7q16 0 29 -2t18 -4zM492 713l-21 -97q-20 -7 -55 -7q-16 0 -29.5 1.5t-18.5 3.5l-5 2l21 97q19 7 56 7q16 0 29 -2t18 -4zM444 224h-289q-9 -75 15 -101.5t81 -26.5q30 0 59.5 6t44.5 12
l15 6q30 -35 20 -91q-68 -39 -179 -39q-118 0 -159 80t-13 215q53 251 275 251q88 0 135 -52.5t26 -154.5q-6 -28 -14 -54.5t-13 -38.5zM365 344q17 94 -67 94q-46 0 -74.5 -29t-48.5 -98h181z" />
    <glyph glyph-name="igrave" unicode="&#xec;" horiz-adv-x="260" 
d="M191 604l-97 130q18 21 54 35t65 10l56 -137q-27 -29 -78 -38zM238 518l-108 -510q-24 -8 -65 -8q-20 0 -35 2t-20 4l-6 2l108 510q21 8 65 8q18 0 33.5 -2t21.5 -4z" />
    <glyph glyph-name="iacute" unicode="&#xed;" horiz-adv-x="260" 
d="M340 732l-153 -130q-46 8 -62 38l115 137q30 4 60.5 -10t39.5 -35zM238 518l-108 -510q-24 -8 -65 -8q-20 0 -35 2t-20 4l-6 2l108 510q21 8 65 8q18 0 33.5 -2t21.5 -4z" />
    <glyph glyph-name="icircumflex" unicode="&#xee;" horiz-adv-x="260" 
d="M242 770l116 -115q-32 -42 -68 -53l-83 61l-109 -60q-32 11 -46 52l165 115h25zM238 518l-108 -510q-24 -8 -65 -8q-20 0 -35 2t-20 4l-6 2l108 510q21 8 65 8q18 0 33.5 -2t21.5 -4z" />
    <glyph glyph-name="idieresis" unicode="&#xef;" horiz-adv-x="260" 
d="M176 706l-21 -97q-20 -7 -55 -7q-16 0 -29.5 2t-18.5 4l-5 1l21 97q19 7 56 7q16 0 29 -1.5t18 -3.5zM357 706l-21 -97q-20 -7 -55 -7q-16 0 -29.5 2t-18.5 4l-5 1l21 97q19 7 56 7q16 0 29 -1.5t18 -3.5zM238 518l-108 -510q-24 -8 -65 -8q-20 0 -35 2t-20 4l-6 2
l108 510q21 8 65 8q18 0 33.5 -2t21.5 -4z" />
    <glyph glyph-name="eth" unicode="&#xf0;" horiz-adv-x="557" 
d="M495 682l-51 -29q113 -126 65 -346q-38 -177 -107.5 -247t-186.5 -70q-110 0 -159.5 70t-19.5 209q50 244 245 244q87 0 134 -47q-9 81 -66 134l-104 -58q-26 28 -28 64l68 37q-39 18 -81 29q7 51 42 78q80 -12 141 -50l81 46q25 -24 27 -64zM225 86q50 0 83.5 35
t53.5 131q17 68 9.5 105t-25 49t-50.5 12q-49 0 -80.5 -35t-54.5 -131q-39 -166 64 -166z" />
    <glyph glyph-name="ntilde" unicode="&#xf1;" 
d="M190 665q4 6 12 14.5t34.5 22.5t54.5 14q33 0 65.5 -16t51.5 -16q14 0 28 6.5t20 13.5l7 6q15 -7 24 -23t8 -34q-4 -6 -12 -14.5t-34 -22.5t-54 -14q-33 0 -66 16t-52 16q-14 0 -28 -6.5t-21 -13.5l-6 -6q-33 20 -32 57zM498 359l-75 -351q-24 -8 -65 -8q-20 0 -35 2
t-21 4l-5 2l75 354q15 72 -65 72q-44 0 -97 -44l-81 -382q-24 -8 -65 -8q-20 0 -35 2t-21 4l-5 2l108 510q18 8 62 8q18 0 32 -2t19 -4l5 -2l-1 -38q65 56 142 56t111 -46.5t17 -130.5z" />
    <glyph glyph-name="ograve" unicode="&#xf2;" horiz-adv-x="544" 
d="M339 757l57 -137q-27 -29 -78 -38l-97 130q18 21 53.5 35t64.5 10zM38 278q30 142 97 200t179 58q110 0 157.5 -73t16.5 -217q-30 -142 -96 -199t-178 -57q-110 0 -158 72t-18 216zM363 263q17 70 10 109t-24.5 53.5t-48.5 14.5q-50 0 -83.5 -38.5t-54.5 -138.5
q-17 -70 -10 -109t24.5 -53.5t48.5 -14.5q49 0 83 38.5t55 138.5z" />
    <glyph glyph-name="oacute" unicode="&#xf3;" horiz-adv-x="544" 
d="M249 630l115 137q30 4 60.5 -10t39.5 -35l-153 -130q-46 8 -62 38zM38 278q30 142 97 200t179 58q110 0 157.5 -73t16.5 -217q-30 -142 -96 -199t-178 -57q-110 0 -158 72t-18 216zM363 263q17 70 10 109t-24.5 53.5t-48.5 14.5q-50 0 -83.5 -38.5t-54.5 -138.5
q-17 -70 -10 -109t24.5 -53.5t48.5 -14.5q49 0 83 38.5t55 138.5z" />
    <glyph glyph-name="ocircumflex" unicode="&#xf4;" horiz-adv-x="544" 
d="M357 756l126 -111q-32 -42 -68 -53l-83 61l-109 -60q-32 11 -46 52l155 111h25zM38 278q30 142 97 200t179 58q110 0 157.5 -73t16.5 -217q-30 -142 -96 -199t-178 -57q-110 0 -158 72t-18 216zM363 263q17 70 10 109t-24.5 53.5t-48.5 14.5q-50 0 -83.5 -38.5
t-54.5 -138.5q-17 -70 -10 -109t24.5 -53.5t48.5 -14.5q49 0 83 38.5t55 138.5z" />
    <glyph glyph-name="otilde" unicode="&#xf5;" horiz-adv-x="544" 
d="M178 665q4 6 12 14.5t34.5 22.5t54.5 14q33 0 65.5 -16t51.5 -16q14 0 28 6.5t20 13.5l7 6q15 -7 24 -23t8 -34q-4 -6 -12 -14.5t-34.5 -22.5t-54.5 -14q-33 0 -65.5 16t-51.5 16q-14 0 -28 -6.5t-21 -13.5l-6 -6q-33 20 -32 57zM38 278q30 142 97 200t179 58
q110 0 157.5 -73t16.5 -217q-30 -142 -96 -199t-178 -57q-110 0 -158 72t-18 216zM363 263q17 70 10 109t-24.5 53.5t-48.5 14.5q-50 0 -83.5 -38.5t-54.5 -138.5q-17 -70 -10 -109t24.5 -53.5t48.5 -14.5q49 0 83 38.5t55 138.5z" />
    <glyph glyph-name="odieresis" unicode="&#xf6;" horiz-adv-x="544" 
d="M206 706q19 7 56 7q16 0 29 -1.5t18 -3.5l5 -2l-21 -97q-20 -7 -55 -7q-16 0 -29.5 2t-18.5 4l-5 1zM387 706q19 7 56 7q16 0 29 -1.5t18 -3.5l5 -2l-21 -97q-20 -7 -55 -7q-16 0 -29.5 2t-18.5 4l-5 1zM38 278q30 142 97 200t179 58q110 0 157.5 -73t16.5 -217
q-30 -142 -96 -199t-178 -57q-110 0 -158 72t-18 216zM363 263q17 70 10 109t-24.5 53.5t-48.5 14.5q-50 0 -83.5 -38.5t-54.5 -138.5q-17 -70 -10 -109t24.5 -53.5t48.5 -14.5q49 0 83 38.5t55 138.5z" />
    <glyph glyph-name="divide" unicode="&#xf7;" horiz-adv-x="524" 
d="M368 510l-24 -115q-24 -8 -65 -8q-20 0 -35 2t-20 4l-6 2l24 115q21 8 65 8q18 0 33.5 -2t21.5 -4zM459 244h-421q-3 18 3 46q3 12 7 23.5t6 16.5l3 6h421q4 -18 -2 -46q-3 -12 -7 -23.5t-7 -16.5zM299 185l-24 -115q-24 -8 -65 -8q-20 0 -35 2t-21 4l-5 2l24 115
q21 8 65 8q18 0 33.5 -2t21.5 -4z" />
    <glyph glyph-name="oslash" unicode="&#xf8;" horiz-adv-x="544" 
d="M536 541l-65 -78q47 -76 17 -217q-30 -142 -96 -199t-178 -57q-66 0 -111 27l-55 -67q-44 0 -64 33l69 84q-44 74 -15 211q30 142 97 200t179 58q64 0 107 -25l52 63q38 0 63 -33zM350 425q-18 15 -50 15q-50 0 -83.5 -38.5t-54.5 -138.5q-9 -41 -11 -79zM174 102
q17 -16 51 -16q49 0 83 38.5t55 138.5q9 44 11 82z" />
    <glyph glyph-name="ugrave" unicode="&#xf9;" 
d="M343 767l57 -137q-27 -29 -78 -38l-97 130q18 21 53.5 35t64.5 10zM33 170l74 348q24 8 65 8q20 0 35 -2t21 -4l5 -2l-75 -354q-15 -72 65 -72q61 0 97 49l81 377q24 8 65 8q20 0 35 -2t21 -4l5 -2l-108 -510q-21 -8 -65 -8q-17 0 -30 2t-18 4l-5 2l3 42
q-54 -60 -142 -60q-83 0 -114.5 51t-14.5 129z" />
    <glyph glyph-name="uacute" unicode="&#xfa;" 
d="M473 722l-153 -130q-46 8 -62 38l115 137q30 4 60.5 -10t39.5 -35zM33 170l74 348q24 8 65 8q20 0 35 -2t21 -4l5 -2l-75 -354q-15 -72 65 -72q61 0 97 49l81 377q24 8 65 8q20 0 35 -2t21 -4l5 -2l-108 -510q-21 -8 -65 -8q-17 0 -30 2t-18 4l-5 2l3 42
q-54 -60 -142 -60q-83 0 -114.5 51t-14.5 129z" />
    <glyph glyph-name="ucircumflex" unicode="&#xfb;" 
d="M378 756l120 -109q-32 -42 -68 -53l-83 61l-109 -60q-32 11 -46 52l161 109h25zM33 170l74 348q24 8 65 8q20 0 35 -2t21 -4l5 -2l-75 -354q-15 -72 65 -72q61 0 97 49l81 377q24 8 65 8q20 0 35 -2t21 -4l5 -2l-108 -510q-21 -8 -65 -8q-17 0 -30 2t-18 4l-5 2l3 42
q-54 -60 -142 -60q-83 0 -114.5 51t-14.5 129z" />
    <glyph glyph-name="udieresis" unicode="&#xfc;" 
d="M216 706q19 7 56 7q16 0 29 -1.5t18 -3.5l5 -2l-21 -97q-20 -7 -55 -7q-16 0 -29.5 2t-18.5 4l-5 1zM397 706q19 7 56 7q16 0 29 -1.5t18 -3.5l5 -2l-21 -97q-20 -7 -55 -7q-16 0 -29.5 2t-18.5 4l-5 1zM33 170l74 348q24 8 65 8q20 0 35 -2t21 -4l5 -2l-75 -354
q-15 -72 65 -72q61 0 97 49l81 377q24 8 65 8q20 0 35 -2t21 -4l5 -2l-108 -510q-21 -8 -65 -8q-17 0 -30 2t-18 4l-5 2l3 42q-54 -60 -142 -60q-83 0 -114.5 51t-14.5 129z" />
    <glyph glyph-name="yacute" unicode="&#xfd;" 
d="M482 732l-153 -130q-46 8 -62 38l115 137q30 4 60.5 -10t39.5 -35zM402 518q24 8 65 8q20 0 35 -2t20 -4l6 -2l-106 -497q-30 -144 -101.5 -207.5t-193.5 -63.5q-50 0 -89 10t-53 20l-14 11q15 54 52 82q43 -23 107 -23q65 0 105 34t61 137l3 12q-56 -43 -133 -43
q-82 0 -116 49t-17 125l75 354q24 8 65 8q20 0 35 -2t20 -4l6 -2l-75 -354q-15 -72 65 -72q50 0 95 37z" />
    <glyph glyph-name="thorn" unicode="&#xfe;" horiz-adv-x="557" 
d="M159 742q21 8 63 8q19 0 34.5 -2t21.5 -4l7 -2l-55 -258q54 52 141 52q85 0 122 -71t6 -217q-30 -144 -89 -201t-150 -57q-41 0 -75 13.5t-49 38.5l-55 -258q-24 -8 -66 -8q-19 0 -34 2t-21 4l-5 2zM373 263q17 69 10.5 107t-23.5 51t-51 13q-41 0 -71.5 -30t-41.5 -78
l-27 -126q-10 -48 8.5 -78t59.5 -30q51 0 83 35.5t53 135.5z" />
    <glyph glyph-name="ydieresis" unicode="&#xff;" 
d="M321 706l-21 -97q-20 -7 -55 -7q-16 0 -29.5 2t-18.5 4l-5 1l21 97q19 7 56 7q16 0 29 -1.5t18 -3.5zM502 706l-21 -97q-20 -7 -55 -7q-16 0 -29.5 2t-18.5 4l-5 1l21 97q19 7 56 7q16 0 29 -1.5t18 -3.5zM402 518q24 8 65 8q20 0 35 -2t20 -4l6 -2l-106 -497
q-30 -144 -101.5 -207.5t-193.5 -63.5q-50 0 -89 10t-53 20l-14 11q15 54 52 82q43 -23 107 -23q65 0 105 34t61 137l3 12q-56 -43 -133 -43q-82 0 -116 49t-17 125l75 354q24 8 65 8q20 0 35 -2t20 -4l6 -2l-75 -354q-15 -72 65 -72q50 0 95 37z" />
    <glyph glyph-name="Amacron" unicode="&#x100;" horiz-adv-x="664" 
d="M287 857h299q4 -33 -15 -73h-299q-3 37 15 73zM340 711q35 9 80 9q22 0 41 -2t27 -4l8 -3l90 -702q-25 -9 -72 -9q-19 0 -31.5 2t-15.5 4l-3 3l-20 160h-273l-88 -160q-34 -9 -74 -9q-17 0 -31 2t-20 4l-6 3zM396 590h-4q-20 -55 -53 -115l-111 -203h203l-27 203
q-4 28 -6 56.5t-2 43.5v15z" />
    <glyph glyph-name="amacron" unicode="&#x101;" horiz-adv-x="555" 
d="M217 695h276q5 -33 -15 -69h-276q-2 39 15 69zM418 520q15 7 57 7q19 0 34 -2t21 -4l5 -2l-108 -511q-24 -8 -55 -8q-14 0 -27.5 1.5t-20.5 3.5l-6 2l-1 44q-56 -61 -143 -61q-89 0 -127 72.5t-7 219.5q30 143 92.5 198.5t155.5 55.5q80 0 115 -59zM367 321q10 47 -8 80
t-58 33q-52 0 -83.5 -35t-52.5 -134q-17 -69 -11 -107.5t23.5 -52t51.5 -13.5q41 0 71 30t41 78z" />
    <glyph glyph-name="Abreve" unicode="&#x102;" horiz-adv-x="664" 
d="M446 862q31 0 59.5 7t41.5 13l13 7q17 -6 28.5 -21.5t13.5 -34.5q-7 -7 -19.5 -17.5t-56.5 -27.5t-92 -17t-87.5 15.5t-54.5 31.5l-15 15q10 18 28.5 34t38.5 22q33 -27 102 -27zM340 711q35 9 80 9q22 0 41 -2t27 -4l8 -3l90 -702q-25 -9 -72 -9q-19 0 -31.5 2t-15.5 4
l-3 3l-20 160h-273l-88 -160q-34 -9 -74 -9q-17 0 -31 2t-20 4l-6 3zM396 590h-4q-20 -55 -53 -115l-111 -203h203l-27 203q-4 28 -6 56.5t-2 43.5v15z" />
    <glyph glyph-name="abreve" unicode="&#x103;" horiz-adv-x="555" 
d="M367 699q30 0 57.5 7t39.5 14l13 7q17 -6 28 -22t13 -36q-6 -7 -18.5 -18t-54.5 -29t-89 -18q-30 0 -56.5 6.5t-43.5 16t-30 19.5t-18 16l-6 7q10 19 28.5 35.5t36.5 22.5q33 -28 100 -28zM418 520q15 7 57 7q19 0 34 -2t21 -4l5 -2l-108 -511q-24 -8 -55 -8
q-14 0 -27.5 1.5t-20.5 3.5l-6 2l-1 44q-56 -61 -143 -61q-89 0 -127 72.5t-7 219.5q30 143 92.5 198.5t155.5 55.5q80 0 115 -59zM367 321q10 47 -8 80t-58 33q-52 0 -83.5 -35t-52.5 -134q-17 -69 -11 -107.5t23.5 -52t51.5 -13.5q41 0 71 30t41 78z" />
    <glyph glyph-name="Aogonek" unicode="&#x104;" horiz-adv-x="664" 
d="M520 -130l29 5q21 -19 13 -50q-41 -19 -80 -19q-45 0 -72.5 29t-17.5 76q13 56 72 92l-20 166h-273l-88 -160q-34 -9 -74 -9q-17 0 -31 2t-20 4l-6 3l388 702q35 9 80 9q22 0 41 -2t27 -4l8 -3l90 -702q-49 -11 -74.5 -31t-32.5 -55q-6 -26 6 -39.5t35 -13.5zM431 272
l-25 203q-4 28 -5.5 55.5t-1.5 41.5v14h-4q-21 -51 -54 -111l-113 -203h203z" />
    <glyph glyph-name="aogonek" unicode="&#x105;" horiz-adv-x="554" 
d="M368 -124l29 7q16 -15 7 -51q-36 -17 -75 -17q-47 0 -73.5 22t-16.5 68q13 63 81 101l-4 48q-59 -64 -144 -64q-92 0 -127.5 71.5t-4.5 219.5q30 143 92 199t155 56q37 0 68 -16t47 -43l13 42q17 8 59 8q19 0 34 -2t20 -4l6 -2l-108 -511q-87 -32 -101 -92
q-6 -25 6.5 -34t36.5 -6zM340 200l28 130q8 46 -10 75t-58 29q-51 0 -83 -35.5t-53 -135.5q-17 -69 -10.5 -107t23.5 -51t51 -13q41 0 71.5 30t40.5 78z" />
    <glyph glyph-name="Cacute" unicode="&#x106;" horiz-adv-x="561" 
d="M586 890l-152 -130q-48 9 -62 38l115 141q30 4 60 -11.5t39 -37.5zM67 380q39 179 132.5 264.5t243.5 85.5q49 0 90.5 -9t58.5 -17l17 -9q-13 -55 -59 -95q-52 21 -116 21q-88 0 -148 -58.5t-91 -203.5q-14 -78 -13.5 -128t21.5 -79t49.5 -40t70.5 -11q32 0 66 5.5
t52 11.5l18 5q31 -35 17 -98q-74 -35 -190 -35q-146 0 -202 103t-17 287z" />
    <glyph glyph-name="cacute" unicode="&#x107;" horiz-adv-x="442" 
d="M444 707l-145 -126q-46 8 -62 38l115 137q29 4 55.5 -11.5t36.5 -37.5zM313 434q-64 0 -99 -40t-54 -131q-19 -89 1 -128t84 -39q23 0 46 3.5t35 6.5l12 4q13 -14 18 -39.5t0 -50.5q-51 -30 -158 -30q-112 0 -150.5 76t-9.5 214q28 133 94.5 194.5t181.5 61.5
q46 0 78.5 -6.5t42.5 -13.5l10 -6q-13 -59 -51 -89q-31 13 -81 13z" />
    <glyph glyph-name="Ccircumflex" unicode="&#x108;" horiz-adv-x="561" 
d="M496 930l123 -116q-32 -43 -69 -54l-86 63l-111 -62q-33 12 -47 53l164 116h26zM67 380q39 179 132.5 264.5t243.5 85.5q49 0 90.5 -9t58.5 -17l17 -9q-13 -55 -59 -95q-52 21 -116 21q-88 0 -148 -58.5t-91 -203.5q-14 -78 -13.5 -128t21.5 -79t49.5 -40t70.5 -11
q32 0 66 5.5t52 11.5l18 5q31 -35 17 -98q-74 -35 -190 -35q-146 0 -202 103t-17 287z" />
    <glyph glyph-name="ccircumflex" unicode="&#x109;" horiz-adv-x="442" 
d="M358 750l116 -115q-32 -42 -68 -53l-83 61l-109 -60q-32 11 -46 52l165 115h25zM313 434q-64 0 -99 -40t-54 -131q-19 -89 1 -128t84 -39q23 0 46 3.5t35 6.5l12 4q13 -14 18 -39.5t0 -50.5q-51 -30 -158 -30q-112 0 -150.5 76t-9.5 214q28 133 94.5 194.5t181.5 61.5
q46 0 78.5 -6.5t42.5 -13.5l10 -6q-13 -59 -51 -89q-31 13 -81 13z" />
    <glyph glyph-name="Cdotaccent" unicode="&#x10a;" horiz-adv-x="561" 
d="M530 889l-22 -103q-22 -7 -59 -7q-18 0 -31.5 1.5t-18.5 3.5l-5 2l22 103q18 7 58 7q16 0 30 -2t20 -4zM67 380q39 179 132.5 264.5t243.5 85.5q49 0 90.5 -9t58.5 -17l17 -9q-13 -55 -59 -95q-52 21 -116 21q-88 0 -148 -58.5t-91 -203.5q-14 -78 -13.5 -128t21.5 -79
t49.5 -40t70.5 -11q32 0 66 5.5t52 11.5l18 5q31 -35 17 -98q-74 -35 -190 -35q-146 0 -202 103t-17 287z" />
    <glyph glyph-name="cdotaccent" unicode="&#x10b;" horiz-adv-x="442" 
d="M402 712l-22 -103q-21 -7 -58 -7q-18 0 -32 2t-19 4l-5 1l22 103q19 7 59 7q16 0 30 -1.5t19 -3.5zM313 434q-64 0 -99 -40t-54 -131q-19 -89 1 -128t84 -39q23 0 46 3.5t35 6.5l12 4q13 -14 18 -39.5t0 -50.5q-51 -30 -158 -30q-112 0 -150.5 76t-9.5 214
q28 133 94.5 194.5t181.5 61.5q46 0 78.5 -6.5t42.5 -13.5l10 -6q-13 -59 -51 -89q-31 13 -81 13z" />
    <glyph glyph-name="Ccaron" unicode="&#x10c;" horiz-adv-x="561" 
d="M444 759l-125 110q32 43 69 54l86 -63l111 62q33 -12 47 -53l-162 -110h-26zM67 380q39 179 132.5 264.5t243.5 85.5q49 0 90.5 -9t58.5 -17l17 -9q-13 -55 -59 -95q-52 21 -116 21q-88 0 -148 -58.5t-91 -203.5q-14 -78 -13.5 -128t21.5 -79t49.5 -40t70.5 -11
q32 0 66 5.5t52 11.5l18 5q31 -35 17 -98q-74 -35 -190 -35q-146 0 -202 103t-17 287z" />
    <glyph glyph-name="ccaron" unicode="&#x10d;" horiz-adv-x="442" 
d="M308 582l-119 108q29 40 64 50l77 -58l103 57q30 -10 42 -49l-144 -108h-23zM313 434q-64 0 -99 -40t-54 -131q-19 -89 1 -128t84 -39q23 0 46 3.5t35 6.5l12 4q13 -14 18 -39.5t0 -50.5q-51 -30 -158 -30q-112 0 -150.5 76t-9.5 214q28 133 94.5 194.5t181.5 61.5
q46 0 78.5 -6.5t42.5 -13.5l10 -6q-13 -59 -51 -89q-31 13 -81 13z" />
    <glyph glyph-name="Dcaron" unicode="&#x10e;" horiz-adv-x="664" 
d="M386 755l-129 114q32 43 69 54l86 -63l111 62q33 -12 47 -53l-158 -114h-26zM171 720h235q141 0 198 -92.5t16 -281.5q-40 -187 -127.5 -266.5t-230.5 -79.5h-244zM168 106h98q82 0 136.5 53.5t85.5 200.5q13 62 14.5 107.5t-6.5 73.5t-27 44.5t-41.5 22.5t-53.5 6h-98z
" />
    <glyph glyph-name="dcaron" unicode="&#x10f;" horiz-adv-x="572" 
d="M595 605q36 36 51.5 65.5t22.5 75.5q68 13 101 -15q-15 -52 -50.5 -95t-77.5 -61q-35 5 -47 30zM457 742q23 8 65 8q19 0 34 -2t21 -4l6 -2l-156 -734q-24 -8 -55 -8q-14 0 -28 2t-21 4l-7 2l1 43q-56 -61 -150 -61q-88 0 -123 72t-4 219q30 144 88.5 199.5t149.5 55.5
q40 0 73 -18.5t48 -47.5zM369 330q8 46 -10 75t-58 29q-51 0 -83 -35.5t-53 -135.5q-17 -69 -10.5 -107t23.5 -51t51 -13q41 0 71.5 30t40.5 78z" />
    <glyph glyph-name="Dcroat" unicode="&#x110;" horiz-adv-x="685" 
d="M189 720h235q141 0 199.5 -94.5t17.5 -283.5q-39 -185 -132 -263.5t-238 -78.5h-235l67 314h-77q-4 46 18 85h77zM294 614l-45 -215h120q5 -40 -18 -85h-120l-45 -208h98q82 0 136.5 53.5t85.5 200.5q13 62 14.5 107.5t-6.5 73.5t-27 44.5t-41.5 22.5t-53.5 6h-98z" />
    <glyph glyph-name="dcroat" unicode="&#x111;" horiz-adv-x="557" 
d="M570 681h67q2 -14 -3 -37l-13 -37h-67l-127 -599q-24 -8 -55 -8q-14 0 -28 2t-21 4l-7 2l1 43q-56 -61 -150 -61q-88 0 -123 72t-4 219q30 144 88.5 199.5t149.5 55.5q40 0 73 -18.5t48 -47.5l29 137h-107q-2 14 3 37l13 37h107l13 61q23 8 65 8q19 0 34 -2t21 -4l6 -2z
M341 200l28 130q8 46 -10 75t-58 29q-51 0 -83 -35.5t-53 -135.5q-17 -69 -10.5 -107t23.5 -51t51 -13q41 0 71.5 30t40.5 78z" />
    <glyph glyph-name="Emacron" unicode="&#x112;" horiz-adv-x="554" 
d="M538 776h-305q-3 37 15 73h305q4 -33 -15 -73zM171 720h413q4 -22 0 -48q-7 -31 -22 -55h-285l-43 -202h235q5 -24 0 -50q-6 -29 -22 -53h-235l-44 -209h295q4 -30 -1 -50q-7 -31 -21 -53h-423z" />
    <glyph glyph-name="emacron" unicode="&#x113;" horiz-adv-x="509" 
d="M469 621h-269q-2 42 16 74h269q4 -40 -16 -74zM444 224h-289q-9 -75 15 -101.5t81 -26.5q30 0 59.5 6t44.5 12l15 6q30 -35 20 -91q-68 -39 -179 -39q-118 0 -159 80t-13 215q53 251 275 251q88 0 135 -52.5t26 -154.5q-6 -28 -14 -54.5t-13 -38.5zM365 344q17 94 -67 94
q-46 0 -74.5 -29t-48.5 -98h181z" />
    <glyph glyph-name="Ebreve" unicode="&#x114;" horiz-adv-x="554" 
d="M558 833q-3 -3 -8 -7t-22.5 -15t-36.5 -19.5t-48.5 -15.5t-60.5 -7q-48 0 -85.5 16t-50.5 32l-13 16q10 18 28.5 34t38.5 22q33 -27 102 -27q31 0 59.5 7t41.5 13l13 7q17 -6 28.5 -21.5t13.5 -34.5zM171 720h413q4 -22 0 -48q-7 -31 -22 -55h-285l-43 -202h235
q5 -24 0 -50q-6 -29 -22 -53h-235l-44 -209h295q4 -30 -1 -50q-7 -31 -21 -53h-423z" />
    <glyph glyph-name="ebreve" unicode="&#x115;" horiz-adv-x="509" 
d="M497 671q-2 -3 -6.5 -7.5t-20 -16t-33 -20.5t-45 -16t-57.5 -7q-47 0 -85.5 17t-53.5 33l-15 17q10 19 28.5 35.5t36.5 22.5q33 -28 100 -28q30 0 57.5 7t40.5 14l12 7q17 -6 28 -22t13 -36zM444 224h-289q-9 -75 15 -101.5t81 -26.5q30 0 59.5 6t44.5 12l15 6
q30 -35 20 -91q-68 -39 -179 -39q-118 0 -159 80t-13 215q53 251 275 251q88 0 135 -52.5t26 -154.5q-6 -28 -14 -54.5t-13 -38.5zM365 344q17 94 -67 94q-46 0 -74.5 -29t-48.5 -98h181z" />
    <glyph glyph-name="Edotaccent" unicode="&#x116;" horiz-adv-x="554" 
d="M468 879l-22 -103q-22 -7 -59 -7q-18 0 -31.5 1.5t-18.5 3.5l-5 2l22 103q18 7 58 7q16 0 30 -2t20 -4zM171 720h413q4 -22 0 -48q-7 -31 -22 -55h-285l-43 -202h235q5 -24 0 -50q-6 -29 -22 -53h-235l-44 -209h295q4 -30 -1 -50q-7 -31 -21 -53h-423z" />
    <glyph glyph-name="edotaccent" unicode="&#x117;" horiz-adv-x="509" 
d="M405 712l-22 -103q-21 -7 -58 -7q-18 0 -32 2t-19 4l-5 1l22 103q19 7 59 7q16 0 30 -1.5t20 -3.5zM444 224h-289q-9 -75 15 -101.5t81 -26.5q30 0 59.5 6t44.5 12l15 6q30 -35 20 -91q-68 -39 -179 -39q-118 0 -159 80t-13 215q53 251 275 251q88 0 135 -52.5t26 -154.5
q-6 -28 -14 -54.5t-13 -38.5zM365 344q17 94 -67 94q-46 0 -74.5 -29t-48.5 -98h181z" />
    <glyph glyph-name="Eogonek" unicode="&#x118;" horiz-adv-x="554" 
d="M171 720h413q4 -22 0 -48q-7 -31 -22 -55h-285l-43 -202h235q5 -24 0 -50q-6 -29 -22 -53h-235l-44 -209h295q4 -30 -1 -50q-7 -31 -21 -53q-56 -17 -86 -36t-36 -50q-6 -26 6 -39.5t35 -13.5l29 5q17 -15 9 -46q-37 -19 -76 -19q-45 0 -70 27t-15 74q14 67 88 98h-307z
" />
    <glyph glyph-name="eogonek" unicode="&#x119;" horiz-adv-x="509" 
d="M39 285q53 251 275 251q88 0 135 -52.5t26 -154.5q-6 -28 -14 -54.5t-13 -38.5l-4 -12h-289q-9 -75 15 -101.5t81 -26.5q30 0 59.5 6t44.5 12l15 6q30 -35 20 -91q-13 -7 -36 -16q-64 -28 -75 -79q-6 -28 7 -42.5t37 -14.5l31 5q19 -16 9 -49q-40 -20 -82 -20
q-48 0 -74.5 28.5t-15.5 79.5q9 41 45 70l-25 -1q-118 0 -159 80t-13 215zM356 311l9 33q17 94 -67 94q-46 0 -74.5 -29t-48.5 -98h181z" />
    <glyph glyph-name="Ecaron" unicode="&#x11a;" horiz-adv-x="554" 
d="M356 751l-119 118q32 43 69 54l86 -63l111 62q33 -12 47 -53l-168 -118h-26zM171 720h413q4 -22 0 -48q-7 -31 -22 -55h-285l-43 -202h235q5 -24 0 -50q-6 -29 -22 -53h-235l-44 -209h295q4 -30 -1 -50q-7 -31 -21 -53h-423z" />
    <glyph glyph-name="ecaron" unicode="&#x11b;" horiz-adv-x="509" 
d="M303 592l-113 112q31 41 66 51l82 -60l105 59q33 -10 45 -50l-160 -112h-25zM444 224h-289q-9 -75 15 -101.5t81 -26.5q30 0 59.5 6t44.5 12l15 6q30 -35 20 -91q-68 -39 -179 -39q-118 0 -159 80t-13 215q53 251 275 251q88 0 135 -52.5t26 -154.5q-6 -28 -14 -54.5
t-13 -38.5zM365 344q17 94 -67 94q-46 0 -74.5 -29t-48.5 -98h181z" />
    <glyph glyph-name="Gcircumflex" unicode="&#x11c;" horiz-adv-x="632" 
d="M504 927l128 -116q-32 -43 -69 -54l-86 63l-111 -62q-33 12 -47 53l159 116h26zM67 378q76 352 393 352q54 0 99.5 -9t64.5 -17l19 -9q-13 -59 -58 -94q-60 21 -134 21q-96 0 -160.5 -58.5t-95.5 -204.5q-14 -78 -12.5 -128t25 -79t55 -40.5t77.5 -11.5l70 4l43 203h-129
q-6 19 1 51q3 15 8.5 28t8.5 18l4 6h246l-82 -385q-81 -35 -207 -35q-154 0 -214.5 102.5t-21.5 285.5z" />
    <glyph glyph-name="gcircumflex" unicode="&#x11d;" horiz-adv-x="561" 
d="M384 770l116 -115q-32 -42 -68 -53l-83 61l-109 -60q-32 11 -46 52l165 115h25zM311 26l4 16q-55 -52 -137 -52q-199 0 -139 287q30 144 90.5 201.5t152.5 57.5q90 0 121 -62l16 44q18 8 60 8q19 0 34 -2t21 -4l5 -2l-106 -504q-30 -143 -101 -203.5t-194 -60.5
q-50 0 -89 10t-53 20l-14 11q16 57 52 84q43 -21 107 -21q67 0 109 34.5t61 137.5zM169 263q-17 -69 -10.5 -107t23.5 -51t51 -13q40 0 70 28.5t41 74.5l28 131q11 48 -7.5 78t-59.5 30q-51 0 -83 -35.5t-53 -135.5z" />
    <glyph glyph-name="Gbreve" unicode="&#x11e;" horiz-adv-x="632" 
d="M642 838q-2 -3 -7 -7t-21 -15t-34 -19.5t-46.5 -15.5t-59.5 -7q-48 0 -86.5 16t-52.5 32l-14 16q10 18 28.5 34t38.5 22q33 -27 102 -27q31 0 58.5 6.5t39.5 13.5l12 7q17 -6 28.5 -21.5t13.5 -34.5zM67 378q76 352 393 352q54 0 99.5 -9t64.5 -17l19 -9q-13 -59 -58 -94
q-60 21 -134 21q-96 0 -160.5 -58.5t-95.5 -204.5q-14 -78 -12.5 -128t25 -79t55 -40.5t77.5 -11.5l70 4l43 203h-129q-6 19 1 51q3 15 8.5 28t8.5 18l4 6h246l-82 -385q-81 -35 -207 -35q-154 0 -214.5 102.5t-21.5 285.5z" />
    <glyph glyph-name="gbreve" unicode="&#x11f;" horiz-adv-x="561" 
d="M501 669q-6 -7 -18.5 -18t-54.5 -29t-89 -18q-30 0 -56.5 6.5t-43.5 16t-30 19.5t-19 16l-5 7q10 19 28.5 35.5t36.5 22.5q33 -28 100 -28q30 0 57.5 7t40.5 14l12 7q17 -6 28 -22t13 -36zM311 26l4 16q-55 -52 -137 -52q-199 0 -139 287q30 144 90.5 201.5t152.5 57.5
q90 0 121 -62l16 44q18 8 60 8q19 0 34 -2t21 -4l5 -2l-106 -504q-30 -143 -101 -203.5t-194 -60.5q-50 0 -89 10t-53 20l-14 11q16 57 52 84q43 -21 107 -21q67 0 109 34.5t61 137.5zM169 263q-17 -69 -10.5 -107t23.5 -51t51 -13q40 0 70 28.5t41 74.5l28 131
q11 48 -7.5 78t-59.5 30q-51 0 -83 -35.5t-53 -135.5z" />
    <glyph glyph-name="Gdotaccent" unicode="&#x120;" horiz-adv-x="632" 
d="M551 879l-22 -103q-22 -7 -59 -7q-18 0 -31.5 1.5t-18.5 3.5l-5 2l22 103q18 7 58 7q16 0 30 -2t20 -4zM67 378q76 352 393 352q54 0 99.5 -9t64.5 -17l19 -9q-13 -59 -58 -94q-60 21 -134 21q-96 0 -160.5 -58.5t-95.5 -204.5q-14 -78 -12.5 -128t25 -79t55 -40.5
t77.5 -11.5l70 4l43 203h-129q-6 19 1 51q3 15 8.5 28t8.5 18l4 6h246l-82 -385q-81 -35 -207 -35q-154 0 -214.5 102.5t-21.5 285.5z" />
    <glyph glyph-name="gdotaccent" unicode="&#x121;" horiz-adv-x="561" 
d="M423 712l-22 -103q-21 -7 -58 -7q-18 0 -32 2t-19 4l-5 1l22 103q19 7 59 7q16 0 30 -1.5t20 -3.5zM311 26l4 16q-55 -52 -137 -52q-199 0 -139 287q30 144 90.5 201.5t152.5 57.5q90 0 121 -62l16 44q18 8 60 8q19 0 34 -2t21 -4l5 -2l-106 -504q-30 -143 -101 -203.5
t-194 -60.5q-50 0 -89 10t-53 20l-14 11q16 57 52 84q43 -21 107 -21q67 0 109 34.5t61 137.5zM169 263q-17 -69 -10.5 -107t23.5 -51t51 -13q40 0 70 28.5t41 74.5l28 131q11 48 -7.5 78t-59.5 30q-51 0 -83 -35.5t-53 -135.5z" />
    <glyph glyph-name="Gcommaaccent" unicode="&#x122;" horiz-adv-x="632" 
d="M226 -292l-41 28q43 35 61 100l-39 7l23 108q24 8 68 8q20 0 36.5 -2t23.5 -4l6 -2l-15 -70q-7 -32 -22 -62t-32 -49t-33 -34t-26 -22zM67 378q76 352 393 352q54 0 99.5 -9t64.5 -17l19 -9q-13 -59 -58 -94q-60 21 -134 21q-96 0 -160.5 -58.5t-95.5 -204.5
q-14 -78 -12.5 -128t25 -79t55 -40.5t77.5 -11.5l70 4l43 203h-129q-6 19 1 51q3 15 8.5 28t8.5 18l4 6h246l-82 -385q-81 -35 -207 -35q-154 0 -214.5 102.5t-21.5 285.5z" />
    <glyph glyph-name="gcommaaccent" unicode="&#x123;" horiz-adv-x="561" 
d="M408 836l38 -26q-40 -33 -57 -92l37 -7l-21 -99q-23 -7 -63 -7q-18 0 -33.5 1.5t-22.5 3.5l-6 2l14 65q10 47 38.5 86.5t51.5 56.5zM311 26l4 16q-55 -52 -137 -52q-199 0 -139 287q30 144 90.5 201.5t152.5 57.5q90 0 121 -62l16 44q18 8 60 8q19 0 34 -2t21 -4l5 -2
l-106 -504q-30 -143 -101 -203.5t-194 -60.5q-50 0 -89 10t-53 20l-14 11q16 57 52 84q43 -21 107 -21q67 0 109 34.5t61 137.5zM169 263q-17 -69 -10.5 -107t23.5 -51t51 -13q40 0 70 28.5t41 74.5l28 131q11 48 -7.5 78t-59.5 30q-51 0 -83 -35.5t-53 -135.5z" />
    <glyph glyph-name="Hcircumflex" unicode="&#x124;" horiz-adv-x="684" 
d="M492 923l119 -118q-32 -43 -69 -54l-86 63l-111 -62q-33 12 -47 53l168 118h26zM499 424l61 287q24 9 66 9q19 0 34.5 -2t21.5 -4l6 -3l-149 -702q-23 -9 -65 -9q-21 0 -36.5 2t-21.5 4l-5 3l65 305h-264l-65 -305q-25 -9 -66 -9q-20 0 -35.5 2t-21.5 4l-5 3l149 702
q23 9 65 9q19 0 35 -2t22 -4l6 -3l-61 -287h264z" />
    <glyph glyph-name="hcircumflex" unicode="&#x125;" 
d="M266 932l114 -114q-32 -41 -67 -52l-82 61l-107 -60q-30 9 -45 51l162 114h25zM498 361l-75 -353q-24 -8 -65 -8q-20 0 -35 2t-21 4l-5 2l75 354q15 72 -65 72q-49 0 -96 -37l-82 -389q-24 -8 -65 -8q-20 0 -35 2t-21 4l-5 2l156 734q20 8 64 8q18 0 33.5 -2t21.5 -4
l7 -2l-54 -254q61 48 137 48q77 0 112 -48t18 -127z" />
    <glyph glyph-name="Hbar" unicode="&#x126;" horiz-adv-x="712" 
d="M678 611h75q5 -35 -16 -75h-75l-112 -527q-23 -9 -65 -9q-21 0 -36.5 2t-20.5 4l-6 3l65 305h-264l-65 -305q-25 -9 -66 -9q-20 0 -35.5 2t-20.5 4l-6 3l112 527h-65q-3 40 16 75h65l21 100q23 9 65 9q19 0 35 -2t22 -4l6 -3l-21 -100h264l21 100q24 9 66 9q19 0 34.5 -2
t21.5 -4l6 -3zM270 536l-24 -112h264l24 112h-264z" />
    <glyph glyph-name="hbar" unicode="&#x127;" 
d="M231 488q61 48 137 48q77 0 112 -48t18 -127l-75 -353q-24 -8 -65 -8q-20 0 -35 2t-21 4l-5 2l75 354q15 72 -65 72q-49 0 -96 -37l-82 -389q-24 -8 -65 -8q-20 0 -35 2t-21 4l-5 2l127 598h-67q-4 40 16 75h67l13 61q20 8 64 8q18 0 33.5 -2t21.5 -4l7 -2l-13 -61h137
q3 -34 -16 -75h-137z" />
    <glyph glyph-name="Itilde" unicode="&#x128;" horiz-adv-x="292" 
d="M313 835q14 0 27 6.5t20 12.5l6 6q15 -7 23.5 -22.5t7.5 -32.5q-4 -6 -11.5 -14t-33 -22t-53.5 -14q-32 0 -64.5 15.5t-50.5 15.5q-14 0 -27 -6t-19 -12l-6 -7q-34 21 -31 55q4 6 11.5 14t32.5 22t53 14q32 0 64.5 -15.5t50.5 -15.5zM19 9l149 702q23 9 65 9q19 0 35 -2
t22 -4l6 -3l-149 -702q-25 -9 -66 -9q-20 0 -35.5 2t-21.5 4z" />
    <glyph glyph-name="itilde" unicode="&#x129;" horiz-adv-x="260" 
d="M258 680q12 0 23.5 6t16.5 12l6 7q26 -17 23 -54q-3 -5 -9.5 -13.5t-27.5 -22t-44 -13.5q-26 0 -53.5 15t-42.5 15q-12 0 -23 -6t-16 -12l-5 -6q-27 19 -24 54q3 5 9.5 13.5t27.5 22t44 13.5q26 0 53 -15.5t42 -15.5zM238 518l-108 -510q-24 -8 -65 -8q-20 0 -35 2t-20 4
l-6 2l108 510q21 8 65 8q18 0 33.5 -2t21.5 -4z" />
    <glyph glyph-name="Imacron" unicode="&#x12a;" horiz-adv-x="292" 
d="M383 761h-295q-3 40 15 73h295q3 -32 -15 -73zM19 9l149 702q23 9 65 9q19 0 35 -2t22 -4l6 -3l-149 -702q-25 -9 -66 -9q-20 0 -35.5 2t-21.5 4z" />
    <glyph glyph-name="imacron" unicode="&#x12b;" horiz-adv-x="260" 
d="M300 629h-200q0 38 14 69h200q1 -31 -14 -69zM238 518l-108 -510q-24 -8 -65 -8q-20 0 -35 2t-20 4l-6 2l108 510q21 8 65 8q18 0 33.5 -2t21.5 -4z" />
    <glyph glyph-name="Ibreve" unicode="&#x12c;" horiz-adv-x="292" 
d="M418 833q-3 -3 -8 -7t-22.5 -15t-36.5 -19.5t-48.5 -15.5t-60.5 -7q-48 0 -85.5 16t-50.5 32l-13 16q10 18 28.5 34t38.5 22q33 -27 102 -27q31 0 59.5 7t41.5 13l13 7q17 -6 28.5 -21.5t13.5 -34.5zM19 9l149 702q23 9 65 9q19 0 35 -2t22 -4l6 -3l-149 -702
q-25 -9 -66 -9q-20 0 -35.5 2t-21.5 4z" />
    <glyph glyph-name="ibreve" unicode="&#x12d;" horiz-adv-x="260" 
d="M364 669q-3 -3 -8 -7.5t-22 -16t-35.5 -20.5t-47.5 -16t-59 -7q-47 0 -83 17t-49 33l-12 17q10 19 28.5 35.5t36.5 22.5q33 -28 100 -28q30 0 57.5 7t39.5 14l13 7q17 -6 28 -22t13 -36zM238 518l-108 -510q-24 -8 -65 -8q-20 0 -35 2t-20 4l-6 2l108 510q21 8 65 8
q18 0 33.5 -2t21.5 -4z" />
    <glyph glyph-name="Iogonek" unicode="&#x12e;" horiz-adv-x="292" 
d="M147 9l-7 -2q-91 -26 -105 -94q-6 -26 7 -34.5t42 -8.5l29 5q17 -16 9 -48q-37 -18 -76 -18q-51 0 -77 22.5t-16 69.5q14 62 72 105l-6 3l149 702q23 9 65 9q19 0 35 -2t22 -4l6 -3z" />
    <glyph glyph-name="iogonek" unicode="&#x12f;" horiz-adv-x="261" 
d="M159 729q21 8 65 8q18 0 33.5 -2t21.5 -4l6 -2l-25 -115q-23 -8 -64 -8q-20 0 -35.5 2t-20.5 4l-6 2zM114 518q21 8 65 8q18 0 33.5 -2t21.5 -4l6 -2l-108 -510q-100 -30 -114 -98q-5 -23 7.5 -31.5t37.5 -8.5l29 5q17 -16 7 -55q-37 -19 -76 -19q-47 0 -78.5 25.5
t-21.5 71.5q14 63 81 102z" />
    <glyph glyph-name="Idotaccent" unicode="&#x130;" horiz-adv-x="292" 
d="M204 881q20 8 64 8q18 0 33.5 -2t22.5 -4l6 -2l-25 -115q-23 -8 -64 -8q-20 0 -35.5 2t-21.5 4l-5 2zM168 711q23 9 65 9q19 0 35 -2t22 -4l6 -3l-149 -702q-25 -9 -66 -9q-20 0 -35.5 2t-21.5 4l-5 3z" />
    <glyph glyph-name="dotlessi" unicode="&#x131;" horiz-adv-x="260" 
d="M238 518l-108 -510q-24 -8 -65 -8q-20 0 -35 2t-20 4l-6 2l108 510q21 8 65 8q18 0 33.5 -2t21.5 -4z" />
    <glyph glyph-name="IJ" unicode="&#x132;" horiz-adv-x="723" 
d="M19 9l149 702q23 9 65 9q19 0 35 -2t22 -4l6 -3l-149 -702q-25 -9 -66 -9q-20 0 -35.5 2t-21.5 4zM495 201l108 510q20 9 66 9q19 0 34.5 -2t21.5 -4l6 -3l-108 -510q-22 -104 -91 -157.5t-163 -53.5q-36 0 -72.5 7.5t-54.5 14.5l-18 8q11 59 55 96q37 -15 83 -15
q111 0 133 100z" />
    <glyph glyph-name="ij" unicode="&#x133;" horiz-adv-x="528" 
d="M133 614l25 115q21 8 65 8q18 0 33.5 -2t21.5 -4l6 -2l-25 -115q-23 -8 -64 -8q-20 0 -35.5 2t-21.5 4zM487 737h2q18 0 33.5 -2t21.5 -4l6 -2l-25 -115q-23 -8 -64 -8h-2h-1q-20 0 -35.5 2t-20.5 4l-6 2l25 115q21 8 65 8h1zM5 8l108 510q21 8 65 8q18 0 33.5 -2
t21.5 -4l6 -2l-108 -510q-24 -8 -65 -8q-20 0 -35 2t-21 4zM249 -92l130 610q21 8 65 8q18 0 33.5 -2t21.5 -4l6 -2l-129 -606q-35 -162 -185 -162q-19 0 -36 2t-25 4l-8 3q-2 13 2 29q4 20 11 36t11 22l5 7q15 -4 32 -4q54 0 66 59z" />
    <glyph glyph-name="Jcircumflex" unicode="&#x134;" horiz-adv-x="453" 
d="M455 923l119 -118q-32 -43 -69 -54l-86 63l-111 -62q-33 12 -47 53l168 118h26zM226 201l108 510q20 9 66 9q19 0 34.5 -2t21.5 -4l6 -3l-107 -506q-22 -105 -92 -160t-163 -55q-36 0 -72.5 7.5t-54.5 14.5l-18 8q11 59 55 96q37 -15 83 -15q111 0 133 100z" />
    <glyph glyph-name="jcircumflex" unicode="&#x135;" horiz-adv-x="262" 
d="M221 750l124 -114q-31 -42 -68 -53l-84 62l-109 -61q-32 11 -46 52l157 114h26zM-17 -92l130 610q21 8 65 8q18 0 33.5 -2t21.5 -4l6 -2l-129 -606q-35 -162 -185 -162q-19 0 -36 2t-25 4l-8 3q-2 13 2 29q4 20 11 36t11 22l5 7q15 -4 32 -4q54 0 66 59z" />
    <glyph glyph-name="Kcommaaccent" unicode="&#x136;" horiz-adv-x="617" 
d="M199 -301l-36 29q41 37 60 105q-12 1 -21.5 3t-13.5 4l-3 1l25 113q22 7 63 7q18 0 33 -1.5t21 -3.5l6 -2l-15 -74q-12 -54 -41.5 -99t-53.5 -63zM279 425l252 286q34 9 73 9q32 0 66 -9l-292 -334l174 -368q-22 -9 -72 -9q-20 0 -37 2t-24 4l-7 3l-146 314h-52l-67 -314
q-20 -9 -66 -9q-18 0 -33.5 2t-21.5 4l-7 3l149 702q24 9 67 9q19 0 34 -2t21 -4l6 -3l-61 -286h44z" />
    <glyph glyph-name="kcommaaccent" unicode="&#x137;" horiz-adv-x="505" 
d="M132 -304l-35 29q40 37 59 104q-12 1 -21 3t-13 4l-3 1l24 111q22 8 62 8q18 0 33 -2t21 -4l6 -2l-15 -72q-11 -53 -40.5 -98t-53.5 -64zM229 321l156 197q36 8 73 8q15 0 30 -2t22 -4l7 -2l-195 -247l115 -263q-35 -9 -76 -9q-17 0 -31.5 2.5t-20.5 4.5l-6 2l-88 220
h-40l-46 -220q-27 -8 -64 -8q-17 0 -32.5 2t-22.5 4l-7 2l156 736q27 6 65 6l61 -6l-90 -423h34z" />
    <glyph glyph-name="kgreenlandic" unicode="&#x138;" horiz-adv-x="516" 
d="M534 518l-214 -207l129 -297q-19 -14 -68 -14q-20 0 -36.5 2.5t-22.5 5.5l-6 2l-86 213l-70 -67l-31 -147q-30 -9 -64 -9q-37 0 -62 9l108 511q30 6 67 6q35 0 59 -6l-40 -190l191 190q33 6 80 6q37 0 66 -8z" />
    <glyph glyph-name="Lacute" unicode="&#x139;" horiz-adv-x="522" 
d="M388 881l-152 -130q-48 9 -62 38l115 137q30 4 60 -10t39 -35zM18 0l151 711q23 9 65 9q19 0 35 -2t22 -4l6 -3l-128 -601h287q6 -23 -1 -55q-5 -25 -22 -55h-415z" />
    <glyph glyph-name="lacute" unicode="&#x13a;" horiz-adv-x="264" 
d="M377 902l-153 -130q-46 8 -62 38l115 137q30 4 60.5 -10t39.5 -35zM288 742l-156 -734q-24 -8 -65 -8q-20 0 -35 2t-20 4l-6 2l156 734q20 8 64 8q18 0 33.5 -2t22.5 -4z" />
    <glyph glyph-name="Lcommaaccent" unicode="&#x13b;" horiz-adv-x="522" 
d="M18 0l151 711q23 9 65 9q19 0 35 -2t22 -4l6 -3l-128 -601h287q6 -23 -1 -55q-5 -25 -22 -55h-415zM148 -308l-37 30q42 38 61 107q-12 1 -21.5 3t-12.5 4l-4 1l25 115q23 8 64 8q18 0 33.5 -2t21.5 -4l7 -2l-16 -75q-12 -55 -42 -101t-55 -65z" />
    <glyph glyph-name="lcommaaccent" unicode="&#x13c;" horiz-adv-x="264" 
d="M288 742l-156 -734q-24 -8 -65 -8q-20 0 -35 2t-20 4l-6 2l156 734q20 8 64 8q18 0 33.5 -2t22.5 -4zM-16 -308l-37 30q42 38 61 107q-12 1 -21.5 3t-12.5 4l-4 1l25 115q23 8 64 8q18 0 33.5 -2t21.5 -4l7 -2l-16 -75q-12 -55 -42 -101t-55 -65z" />
    <glyph glyph-name="Lcaron" unicode="&#x13d;" horiz-adv-x="522" 
d="M391 565q-36 3 -48 29q34 38 49 69t19 77q68 14 101 -12q-15 -54 -48 -99t-73 -64zM18 0l151 711q23 9 65 9q19 0 35 -2t22 -4l6 -3l-128 -601h287q6 -23 -1 -55q-5 -25 -22 -55h-415z" />
    <glyph glyph-name="lcaron" unicode="&#x13e;" horiz-adv-x="277" 
d="M346 575q-35 5 -47 30q36 36 51.5 65.5t22.5 75.5q68 13 101 -15q-15 -52 -50.5 -95t-77.5 -61zM288 742l-156 -734q-24 -8 -65 -8q-20 0 -35 2t-20 4l-6 2l156 734q20 8 64 8q18 0 33.5 -2t22.5 -4z" />
    <glyph glyph-name="Ldot" unicode="&#x13f;" horiz-adv-x="528" 
d="M18 0l151 711q23 9 65 9q19 0 35 -2t22 -4l6 -3l-128 -601h287q6 -23 -1 -55q-5 -25 -22 -55h-415zM441 383l-20 -97q-21 -8 -56 -8q-17 0 -30 2t-17 4l-5 2l20 97q18 8 56 8q16 0 29 -2t18 -4z" />
    <glyph glyph-name="ldot" unicode="&#x140;" horiz-adv-x="388" 
d="M288 742l-156 -734q-24 -8 -65 -8q-20 0 -35 2t-20 4l-6 2l156 734q20 8 64 8q18 0 33.5 -2t22.5 -4zM397 383l-20 -97q-21 -8 -56 -8q-17 0 -30 2t-17 4l-5 2l20 97q18 8 56 8q16 0 29 -2t18 -4z" />
    <glyph glyph-name="Lslash" unicode="&#x141;" horiz-adv-x="548" 
d="M195 711q23 9 65 9q19 0 35 -2t22 -4l6 -3l-53 -251l112 58q23 -31 24 -66l-155 -80l-56 -262h287q6 -23 -1 -55q-5 -25 -22 -55h-415l63 298l-66 -34q-19 24 -24 65l109 57z" />
    <glyph glyph-name="lslash" unicode="&#x142;" horiz-adv-x="343" 
d="M200 742q20 8 64 8q18 0 33.5 -2t22.5 -4l6 -2l-55 -259l67 35q8 -8 17 -29q4 -11 5.5 -20t1.5 -13v-4l-110 -57l-82 -387q-24 -8 -65 -8q-20 0 -35 2t-20 4l-6 2l66 314l-65 -33q-8 8 -16 29q-4 11 -6 20t-2 12v4l108 55z" />
    <glyph glyph-name="Nacute" unicode="&#x143;" horiz-adv-x="704" 
d="M603 881l-152 -130q-48 9 -62 38l115 137q30 4 60 -10t39 -35zM406 9l-120 402q-9 32 -18 68.5t-14 57.5l-4 21h-4q-9 -79 -31 -183l-78 -366q-21 -9 -62 -9q-18 0 -32 2t-19 4l-5 3l149 702q29 9 79 9q23 0 41.5 -2t25.5 -4l7 -3l117 -400l39 -150h4q10 84 32 186
l77 364q20 9 62 9q19 0 33 -2t19 -4l4 -3l-149 -702q-26 -9 -77 -9q-22 0 -41 2t-27 4z" />
    <glyph glyph-name="nacute" unicode="&#x144;" 
d="M468 712l-153 -130q-46 8 -62 38l115 137q30 4 60.5 -10t39.5 -35zM498 359l-75 -351q-24 -8 -65 -8q-20 0 -35 2t-21 4l-5 2l75 354q15 72 -65 72q-44 0 -97 -44l-81 -382q-24 -8 -65 -8q-20 0 -35 2t-21 4l-5 2l108 510q18 8 62 8q18 0 32 -2t19 -4l5 -2l-1 -38
q65 56 142 56t111 -46.5t17 -130.5z" />
    <glyph glyph-name="Ncommaaccent" unicode="&#x145;" horiz-adv-x="704" 
d="M406 9l-120 402q-9 32 -18 68.5t-14 57.5l-4 21h-4q-9 -79 -31 -183l-78 -366q-21 -9 -62 -9q-18 0 -32 2t-19 4l-5 3l149 702q29 9 79 9q23 0 41.5 -2t25.5 -4l7 -3l117 -400l39 -150h4q10 84 32 186l77 364q20 9 62 9q19 0 33 -2t19 -4l4 -3l-149 -702q-26 -9 -77 -9
q-22 0 -41 2t-27 4zM213 -308l-37 30q42 38 61 107q-12 1 -21.5 3t-13.5 4l-3 1l25 115q23 8 64 8q18 0 33.5 -2t22.5 -4l6 -2l-16 -75q-12 -55 -42 -101t-54 -65z" />
    <glyph glyph-name="ncommaaccent" unicode="&#x146;" 
d="M132 -300l-37 30q42 38 60 107q-12 1 -21 3t-12 4l-4 1l24 115q24 8 65 8q18 0 33.5 -2t21.5 -4l6 -2l-15 -75q-12 -55 -42.5 -101t-54.5 -65zM498 359l-75 -351q-24 -8 -65 -8q-20 0 -35 2t-21 4l-5 2l75 354q15 72 -65 72q-44 0 -97 -44l-81 -382q-24 -8 -65 -8
q-20 0 -35 2t-21 4l-5 2l108 510q18 8 62 8q18 0 32 -2t19 -4l5 -2l-1 -38q65 56 142 56t111 -46.5t17 -130.5z" />
    <glyph glyph-name="Ncaron" unicode="&#x147;" horiz-adv-x="704" 
d="M431 748l-129 119q32 43 69 54l86 -63l111 62q33 -12 47 -53l-158 -119h-26zM406 9l-119 402l-37 147h-4q-9 -79 -31 -183l-78 -366q-21 -9 -62 -9q-18 0 -32 2t-19 4l-5 3l149 702q29 9 79 9q23 0 41.5 -2t25.5 -4l7 -3l118 -400q10 -32 19.5 -69.5t13.5 -59.5l5 -21h4
q10 84 32 186l77 364q20 9 62 9q19 0 33 -2t19 -4l4 -3l-149 -702q-26 -9 -77 -9q-22 0 -41 2t-27 4z" />
    <glyph glyph-name="ncaron" unicode="&#x148;" 
d="M346 693l103 57q30 -10 42 -49l-144 -107h-23l-119 107q29 40 64 50zM498 359l-75 -351q-24 -8 -65 -8q-20 0 -35 2t-21 4l-5 2l75 354q15 72 -65 72q-44 0 -97 -44l-81 -382q-24 -8 -65 -8q-20 0 -35 2t-21 4l-5 2l108 510q18 8 62 8q18 0 32 -2t19 -4l5 -2l-1 -38
q65 56 142 56t111 -46.5t17 -130.5z" />
    <glyph glyph-name="napostrophe" unicode="&#x149;" 
d="M179 578q-35 8 -44 35q39 33 58 61.5t30 74.5q69 5 98 -26q-22 -52 -61 -92t-81 -53zM498 359l-75 -351q-24 -8 -65 -8q-20 0 -35 2t-21 4l-5 2l75 354q15 72 -65 72q-44 0 -97 -44l-81 -382q-24 -8 -65 -8q-20 0 -35 2t-21 4l-5 2l108 510q18 8 62 8q18 0 32 -2t19 -4
l5 -2l-1 -38q65 56 142 56t111 -46.5t17 -130.5z" />
    <glyph glyph-name="Eng" unicode="&#x14a;" horiz-adv-x="705" 
d="M591 711q20 9 62 9q19 0 33 -2t18 -4l5 -3l-159 -749q-17 -79 -59 -123.5t-116 -66.5q-37 31 -22 91q29 11 45 33t26 66l9 41l-26 6l-120 402q-9 32 -18 68.5t-13 57.5l-5 21h-4q-9 -79 -31 -183l-78 -366q-21 -9 -62 -9q-18 0 -32 2t-19 4l-5 3l149 702q29 9 79 9
q23 0 41.5 -2t25.5 -4l7 -3l118 -400q10 -32 19.5 -69.5t14.5 -59.5l4 -21h4q10 84 32 186z" />
    <glyph glyph-name="eng" unicode="&#x14b;" 
d="M229 478q74 58 145 58q77 0 109 -47t15 -129l-85 -398q-17 -79 -59 -123.5t-116 -66.5q-37 31 -22 91q29 11 45 33t26 66l85 400q15 72 -65 72q-44 0 -97 -42l-81 -384q-24 -8 -65 -8q-20 0 -35 2t-21 4l-5 2l108 510q21 8 65 8q18 0 32.5 -2t19.5 -4l6 -2z" />
    <glyph glyph-name="Omacron" unicode="&#x14c;" horiz-adv-x="678" 
d="M314 862h285q3 -32 -15 -73h-285q-3 40 15 73zM68 378q40 185 129.5 268.5t227.5 83.5q136 0 193.5 -97.5t16.5 -286.5q-40 -188 -128.5 -272t-227.5 -84q-137 0 -194 99t-17 289zM505 360q17 78 18 130.5t-14 81.5t-39.5 40.5t-61.5 11.5q-76 0 -127.5 -57.5
t-83.5 -206.5q-24 -104 -14.5 -162.5t36.5 -80t76 -21.5q77 0 128 57.5t82 206.5z" />
    <glyph glyph-name="omacron" unicode="&#x14d;" horiz-adv-x="544" 
d="M213 693h260q4 -31 -15 -71h-260q0 38 15 71zM38 278q30 142 97 200t179 58q110 0 157.5 -73t16.5 -217q-30 -142 -96 -199t-178 -57q-110 0 -158 72t-18 216zM363 263q17 70 10 109t-24.5 53.5t-48.5 14.5q-50 0 -83.5 -38.5t-54.5 -138.5q-17 -70 -10 -109t24.5 -53.5
t48.5 -14.5q49 0 83 38.5t55 138.5z" />
    <glyph glyph-name="Obreve" unicode="&#x14e;" horiz-adv-x="678" 
d="M457 871q31 0 59.5 6.5t41.5 13.5l13 7q17 -6 28.5 -21.5t13.5 -34.5q-7 -7 -19.5 -17.5t-56.5 -27.5t-92 -17t-87.5 15.5t-54.5 30.5l-15 16q10 18 28.5 34t38.5 22q33 -27 102 -27zM67 378q40 185 129.5 268.5t227.5 83.5q136 0 193.5 -97.5t16.5 -286.5
q-40 -188 -128.5 -272t-227.5 -84q-137 0 -194 99t-17 289zM504 360q17 78 18 130.5t-14 81.5t-39.5 40.5t-61.5 11.5q-76 0 -127.5 -57.5t-83.5 -206.5q-24 -104 -14.5 -162.5t36.5 -80t76 -21.5q77 0 128 57.5t82 206.5z" />
    <glyph glyph-name="obreve" unicode="&#x14f;" horiz-adv-x="544" 
d="M345 699q30 0 57.5 7t39.5 14l13 7q17 -6 28 -22t13 -36q-2 -3 -6.5 -7.5t-20 -16t-33 -20.5t-45 -16t-57.5 -7q-47 0 -85.5 17t-53.5 33l-15 17q10 19 28.5 35.5t36.5 22.5q33 -28 100 -28zM38 278q30 142 97 200t179 58q110 0 157.5 -73t16.5 -217q-30 -142 -96 -199
t-178 -57q-110 0 -158 72t-18 216zM363 263q17 70 10 109t-24.5 53.5t-48.5 14.5q-50 0 -83.5 -38.5t-54.5 -138.5q-17 -70 -10 -109t24.5 -53.5t48.5 -14.5q49 0 83 38.5t55 138.5z" />
    <glyph glyph-name="Ohungarumlaut" unicode="&#x150;" horiz-adv-x="678" 
d="M291 787l110 131q29 4 58 -9.5t38 -33.5l-146 -124q-46 9 -60 36zM464 787l110 131q29 4 58 -9.5t37 -33.5l-145 -124q-46 9 -60 36zM67 378q40 185 129.5 268.5t227.5 83.5q136 0 193.5 -97.5t16.5 -286.5q-40 -188 -128.5 -272t-227.5 -84q-137 0 -194 99t-17 289z
M504 360q17 78 18 130.5t-14 81.5t-39.5 40.5t-61.5 11.5q-76 0 -127.5 -57.5t-83.5 -206.5q-24 -104 -14.5 -162.5t36.5 -80t76 -21.5q77 0 128 57.5t82 206.5z" />
    <glyph glyph-name="ohungarumlaut" unicode="&#x151;" horiz-adv-x="544" 
d="M202 610l86 127q27 7 56 -0.5t40 -23.5l-122 -126q-44 0 -60 23zM358 610l86 127q27 7 56 -0.5t40 -23.5l-122 -126q-44 0 -60 23zM38 278q30 142 97 200t179 58q110 0 157.5 -73t16.5 -217q-30 -142 -96 -199t-178 -57q-110 0 -158 72t-18 216zM363 263q17 70 10 109
t-24.5 53.5t-48.5 14.5q-50 0 -83.5 -38.5t-54.5 -138.5q-17 -70 -10 -109t24.5 -53.5t48.5 -14.5q49 0 83 38.5t55 138.5z" />
    <glyph glyph-name="OE" unicode="&#x152;" horiz-adv-x="876" 
d="M68 375q41 188 133 271.5t234 83.5q49 0 86 -10h386q5 -25 -1 -51q-6 -29 -21 -52h-255l-43 -202h205q5 -25 -1 -51q-4 -25 -21 -52h-205l-44 -209h265q4 -31 -1 -52q-5 -23 -21 -51h-397q-47 -10 -89 -10q-139 0 -194.5 98t-15.5 287zM510 604q-41 20 -97 20
q-78 0 -131.5 -57.5t-85.5 -206.5q-15 -80 -16.5 -131t16 -80.5t42 -41t62.5 -11.5q59 0 107 20z" />
    <glyph glyph-name="oe" unicode="&#x153;" horiz-adv-x="804" 
d="M738 224h-281q-10 -75 10.5 -104.5t74.5 -29.5q30 0 60.5 6t45.5 12l16 5q23 -26 18 -82q-7 -5 -21 -11.5t-60.5 -18t-97.5 -11.5q-95 0 -132 73q-69 -73 -166 -73q-109 0 -154 72t-13 217q31 138 96 197.5t174 59.5q46 0 86 -21t57 -58q75 79 161 79q96 0 138.5 -51.5
t20.5 -155.5q-6 -28 -14.5 -54.5t-13.5 -38.5zM300 440q-50 0 -83.5 -38.5t-54.5 -138.5q-17 -70 -10 -109t24.5 -53.5t48.5 -14.5q48 0 77 37.5t51 139.5q16 70 12.5 109t-19 53.5t-46.5 14.5zM654 344q20 94 -63 94q-39 0 -66.5 -29.5t-48.5 -97.5h169z" />
    <glyph glyph-name="Racute" unicode="&#x154;" horiz-adv-x="632" 
d="M314 789l115 140q30 4 60 -11t39 -37l-143 -131q-57 10 -71 39zM171 720h263q100 0 147 -65.5t26 -164.5q-31 -146 -178 -189l113 -292q-23 -9 -73 -9q-20 0 -36.5 2t-22.5 4l-6 3l-102 279h-95l-59 -279q-23 -9 -65 -9q-21 0 -36.5 2t-20.5 4l-6 3zM347 394
q106 0 130 110q11 53 -10.5 81.5t-73.5 28.5h-117l-46 -220h117z" />
    <glyph glyph-name="racute" unicode="&#x155;" horiz-adv-x="398" 
d="M203 640l115 137q30 4 60.5 -10t39.5 -35l-153 -130q-46 8 -62 38zM225 461q69 74 127 74q47 0 82 -26q-20 -66 -77 -107q-21 22 -53 22q-49 0 -98 -52l-77 -364q-24 -8 -65 -8q-20 0 -35 2t-21 4l-5 2l108 510q21 8 65 8q18 0 33.5 -2t21.5 -4l6 -2z" />
    <glyph glyph-name="Rcommaaccent" unicode="&#x156;" horiz-adv-x="632" 
d="M211 -45q23 8 64 8q18 0 33.5 -2t21.5 -4l7 -2l-16 -75q-12 -55 -42 -101t-55 -65l-24 -19l-37 30q42 38 61 107q-12 1 -21.5 3t-12.5 3l-4 2zM171 720h263q100 0 147 -65.5t26 -164.5q-31 -146 -178 -189l113 -292q-23 -9 -73 -9q-20 0 -36.5 2t-22.5 4l-6 3l-102 279
h-95l-59 -279q-23 -9 -65 -9q-21 0 -36.5 2t-20.5 4l-6 3zM347 394q106 0 130 110q11 53 -10.5 81.5t-73.5 28.5h-117l-46 -220h117z" />
    <glyph glyph-name="rcommaaccent" unicode="&#x157;" horiz-adv-x="398" 
d="M225 461q69 74 127 74q47 0 82 -26q-20 -66 -77 -107q-21 22 -53 22q-49 0 -98 -52l-77 -364q-24 -8 -65 -8q-20 0 -35 2t-21 4l-5 2l108 510q21 8 65 8q18 0 33.5 -2t21.5 -4l6 -2zM-8 -48q23 8 64 8q18 0 33.5 -2t22.5 -4l6 -2l-16 -75q-12 -55 -42 -101t-54 -65
l-25 -19l-37 30q42 38 61 107q-12 1 -21.5 3t-13.5 4l-3 1z" />
    <glyph glyph-name="Rcaron" unicode="&#x158;" horiz-adv-x="632" 
d="M412 860l111 62q33 -12 47 -53l-162 -118h-26l-125 118q32 43 69 54zM171 720h263q100 0 147 -65.5t26 -164.5q-31 -146 -178 -189l113 -292q-23 -9 -73 -9q-20 0 -36.5 2t-22.5 4l-6 3l-102 279h-95l-59 -279q-23 -9 -65 -9q-21 0 -36.5 2t-20.5 4l-6 3zM347 394
q106 0 130 110q11 53 -10.5 81.5t-73.5 28.5h-117l-46 -220h117z" />
    <glyph glyph-name="rcaron" unicode="&#x159;" horiz-adv-x="398" 
d="M286 703l103 57q30 -10 42 -49l-154 -109h-23l-109 109q29 40 64 50zM225 461q69 74 127 74q47 0 82 -26q-20 -66 -77 -107q-21 22 -53 22q-49 0 -98 -52l-77 -364q-24 -8 -65 -8q-20 0 -35 2t-21 4l-5 2l108 510q21 8 65 8q18 0 33.5 -2t21.5 -4l6 -2z" />
    <glyph glyph-name="Sacute" unicode="&#x15a;" horiz-adv-x="571" 
d="M550 883l-160 -121q-47 12 -58 43l123 137q29 1 58 -17.5t37 -41.5zM101 539q21 92 93.5 141.5t197.5 49.5q55 0 104 -7.5t70 -14.5l21 -8q-15 -64 -56 -100q-60 22 -144 22q-144 0 -163 -94q-3 -17 1.5 -31t12.5 -23t26 -19t31 -14.5t39 -14t39 -14.5q71 -28 110 -85
t20 -146q-22 -102 -94 -146.5t-203 -44.5q-61 0 -114.5 11t-76.5 22l-23 11q9 52 52 102q89 -31 181 -31q132 0 153 97q8 38 -13.5 60.5t-67.5 40.5q-95 37 -128 59q-93 63 -68 177z" />
    <glyph glyph-name="sacute" unicode="&#x15b;" horiz-adv-x="443" 
d="M416 722l-153 -130q-46 8 -62 38l115 137q30 4 60.5 -10t39.5 -35zM63 390q32 146 222 146q79 0 137 -30q-11 -58 -47 -88q-44 16 -99 16q-87 0 -98 -56q-2 -12 2.5 -21.5t17.5 -16.5t24 -11.5t33 -11.5t34 -12q47 -18 72.5 -59.5t11.5 -106.5q-16 -79 -70 -114t-153 -35
q-48 0 -90.5 9.5t-60.5 18.5l-18 10q17 55 50 93q64 -24 132 -24q78 0 89 56q7 29 -15.5 44.5t-71.5 30.5q-127 41 -102 162z" />
    <glyph glyph-name="Scircumflex" unicode="&#x15c;" horiz-adv-x="571" 
d="M433 929l129 -115q-32 -43 -69 -54l-86 63l-111 -62q-33 11 -47 53l158 115h26zM101 539q19 91 92.5 141t198.5 50q55 0 104 -7.5t70 -14.5l21 -8q-15 -64 -56 -100q-60 22 -144 22q-144 0 -163 -94q-3 -17 1.5 -31t12.5 -23t26 -19t31 -14.5t39 -14t39 -14.5
q163 -65 130 -231q-20 -102 -92.5 -146.5t-204.5 -44.5q-61 0 -114.5 11t-76.5 22l-23 11q9 52 52 102q89 -31 181 -31q132 0 153 97q8 38 -13.5 60.5t-67.5 40.5q-8 3 -29 11l-31.5 12t-30 13t-30 15.5t-26 18t-23.5 22.5t-17 26.5t-11.5 32.5t-2.5 39t5 46z" />
    <glyph glyph-name="scircumflex" unicode="&#x15d;" horiz-adv-x="443" 
d="M335 742l117 -112q-31 -42 -68 -53l-83 61l-109 -60q-32 11 -46 52l164 112h25zM63 390q32 146 222 146q79 0 137 -30q-11 -58 -47 -88q-44 16 -99 16q-87 0 -98 -56q-2 -12 2.5 -21.5t17.5 -16.5t24 -11.5t33 -11.5t34 -12q47 -18 72.5 -59.5t11.5 -106.5
q-16 -79 -70 -114t-153 -35q-48 0 -90.5 9.5t-60.5 18.5l-18 10q17 55 50 93q64 -24 132 -24q78 0 89 56q7 29 -15.5 44.5t-71.5 30.5q-127 41 -102 162z" />
    <glyph glyph-name="Scedilla" unicode="&#x15e;" horiz-adv-x="571" 
d="M101 539q19 91 92.5 141t198.5 50q55 0 104 -7.5t70 -14.5l21 -8q-15 -64 -56 -100q-60 22 -144 22q-144 0 -163 -94q-3 -17 1.5 -31t12.5 -23t26 -19t31 -14.5t39 -14t39 -14.5q163 -65 130 -231q-18 -92 -79 -137t-169 -52l-19 -50q100 0 80 -98q-10 -49 -49.5 -75
t-97.5 -26q-28 0 -50 6t-30 12l-8 6q7 35 36 51q24 -13 59 -13q57 0 66 43q9 41 -41 41h-39l-10 16l34 85q-56 2 -104.5 13t-69.5 21l-20 10q9 52 52 102q89 -31 181 -31q132 0 153 97q8 38 -13.5 60.5t-67.5 40.5q-8 3 -29 11l-31.5 12t-30 13t-30 15.5t-26 18t-23.5 22.5
t-17 26.5t-11.5 32.5t-2.5 39t5 46z" />
    <glyph glyph-name="scedilla" unicode="&#x15f;" horiz-adv-x="443" 
d="M375 418q-44 16 -99 16q-87 0 -98 -56q-2 -12 2.5 -21.5t17.5 -16.5t24 -11.5t33 -11.5t34 -12q47 -18 72.5 -59.5t11.5 -106.5q-15 -71 -59.5 -106t-124.5 -42l-17 -44q99 0 79 -94q-10 -47 -48 -72t-95 -25q-27 0 -48.5 6t-29.5 12l-8 5q5 32 34 49q24 -13 58 -13
q56 0 65 42q3 18 -6.5 28.5t-33.5 10.5h-38l-11 15l32 80q-40 2 -75.5 11.5t-50.5 17.5l-15 8q17 55 50 93q64 -24 132 -24q78 0 89 56q7 29 -15.5 44.5t-71.5 30.5q-127 41 -102 162q32 146 222 146q79 0 137 -30q-11 -58 -47 -88z" />
    <glyph glyph-name="Scaron" unicode="&#x160;" horiz-adv-x="571" 
d="M380 767l-130 107q32 43 69 54l86 -63l111 62q33 -12 47 -53l-157 -107h-26zM101 539q19 91 92.5 141t198.5 50q55 0 104 -7.5t70 -14.5l21 -8q-15 -64 -56 -100q-60 22 -144 22q-144 0 -163 -94q-3 -17 1.5 -31t12.5 -23t26 -19t31 -14.5t39 -14t39 -14.5
q163 -65 130 -231q-20 -102 -92.5 -146.5t-204.5 -44.5q-61 0 -114.5 11t-76.5 22l-23 11q9 52 52 102q89 -31 181 -31q132 0 153 97q8 38 -13.5 60.5t-67.5 40.5q-8 3 -29 11l-31.5 12t-30 13t-30 15.5t-26 18t-23.5 22.5t-17 26.5t-11.5 32.5t-2.5 39t5 46z" />
    <glyph glyph-name="scaron" unicode="&#x161;" horiz-adv-x="444" 
d="M268 592l-107 107q29 39 63 48l77 -57l101 57q28 -11 42 -48l-152 -107h-24zM64 390q32 146 222 146q79 0 137 -30q-11 -58 -47 -88q-44 16 -99 16q-87 0 -98 -56q-2 -12 2.5 -21.5t17.5 -16.5t24 -11.5t33 -11.5t34 -12q47 -18 72.5 -59.5t11.5 -106.5q-16 -79 -70 -114
t-153 -35q-48 0 -90.5 9.5t-60.5 18.5l-18 10q17 55 50 93q64 -24 132 -24q78 0 89 56q7 29 -15.5 44.5t-71.5 30.5q-127 41 -102 162z" />
    <glyph glyph-name="Tcommaaccent" unicode="&#x162;" 
d="M119 720h487q5 -24 -1 -54q-3 -14 -8.5 -28t-9.5 -21l-4 -7h-177l-128 -601q-25 -9 -66 -9q-20 0 -35.5 2t-20.5 4l-6 3l128 601h-182q-6 21 1 54q3 14 8.5 28t9.5 21zM129 -308l-37 30q42 38 61 107q-12 1 -21.5 3t-13.5 4l-3 1l25 115q23 8 64 8q18 0 33.5 -2t22.5 -4
l6 -2l-16 -75q-12 -55 -42 -101t-54 -65z" />
    <glyph glyph-name="Tcommaaccent" unicode="&#x21a;" 
d="M119 720h487q5 -24 -1 -54q-3 -14 -8.5 -28t-9.5 -21l-4 -7h-177l-128 -601q-25 -9 -66 -9q-20 0 -35.5 2t-20.5 4l-6 3l128 601h-182q-6 21 1 54q3 14 8.5 28t9.5 21zM129 -308l-37 30q42 38 61 107q-12 1 -21.5 3t-13.5 4l-3 1l25 115q23 8 64 8q18 0 33.5 -2t22.5 -4
l6 -2l-16 -75q-12 -55 -42 -101t-54 -65z" />
    <glyph glyph-name="tcommaaccent" unicode="&#x163;" horiz-adv-x="383" 
d="M252 433l-51 -238q-13 -62 0.5 -83t62.5 -21l46 3q4 -22 -2 -50q-2 -12 -6 -23.5t-7 -16.5l-3 -5q-33 -9 -76 -9q-95 0 -129 49.5t-13 149.5l52 244h-76q-3 18 3 46q3 14 7 25.5t7 16.5l3 5h76l18 86q58 31 131 25l-23 -111h118q3 -17 -3 -46q-3 -12 -7 -24t-7 -18l-3 -5
h-118zM92 -305l-35 29q40 37 59 104q-12 1 -21 3t-13 3l-3 2l24 111q22 8 62 8q18 0 33 -2t21 -4l6 -2l-15 -72q-11 -53 -40.5 -98t-53.5 -63z" />
    <glyph glyph-name="tcommaaccent" unicode="&#x21b;" horiz-adv-x="383" 
d="M252 433l-51 -238q-13 -62 0.5 -83t62.5 -21l46 3q4 -22 -2 -50q-2 -12 -6 -23.5t-7 -16.5l-3 -5q-33 -9 -76 -9q-95 0 -129 49.5t-13 149.5l52 244h-76q-3 18 3 46q3 14 7 25.5t7 16.5l3 5h76l18 86q58 31 131 25l-23 -111h118q3 -17 -3 -46q-3 -12 -7 -24t-7 -18l-3 -5
h-118zM92 -305l-35 29q40 37 59 104q-12 1 -21 3t-13 3l-3 2l24 111q22 8 62 8q18 0 33 -2t21 -4l6 -2l-15 -72q-11 -53 -40.5 -98t-53.5 -63z" />
    <glyph glyph-name="Tcaron" unicode="&#x164;" 
d="M360 751l-119 118q32 43 69 54l86 -63l111 62q33 -12 47 -53l-168 -118h-26zM119 720h487q5 -24 -1 -54q-3 -14 -8.5 -28t-9.5 -21l-4 -7h-177l-128 -601q-25 -9 -66 -9q-20 0 -35.5 2t-20.5 4l-6 3l128 601h-182q-6 21 1 54q3 14 8.5 28t9.5 21z" />
    <glyph glyph-name="tcaron" unicode="&#x165;" horiz-adv-x="383" 
d="M374 578q-35 8 -44 35q39 33 58 61.5t30 74.5q69 5 98 -26q-22 -52 -61 -92t-81 -53zM252 433l-51 -238q-13 -62 0.5 -83t62.5 -21l46 3q4 -22 -2 -50q-2 -12 -6 -23.5t-7 -16.5l-3 -5q-33 -9 -76 -9q-95 0 -129 49.5t-13 149.5l52 244h-76q-3 18 3 46q3 14 7 25.5
t7 16.5l3 5h76l18 86q58 31 131 25l-23 -111h118q3 -17 -3 -46q-3 -12 -7 -24t-7 -18l-3 -5h-118z" />
    <glyph glyph-name="Tbar" unicode="&#x166;" horiz-adv-x="568" 
d="M365 381h133q5 -35 -16 -75h-133l-63 -297q-25 -9 -66 -9q-20 0 -35.5 2t-20.5 4l-6 3l63 297h-129q-2 43 16 75h129l49 229h-182q-6 21 1 54q3 14 8.5 28t9.5 21l4 7h487q5 -24 -1 -54q-3 -14 -8.5 -28t-9.5 -21l-4 -7h-177z" />
    <glyph glyph-name="tbar" unicode="&#x167;" horiz-adv-x="386" 
d="M266 91l46 3q4 -22 -2 -50q-2 -12 -6 -23.5t-7 -16.5l-3 -5q-33 -9 -76 -9q-95 0 -129 49.5t-13 149.5l12 57h-66q-2 40 16 75h66l24 112h-76q-3 18 3 46q3 14 7 25.5t7 16.5l3 5h76l18 86q58 31 131 25l-23 -111h118q3 -17 -3 -46q-3 -12 -7 -24t-7 -18l-3 -5h-118
l-24 -112h98q5 -35 -16 -75h-98l-11 -51q-13 -62 0.5 -83t62.5 -21z" />
    <glyph glyph-name="Utilde" unicode="&#x168;" horiz-adv-x="677" 
d="M516 860q14 0 28 6t20 12l7 7q34 -16 32 -55q-4 -5 -12 -13.5t-34 -22t-54 -13.5q-33 0 -66 15t-52 15q-14 0 -27.5 -6.5t-19.5 -12.5l-7 -6q-34 21 -33 55q4 5 12 13.5t34.5 22t54.5 13.5q33 0 65.5 -15t51.5 -15zM685 711l-101 -478q-51 -243 -300 -243
q-121 0 -182.5 70.5t-35.5 191.5l98 459q23 9 65 9q19 0 35 -2t22 -4l6 -3l-102 -473q-14 -64 14 -102t92 -38t105.5 35t55.5 99l102 479q22 9 64 9q19 0 34.5 -2t21.5 -4z" />
    <glyph glyph-name="utilde" unicode="&#x169;" 
d="M186 669q4 6 12 14.5t34.5 22.5t54.5 14q33 0 65.5 -16t51.5 -16q14 0 28 6.5t20 13.5l7 6q15 -7 24 -23t8 -34q-4 -6 -12 -14.5t-34.5 -22.5t-54.5 -14q-33 0 -65.5 16t-51.5 16q-14 0 -28 -6.5t-21 -13.5l-6 -6q-33 20 -32 57zM33 170l74 348q24 8 65 8q20 0 35 -2
t21 -4l5 -2l-75 -354q-15 -72 65 -72q61 0 97 49l81 377q24 8 65 8q20 0 35 -2t21 -4l5 -2l-108 -510q-21 -8 -65 -8q-17 0 -30 2t-18 4l-5 2l3 42q-54 -60 -142 -60q-83 0 -114.5 51t-14.5 129z" />
    <glyph glyph-name="Umacron" unicode="&#x16a;" horiz-adv-x="677" 
d="M582 794h-285q-2 41 16 73h285q3 -33 -16 -73zM685 711l-101 -478q-51 -243 -300 -243q-121 0 -182.5 70.5t-35.5 191.5l98 459q23 9 65 9q19 0 35 -2t22 -4l6 -3l-102 -473q-14 -64 14 -102t92 -38t105.5 35t55.5 99l102 479q22 9 64 9q19 0 34.5 -2t21.5 -4z" />
    <glyph glyph-name="umacron" unicode="&#x16b;" 
d="M224 699h249q3 -31 -15 -67h-249q0 38 15 67zM33 170l74 348q24 8 65 8q20 0 35 -2t21 -4l5 -2l-75 -354q-15 -72 65 -72q61 0 97 49l81 377q24 8 65 8q20 0 35 -2t21 -4l5 -2l-108 -510q-21 -8 -65 -8q-17 0 -30 2t-18 4l-5 2l3 42q-54 -60 -142 -60q-83 0 -114.5 51
t-14.5 129z" />
    <glyph glyph-name="Ubreve" unicode="&#x16c;" horiz-adv-x="677" 
d="M619 833q-2 -3 -7 -7t-21.5 -15t-34.5 -19.5t-47 -15.5t-60 -7q-48 0 -87 16t-54 32l-14 16q10 18 28.5 34t38.5 22q33 -27 102 -27q31 0 59.5 7t41.5 13l13 7q17 -6 28.5 -21.5t13.5 -34.5zM685 711l-101 -478q-51 -243 -300 -243q-121 0 -182.5 70.5t-35.5 191.5
l98 459q23 9 65 9q19 0 35 -2t22 -4l6 -3l-102 -473q-14 -64 14 -102t92 -38t105.5 35t55.5 99l102 479q22 9 64 9q19 0 34.5 -2t21.5 -4z" />
    <glyph glyph-name="ubreve" unicode="&#x16d;" 
d="M355 699q30 0 57.5 7t39.5 14l13 7q17 -6 28 -22t13 -36q-6 -7 -18.5 -18t-55 -29t-89.5 -18q-30 0 -56.5 6.5t-43.5 16t-29.5 19.5t-17.5 16l-6 7q10 19 28.5 35.5t36.5 22.5q33 -28 100 -28zM33 170l74 348q24 8 65 8q20 0 35 -2t21 -4l5 -2l-75 -354q-15 -72 65 -72
q61 0 97 49l81 377q24 8 65 8q20 0 35 -2t21 -4l5 -2l-108 -510q-21 -8 -65 -8q-17 0 -30 2t-18 4l-5 2l3 42q-54 -60 -142 -60q-83 0 -114.5 51t-14.5 129z" />
    <glyph glyph-name="Uring" unicode="&#x16e;" horiz-adv-x="677" 
d="M440 760q-53 0 -81.5 31t-16.5 84q11 53 53.5 82.5t93.5 29.5q50 0 80.5 -29.5t19.5 -82.5q-12 -54 -54 -84.5t-95 -30.5zM521 875q5 22 -7 37.5t-39 15.5q-26 0 -44 -16t-22 -37q-5 -22 6.5 -37.5t37.5 -15.5q27 0 45 16t23 37zM685 711l-101 -478q-51 -243 -300 -243
q-121 0 -182.5 70.5t-35.5 191.5l98 459q23 9 65 9q19 0 35 -2t22 -4l6 -3l-102 -473q-14 -64 14 -102t92 -38t105.5 35t55.5 99l102 479q22 9 64 9q19 0 34.5 -2t21.5 -4z" />
    <glyph glyph-name="uring" unicode="&#x16f;" 
d="M214 691q9 53 50 82.5t92 29.5q50 0 82 -29.5t23 -82.5q-9 -54 -50 -84.5t-94 -30.5t-82.5 31t-20.5 84zM393 691q5 22 -7 37.5t-39 15.5q-26 0 -44 -16t-22 -37q-5 -22 6.5 -37.5t37.5 -15.5q27 0 45 16t23 37zM33 170l74 348q24 8 65 8q20 0 35 -2t21 -4l5 -2l-75 -354
q-15 -72 65 -72q61 0 97 49l81 377q24 8 65 8q20 0 35 -2t21 -4l5 -2l-108 -510q-21 -8 -65 -8q-17 0 -30 2t-18 4l-5 2l3 42q-54 -60 -142 -60q-83 0 -114.5 51t-14.5 129z" />
    <glyph glyph-name="Uhungarumlaut" unicode="&#x170;" horiz-adv-x="677" 
d="M506 877l-147 -126q-45 6 -60 37l112 133q29 4 58 -10t37 -34zM680 877l-146 -126q-47 7 -61 37l112 133q30 4 58.5 -9.5t36.5 -34.5zM685 711l-101 -478q-51 -243 -300 -243q-121 0 -182.5 70.5t-35.5 191.5l98 459q23 9 65 9q19 0 35 -2t22 -4l6 -3l-102 -473
q-14 -64 14 -102t92 -38t105.5 35t55.5 99l102 479q22 9 64 9q19 0 34.5 -2t21.5 -4z" />
    <glyph glyph-name="uhungarumlaut" unicode="&#x171;" 
d="M387 722l-131 -128q-45 3 -59 31l97 132q28 5 56 -5.5t37 -29.5zM546 723l-131 -128q-44 3 -61 31l97 132q28 5 56.5 -5.5t38.5 -29.5zM33 170l74 348q24 8 65 8q20 0 35 -2t21 -4l5 -2l-75 -354q-15 -72 65 -72q61 0 97 49l81 377q24 8 65 8q20 0 35 -2t21 -4l5 -2
l-108 -510q-21 -8 -65 -8q-17 0 -30 2t-18 4l-5 2l3 42q-54 -60 -142 -60q-83 0 -114.5 51t-14.5 129z" />
    <glyph glyph-name="Uogonek" unicode="&#x172;" horiz-adv-x="676" 
d="M559 711q22 9 64 9q19 0 34.5 -2t21.5 -4l6 -3l-101 -478q-36 -172 -174 -223q-49 -25 -57 -65q-6 -28 6 -42t36 -14l31 5q19 -17 10 -53q-41 -20 -82 -20q-48 0 -76.5 30.5t-17.5 80.5q7 32 36 58h-12q-121 0 -182.5 70.5t-35.5 191.5l98 459q23 9 65 9q19 0 35 -2
t22 -4l6 -3l-102 -473q-14 -64 14 -102t92 -38t105.5 35t55.5 99z" />
    <glyph glyph-name="uogonek" unicode="&#x173;" 
d="M401 518q24 8 65 8q20 0 35 -2t21 -4l5 -2l-108 -510q-100 -32 -116 -100q-5 -25 11 -32t44 -7l29 5q17 -15 7 -53q-37 -19 -76 -19q-47 0 -76.5 24t-19.5 70q13 63 75 101l7 49q-64 -56 -145 -56q-76 0 -110 49.5t-16 128.5l74 350q24 8 65 8q20 0 35 -2t21 -4l5 -2
l-75 -354q-15 -72 65 -72q52 0 97 45z" />
    <glyph glyph-name="Wcircumflex" unicode="&#x174;" horiz-adv-x="972" 
d="M630 923l123 -118q-32 -43 -69 -54l-86 67l-111 -66q-33 12 -47 53l164 118h26zM544 9l-4 411q0 47 3 90t6 62l3 19h-5q-17 -65 -63 -171l-177 -411q-38 -9 -87 -9q-42 0 -74 9l-38 702q24 9 67 9q20 0 34 -2t18 -4l4 -3l21 -428v-148h4q26 77 57 147l189 429q30 9 77 9
q22 0 37 -2t20 -4l4 -3l6 -428q0 -33 -1.5 -70t-3.5 -57l-2 -21h4q24 68 62 147l204 429q31 9 65 9q16 0 32 -2t24 -4l7 -3l-339 -702q-32 -9 -77 -9q-20 0 -39 2t-28 4z" />
    <glyph glyph-name="wcircumflex" unicode="&#x175;" horiz-adv-x="793" 
d="M511 767l121 -112q-32 -42 -68 -53l-83 61l-109 -60q-32 11 -46 52l160 112h25zM419 8l-9 238q-2 73 9 153h-4q-23 -84 -58 -153l-111 -238q-33 -8 -76 -8q-46 0 -74 8l-35 510q25 8 65 8q12 0 21.5 -1t14 -2t7.5 -2t3 -2l1 -1l19 -290q3 -43 -1 -105h3q18 50 45 106
l135 289q34 8 72 8q18 0 33 -2t21 -4l6 -2l10 -288q1 -47 -3 -107h3q6 15 48 106l137 289q27 8 67 8q17 0 29.5 -2t16.5 -4l5 -2l-251 -510q-36 -8 -76 -8q-41 0 -73 8z" />
    <glyph glyph-name="Ycircumflex" unicode="&#x176;" horiz-adv-x="636" 
d="M464 923l128 -118q-32 -43 -69 -54l-86 63l-111 -62q-33 12 -47 53l159 118h26zM568 711q34 9 77 9q18 0 35.5 -2t25.5 -4l8 -3l-334 -411l-62 -291q-23 -9 -64 -9q-20 0 -36 2t-22 4l-6 3l61 288l-152 414q29 9 80 9q20 0 35.5 -2t20.5 -4l5 -3l103 -283z" />
    <glyph glyph-name="ycircumflex" unicode="&#x177;" 
d="M375 764l121 -110q-32 -42 -68 -53l-83 61l-109 -60q-32 11 -46 52l160 110h25zM402 518q24 8 65 8q20 0 35 -2t20 -4l6 -2l-106 -497q-30 -144 -101.5 -207.5t-193.5 -63.5q-50 0 -89 10t-53 20l-14 11q15 54 52 82q43 -23 107 -23q65 0 105 34t61 137l3 12
q-56 -43 -133 -43q-82 0 -116 49t-17 125l75 354q24 8 65 8q20 0 35 -2t20 -4l6 -2l-75 -354q-15 -72 65 -72q50 0 95 37z" />
    <glyph glyph-name="Ydieresis" unicode="&#x178;" horiz-adv-x="636" 
d="M293 865q18 7 55 7q16 0 29 -2t19 -4l5 -1l-21 -97q-20 -7 -55 -7q-16 0 -29.5 1.5t-18.5 3.5l-5 2zM474 865q18 7 55 7q16 0 29 -2t18 -4l6 -1l-21 -97q-20 -7 -55 -7q-16 0 -29.5 1.5t-18.5 3.5l-5 2zM568 711q34 9 77 9q18 0 35.5 -2t25.5 -4l8 -3l-334 -411l-62 -291
q-23 -9 -64 -9q-20 0 -36 2t-22 4l-6 3l61 288l-152 414q29 9 80 9q20 0 35.5 -2t20.5 -4l5 -3l103 -283z" />
    <glyph glyph-name="Zacute" unicode="&#x179;" horiz-adv-x="598" 
d="M335 789l115 137q30 4 60 -10t39 -35l-152 -130q-48 9 -62 38zM159 720h469q5 -20 -2 -53q-9 -36 -22 -59l-461 -495h369q2 -27 -4 -54q-9 -36 -20 -59h-510q-3 29 3 58q6 30 21 55l455 495h-322q-1 23 6 60q6 30 18 52z" />
    <glyph glyph-name="zacute" unicode="&#x17a;" horiz-adv-x="472" 
d="M457 732l-153 -130q-46 8 -62 38l115 137q30 4 60.5 -10t39.5 -35zM133 103h246q4 -19 -3 -52q-3 -13 -8 -26t-8 -19l-3 -6h-379q-1 22 4 54q6 27 18 49l317 320h-236q-2 23 4 53q3 14 7.5 26.5t7.5 17.5l3 6h368q2 -16 -3 -48q-6 -29 -19 -55z" />
    <glyph glyph-name="Zdotaccent" unicode="&#x17b;" horiz-adv-x="598" 
d="M367 879q18 7 58 7q16 0 30 -2t20 -4l6 -1l-22 -103q-22 -7 -59 -7q-18 0 -31.5 1.5t-18.5 3.5l-5 2zM159 720h469q5 -20 -2 -53q-9 -36 -22 -59l-461 -495h369q2 -27 -4 -54q-9 -36 -20 -59h-510q-3 29 3 58q6 30 21 55l455 495h-322q-1 23 6 60q6 30 18 52z" />
    <glyph glyph-name="zdotaccent" unicode="&#x17c;" horiz-adv-x="472" 
d="M390 712l-22 -103q-21 -7 -58 -7q-18 0 -32 2t-19 4l-5 1l22 103q19 7 59 7q16 0 30 -1.5t19 -3.5zM133 103h246q4 -19 -3 -52q-3 -13 -8 -26t-8 -19l-3 -6h-379q-1 22 4 54q6 27 18 49l317 320h-236q-2 23 4 53q3 14 7.5 26.5t7.5 17.5l3 6h368q2 -16 -3 -48
q-6 -29 -19 -55z" />
    <glyph glyph-name="Zcaron" unicode="&#x17d;" horiz-adv-x="598" 
d="M406 862l111 62q33 -12 47 -53l-158 -118h-26l-129 118q32 43 69 54zM159 720h469q5 -20 -2 -53q-9 -36 -22 -59l-461 -495h369q2 -27 -4 -54q-9 -36 -20 -59h-510q-3 29 3 58q6 30 21 55l455 495h-322q-1 23 6 60q6 30 18 52z" />
    <glyph glyph-name="zcaron" unicode="&#x17e;" horiz-adv-x="472" 
d="M297 602l-107 107q27 37 62 49l77 -57l101 56q28 -10 42 -48l-152 -107h-23zM133 103h246q4 -19 -3 -52q-3 -13 -8 -26t-8 -19l-3 -6h-379q-1 22 4 54q6 27 18 49l317 320h-236q-2 23 4 53q3 14 7.5 26.5t7.5 17.5l3 6h368q2 -16 -3 -48q-6 -29 -19 -55z" />
    <glyph glyph-name="longs" unicode="&#x17f;" horiz-adv-x="313" 
d="M288 591l-124 -583q-24 -8 -65 -8q-20 0 -35 2t-20 4l-6 2l90 425h-64q0 50 20 93h64l13 60q34 164 209 164q33 0 61.5 -6t40.5 -12l12 -6q-13 -50 -51 -87q-28 12 -76 12q-30 0 -46 -14t-23 -46z" />
    <glyph glyph-name="florin" unicode="&#x192;" horiz-adv-x="480" 
d="M304 390l-115 -374q-23 -75 -70 -115.5t-134 -40.5q-31 0 -58 6t-39 12l-11 5q13 49 49 82q26 -11 71 -11q54 0 71 57l117 379h-74q-4 17 2 44q3 12 7 23t7 16l3 5h82l18 57q23 75 70 115.5t134 40.5q31 0 58 -5.5t38 -11.5l12 -6q-13 -49 -48 -82q-27 11 -72 11
q-54 0 -71 -57l-19 -62h79q3 -17 -3 -44q-3 -12 -7 -23t-7 -16l-2 -5h-88z" />
    <glyph glyph-name="Aringacute" unicode="&#x1fa;" horiz-adv-x="664" 
d="M618 1004l-138 -96q-43 7 -59 28l102 102q29 3 57.5 -7.5t37.5 -26.5zM498 692l88 -683q-25 -9 -72 -9q-12 0 -21.5 1t-15 2t-9 2.5t-4.5 2.5l-1 1l-20 160h-273l-88 -160q-33 -9 -73 -9q-17 0 -31 2t-20 4l-6 3l375 679q-33 31 -21 89q11 53 53.5 82.5t93.5 29.5
q50 0 80.5 -29.5t19.5 -82.5t-55 -85zM485 777q5 22 -7 37.5t-39 15.5q-26 0 -43.5 -16t-22.5 -37q-5 -22 6.5 -37.5t37.5 -15.5q27 0 45.5 16t22.5 37zM430 272l-25 203q-4 28 -5.5 55.5t-1.5 41.5v14h-4q-21 -51 -54 -111l-113 -203h203z" />
    <glyph glyph-name="aringacute" unicode="&#x1fb;" horiz-adv-x="555" 
d="M513 901l-137 -96q-43 7 -59 28l102 102q29 3 57.5 -7.5t36.5 -26.5zM477 673q-9 -54 -50.5 -84.5t-94.5 -30.5t-82 31t-20 84t50 82.5t92 29.5q50 0 82 -29.5t23 -82.5zM302 673q-4 -19 6.5 -33.5t33.5 -14.5q25 0 41.5 14t20.5 34t-6.5 34t-35.5 14q-23 0 -39.5 -14.5
t-20.5 -33.5zM418 520q15 7 57 7q19 0 34 -2t21 -4l5 -2l-108 -511q-24 -8 -55 -8q-14 0 -27.5 1.5t-20.5 3.5l-6 2l-1 44q-56 -61 -143 -61q-89 0 -127 72.5t-7 219.5q30 143 92.5 198.5t155.5 55.5q80 0 115 -59zM367 321q10 47 -8 80t-58 33q-52 0 -83.5 -35t-52.5 -134
q-17 -69 -11 -107.5t23.5 -52t51.5 -13.5q41 0 71 30t41 78z" />
    <glyph glyph-name="AEacute" unicode="&#x1fc;" horiz-adv-x="863" 
d="M819 882l-152 -130q-48 9 -62 38l115 137q30 4 60 -10t39 -35zM522 720h372q11 -47 -22 -103h-255l-43 -202h205q8 -54 -22 -103h-205l-44 -209h265q8 -58 -22 -103h-376l36 169h-208l-128 -159q-32 -10 -72 -10q-44 0 -65 10zM286 272h147l61 262z" />
    <glyph glyph-name="aeacute" unicode="&#x1fd;" horiz-adv-x="779" 
d="M572 716l-149 -127q-46 8 -61 37l113 134q30 4 59 -9.5t38 -34.5zM621 536q79 0 112.5 -53t12.5 -154q-5 -26 -13.5 -50.5t-14.5 -36.5l-5 -12h-277q-9 -74 13.5 -105.5t75.5 -31.5q28 0 57 5.5t44 11.5l15 6q24 -27 17 -82q-4 -4 -13 -11t-43.5 -18t-77.5 -11
q-92 0 -127 58l-9 -44q-20 -8 -49 -8q-14 0 -26.5 2t-17.5 4l-5 2l1 43q-29 -33 -57 -47t-78 -14q-79 0 -113.5 71t-3.5 216q55 259 235 259q42 0 65 -13.5t38 -45.5l13 42q15 8 57 8q18 0 30 -2t15 -4l4 -2l-8 -38q58 55 133 55zM454 316h167q5 14 8 28q20 94 -56 94
q-81 0 -119 -122zM318 200l28 130q9 48 -5.5 76t-53.5 28q-42 0 -71.5 -36.5t-50.5 -134.5q-17 -69 -11.5 -107t20 -51t41.5 -13q40 0 66.5 29t36.5 79z" />
    <glyph glyph-name="Oslashacute" unicode="&#x1fe;" horiz-adv-x="678" 
d="M599 905l-153 -130q-46 8 -62 38l115 137q30 4 60.5 -10t39.5 -35zM707 729l-86 -104q52 -100 13 -279q-40 -188 -128.5 -272t-227.5 -84q-90 0 -145 42l-65 -80q-56 0 -79 40l89 107q-49 103 -11 279q40 185 129.5 268.5t227.5 83.5q87 0 141 -39l64 77q50 0 78 -39z
M407 624q-76 0 -127.5 -57.5t-83.5 -206.5q-18 -82 -16 -137l309 375q-27 26 -82 26zM294 96q77 0 128 57.5t82 206.5q19 86 17 143l-311 -379q28 -28 84 -28z" />
    <glyph glyph-name="oslashacute" unicode="&#x1ff;" horiz-adv-x="544" 
d="M464 722l-153 -130q-46 8 -62 38l115 137q30 4 60.5 -10t39.5 -35zM536 541l-65 -78q47 -76 17 -217q-30 -142 -96 -199t-178 -57q-66 0 -111 27l-55 -67q-44 0 -64 33l69 84q-44 74 -15 211q30 142 97 200t179 58q64 0 107 -25l52 63q38 0 63 -33zM350 425
q-18 15 -50 15q-50 0 -83.5 -38.5t-54.5 -138.5q-9 -41 -11 -79zM174 102q17 -16 51 -16q49 0 83 38.5t55 138.5q9 44 11 82z" />
    <glyph glyph-name="Scommaaccent" unicode="&#x218;" horiz-adv-x="571" 
d="M132 -308l-37 30q42 38 61 107q-12 1 -21.5 3t-12.5 4l-4 1l25 115q23 8 64 8q18 0 33.5 -2t21.5 -4l7 -2l-16 -75q-12 -55 -42 -101t-55 -65zM101 539q19 91 92.5 141t198.5 50q55 0 104 -7.5t70 -14.5l21 -8q-15 -64 -56 -100q-60 22 -144 22q-144 0 -163 -94
q-3 -17 1.5 -31t12.5 -23t26 -19t31 -14.5t39 -14t39 -14.5q163 -65 130 -231q-20 -102 -92.5 -146.5t-204.5 -44.5q-61 0 -114.5 11t-76.5 22l-23 11q9 52 52 102q89 -31 181 -31q132 0 153 97q8 38 -13.5 60.5t-67.5 40.5q-8 3 -29 11l-31.5 12t-30 13t-30 15.5t-26 18
t-23.5 22.5t-17 26.5t-11.5 32.5t-2.5 39t5 46z" />
    <glyph glyph-name="scommaaccent" unicode="&#x219;" horiz-adv-x="443" 
d="M91 -305l-35 29q40 37 59 104q-12 1 -21 3t-12 3l-4 2l24 111q22 8 62 8q18 0 33 -2t21 -4l6 -2l-15 -72q-11 -53 -40.5 -98t-53.5 -63zM63 390q32 146 222 146q79 0 137 -30q-11 -58 -47 -88q-44 16 -99 16q-87 0 -98 -56q-2 -12 2.5 -21.5t17.5 -16.5t24 -11.5
t33 -11.5t34 -12q47 -18 72.5 -59.5t11.5 -106.5q-16 -79 -70 -114t-153 -35q-48 0 -90.5 9.5t-60.5 18.5l-18 10q17 55 50 93q64 -24 132 -24q78 0 89 56q7 29 -15.5 44.5t-71.5 30.5q-127 41 -102 162z" />
    <glyph glyph-name="dotlessj" unicode="&#x237;" horiz-adv-x="262" 
d="M-17 -92l130 610q21 8 65 8q18 0 33.5 -2t21.5 -4l6 -2l-129 -606q-35 -162 -185 -162q-19 0 -36 2t-25 4l-8 3q-2 13 2 29q4 20 11 36t11 22l5 7q15 -4 32 -4q54 0 66 59z" />
    <glyph glyph-name="circumflex" unicode="&#x2c6;" horiz-adv-x="396" 
d="M213 733l119 -118q-32 -43 -70 -54l-85 63l-112 -62q-32 11 -46 53l168 118h26z" />
    <glyph glyph-name="caron" unicode="&#x2c7;" horiz-adv-x="404" 
d="M149 550l-119 118q32 43 69 54l86 -63l111 62q33 -11 47 -53l-168 -118h-26z" />
    <glyph glyph-name="breve" unicode="&#x2d8;" horiz-adv-x="324" 
d="M306 663q-3 -3 -8 -7.5t-22 -16t-35.5 -20.5t-47.5 -16t-59 -7q-47 0 -83 17t-49 33l-12 17q10 19 28.5 35.5t36.5 22.5q32 -28 99 -28q30 0 57.5 7t40.5 14l13 7q17 -6 28 -22t13 -36z" />
    <glyph glyph-name="dotaccent" unicode="&#x2d9;" horiz-adv-x="176" 
d="M143 714l-22 -103q-22 -7 -59 -7q-18 0 -31.5 2t-18.5 4l-5 1l22 103q18 7 58 7q16 0 30 -1.5t20 -3.5z" />
    <glyph glyph-name="ring" unicode="&#x2da;" horiz-adv-x="344" 
d="M123 500q-53 0 -81 31t-16 84q11 53 53 82.5t93 29.5q50 0 81 -29.5t20 -82.5q-12 -54 -54.5 -84.5t-95.5 -30.5zM205 615q4 22 -7.5 37.5t-38.5 15.5q-26 0 -44 -16t-22 -37q-5 -22 6 -37.5t37 -15.5q27 0 45.5 16t23.5 37z" />
    <glyph glyph-name="ogonek" unicode="&#x2db;" horiz-adv-x="283" 
d="M-16 -163q17 -15 9 -46q-38 -19 -77 -19q-45 0 -69.5 26.5t-14.5 74.5q11 52 62 84.5t135 34.5l7 -21q-56 -17 -86 -36t-36 -50q-6 -26 6 -39.5t35 -13.5z" />
    <glyph glyph-name="tilde" unicode="&#x2dc;" horiz-adv-x="327" 
d="M220 700q14 0 27.5 6.5t20.5 13.5l6 6q15 -7 24 -23t8 -34q-5 -6 -14.5 -14.5t-39 -22.5t-57.5 -14q-33 0 -60.5 16t-46.5 16q-14 0 -27.5 -6.5t-20.5 -13.5l-6 -6q-35 21 -32 57q5 6 14.5 14.5t39 22.5t57.5 14q33 0 60.5 -16t46.5 -16z" />
    <glyph glyph-name="hungarumlaut" unicode="&#x2dd;" horiz-adv-x="386" 
d="M210 765l-153 -130q-46 8 -62 38l115 137q30 4 60.5 -10t39.5 -35zM380 765l-153 -130q-46 8 -62 38l115 137q30 4 60.5 -10t39.5 -35z" />
    <glyph glyph-name="pi" unicode="&#x3c0;" horiz-adv-x="630" 
d="M286 526h352q5 -24 -1 -51t-21 -52h-69l-39 -185q-14 -63 -18.5 -116t-2.5 -74l2 -21q-31 -27 -89 -27q-34 0 -47 7q-9 52 28 229l40 187h-166l-88 -414q-24 -9 -66 -9q-18 0 -33 2t-21 4l-6 3l86 406l-68 -12q-5 26 0 50q7 32 22 53q71 20 205 20z" />
    <glyph glyph-name="uni0401" unicode="&#x401;" horiz-adv-x="554" 
d="M278 885q19 7 56 7q16 0 29 -2t18 -4l5 -1l-21 -97q-20 -7 -55 -7q-16 0 -29.5 1.5t-18.5 3.5l-5 2zM459 885q19 7 56 7q16 0 29 -2t18 -4l5 -1l-21 -97q-20 -7 -55 -7q-16 0 -29.5 1.5t-18.5 3.5l-5 2zM171 720h413q4 -22 0 -48q-7 -31 -22 -55h-285l-43 -202h235
q5 -24 0 -50q-6 -29 -22 -53h-235l-44 -209h295q4 -30 -1 -50q-7 -31 -21 -53h-423z" />
    <glyph glyph-name="uni0410" unicode="&#x410;" horiz-adv-x="664" 
d="M340 711q35 9 80 9q22 0 41 -2t27 -4l8 -3l90 -702q-25 -9 -72 -9q-19 0 -31.5 2t-15.5 4l-3 3l-20 160h-273l-88 -160q-34 -9 -74 -9q-17 0 -31 2t-20 4l-6 3zM396 590h-4q-20 -55 -53 -115l-111 -203h203l-27 203q-4 28 -6 56.5t-2 43.5v15z" />
    <glyph glyph-name="uni0411" unicode="&#x411;" horiz-adv-x="625" 
d="M171 720h430q6 -20 -2 -55q-3 -14 -8 -28t-9 -21l-4 -6h-302l-38 -176h158q97 0 144 -68.5t26 -167.5q-21 -96 -91 -147t-171 -51h-286zM217 336l-50 -238h132q111 0 137 119q12 57 -9.5 88t-77.5 31h-132z" />
    <glyph glyph-name="uni0412" unicode="&#x412;" horiz-adv-x="631" 
d="M171 720h282q88 0 129.5 -61t21.5 -154q-20 -91 -107 -134q40 -21 58 -70.5t5 -106.5q-19 -93 -85 -143.5t-164 -50.5h-293zM234 413h125q47 0 77 28.5t40 75.5q10 49 -8 77t-65 28h-125zM167 98h131q109 0 131 110q24 111 -84 111h-131z" />
    <glyph glyph-name="uni0413" unicode="&#x413;" horiz-adv-x="512" 
d="M171 720h400q6 -19 -1 -54q-3 -14 -8.5 -28t-9.5 -21l-4 -7h-272l-128 -601q-24 -9 -67 -9q-19 0 -34 2t-21 4l-6 3z" />
    <glyph glyph-name="uni0414" unicode="&#x414;" horiz-adv-x="709" 
d="M547 103h78l-51 -241q-32 -10 -58 -10q-33 0 -56 10l29 138h-421l-29 -138q-30 -9 -59 -9q-32 0 -55 9l51 241h53q74 42 137 264l102 353h410zM361 625l-75 -264q-47 -165 -111 -258h245l111 522h-170z" />
    <glyph glyph-name="uni0415" unicode="&#x415;" horiz-adv-x="554" 
d="M171 720h413q4 -22 0 -48q-7 -31 -22 -55h-285l-42 -200h235q4 -30 -1 -50q-6 -28 -21 -53h-235l-45 -211h295q4 -30 -1 -50q-7 -31 -21 -53h-423z" />
    <glyph glyph-name="uni0416" unicode="&#x416;" horiz-adv-x="913" 
d="M833 711q34 9 66 9t66 -9l-285 -336l167 -366q-28 -9 -78 -9q-20 0 -37 2t-24 4l-6 3l-135 314h-41l-67 -314q-20 -9 -66 -9q-18 0 -33.5 2t-21.5 4l-7 3l67 314h-35l-271 -314q-29 -9 -75 -9q-22 0 -40.5 2t-26.5 4l-7 3l325 382l-145 320q38 9 70 9q31 0 62 -9
l129 -286h35l61 286q24 9 67 9q19 0 34 -2t21 -4l6 -3l-61 -286h35z" />
    <glyph glyph-name="uni0417" unicode="&#x417;" horiz-adv-x="556" 
d="M123 694q82 36 201 36q120 0 174 -58.5t33 -156.5q-11 -53 -44.5 -91t-75.5 -51l-1 -4q99 -48 72 -175q-20 -97 -101 -150.5t-224 -53.5q-59 0 -105.5 9t-63.5 17l-17 9q10 61 57 97q63 -21 133 -21q170 0 192 108q12 58 -18 82t-104 24h-75q-10 53 22 104h75
q65 0 100.5 23t46.5 77q12 56 -19.5 80t-91.5 24q-36 0 -72.5 -5.5t-54.5 -10.5l-19 -5q-35 31 -20 92z" />
    <glyph glyph-name="uni0418" unicode="&#x418;" horiz-adv-x="694" 
d="M550 711q24 9 76 9q23 0 41 -2t25 -4l6 -3l-149 -702q-23 -9 -65 -9q-21 0 -36.5 2t-21.5 4l-5 3l52 244q18 86 36 158t27 101l8 28h-4q-33 -61 -163 -244l-204 -287l-3 -1q-4 -1 -11 -2.5t-16 -2.5t-22.5 -2t-27.5 -1q-25 0 -43.5 2t-24.5 4l-6 3l149 702q23 9 65 9
q12 0 23 -1t18 -2t12.5 -2.5t7.5 -2.5l3 -1l-52 -243q-17 -80 -35.5 -156.5t-28.5 -113.5l-10 -36h4q38 75 173 264z" />
    <glyph glyph-name="uni0419" unicode="&#x419;" horiz-adv-x="694" 
d="M466 896q32 0 63 8.5t45 17.5l15 8q18 -7 30 -25t14 -39l-7.5 -7.5t-22 -16.5t-36.5 -21t-50 -16.5t-63 -7.5q-52 0 -93.5 17.5t-57.5 34.5l-16 17q11 21 31 39t41 25q34 -34 107 -34zM550 711q24 9 76 9q23 0 41 -2t25 -4l6 -3l-149 -702q-23 -9 -65 -9q-21 0 -36.5 2
t-21.5 4l-5 3l52 244q18 86 36 158t27 101l8 28h-4q-33 -61 -163 -244l-204 -287l-3 -1q-4 -1 -11 -2.5t-16 -2.5t-22.5 -2t-27.5 -1q-25 0 -43.5 2t-24.5 4l-6 3l149 702q23 9 65 9q12 0 23 -1t18 -2t12.5 -2.5t7.5 -2.5l3 -1l-52 -243q-17 -80 -35.5 -156.5t-28.5 -113.5
l-10 -36h4q38 75 173 264z" />
    <glyph glyph-name="uni041A" unicode="&#x41a;" horiz-adv-x="617" 
d="M279 425l252 286q34 9 73 9q32 0 66 -9l-292 -334l174 -368q-22 -9 -72 -9q-20 0 -37 2t-24 4l-7 3l-146 314h-52l-67 -314q-20 -9 -66 -9q-18 0 -33.5 2t-21.5 4l-7 3l149 702q24 9 67 9q19 0 34 -2t21 -4l6 -3l-61 -286h44z" />
    <glyph glyph-name="uni041B" unicode="&#x41b;" horiz-adv-x="677" 
d="M25 -5q-38 0 -66 8q-3 25 1 46q7 27 19 48q30 0 49 2q37 4 75 67t87 234l93 320h400l-151 -711q-23 -9 -65 -9q-10 0 -18.5 0.5t-14.5 1.5t-11.5 2t-8.5 1.5t-5 1.5t-3 1l-1 1l130 613h-160l-64 -224q-30 -104 -61 -179t-57.5 -118t-57 -67t-55 -31.5t-55.5 -7.5z" />
    <glyph glyph-name="uni041C" unicode="&#x41c;" horiz-adv-x="834" 
d="M664 711q42 9 93 9q22 0 42 -2t29 -4l10 -3l-149 -702q-24 -9 -65 -9q-18 0 -34 2t-22 4l-7 3l46 219q6 26 18 84t19.5 93.5t19 80t21.5 73.5h-6q-11 -22 -32 -56t-38.5 -60t-49 -72t-44.5 -65l-101 -147q-16 -5 -38 -5q-10 0 -17.5 1t-10.5 3l-3 1q-5 20 -19 68t-21 74
q-56 195 -58 258h-6q0 -20 -3 -46.5t-9.5 -62.5t-12 -61.5t-15 -71.5t-13.5 -64l-52 -244q-23 -9 -62 -9q-16 0 -29.5 2t-19.5 4l-6 3l149 702q33 9 79 9q17 0 33 -2t24 -4l8 -3l97 -379h5z" />
    <glyph glyph-name="uni041D" unicode="&#x41d;" horiz-adv-x="684" 
d="M499 424l61 287q24 9 66 9q19 0 34.5 -2t21.5 -4l6 -3l-149 -702q-23 -9 -65 -9q-21 0 -36.5 2t-21.5 4l-5 3l65 305h-264l-65 -305q-25 -9 -66 -9q-20 0 -35.5 2t-21.5 4l-5 3l149 702q23 9 65 9q19 0 35 -2t22 -4l6 -3l-61 -287h264z" />
    <glyph glyph-name="uni041E" unicode="&#x41e;" horiz-adv-x="678" 
d="M67 378q40 185 129.5 268.5t227.5 83.5q136 0 193.5 -97.5t16.5 -286.5q-40 -188 -128.5 -272t-227.5 -84q-137 0 -194 99t-17 289zM504 360q17 78 18 130.5t-14 81.5t-39.5 40.5t-61.5 11.5q-76 0 -127.5 -57.5t-83.5 -206.5q-24 -104 -14.5 -162.5t36.5 -80t76 -21.5
q77 0 128 57.5t82 206.5z" />
    <glyph glyph-name="uni041F" unicode="&#x41f;" horiz-adv-x="673" 
d="M679 720l-151 -711q-23 -9 -65 -9q-21 0 -36.5 2t-20.5 4l-6 3l128 601h-252l-128 -601q-25 -9 -66 -9q-20 0 -35.5 2t-20.5 4l-6 3l151 711h508z" />
    <glyph glyph-name="uni0420" unicode="&#x420;" horiz-adv-x="606" 
d="M203 270l-55 -261q-23 -9 -65 -9q-21 0 -36.5 2t-20.5 4l-6 3l151 711h268q99 0 144.5 -69.5t23.5 -172.5q-21 -99 -91 -153.5t-173 -54.5h-140zM226 376h122q52 0 86 31t46 88t-9 88t-73 31h-122z" />
    <glyph glyph-name="uni0421" unicode="&#x421;" horiz-adv-x="561" 
d="M67 380q39 179 132.5 264.5t243.5 85.5q49 0 90.5 -9t58.5 -17l17 -9q-13 -55 -59 -95q-52 21 -116 21q-88 0 -148 -58.5t-91 -203.5q-14 -78 -13.5 -128t21.5 -79t49.5 -40t70.5 -11q32 0 66 5.5t52 11.5l18 5q31 -35 17 -98q-74 -35 -190 -35q-146 0 -202 103t-17 287z
" />
    <glyph glyph-name="uni0422" unicode="&#x422;" 
d="M119 720h487q5 -24 -1 -54q-3 -14 -8.5 -28t-9.5 -21l-4 -7h-177l-128 -601q-25 -9 -66 -9q-20 0 -35.5 2t-20.5 4l-6 3l128 601h-182q-6 21 1 54q3 14 8.5 28t9.5 21z" />
    <glyph glyph-name="uni0423" unicode="&#x423;" horiz-adv-x="611" 
d="M547 711q27 9 68 9q16 0 31.5 -2t23.5 -4l8 -3l-306 -518q-47 -80 -98 -125t-87 -56.5t-78 -11.5q-18 0 -35 2.5t-25 5.5l-8 2q-6 20 1 51l17 51q26 -2 48 -2q76 0 144 105h-19l-137 496q25 9 72 9q23 0 40.5 -2t23.5 -4l6 -3l70 -277l19 -104h4q21 48 56 107z" />
    <glyph glyph-name="uni0424" unicode="&#x424;" horiz-adv-x="816" 
d="M423 660l14 66q23 9 65 9q19 0 35 -2.5t22 -4.5l6 -2l-14 -66q140 0 206 -73t34 -227q-32 -150 -123 -209t-237 -59l-18 -83q-25 -9 -66 -9q-20 0 -35.5 2t-21.5 4l-5 3l18 83q-140 0 -206 73t-32 227q32 145 123.5 206.5t234.5 61.5zM323 189l80 374q-81 0 -136 -41
t-77 -146q-22 -106 15 -146.5t118 -40.5zM531 563l-80 -374q81 0 136 41t77 146q22 106 -15 146.5t-118 40.5z" />
    <glyph glyph-name="uni0425" unicode="&#x425;" horiz-adv-x="640" 
d="M557 711q32 9 74 9q39 0 66 -9l-281 -331l154 -368q-29 -12 -77 -12q-19 0 -34.5 2.5t-21.5 5.5l-6 2l-114 269l-228 -271q-30 -8 -71 -8q-49 0 -74 8l316 374l-136 329q28 9 76 9q19 0 35 -2t23 -4l6 -3l98 -230z" />
    <glyph glyph-name="uni0426" unicode="&#x426;" horiz-adv-x="710" 
d="M18 0l151 711q20 9 66 9q18 0 33.5 -2t21.5 -4l7 -3l-128 -601h252l128 601q20 9 67 9q19 0 34 -2t21 -4l6 -3l-128 -601h77l-52 -248q-32 -10 -57 -10q-33 0 -57 10l29 138h-471z" />
    <glyph glyph-name="uni0427" unicode="&#x427;" horiz-adv-x="641" 
d="M451 402l66 309q24 9 66 9q19 0 34.5 -2t21.5 -4l6 -3l-149 -702q-23 -9 -65 -9q-21 0 -36.5 2t-20.5 4l-6 3l60 283q-69 -27 -154 -27q-115 0 -163 53.5t-21 179.5l45 213q23 9 65 9q19 0 35 -2t22 -4l6 -3l-45 -213q-14 -68 10.5 -95.5t86.5 -27.5q76 0 136 27z" />
    <glyph glyph-name="uni0428" unicode="&#x428;" horiz-adv-x="953" 
d="M18 0l151 711q20 9 66 9q18 0 33.5 -2t21.5 -4l7 -3l-128 -601h202l128 601q20 9 67 9q19 0 34 -2t21 -4l6 -3l-128 -601h202l128 601q20 9 67 9q19 0 34 -2t21 -4l6 -3l-151 -711h-788z" />
    <glyph glyph-name="uni0429" unicode="&#x429;" horiz-adv-x="990" 
d="M18 0l151 711q20 9 66 9q18 0 33.5 -2t21.5 -4l7 -3l-128 -601h202l128 601q20 9 67 9q19 0 34 -2t21 -4l6 -3l-128 -601h202l128 601q20 9 67 9q19 0 34 -2t21 -4l6 -3l-128 -601h77l-52 -248q-24 -10 -59 -10q-32 0 -55 10l29 138h-751z" />
    <glyph glyph-name="uni042A" unicode="&#x42a;" horiz-adv-x="718" 
d="M337 438h155q99 0 146 -67.5t26 -168.5q-21 -97 -91.5 -149.5t-173.5 -52.5h-283l130 610h-154q-6 21 1 54q3 14 8.5 28t9.5 21l4 7h282zM315 332l-49 -226h137q52 0 86 29.5t46 83.5q11 54 -10 83.5t-73 29.5h-137z" />
    <glyph glyph-name="uni042B" unicode="&#x42b;" horiz-adv-x="883" 
d="M169 711q20 9 67 9q19 0 34 -2t21 -4l6 -3l-58 -273h155q100 0 147.5 -66t27.5 -170q-19 -96 -91.5 -149t-176.5 -53h-283zM759 711q23 9 65 9q19 0 35 -2t22 -4l6 -3l-149 -702q-25 -9 -66 -9q-20 0 -35.5 2t-20.5 4l-6 3zM217 332l-49 -226h137q52 0 86 29.5t46 83.5
q11 54 -10 83.5t-73 29.5h-137z" />
    <glyph glyph-name="uni042C" unicode="&#x42c;" horiz-adv-x="621" 
d="M239 438h155q99 0 146.5 -66t26.5 -166q-21 -97 -92.5 -151.5t-173.5 -54.5h-283l151 711q20 9 67 9q19 0 34 -2t21 -4l6 -3zM168 106h137q52 0 86 29.5t46 83.5q11 54 -10 83.5t-73 29.5h-137z" />
    <glyph glyph-name="uni042D" unicode="&#x42d;" horiz-adv-x="585" 
d="M123 695q74 35 190 35q150 0 208.5 -104.5t18.5 -288.5q-73 -347 -384 -347q-54 0 -100.5 9t-65.5 17l-20 9q14 65 59 96q59 -21 136 -21q85 0 144.5 47.5t92.5 166.5h-244q-6 21 1 53q3 14 8.5 26.5t8.5 18.5l4 5h243q13 112 -26 158.5t-121 46.5q-31 0 -64.5 -5
t-51.5 -11l-19 -5q-31 34 -18 94z" />
    <glyph glyph-name="uni042E" unicode="&#x42e;" horiz-adv-x="959" 
d="M20 9l149 702q23 9 65 9q19 0 35 -2t22 -4l6 -3l-63 -299h118q83 318 354 318q137 0 193.5 -99t15.5 -289q-40 -187 -132.5 -269.5t-233.5 -82.5q-128 0 -183.5 77t-36.5 241h-118l-63 -299q-25 -9 -66 -9q-20 0 -35.5 2t-20.5 4zM684 624q-76 0 -127.5 -57.5
t-83.5 -206.5q-31 -147 -2.5 -205.5t100.5 -58.5q77 0 128 57.5t82 206.5q15 80 16.5 131t-15.5 80.5t-40 41t-58 11.5z" />
    <glyph glyph-name="uni042F" unicode="&#x42f;" horiz-adv-x="631" 
d="M637 720l-151 -711q-20 -9 -67 -9q-19 0 -34 2t-21 4l-6 3l57 267h-90l-210 -267q-29 -9 -75 -9q-20 0 -37.5 2t-24.5 4l-8 3l224 285q-124 59 -89 220q21 98 91 152t173 54h268zM486 614h-122q-106 0 -131 -116q-12 -56 9 -86t73 -30h122z" />
    <glyph glyph-name="uni0430" unicode="&#x430;" horiz-adv-x="555" 
d="M418 520q15 7 57 7q19 0 34 -2t21 -4l5 -2l-108 -511q-24 -8 -55 -8q-14 0 -27.5 1.5t-20.5 3.5l-6 2l-1 44q-56 -61 -143 -61q-89 0 -127 72.5t-7 219.5q30 143 92.5 198.5t155.5 55.5q80 0 115 -59zM367 321q10 47 -8 80t-58 33q-52 0 -83.5 -35t-52.5 -134
q-17 -69 -11 -107.5t23.5 -52t51.5 -13.5q41 0 71 30t41 78z" />
    <glyph glyph-name="uni0431" unicode="&#x431;" horiz-adv-x="569" 
d="M64 351q12 56 25.5 100t31.5 78.5t35 59.5t43.5 44.5t50 32.5t60.5 24t68.5 17.5t80.5 15.5q30 5 41 11t26 23q56 -7 71 -47q-22 -46 -52.5 -67.5t-77.5 -29.5q-66 -11 -101 -19t-70.5 -20.5t-54 -31.5t-34.5 -46.5t-30 -70.5h2q62 89 169 89q220 0 165 -262
q-30 -139 -99 -200.5t-179 -61.5q-45 0 -78.5 9.5t-60.5 34.5t-39.5 65t-11.5 104t19 148zM318 418q-51 0 -83.5 -34.5t-52.5 -131.5q-16 -67 -9.5 -103.5t24 -49.5t50.5 -13q50 0 83 35t53 131q16 67 9 103.5t-24 49.5t-50 13z" />
    <glyph glyph-name="uni0432" unicode="&#x432;" horiz-adv-x="514" 
d="M347 526q68 0 100 -44.5t20 -110.5q-7 -35 -30.5 -63.5t-53.5 -41.5q72 -43 54 -128q-14 -68 -63 -103t-127 -35h-246l112 526h234zM191 308h85q28 0 46.5 18t24.5 47q6 28 -5 46t-38 18h-85zM145 89h88q68 0 82 65q15 68 -54 68h-88z" />
    <glyph glyph-name="uni0433" unicode="&#x433;" horiz-adv-x="409" 
d="M113 526h319q5 -22 -1 -52q-3 -13 -8.5 -26t-8.5 -19l-4 -6h-193l-88 -415q-24 -8 -65 -8q-20 0 -35 2t-21 4l-5 2z" />
    <glyph glyph-name="uni0434" unicode="&#x434;" horiz-adv-x="593" 
d="M-22 92h35q56 28 105 196l70 238h352l-92 -434h63l-46 -212q-22 -8 -53 -8q-36 0 -63 8l26 120h-301l-26 -120q-26 -8 -59 -8q-40 0 -57 8zM273 431l-43 -147q-33 -116 -82 -192h175l72 339h-122z" />
    <glyph glyph-name="uni0435" unicode="&#x435;" horiz-adv-x="509" 
d="M444 224h-289q-9 -75 15 -101.5t81 -26.5q30 0 59.5 6t44.5 12l15 6q30 -35 20 -91q-68 -39 -179 -39q-118 0 -159 80t-13 215q53 251 275 251q88 0 135 -52.5t26 -154.5q-6 -28 -14 -54.5t-13 -38.5zM365 344q17 94 -67 94q-46 0 -74.5 -29t-48.5 -98h181z" />
    <glyph glyph-name="uni0436" unicode="&#x436;" horiz-adv-x="753" 
d="M639 518q30 8 68 8q16 0 31 -2t22 -4l7 -2l-186 -244l100 -266q-23 -8 -71 -8q-19 0 -34.5 2t-21.5 4l-7 2l-73 220h-50l-46 -220q-26 -8 -64 -8q-18 0 -33.5 2t-22.5 4l-6 2l46 220h-46l-166 -220q-28 -8 -70 -8q-21 0 -38 2t-23 4l-6 3l215 287l-85 222q30 8 67 8
q17 0 32 -2t22 -4l6 -2l66 -197h46l42 197q26 8 66 8q16 0 31 -2t22 -4l7 -2l-42 -197h47z" />
    <glyph glyph-name="uni0437" unicode="&#x437;" horiz-adv-x="462" 
d="M81 510q51 26 173 26q99 0 139 -44t28 -115q-14 -78 -92 -109v-2q75 -30 56 -125q-32 -151 -259 -151q-46 0 -85.5 8t-56.5 16l-16 8q11 54 52 85q43 -18 123 -18q100 0 115 66q7 35 -10.5 49.5t-64.5 14.5h-76q-5 20 1 49q2 12 6.5 23t7.5 16l4 5h76q77 0 90 65
q8 36 -14 50t-64 14q-29 0 -58 -3.5t-44 -7.5l-15 -4q-25 30 -16 84z" />
    <glyph glyph-name="uni0438" unicode="&#x438;" horiz-adv-x="575" 
d="M429 518q26 8 65 8q16 0 31.5 -2t22.5 -4l7 -2l-108 -510q-26 -8 -63 -8q-17 0 -33 2t-23 4l-7 2l27 127q43 210 52 219h-3q2 -1 -8.5 -17t-34.5 -46.5t-43 -55t-49 -62.5l-134 -165q-26 -8 -66 -8q-17 0 -32 2t-22 4l-6 2l108 510q26 8 63 8q18 0 34 -2t23 -4l6 -2
l-27 -128q-46 -217 -53 -219h3q33 53 69 99z" />
    <glyph glyph-name="uni0439" unicode="&#x439;" horiz-adv-x="575" 
d="M368 697q30 0 57.5 7.5t40.5 15.5l12 7q17 -6 28 -22t13 -36q-6 -7 -18 -18t-54 -29.5t-89 -18.5q-30 0 -56.5 7t-44 16.5t-30.5 19t-19 16.5l-5 7q10 19 28.5 35.5t36.5 22.5q33 -30 100 -30zM429 518q26 8 65 8q16 0 31.5 -2t22.5 -4l7 -2l-108 -510q-26 -8 -63 -8
q-17 0 -33 2t-23 4l-7 2l27 127q43 210 52 219h-3q-26 -46 -69 -99l-200 -247q-26 -8 -66 -8q-17 0 -32 2t-22 4l-6 2l108 510q26 8 63 8q18 0 34 -2t23 -4l6 -2l-27 -128q-46 -217 -53 -219h3q33 53 69 99z" />
    <glyph glyph-name="uni043A" unicode="&#x43a;" horiz-adv-x="506" 
d="M229 321l156 197q36 8 73 8q15 0 30 -2t22 -4l7 -2l-195 -247l115 -263q-35 -9 -76 -9q-17 0 -31.5 2.5t-20.5 4.5l-6 2l-88 220h-40l-46 -220q-27 -8 -64 -8q-17 0 -32.5 2t-22.5 4l-7 2l108 513q27 6 65 6l61 -6l-42 -200h34z" />
    <glyph glyph-name="uni043B" unicode="&#x43b;" horiz-adv-x="556" 
d="M242 290q-36 -123 -71.5 -188t-71 -86.5t-89.5 -21.5q-12 0 -25.5 2t-20.5 4l-7 2q-4 17 1 42q2 11 6.5 22t7.5 16l4 6q21 -2 41 1q29 5 53 48.5t56 156.5l68 232h342l-110 -518q-30 -8 -63 -8q-17 0 -32.5 2t-22.5 4l-7 2l90 423h-107z" />
    <glyph glyph-name="uni043C" unicode="&#x43c;" horiz-adv-x="665" 
d="M499 518q38 8 79 8q16 0 33 -2t25 -4l9 -2l-108 -510q-22 -8 -62 -8q-17 0 -31.5 2t-21.5 4l-6 2l37 174q11 52 23 97t18 65l6 19h-4q-15 -29 -58 -89l-121 -169q-12 -5 -30 -5l-28 5l-49 162q-9 29 -14.5 52.5t-6.5 32.5l-1 10h-4q-6 -64 -31 -181l-36 -173
q-27 -8 -60 -8q-14 0 -27.5 2t-20.5 4l-7 2l108 510q35 8 74 8q19 0 33.5 -2t20.5 -4l5 -2l72 -264h4z" />
    <glyph glyph-name="uni043D" unicode="&#x43d;" horiz-adv-x="558" 
d="M173 220l-45 -212q-25 -8 -66 -8q-18 0 -33 2t-21 4l-6 2l108 510q23 8 65 8q17 0 32.5 -2t22.5 -4l6 -2l-42 -197h176l42 197q27 8 65 8q17 0 32.5 -2t22.5 -4l6 -2l-108 -510q-24 -8 -66 -8q-17 0 -32 2t-22 4l-6 2l45 212h-176z" />
    <glyph glyph-name="uni043E" unicode="&#x43e;" horiz-adv-x="544" 
d="M38 278q30 142 97 200t179 58q110 0 157.5 -73t16.5 -217q-30 -142 -96 -199t-178 -57q-110 0 -158 72t-18 216zM363 263q17 70 10 109t-24.5 53.5t-48.5 14.5q-50 0 -83.5 -38.5t-54.5 -138.5q-17 -70 -10 -109t24.5 -53.5t48.5 -14.5q49 0 83 38.5t55 138.5z" />
    <glyph glyph-name="uni043F" unicode="&#x43f;" horiz-adv-x="550" 
d="M217 422l-88 -414q-28 -8 -66 -8q-17 0 -32 2t-21 4l-7 2l110 518h418l-110 -518q-27 -8 -66 -8q-16 0 -31 2t-22 4l-7 2l88 414h-166z" />
    <glyph glyph-name="uni0440" unicode="&#x440;" horiz-adv-x="557" 
d="M228 478q60 58 138 58q89 0 126.5 -72.5t6.5 -219.5q-30 -143 -90.5 -198.5t-148.5 -55.5q-83 0 -124 52l-55 -258q-24 -8 -66 -8q-19 0 -34 2t-21 4l-5 2l156 734q22 8 64 8q19 0 33 -2t19 -4l5 -2zM373 263q38 171 -64 171q-41 0 -71.5 -30t-41.5 -78l-25 -114
q-11 -49 8 -84.5t60 -35.5q49 0 81 38.5t53 132.5z" />
    <glyph glyph-name="uni0441" unicode="&#x441;" horiz-adv-x="442" 
d="M313 434q-64 0 -99 -40t-54 -131q-19 -89 1 -128t84 -39q23 0 46 3.5t35 6.5l12 4q13 -14 18 -39.5t0 -50.5q-51 -30 -158 -30q-112 0 -150.5 76t-9.5 214q28 133 94.5 194.5t181.5 61.5q46 0 78.5 -6.5t42.5 -13.5l10 -6q-13 -59 -51 -89q-31 13 -81 13z" />
    <glyph glyph-name="uni0442" unicode="&#x442;" horiz-adv-x="463" 
d="M73 526h412q5 -21 -2 -53q-3 -14 -8 -27t-9 -19l-4 -6h-143l-87 -413q-24 -8 -65 -8q-20 0 -35 2t-20 4l-6 2l87 413h-143q-6 21 0 52q3 14 9 27.5t10 19.5z" />
    <glyph glyph-name="uni0443" unicode="&#x443;" 
d="M402 518q24 8 65 8q20 0 35 -2t20 -4l6 -2l-106 -497q-30 -144 -101.5 -207.5t-193.5 -63.5q-50 0 -89 10t-53 20l-14 11q15 54 52 82q43 -23 107 -23q65 0 105 34t61 137l3 12q-56 -43 -133 -43q-82 0 -116 49t-17 125l75 354q24 8 65 8q20 0 35 -2t20 -4l6 -2l-75 -354
q-15 -72 65 -72q50 0 95 37z" />
    <glyph glyph-name="uni0444" unicode="&#x444;" horiz-adv-x="780" 
d="M418 742q20 8 64 8q18 0 33.5 -2t22.5 -4l6 -2l-48 -224q38 18 92 18q99 0 131.5 -75.5t3.5 -212.5q-28 -133 -89 -195.5t-162 -62.5q-23 0 -44 5t-30 11l-10 5l-53 -253q-24 -8 -65 -8q-20 0 -35 2t-21 4l-5 2l53 253q-40 -21 -92 -21q-192 0 -131 288q29 134 87.5 196
t159.5 62q24 0 45 -4.5t30 -9.5l9 -4zM356 423l-2 1q-3 2 -9 4.5t-13.5 5t-19.5 4.5t-26 2q-47 0 -76.5 -40t-50.5 -137q-20 -99 -7.5 -137.5t59.5 -38.5q20 0 39.5 5.5t29.5 10.5l9 5zM599 263q20 99 7 138t-60 39q-22 0 -40.5 -4.5t-27.5 -8.5l-8 -4l-67 -315
q24 -21 68 -21q47 0 77.5 40t50.5 136z" />
    <glyph glyph-name="uni0445" unicode="&#x445;" horiz-adv-x="540" 
d="M192 269l-105 249q27 8 70 8q20 0 35 -2t20 -4l4 -2l66 -155l134 155q33 8 70 8q18 0 34 -2t22 -4l7 -2l-210 -241l116 -269q-27 -8 -70 -8q-20 0 -34.5 2t-18.5 4l-4 2l-76 175l-152 -175q-35 -8 -72 -8q-18 0 -34 2t-22 4l-7 2z" />
    <glyph glyph-name="uni0446" unicode="&#x446;" horiz-adv-x="584" 
d="M403 518q26 8 64 8q17 0 32.5 -2t22.5 -4l7 -2l-88 -414h63l-48 -224q-24 -8 -56 -8q-41 0 -60 8l26 120h-365l110 518q25 8 64 8q20 0 35.5 -2t21.5 -4l5 -2l-88 -414h166z" />
    <glyph glyph-name="uni0447" unicode="&#x447;" horiz-adv-x="523" 
d="M503 518l-108 -510q-23 -8 -66 -8q-18 0 -33 2t-21 4l-6 2l39 187q-31 -11 -97 -11q-198 0 -162 171l35 163q26 8 65 8q17 0 32.5 -2t22.5 -4l6 -2l-35 -164q-8 -38 9 -55.5t60 -17.5q24 0 45 3.5t31 6.5l9 3l48 224q24 8 64 8q19 0 34.5 -2t21.5 -4z" />
    <glyph glyph-name="uni0448" unicode="&#x448;" horiz-adv-x="742" 
d="M1 0l110 518q20 8 64 8q19 0 34.5 -2t21.5 -4l6 -2l-88 -414h116l88 414q20 8 64 8q19 0 34.5 -2t21.5 -4l6 -2l-88 -414h116l88 414q20 8 64 8q19 0 34.5 -2t21.5 -4l6 -2l-110 -518h-610z" />
    <glyph glyph-name="uni0449" unicode="&#x449;" horiz-adv-x="776" 
d="M696 104l-48 -224q-24 -8 -59 -8q-38 0 -57 8l26 120h-557l110 518q20 8 64 8q19 0 34.5 -2t21.5 -4l6 -2l-88 -414h116l88 414q20 8 64 8q19 0 34.5 -2t21.5 -4l6 -2l-88 -414h116l88 414q20 8 64 8q19 0 34.5 -2t21.5 -4l6 -2l-88 -414h63z" />
    <glyph glyph-name="uni044A" unicode="&#x44a;" horiz-adv-x="575" 
d="M271 324h112q76 0 111.5 -50.5t19.5 -124.5q-15 -72 -68 -110.5t-132 -38.5h-238l89 421h-115q-6 25 0 54q7 30 23 51h241zM221 89h88q31 0 52.5 19.5t28.5 53.5q8 33 -5.5 53t-44.5 20h-88z" />
    <glyph glyph-name="uni044B" unicode="&#x44b;" horiz-adv-x="731" 
d="M111 518q25 8 64 8t62 -8l-41 -194h112q75 0 110.5 -50.5t20.5 -125.5q-15 -74 -67.5 -111t-132.5 -37h-238zM585 518q25 8 65 8q38 0 61 -8l-108 -510q-27 -8 -66 -8t-60 8zM177 235l-31 -146h88q31 0 52.5 19.5t28.5 53.5q8 33 -5.5 53t-44.5 20h-88z" />
    <glyph glyph-name="uni044C" unicode="&#x44c;" horiz-adv-x="500" 
d="M196 324h112q76 0 112 -50t20 -124q-15 -72 -68.5 -111t-132.5 -39h-238l110 518q25 8 64 8t62 -8zM146 89h88q31 0 52.5 19.5t28.5 53.5q8 33 -5.5 53t-44.5 20h-88z" />
    <glyph glyph-name="uni044D" unicode="&#x44d;" horiz-adv-x="459" 
d="M270 219h-177q-6 16 0 46q3 13 8 24.5t8 16.5l3 5h176q15 129 -93 129q-24 0 -48.5 -3.5t-36.5 -6.5l-13 -4q-24 30 -16 84q54 26 158 26q113 0 153.5 -75t11.5 -211q-28 -133 -98 -196.5t-185 -63.5q-47 0 -85.5 8t-53.5 16l-15 7q13 55 52 85q42 -16 98 -16
q112 0 153 129z" />
    <glyph glyph-name="uni044E" unicode="&#x44e;" horiz-adv-x="780" 
d="M279 312q67 224 276 224q110 0 155 -70.5t14 -215.5q-30 -142 -101 -201t-184 -59q-205 0 -182 217h-86l-42 -199q-27 -8 -66 -8t-60 8l108 510q25 8 65 8q38 0 61 -8l-44 -206h86zM597 263q17 70 10.5 109t-23.5 53.5t-50 14.5q-50 0 -83.5 -38.5t-54.5 -138.5
q-17 -70 -10.5 -109t23.5 -53.5t50 -14.5q50 0 83.5 38.5t54.5 138.5z" />
    <glyph glyph-name="uni044F" unicode="&#x44f;" horiz-adv-x="524" 
d="M245 194l-142 -186q-30 -8 -74 -8q-37 0 -66 8l163 202q-38 19 -53.5 62t-4.5 96q16 74 71 116t135 42h231l-110 -518q-27 -8 -64 -8q-41 0 -62 8l39 186h-63zM279 437q-33 0 -57 -20.5t-32 -56.5q-8 -35 5.5 -56t46.5 -21h85l33 154h-81z" />
    <glyph glyph-name="uni0451" unicode="&#x451;" horiz-adv-x="509" 
d="M197 705q19 7 56 7q16 0 29 -2t18 -4l5 -1l-21 -97q-20 -7 -55 -7q-16 0 -29.5 1.5t-18.5 3.5l-5 2zM378 705q19 7 56 7q16 0 29 -2t18 -4l5 -1l-21 -97q-20 -7 -55 -7q-16 0 -29.5 1.5t-18.5 3.5l-5 2zM444 224h-289q-9 -75 15 -101.5t81 -26.5q30 0 59.5 6t44.5 12
l15 6q30 -35 20 -91q-68 -39 -179 -39q-118 0 -159 80t-13 215q53 251 275 251q88 0 135 -52.5t26 -154.5q-6 -28 -14 -54.5t-13 -38.5zM365 344q17 94 -67 94q-46 0 -74.5 -29t-48.5 -98h181z" />
    <glyph glyph-name="Wgrave" unicode="&#x1e80;" horiz-adv-x="972" 
d="M571 749l-97 130q18 21 53.5 35t64.5 10l57 -137q-27 -29 -78 -38zM544 9l-4 411q0 47 3 90t6 62l3 19h-5q-17 -65 -63 -171l-177 -411q-38 -9 -87 -9q-42 0 -74 9l-38 702q24 9 67 9q20 0 34 -2t18 -4l4 -3l21 -428v-148h4q26 77 57 147l189 429q30 9 77 9q22 0 37 -2
t20 -4l4 -3l6 -428q0 -33 -1.5 -70t-3.5 -57l-2 -21h4q24 68 62 147l204 429q31 9 65 9q16 0 32 -2t24 -4l7 -3l-339 -702q-32 -9 -77 -9q-20 0 -39 2t-28 4z" />
    <glyph glyph-name="wgrave" unicode="&#x1e81;" horiz-adv-x="793" 
d="M440 602l-97 130q18 21 53.5 35t64.5 10l57 -137q-27 -29 -78 -38zM419 8l-9 238q-2 73 9 153h-4q-23 -84 -58 -153l-111 -238q-33 -8 -76 -8q-46 0 -74 8l-35 510q25 8 65 8q12 0 21.5 -1t14 -2t7.5 -2t3 -2l1 -1l19 -290q3 -43 -1 -105h3q18 50 45 106l135 289
q34 8 72 8q18 0 33 -2t21 -4l6 -2l10 -288q1 -47 -3 -107h3q6 15 48 106l137 289q27 8 67 8q17 0 29.5 -2t16.5 -4l5 -2l-251 -510q-36 -8 -76 -8q-41 0 -73 8z" />
    <glyph glyph-name="Wacute" unicode="&#x1e82;" horiz-adv-x="972" 
d="M716 881l-152 -130q-48 9 -62 38l115 137q30 4 60 -10t39 -35zM544 9l-4 411q0 47 3 90t6 62l3 19h-5q-17 -65 -63 -171l-177 -411q-38 -9 -87 -9q-42 0 -74 9l-38 702q24 9 67 9q20 0 34 -2t18 -4l4 -3l21 -428v-148h4q26 77 57 147l189 429q30 9 77 9q22 0 37 -2t20 -4
l4 -3l6 -428q0 -33 -1.5 -70t-3.5 -57l-2 -21h4q24 68 62 147l204 429q31 9 65 9q16 0 32 -2t24 -4l7 -3l-339 -702q-32 -9 -77 -9q-20 0 -39 2t-28 4z" />
    <glyph glyph-name="wacute" unicode="&#x1e83;" horiz-adv-x="793" 
d="M589 732l-153 -130q-46 8 -62 38l115 137q30 4 60.5 -10t39.5 -35zM419 8l-9 238q-2 73 9 153h-4q-23 -84 -58 -153l-111 -238q-33 -8 -76 -8q-46 0 -74 8l-35 510q25 8 65 8q12 0 21.5 -1t14 -2t7.5 -2t3 -2l1 -1l19 -290q3 -43 -1 -105h3q18 50 45 106l135 289
q34 8 72 8q18 0 33 -2t21 -4l6 -2l10 -288q1 -47 -3 -107h3q6 15 48 106l137 289q27 8 67 8q17 0 29.5 -2t16.5 -4l5 -2l-251 -510q-36 -8 -76 -8q-41 0 -73 8z" />
    <glyph glyph-name="Wdieresis" unicode="&#x1e84;" horiz-adv-x="972" 
d="M572 884l-21 -97q-20 -7 -55 -7q-16 0 -29.5 2t-18.5 4l-5 1l21 97q18 7 55 7q16 0 29 -1.5t18 -3.5zM753 884l-21 -97q-20 -7 -55 -7q-16 0 -29.5 2t-18.5 4l-5 1l21 97q18 7 55 7q16 0 29 -1.5t19 -3.5zM544 9l-4 411q0 47 3 90t6 62l3 19h-5q-17 -65 -63 -171
l-177 -411q-38 -9 -87 -9q-42 0 -74 9l-38 702q24 9 67 9q20 0 34 -2t18 -4l4 -3l21 -428v-148h4q26 77 57 147l189 429q30 9 77 9q22 0 37 -2t20 -4l4 -3l6 -428q0 -33 -1.5 -70t-3.5 -57l-2 -21h4q24 68 62 147l204 429q31 9 65 9q16 0 32 -2t24 -4l7 -3l-339 -702
q-32 -9 -77 -9q-20 0 -39 2t-28 4z" />
    <glyph glyph-name="wdieresis" unicode="&#x1e85;" horiz-adv-x="793" 
d="M442 706l-21 -97q-20 -7 -55 -7q-16 0 -29.5 2t-18.5 4l-5 1l21 97q19 7 56 7q16 0 29 -1.5t18 -3.5zM623 706l-21 -97q-20 -7 -55 -7q-16 0 -29.5 2t-18.5 4l-5 1l21 97q19 7 56 7q16 0 29 -1.5t18 -3.5zM419 8l-9 238q-2 73 9 153h-4q-23 -84 -58 -153l-111 -238
q-33 -8 -76 -8q-46 0 -74 8l-35 510q25 8 65 8q12 0 21.5 -1t14 -2t7.5 -2t3 -2l1 -1l19 -290q3 -43 -1 -105h3q18 50 45 106l135 289q34 8 72 8q18 0 33 -2t21 -4l6 -2l10 -288q1 -47 -3 -107h3q6 15 48 106l137 289q27 8 67 8q17 0 29.5 -2t16.5 -4l5 -2l-251 -510
q-36 -8 -76 -8q-41 0 -73 8z" />
    <glyph glyph-name="Ygrave" unicode="&#x1ef2;" horiz-adv-x="636" 
d="M426 924l57 -137q-27 -29 -78 -38l-97 130q18 21 53.5 35t64.5 10zM568 711q34 9 77 9q18 0 35.5 -2t25.5 -4l8 -3l-334 -411l-62 -291q-23 -9 -64 -9q-20 0 -36 2t-22 4l-6 3l61 288l-152 414q29 9 80 9q20 0 35.5 -2t20.5 -4l5 -3l103 -283z" />
    <glyph glyph-name="ygrave" unicode="&#x1ef3;" 
d="M326 592l-97 130q18 21 53.5 35t64.5 10l57 -137q-27 -29 -78 -38zM402 518q24 8 65 8q20 0 35 -2t20 -4l6 -2l-106 -497q-30 -144 -101.5 -207.5t-193.5 -63.5q-50 0 -89 10t-53 20l-14 11q15 54 52 82q43 -23 107 -23q65 0 105 34t61 137l3 12q-56 -43 -133 -43
q-82 0 -116 49t-17 125l75 354q24 8 65 8q20 0 35 -2t20 -4l6 -2l-75 -354q-15 -72 65 -72q50 0 95 37z" />
    <glyph glyph-name="endash" unicode="&#x2013;" horiz-adv-x="569" 
d="M481 244h-420q-3 18 3 46q3 12 7 23.5t7 16.5l2 6h420q4 -18 -2 -46q-3 -12 -7 -23.5t-7 -16.5z" />
    <glyph glyph-name="emdash" unicode="&#x2014;" horiz-adv-x="819" 
d="M731 244h-670q-3 18 3 46q3 12 7 23.5t7 16.5l2 6h670q4 -18 -2 -46q-3 -12 -7 -23.5t-7 -16.5z" />
    <glyph glyph-name="quoteleft" unicode="&#x2018;" horiz-adv-x="236" 
d="M221 720l38 -30q-42 -38 -62 -108l38 -7l-24 -115q-21 -8 -65 -8q-18 0 -33.5 2t-21.5 4l-6 2l16 75q12 55 42 101t54 65z" />
    <glyph glyph-name="quoteright" unicode="&#x2019;" horiz-adv-x="229" 
d="M130 452l-38 30q42 37 61 107q-12 1 -21 3t-12 4l-4 1l24 115q21 8 65 8q18 0 33.5 -2t21.5 -4l6 -2l-16 -75q-12 -55 -42 -101t-54 -65z" />
    <glyph glyph-name="quotesinglbase" unicode="&#x201a;" horiz-adv-x="243" 
d="M11 -137l-38 30q42 38 61 107q-12 1 -21 3t-13 3l-3 2l24 115q21 8 65 8q18 0 33.5 -2t21.5 -4l6 -2l-16 -75q-12 -55 -42 -101t-54 -65z" />
    <glyph glyph-name="quotedblleft" unicode="&#x201c;" horiz-adv-x="396" 
d="M221 720l38 -30q-42 -38 -62 -108l38 -7l-24 -115q-21 -8 -65 -8q-18 0 -33.5 2t-21.5 4l-6 2l16 75q12 55 42 101t54 65zM381 720l38 -30q-42 -38 -62 -108l38 -7l-24 -115q-21 -8 -65 -8q-18 0 -33.5 2t-21.5 4l-6 2l16 75q12 55 42 101t54 65z" />
    <glyph glyph-name="quotedblright" unicode="&#x201d;" horiz-adv-x="389" 
d="M130 452l-38 30q42 37 61 107q-12 1 -21 3t-12 4l-4 1l24 115q21 8 65 8q18 0 33.5 -2t21.5 -4l6 -2l-16 -75q-12 -55 -42 -101t-54 -65zM290 452l-38 30q42 37 61 107q-12 1 -21 3t-12 4l-4 1l24 115q21 8 65 8q18 0 33.5 -2t21.5 -4l6 -2l-16 -75q-12 -55 -42 -101
t-54 -65z" />
    <glyph glyph-name="quotedblbase" unicode="&#x201e;" horiz-adv-x="403" 
d="M11 -137l-38 30q42 38 61 107q-12 1 -21 3t-13 3l-3 2l24 115q21 8 65 8q18 0 33.5 -2t21.5 -4l6 -2l-16 -75q-12 -55 -42 -101t-54 -65zM171 -137l-38 30q42 38 61 107q-12 1 -21 3t-13 3l-3 2l24 115q21 8 65 8q18 0 33.5 -2t21.5 -4l6 -2l-16 -75q-12 -55 -42 -101
t-54 -65z" />
    <glyph glyph-name="dagger" unicode="&#x2020;" horiz-adv-x="556" 
d="M193 -127l-45 26l117 514l-214 -7q0 20 5 47l15 46l211 -7l36 204q23 5 50 5l47 -5l-50 -204l201 7q2 -19 -4 -46q-3 -12 -7 -24t-7 -17l-2 -6l-198 7l-103 -514z" />
    <glyph glyph-name="daggerdbl" unicode="&#x2021;" horiz-adv-x="626" 
d="M326 166l214 7q0 -20 -5 -47l-15 -46l-211 7l-36 -204q-23 -5 -50 -5l-47 5l50 204l-212 -7q-2 19 4 46q3 12 7 24t7 18l2 5l209 -7l19 123l34 124l-214 -7q0 20 5 47l15 46l211 -7l36 204q23 5 50 5l47 -5l-50 -204l212 7q2 -19 -4 -46q-3 -12 -7 -24t-7 -17l-2 -6
l-209 7l-20 -124z" />
    <glyph glyph-name="bullet" unicode="&#x2022;" horiz-adv-x="361" 
d="M280 282q-10 -46 -45.5 -74.5t-80.5 -28.5q-46 0 -70 28.5t-14 74.5t46 75t82 29q45 0 68.5 -28.5t13.5 -75.5z" />
    <glyph glyph-name="ellipsis" unicode="&#x2026;" horiz-adv-x="696" 
d="M147 123l-24 -115q-24 -8 -65 -8q-20 0 -35 2t-21 4l-5 2l24 115q21 8 65 8q18 0 33.5 -2t21.5 -4zM374 123l-24 -115q-24 -8 -65 -8q-20 0 -35 2t-20 4l-6 2l24 115q21 8 65 8q18 0 33.5 -2t21.5 -4zM599 123l-24 -115q-24 -8 -65 -8q-20 0 -35 2t-21 4l-5 2l24 115
q21 8 65 8q18 0 33.5 -2t21.5 -4z" />
    <glyph glyph-name="perthousand" unicode="&#x2030;" horiz-adv-x="1093" 
d="M709 695l-534 -698q-16 -7 -48 -7q-14 0 -25.5 1.5t-15.5 3.5l-5 2l534 698q16 7 48 7q14 0 25.5 -2t15.5 -4zM182 345q-69 0 -96 41t-7 132q37 173 177 173q141 0 104 -173t-178 -173zM241 622q-27 0 -43.5 -21.5t-29.5 -82.5q-12 -66 -5 -84.5t34 -18.5q26 0 42.5 20.5
t29.5 82.5q12 64 5 84t-33 20zM525 -10q-69 0 -96 41t-7 132q37 173 176 173q141 0 105 -173q-37 -173 -178 -173zM855 -10q-69 0 -96 41t-7 132q37 173 176 173q141 0 105 -173q-37 -173 -178 -173zM584 267q-27 0 -43.5 -21.5t-29.5 -82.5q-12 -66 -5 -84.5t34 -18.5
q26 0 42.5 20.5t29.5 82.5q12 65 5 84.5t-33 19.5zM914 267q-27 0 -43.5 -21.5t-29.5 -82.5q-12 -66 -5 -84.5t34 -18.5q26 0 42.5 20.5t29.5 82.5q12 65 5 84.5t-33 19.5z" />
    <glyph glyph-name="guilsinglleft" unicode="&#x2039;" horiz-adv-x="337" 
d="M54 322l241 187q24 -23 26 -73l-177 -167l106 -166q-22 -49 -57 -73l-162 184q-5 19 2 51q4 16 9 30t8 21z" />
    <glyph glyph-name="guilsinglright" unicode="&#x203a;" horiz-adv-x="336" 
d="M128 509l161 -187q5 -22 -3 -57q-3 -14 -8 -27t-8 -18l-4 -6l-240 -184q-25 25 -25 73l176 166l-105 167q19 47 56 73z" />
    <glyph glyph-name="fraction" unicode="&#x2044;" horiz-adv-x="140" 
d="M-237 -3l534 698q16 7 48 7q14 0 25.5 -2t15.5 -4l5 -1l-535 -698q-20 -7 -48 -7q-12 0 -23 1.5t-17 3.5z" />
    <glyph glyph-name="zeroinferior" unicode="&#x2080;" horiz-adv-x="346" 
d="M85 -101q-139 0 -102 177q37 176 178 176t103 -176q-37 -177 -179 -177zM146 183q-27 0 -44 -23t-30 -84q-12 -66 -5 -86t34 -20q26 0 42.5 22t29.5 84q12 64 5.5 85.5t-32.5 21.5z" />
    <glyph glyph-name="oneinferior" unicode="&#x2081;" horiz-adv-x="248" 
d="M-8 186q64 16 109 56q18 5 43 5q17 0 39 -5l-70 -333q-23 -5 -41 -5q-26 0 -45 5l41 195q4 23 10 40q-36 -21 -78 -26q-20 25 -8 68z" />
    <glyph glyph-name="twoinferior" unicode="&#x2082;" horiz-adv-x="303" 
d="M-49 -55q10 46 42 79t65 47t62 33t34 41q4 20 -10 28.5t-38 8.5q-35 2 -64 -9q-19 25 -8 62q47 17 104 17q54 0 84.5 -26t19.5 -76q-8 -36 -32.5 -62t-51.5 -38.5t-61 -32t-54 -40.5h145q4 -16 -1 -37q-3 -17 -14 -36h-226q-1 18 4 41z" />
    <glyph glyph-name="threeinferior" unicode="&#x2083;" horiz-adv-x="300" 
d="M204 0q-21 -101 -165 -101q-28 0 -51.5 5.5t-33.5 11.5l-9 5q8 38 36 59q29 -11 69 -11q62 0 70 41q5 21 -5 30t-37 9h-48q-5 34 15 67h48q39 0 46 31q4 19 -6 27.5t-35 8.5q-16 0 -33.5 -2.5t-26.5 -4.5l-10 -3q-19 21 -9 60q43 19 101 19q59 0 88 -24.5t20 -68.5
q-11 -52 -57 -74q46 -22 33 -85z" />
    <glyph glyph-name="fourinferior" unicode="&#x2084;" horiz-adv-x="330" 
d="M205 42h37q2 -11 -2 -31q-2 -10 -11 -30h-37l-15 -72q-19 -5 -37 -5q-20 0 -35 5l15 72h-164q-2 18 1 30q3 14 10 25l199 205q21 6 42 6q22 0 39 -6zM155 148l-102 -106h80z" />
    <glyph glyph-name="fiveinferior" unicode="&#x2085;" horiz-adv-x="302" 
d="M104 174l-10 -48q70 0 99 -28t17 -86q-13 -58 -53.5 -85.5t-116.5 -27.5q-29 0 -52.5 5.5t-32.5 11.5l-9 5q8 37 35 59q27 -11 63 -11q68 0 78 43q5 26 -8 35t-51 9h-65l40 191h202q5 -37 -15 -73h-121z" />
    <glyph glyph-name="sixinferior" unicode="&#x2086;" horiz-adv-x="312" 
d="M-26 36q41 198 260 214q5 -13 1 -32.5t-15 -34.5q-88 -4 -130 -63q18 3 41 3q51 0 77.5 -27.5t14.5 -84.5q-12 -55 -52 -83.5t-99 -28.5q-61 0 -87 34t-11 103zM137 11q10 46 -32 46q-17 0 -41 -4q-20 -89 22 -89t51 47z" />
    <glyph glyph-name="seveninferior" unicode="&#x2087;" horiz-adv-x="286" 
d="M149 173h-146q-3 37 15 74h231q1 -20 -3 -40q-7 -33 -28.5 -62t-47.5 -51.5t-52 -47t-47.5 -60t-28.5 -78.5q-46 -8 -82 0q13 56 36 97t45 61t54.5 50t53.5 57z" />
    <glyph glyph-name="eightinferior" unicode="&#x2088;" horiz-adv-x="324" 
d="M9 157q10 44 48 69.5t95 25.5q54 0 80.5 -24t18.5 -65q-11 -46 -56 -77q45 -33 34 -86q-10 -49 -50.5 -75t-103.5 -26q-60 0 -89.5 24.5t-19.5 71.5q11 51 67 82q-35 29 -24 80zM172 157q4 16 -5 24.5t-29 8.5q-38 0 -45 -30q-3 -15 10.5 -25.5t39.5 -20.5q23 15 29 43z
M145 -3q2 10 -4 19t-13.5 13.5t-22 11.5t-18.5 9q-32 -19 -39 -49q-4 -19 7 -28t36 -9q48 0 54 33z" />
    <glyph glyph-name="nineinferior" unicode="&#x2089;" horiz-adv-x="313" 
d="M-8 140q12 55 52 83.5t99 28.5q61 0 87 -34t11 -103q-41 -198 -260 -214q-5 13 -1 32.5t15 34.5q88 4 129 63q-18 -3 -40 -3q-51 0 -77.5 27.5t-14.5 84.5zM151 98q19 89 -22 89q-42 0 -51 -47q-10 -46 32 -46q24 0 41 4z" />
    <glyph glyph-name="Euro" unicode="&#x20ac;" horiz-adv-x="592" 
d="M159 454q93 226 310 226q44 0 80.5 -8t50.5 -16l14 -9q-11 -56 -54 -87q-44 19 -99 19q-117 0 -175 -125h231q3 -40 -30 -77h-228q-5 -16 -10 -43q-6 -28 -8 -40h201q3 -40 -30 -77h-177q1 -68 33.5 -96t89.5 -28q28 0 57 4.5t45 9.5l15 5q29 -24 16 -89
q-64 -33 -168 -33q-109 0 -163 57.5t-51 169.5h-85q-1 17 8 39.5t22 37.5h62q2 13 8 41t10 42h-76q-1 17 8 39.5t22 37.5h71z" />
    <glyph glyph-name="uni2113" unicode="&#x2113;" horiz-adv-x="477" 
d="M160 541q44 209 222 209q81 0 114 -40.5t19 -108.5q-39 -178 -288 -339l-23 -107q-13 -59 38 -59q24 0 51 13t42 26l15 13q47 -15 47 -62l-10.5 -10.5t-28 -23t-45 -29t-58.5 -23t-71 -10.5q-67 0 -96.5 37t-9.5 129l6 26q-6 -3 -59 -27q-30 26 -19 82q49 20 100 50z
M399 601q13 63 -33 63q-28 0 -46.5 -26t-33.5 -99l-31 -145q61 55 98 110.5t46 96.5z" />
    <glyph glyph-name="uni2117" unicode="&#x2117;" horiz-adv-x="797" 
d="M56 340q31 145 155 247.5t270 102.5q145 0 225.5 -102t49.5 -248q-31 -145 -154.5 -247.5t-269.5 -102.5q-145 0 -226 102t-50 248zM675 340q24 112 -38 190.5t-174 78.5t-207 -78.5t-119 -190.5q-23 -112 38.5 -190.5t173.5 -78.5t207.5 78.5t118.5 190.5zM333 523h155
q59 0 87 -35.5t16 -92.5q-13 -59 -56 -94t-102 -35h-70l-25 -119q-45 -20 -85 0zM403 451l-24 -111h61q51 0 63 55q11 56 -39 56h-61z" />
    <glyph glyph-name="trademark" unicode="&#x2122;" horiz-adv-x="613" 
d="M119 720h203q2 -6 0 -20q-3 -10 -9 -21h-75l-51 -243q-10 -4 -27 -4l-24 4l51 243h-77q0 17 1 20q1 9 8 21zM362 716q13 4 32 4q15 0 29 -4l22 -73q12 -41 17 -79q4 8 48 72l54 80q20 4 34 4l32 -4l-59 -280q-10 -4 -26 -4l-25 4l23 111q18 86 25 109q-20 -34 -41 -65
l-56 -79q-9 -3 -22 -3l-20 3l-21 79q-8 28 -15 65q-1 -25 -20 -109l-23 -111q-10 -4 -25 -4l-22 4z" />
    <glyph glyph-name="Omega" unicode="&#x2126;" horiz-adv-x="730" 
d="M88 380q74 350 368 350t220 -350q-34 -159 -149 -270h104q3 -30 -1 -55q-6 -26 -22 -55h-246q-11 56 23 110q116 83 157 270q13 59 14.5 102.5t-6 70.5t-25 43t-39.5 22t-52 6q-38 0 -67.5 -10t-57.5 -36t-49.5 -75t-37.5 -123q-40 -187 41 -270q7 -53 -23 -110h-246
q-5 29 0 54q6 28 23 56h104q-67 111 -33 270z" />
    <glyph glyph-name="estimated" unicode="&#x212e;" horiz-adv-x="783" 
d="M542 95h67q-120 -105 -276 -105q-146 0 -227 103.5t-50 248.5q31 146 156 249t270 103q146 0 227.5 -103.5t50.5 -248.5l-5 -24h-544l-47 -218q77 -67 178 -67q99 0 200 62zM651 583q-75 68 -178 68q-99 0 -206 -67l-47 -222h384z" />
    <glyph glyph-name="uni2153" unicode="&#x2153;" horiz-adv-x="733" 
d="M570 695q16 7 48 7q14 0 25.5 -2t16.5 -4l4 -1l-535 -698q-20 -7 -48 -7q-12 0 -23 1.5t-16 3.5l-6 2zM203 683q17 5 43 5q17 0 39 -5l-71 -333q-22 -5 -41 -5q-25 0 -45 5l42 195q3 16 9 40q-34 -21 -77 -26q-20 25 -8 68q64 16 109 56zM469 329q42 19 100 19
q59 0 88.5 -24.5t19.5 -68.5q-11 -52 -57 -74q47 -23 33 -85q-21 -101 -164 -101q-28 0 -51.5 5.5t-33.5 11.5l-9 5q8 39 35 59q30 -11 70 -11q61 0 69 41q5 21 -4.5 30t-36.5 9h-48q-6 33 14 67h48q40 0 47 31q4 19 -6.5 27.5t-35.5 8.5q-16 0 -33.5 -2.5t-27.5 -4.5l-9 -3
q-18 21 -8 60z" />
    <glyph glyph-name="uni2154" unicode="&#x2154;" horiz-adv-x="791" 
d="M96 -3l534 698q16 7 48 7q14 0 25.5 -2t16.5 -4l4 -1l-535 -698q-20 -7 -48 -7q-12 0 -23 1.5t-16 3.5zM53 387q10 46 42 79t65 47t62 33t34 41q3 19 -10 27.5t-36 9.5q-37 2 -66 -9q-19 25 -8 62q46 17 103 17q55 0 85.5 -26t19.5 -76q-8 -36 -32.5 -62t-51.5 -38.5
t-61 -32t-54 -40.5h145q3 -19 -1 -37q-3 -17 -14 -36h-226q-1 18 4 41zM713 96q-21 -101 -164 -101q-28 0 -51.5 5.5t-33.5 11.5l-9 5q8 39 35 59q30 -11 70 -11q61 0 69 41q5 21 -4.5 30t-36.5 9h-48q-6 33 14 67h48q40 0 47 31q4 19 -6.5 27.5t-35.5 8.5q-16 0 -33.5 -2.5
t-27.5 -4.5l-9 -3q-18 21 -8 60q42 19 100 19q59 0 88.5 -24.5t19.5 -68.5q-11 -52 -57 -74q47 -23 33 -85z" />
    <glyph glyph-name="oneeighth" unicode="&#x215b;" horiz-adv-x="731" 
d="M570 695q16 7 48 7q14 0 25.5 -2t16.5 -4l4 -1l-535 -698q-20 -7 -48 -7q-12 0 -23 1.5t-16 3.5l-6 2zM203 683q17 5 43 5q17 0 39 -5l-71 -333q-22 -5 -41 -5q-25 0 -45 5l42 195q3 16 9 40q-34 -21 -77 -26q-20 25 -8 68q64 16 109 56zM434 253q9 44 47 69.5t95 25.5
q54 0 81 -24t18 -65q-9 -44 -55 -77q45 -32 33 -86q-10 -49 -50 -75t-103 -26q-60 0 -90 25t-20 71q11 52 68 82q-35 28 -24 80zM597 253q3 16 -5.5 24.5t-28.5 8.5q-39 0 -46 -30q-3 -15 11 -25.5t40 -20.5q22 14 29 43zM570 93q2 10 -4 19t-13.5 13.5t-22.5 11t-19 9.5
q-32 -19 -38 -49q-4 -18 7 -27.5t36 -9.5q46 0 54 33z" />
    <glyph glyph-name="threeeighths" unicode="&#x215c;" horiz-adv-x="770" 
d="M610 695q16 7 48 7q14 0 25.5 -2t16.5 -4l4 -1l-535 -698q-20 -7 -48 -7q-12 0 -23 1.5t-16 3.5l-6 2zM122 675q42 19 100 19q59 0 88.5 -24.5t20.5 -68.5q-12 -52 -57 -74q46 -22 33 -85q-21 -101 -165 -101q-28 0 -51.5 5.5t-32.5 11.5l-10 5q8 38 36 59q29 -11 69 -11
q62 0 70 41q5 21 -5 30t-37 9h-48q-5 34 15 67h48q39 0 46 31q4 19 -6 27.5t-35 8.5q-16 0 -33.5 -2.5t-27.5 -4.5l-9 -3q-19 21 -9 60zM474 253q9 44 47 69.5t95 25.5q54 0 81 -24t18 -65q-9 -44 -55 -77q45 -32 33 -86q-10 -49 -50 -75t-103 -26q-60 0 -90 25t-20 71
q11 52 68 82q-35 28 -24 80zM637 253q3 16 -5.5 24.5t-28.5 8.5q-39 0 -46 -30q-3 -15 11 -25.5t40 -20.5q22 14 29 43zM610 93q2 10 -4 19t-13.5 13.5t-22.5 11t-19 9.5q-32 -19 -38 -49q-4 -18 7 -27.5t36 -9.5q46 0 54 33z" />
    <glyph glyph-name="fiveeighths" unicode="&#x215d;" horiz-adv-x="770" 
d="M610 695q16 7 48 7q14 0 25.5 -2t16.5 -4l4 -1l-535 -698q-20 -7 -48 -7q-12 0 -23 1.5t-16 3.5l-6 2zM140 689h202q5 -37 -15 -73h-121l-10 -48q70 0 99 -28t16 -86q-12 -58 -52.5 -85.5t-116.5 -27.5q-29 0 -52.5 5.5t-32.5 11.5l-9 5q9 38 35 59q27 -11 63 -11
q69 0 77 43q6 26 -7 35t-51 9h-65zM474 253q9 44 47 69.5t95 25.5q54 0 81 -24t18 -65q-9 -44 -55 -77q45 -32 33 -86q-10 -49 -50 -75t-103 -26q-60 0 -90 25t-20 71q11 52 68 82q-35 28 -24 80zM637 253q3 16 -5.5 24.5t-28.5 8.5q-39 0 -46 -30q-3 -15 11 -25.5t40 -20.5
q22 14 29 43zM610 93q2 10 -4 19t-13.5 13.5t-22.5 11t-19 9.5q-32 -19 -38 -49q-4 -18 7 -27.5t36 -9.5q46 0 54 33z" />
    <glyph glyph-name="seveneighths" unicode="&#x215e;" horiz-adv-x="693" 
d="M533 695q16 7 48 7q14 0 25.5 -2t15.5 -4l5 -1l-535 -698q-20 -7 -48 -7q-12 0 -23 1.5t-17 3.5l-5 2zM126 689h231q1 -20 -3 -40q-9 -40 -37 -76t-57.5 -61t-59 -67.5t-40.5 -94.5q-46 -8 -82 0q13 55 34.5 95.5t41 60.5t51 51.5t52.5 57.5h-146q-3 37 15 74zM397 253
q9 44 47 69.5t95 25.5q54 0 81 -24t18 -65q-9 -44 -55 -77q45 -32 33 -86q-10 -49 -50 -75t-103 -26q-60 0 -90 25t-20 71q11 52 68 82q-35 28 -24 80zM560 253q3 16 -5.5 24.5t-28.5 8.5q-39 0 -46 -30q-3 -15 11 -25.5t40 -20.5q22 14 29 43zM533 93q2 10 -4 19
t-13.5 13.5t-22.5 11t-19 9.5q-32 -19 -38 -49q-4 -18 7 -27.5t36 -9.5q47 0 54 33z" />
    <glyph glyph-name="arrowleft" unicode="&#x2190;" horiz-adv-x="624" 
d="M36 350l281 232q33 -11 41 -51l-170 -139h412q3 -20 -2 -42q-4 -17 -16 -42h-412l111 -139q-24 -40 -63 -51z" />
    <glyph glyph-name="arrowup" unicode="&#x2191;" horiz-adv-x="513" 
d="M326 631l183 -231q-19 -36 -62 -52l-109 140l-88 -412q-21 -7 -43 -7q-18 0 -41 7l88 412l-169 -140q-37 16 -40 52z" />
    <glyph glyph-name="arrowright" unicode="&#x2192;" horiz-adv-x="622" 
d="M605 350l-280 -232q-33 11 -41 51l169 139h-412q-2 24 2 42q5 22 16 42h412l-110 139q24 40 63 51z" />
    <glyph glyph-name="arrowdown" unicode="&#x2193;" horiz-adv-x="513" 
d="M283 624q25 7 43 7q23 0 41 -7l-88 -412l169 140q37 -16 40 -52l-281 -231l-183 231q19 36 62 52l109 -140z" />
    <glyph glyph-name="uni2196" unicode="&#x2196;" horiz-adv-x="513" 
d="M113 549h328q3 -18 -1 -36q-5 -22 -15 -36h-197l229 -291q-21 -43 -71 -59l-229 291l-42 -197q-18 -7 -38 -7t-34 7z" />
    <glyph glyph-name="uni2197" unicode="&#x2197;" horiz-adv-x="517" 
d="M506 549l-70 -328q-17 -7 -38 -7q-19 0 -34 7l42 197l-353 -291q-42 16 -47 59l353 291h-197q-3 19 1 36q5 23 15 36h328z" />
    <glyph glyph-name="uni2198" unicode="&#x2198;" horiz-adv-x="512" 
d="M365 258l42 197q18 7 37 7q21 0 35 -7l-70 -328h-328q-4 15 1 36q3 17 14 36h197l-229 291q22 43 72 59z" />
    <glyph glyph-name="uni2199" unicode="&#x2199;" horiz-adv-x="515" 
d="M127 258l353 291q19 -7 32 -23t14 -36l-353 -291h197q4 -14 0 -36q-4 -19 -15 -36h-328l70 328q17 7 37 7t35 -7z" />
    <glyph glyph-name="partialdiff" unicode="&#x2202;" horiz-adv-x="558" 
d="M203 641q0 68 37 109q135 -10 204 -59.5t81 -141t-17 -228.5q-39 -184 -112.5 -257.5t-187.5 -73.5q-111 0 -157.5 62t-16.5 200q55 262 275 262q46 0 86 -14q-8 63 -51.5 95.5t-140.5 45.5zM390 396q-29 22 -90 22q-51 0 -83.5 -34.5t-52.5 -131.5q-16 -67 -9.5 -103.5
t24 -49.5t50.5 -13q50 0 83 35t53 131q19 91 25 144z" />
    <glyph glyph-name="Delta" unicode="&#x2206;" horiz-adv-x="650" 
d="M351 712q32 8 66 8q35 0 64 -8l94 -651q-18 -37 -51 -61h-524q-27 24 -25 60zM378 550h-4q-28 -59 -67 -128l-181 -319h308l-45 320q-11 79 -11 127z" />
    <glyph glyph-name="product" unicode="&#x220f;" horiz-adv-x="718" 
d="M710 693l-189 -890q-22 -10 -59 -10q-16 0 -30 2.5t-20 4.5l-5 3l167 783h-309l-167 -783q-22 -10 -60 -10q-16 0 -29.5 2.5t-18.5 4.5l-6 3l189 890h537z" />
    <glyph glyph-name="summation" unicode="&#x2211;" horiz-adv-x="602" 
d="M-67 -146l313 407l-129 377l11 56h507q5 -20 -2 -52q-3 -13 -7.5 -26t-7.5 -19l-4 -6h-354l115 -332l-276 -360h373q5 -21 -2 -54q-3 -13 -8 -26t-8 -19l-4 -7h-530z" />
    <glyph glyph-name="minus" unicode="&#x2212;" horiz-adv-x="471" 
d="M390 284h-320q-3 18 3 46q3 12 7 23.5t7 16.5l3 6h320q3 -18 -3 -46q-3 -12 -7 -23.5t-7 -16.5z" />
    <glyph glyph-name="uni2215" unicode="&#x2215;" horiz-adv-x="487" 
d="M-63 -3l534 698q16 7 48 7q14 0 25.5 -2t15.5 -4l5 -1l-535 -698q-20 -7 -48 -7q-12 0 -23 1.5t-17 3.5z" />
    <glyph glyph-name="uni2219" unicode="&#x2219;" horiz-adv-x="249" 
d="M115 266q-29 0 -46 18.5t-10 51.5t32 51.5t54 18.5q28 0 45.5 -18.5t10.5 -51.5t-32 -51.5t-54 -18.5z" />
    <glyph glyph-name="radical" unicode="&#x221a;" horiz-adv-x="650" 
d="M236 -15l-82 351l-108 -43q-15 12 -19.5 33t3.5 45l206 83l72 -324l332 600q55 9 81 -21l-399 -724h-86z" />
    <glyph glyph-name="infinity" unicode="&#x221e;" horiz-adv-x="801" 
d="M538 152q-30 0 -56.5 10.5t-42.5 25.5t-28 30t-17 26l-5 10q-4 -4 -10 -11t-27 -24.5t-42 -31t-52.5 -24.5t-61.5 -11q-86 0 -123.5 51.5t-22.5 121.5t74.5 121.5t145.5 51.5q48 0 85 -26t51 -52l13 -25q4 4 10 11t27 25t42 31.5t52.5 24.5t61.5 11q86 0 123.5 -51.5
t22.5 -121.5t-74.5 -121.5t-145.5 -51.5zM214 247q31 0 63 19.5t49 39.5l16 19q-1 3 -3 8.5t-10 19t-17.5 23.5t-26.5 18.5t-37 8.5q-41 0 -67.5 -23.5t-33.5 -54.5t9.5 -54.5t57.5 -23.5zM594 403q-31 0 -63 -19.5t-49 -39.5l-16 -19q1 -3 3 -8.5t10 -19t17.5 -23.5
t26.5 -18.5t37 -8.5q41 0 67.5 23.5t33.5 54.5t-9.5 54.5t-57.5 23.5z" />
    <glyph glyph-name="integral" unicode="&#x222b;" horiz-adv-x="495" 
d="M126 -1l113 531q18 89 73 139.5t140 50.5q29 0 58 -11t43 -23l14 -11q-18 -47 -59 -76q-39 38 -89 30q-65 -9 -83 -99l-113 -531q-41 -191 -204 -191q-30 0 -57 11t-39 23l-12 11q17 47 58 75q40 -38 82 -31q56 11 75 102z" />
    <glyph glyph-name="approxequal" unicode="&#x2248;" horiz-adv-x="523" 
d="M192 354q-21 0 -40 -9t-28 -19l-8 -9q-43 15 -40 60q2 3 5.5 7.5t17 17t28 22t38.5 17t49 7.5q33 0 74 -25.5t72 -25.5q21 0 40 9.5t28 18.5l8 9q43 -15 40 -60q-2 -3 -5.5 -7.5t-17 -17t-28 -22t-38.5 -17t-49 -7.5q-33 0 -74 25.5t-72 25.5zM154 174q-21 0 -40 -9
t-28 -19l-8 -9q-43 15 -40 60q2 3 5.5 7.5t17 17t28 22t38.5 17t49 7.5q33 0 74 -25.5t72 -25.5q21 0 40 9.5t28 18.5l8 9q43 -15 40 -60q-2 -3 -5.5 -7.5t-17 -17t-28 -22t-38.5 -17t-49 -7.5q-33 0 -74 25.5t-72 25.5z" />
    <glyph glyph-name="notequal" unicode="&#x2260;" horiz-adv-x="500" 
d="M176 150l-64 -84q-20 -7 -45 -7q-18 0 -37 7l64 84h-62q-2 28 3 46q4 25 17 47h114l70 93h-165q-2 26 4 49q4 22 16 44h216l58 75q21 7 45 7q19 0 38 -7l-58 -75h71q3 -19 -2 -44q-7 -31 -18 -49h-123l-70 -93h174q2 -16 -3 -45q-5 -25 -17 -48h-226z" />
    <glyph glyph-name="lessequal" unicode="&#x2264;" horiz-adv-x="461" 
d="M368 210l-296 113q-3 21 3 48q3 12 7 23.5t6 16.5l3 5l344 113q4 -15 -2 -46q-3 -13 -7.5 -25t-7.5 -17l-2 -5l-217 -68l188 -65q4 -15 -2 -46q-3 -13 -7.5 -25t-7.5 -17zM340 82h-320q-3 18 3 46q3 12 7 23.5t7 16.5l3 6h320q3 -18 -3 -46q-3 -12 -7 -23.5t-7 -16.5z
" />
    <glyph glyph-name="greaterequal" unicode="&#x2265;" horiz-adv-x="459" 
d="M397 323l-344 -113q-4 17 3 47q3 14 7 25.5t7 15.5l2 5l216 65l-187 68q-4 17 3 47q3 14 7 25.5t7 15.5l2 5l296 -113q4 -17 -2 -45q-3 -12 -7 -24t-7 -18zM345 82h-320q-3 18 3 46q3 12 7 23.5t7 16.5l3 6h320q3 -18 -3 -46q-3 -12 -7 -23.5t-7 -16.5z" />
    <glyph glyph-name="lozenge" unicode="&#x25ca;" horiz-adv-x="560" 
d="M188 7l-142 345l289 344h55l146 -344l-293 -345h-55zM420 351l-84 212l-172 -212l82 -212z" />
    <glyph glyph-name="commaaccentcomb" unicode="&#xf6c3;" horiz-adv-x="0" 
d="M-107 -137l-38 30q42 38 61 107q-12 1 -21 3t-13 3l-3 2l24 115q21 8 65 8q18 0 33.5 -2t21.5 -4l6 -2l-16 -75q-12 -55 -42 -101t-54 -65z" />
    <glyph glyph-name="CR" horiz-adv-x="322" 
 />
    <glyph glyph-name="_0020" horiz-adv-x="0" 
 />
    <glyph glyph-name="_375" horiz-adv-x="646" 
d="M259 712q32 8 66 8q35 0 64 -8l94 -651q-18 -37 -51 -61h-524q-27 24 -25 60zM286 550h-4q-28 -59 -67 -128l-181 -319h308l-45 320q-11 79 -11 127z" />
    <glyph glyph-name="_376" horiz-adv-x="700" 
d="M503 0h-246q-11 56 23 110q116 83 157 270q13 59 14.5 102.5t-6 70.5t-25 43t-39.5 22t-52 6q-38 0 -67.5 -10t-57.5 -36t-49.5 -75t-37.5 -123q-40 -187 41 -270q7 -53 -23 -110h-246q-5 29 0 54q6 28 23 56h104q-67 111 -33 270q74 350 368 350t220 -350
q-34 -159 -149 -270h104q3 -30 -1 -55q-6 -26 -22 -55z" />
    <glyph glyph-name="commaaccentcomb.alt" horiz-adv-x="0" 
d="M101 720l38 -30q-42 -38 -62 -108l38 -7l-24 -115q-21 -8 -65 -8q-18 0 -33.5 2t-21.5 4l-6 2l16 75q12 55 42 101t54 65z" />
    <glyph glyph-name="eight.denom" horiz-adv-x="324" 
d="M30 253q9 44 47 69.5t95 25.5q54 0 81 -24t18 -65q-9 -44 -55 -77q45 -32 33 -86q-10 -49 -50 -75t-103 -26q-60 0 -90 25t-20 71q11 52 68 82q-35 28 -24 80zM193 253q3 16 -5.5 24.5t-28.5 8.5q-39 0 -46 -30q-3 -15 11 -25.5t40 -20.5q22 14 29 43zM166 93q2 10 -4 19
t-13.5 13.5t-22.5 11t-19 9.5q-32 -19 -38 -49q-4 -18 7 -27.5t36 -9.5q46 0 54 33z" />
    <glyph glyph-name="eight.num" horiz-adv-x="325" 
d="M103 599q10 44 47.5 69.5t94.5 25.5q54 0 81 -24t19 -65q-11 -46 -56 -77q45 -33 34 -86q-10 -49 -50.5 -75t-103.5 -26q-60 0 -89.5 25t-19.5 71q11 51 67 82q-35 29 -24 80zM266 599q4 16 -5 24.5t-29 8.5q-38 0 -45 -30q-3 -15 10.5 -25.5t39.5 -20.5q23 15 29 43z
M239 439q2 10 -4 19t-13.5 13.5t-22 11.5t-18.5 9q-33 -19 -39 -49q-4 -19 7 -28t36 -9q48 0 54 33z" />
    <glyph glyph-name="five.denom" horiz-adv-x="302" 
d="M124 270l-10 -48q70 0 99 -28t17 -86t-52.5 -85.5t-116.5 -27.5q-29 0 -52.5 5.5t-32.5 11.5l-9 5q7 36 34 59q28 -11 64 -11q67 0 77 43q6 26 -7.5 35t-51.5 9h-65l41 191h202q4 -36 -16 -73h-121z" />
    <glyph glyph-name="five.num" horiz-adv-x="301" 
d="M197 616l-10 -48q70 0 99 -28t16 -86q-12 -58 -52.5 -85.5t-116.5 -27.5q-29 0 -52.5 5.5t-32.5 11.5l-9 5q9 38 35 59q27 -11 63 -11q69 0 77 43q6 26 -7 35t-51 9h-65l40 191h202q5 -37 -15 -73h-121z" />
    <glyph glyph-name="four.denom" horiz-adv-x="330" 
d="M225 138h37q2 -14 -1 -31q-3 -13 -12 -30h-37l-15 -72q-19 -5 -37 -5q-20 0 -35 5l15 72h-164q-1 14 2 30q4 16 9 25l200 205q19 6 42 6q21 0 39 -6zM176 244l-103 -106h80z" />
    <glyph glyph-name="four.num" horiz-adv-x="330" 
d="M299 484h37q1 -14 -2 -31q-2 -10 -11 -30h-37l-15 -72q-19 -5 -37 -5q-20 0 -35 5l15 72h-164q-2 18 1 30q3 14 10 25l199 205q21 6 42 6q22 0 39 -6zM249 590l-102 -106h80z" />
    <glyph glyph-name="g.alt" horiz-adv-x="532" 
d="M113 189q-41 21 -54.5 69t0.5 105q36 173 238 173q68 0 109 -23l149 23q4 -19 -2.5 -47.5t-18.5 -48.5l-74 10q12 -37 -3 -111q-36 -171 -238 -171q-25 0 -36 1q-20 -23 -20 -50q0 -16 16.5 -25.5t42 -13t56.5 -9t59.5 -13.5t51 -26t31 -47.5t-0.5 -78.5
q-16 -77 -94 -116.5t-202 -39.5q-110 0 -155.5 42.5t-30.5 109.5q17 79 112 117q-18 26 -11 62q12 54 75 108zM279 449q-84 0 -105 -97q-23 -96 62 -96q82 0 105 96q21 97 -62 97zM146 -160q67 0 108 19.5t48 52.5q6 28 -21.5 40.5t-88.5 20.5t-86 15q-40 -31 -49 -76
q-6 -31 17 -51.5t72 -20.5z" />
    <glyph glyph-name="gbreve.alt" horiz-adv-x="532" 
d="M476 665q-7 -7 -20 -18t-56 -29t-90 -18q-30 0 -56 6.5t-42.5 16t-29 19.5t-17.5 16l-5 7q10 19 28.5 35.5t36.5 22.5q33 -28 100 -28q30 0 57.5 7t39.5 14l13 7q17 -6 28 -22t13 -36zM113 189q-41 21 -54.5 69t0.5 105q36 173 238 173q68 0 109 -23l149 23
q4 -19 -2.5 -47.5t-18.5 -48.5l-74 10q12 -37 -3 -111q-36 -171 -238 -171q-25 0 -36 1q-20 -23 -20 -50q0 -16 16.5 -25.5t42 -13t56.5 -9t59.5 -13.5t51 -26t31 -47.5t-0.5 -78.5q-16 -77 -94 -116.5t-202 -39.5q-110 0 -155.5 42.5t-30.5 109.5q17 79 112 117
q-18 26 -11 62q12 54 75 108zM279 449q-84 0 -105 -97q-23 -96 62 -96q82 0 105 96q21 97 -62 97zM146 -160q67 0 108 19.5t48 52.5q6 28 -21.5 40.5t-88.5 20.5t-86 15q-40 -31 -49 -76q-6 -31 17 -51.5t72 -20.5z" />
    <glyph glyph-name="gcircumflex.alt" horiz-adv-x="532" 
d="M357 770l116 -115q-32 -42 -68 -53l-83 61l-109 -60q-32 11 -46 52l165 115h25zM113 189q-41 21 -54.5 69t0.5 105q36 173 238 173q68 0 109 -23l149 23q4 -19 -2.5 -47.5t-18.5 -48.5l-74 10q12 -37 -3 -111q-36 -171 -238 -171q-25 0 -36 1q-20 -23 -20 -50
q0 -16 16.5 -25.5t42 -13t56.5 -9t59.5 -13.5t51 -26t31 -47.5t-0.5 -78.5q-16 -77 -94 -116.5t-202 -39.5q-110 0 -155.5 42.5t-30.5 109.5q17 79 112 117q-18 26 -11 62q12 54 75 108zM279 449q-84 0 -105 -97q-23 -96 62 -96q82 0 105 96q21 97 -62 97zM146 -160
q67 0 108 19.5t48 52.5q6 28 -21.5 40.5t-88.5 20.5t-86 15q-40 -31 -49 -76q-6 -31 17 -51.5t72 -20.5z" />
    <glyph glyph-name="gcommaaccent.alt" horiz-adv-x="532" 
d="M380 839l40 -26q-42 -34 -59 -95l38 -7l-22 -102q-23 -7 -65 -7q-19 0 -35 2t-23 4l-6 1l15 67q10 48 39.5 88.5t53.5 57.5zM113 189q-41 21 -54.5 69t0.5 105q36 173 238 173q68 0 109 -23l149 23q4 -19 -2.5 -47.5t-18.5 -48.5l-74 10q12 -37 -3 -111
q-36 -171 -238 -171q-25 0 -36 1q-20 -23 -20 -50q0 -16 16.5 -25.5t42 -13t56.5 -9t59.5 -13.5t51 -26t31 -47.5t-0.5 -78.5q-16 -77 -94 -116.5t-202 -39.5q-110 0 -155.5 42.5t-30.5 109.5q17 79 112 117q-18 26 -11 62q12 54 75 108zM279 449q-84 0 -105 -97
q-23 -96 62 -96q82 0 105 96q21 97 -62 97zM146 -160q67 0 108 19.5t48 52.5q6 28 -21.5 40.5t-88.5 20.5t-86 15q-40 -31 -49 -76q-6 -31 17 -51.5t72 -20.5z" />
    <glyph glyph-name="gdotaccent.alt" horiz-adv-x="532" 
d="M395 712l-22 -103q-21 -7 -58 -7q-18 0 -32 2t-19 4l-5 1l22 103q19 7 59 7q16 0 30 -1.5t20 -3.5zM113 189q-41 21 -54.5 69t0.5 105q36 173 238 173q68 0 109 -23l149 23q4 -19 -2.5 -47.5t-18.5 -48.5l-74 10q12 -37 -3 -111q-36 -171 -238 -171q-25 0 -36 1
q-20 -23 -20 -50q0 -16 16.5 -25.5t42 -13t56.5 -9t59.5 -13.5t51 -26t31 -47.5t-0.5 -78.5q-16 -77 -94 -116.5t-202 -39.5q-110 0 -155.5 42.5t-30.5 109.5q17 79 112 117q-18 26 -11 62q12 54 75 108zM279 449q-84 0 -105 -97q-23 -96 62 -96q82 0 105 96q21 97 -62 97z
M146 -160q67 0 108 19.5t48 52.5q6 28 -21.5 40.5t-88.5 20.5t-86 15q-40 -31 -49 -76q-6 -31 17 -51.5t72 -20.5z" />
    <glyph glyph-name="nine.denom" horiz-adv-x="313" 
d="M12 236q12 55 52 83.5t99 28.5q61 0 87.5 -34t11.5 -103q-43 -198 -261 -214q-5 13 -1 32.5t16 34.5q88 2 128 63q-16 -3 -40 -3q-51 0 -77.5 27.5t-14.5 84.5zM171 194q19 89 -22 89q-40 0 -51 -47q-10 -46 32 -46q25 0 41 4z" />
    <glyph glyph-name="nine.num" horiz-adv-x="313" 
d="M86 582q12 55 51.5 83.5t98.5 28.5q61 0 87.5 -34t11.5 -103q-41 -198 -260 -214q-6 13 -1.5 32.5t15.5 34.5q88 2 128 63q-16 -3 -39 -3q-51 0 -77.5 27.5t-14.5 84.5zM245 540q19 89 -22 89q-42 0 -51 -47q-10 -46 32 -46q24 0 41 4z" />
    <glyph glyph-name="_300" horiz-adv-x="0" 
 />
    <glyph glyph-name="one.denom" horiz-adv-x="248" 
d="M12 282q65 16 109 56q18 5 43 5q16 0 39 -5l-71 -333q-23 -5 -41 -5q-26 0 -45 5l41 195l10 40q-36 -21 -78 -26q-19 25 -7 68z" />
    <glyph glyph-name="one.num" horiz-adv-x="265" 
d="M85 628q64 16 109 56q18 5 43 5q17 0 39 -5l-70 -333q-23 -5 -41 -5q-26 0 -45 5l41 195q4 23 10 40q-36 -21 -78 -26q-20 25 -8 68z" />
    <glyph glyph-name="seven.denom" horiz-adv-x="285" 
d="M167 269h-146q0 25 3 37q6 24 13 37h231q1 -20 -4 -40q-7 -33 -26.5 -62t-43.5 -52t-48 -47.5t-45 -59.5t-30 -78q-20 -4 -42 -4q-24 0 -40 4q13 55 34 95.5t41 60.5l51.5 51.5t51.5 57.5z" />
    <glyph glyph-name="seven.num" horiz-adv-x="285" 
d="M109 689h231q2 -16 -3 -40q-9 -40 -37 -76t-57.5 -61t-59 -67.5t-40.5 -94.5q-46 -8 -82 0q13 55 34.5 95.5t41 60.5t51 51.5t52.5 57.5h-146q-3 37 15 74z" />
    <glyph glyph-name="six.denom" horiz-adv-x="312" 
d="M-6 132q43 198 261 214q5 -14 0.5 -33.5t-15.5 -33.5q-88 -4 -129 -63q17 3 41 3q51 0 77.5 -27.5t14.5 -84.5q-12 -55 -52 -83.5t-99 -28.5q-61 0 -87.5 34t-11.5 103zM158 107q10 46 -33 46q-18 0 -40 -4q-21 -89 22 -89q40 0 51 47z" />
    <glyph glyph-name="six.num" horiz-adv-x="313" 
d="M68 478q41 198 260 214q5 -13 1 -32.5t-15 -34.5q-88 -4 -130 -63q18 3 41 3q51 0 77.5 -27.5t14.5 -84.5q-12 -55 -52 -83.5t-99 -28.5q-61 0 -87 34t-11 103zM231 453q10 46 -32 46q-17 0 -41 -4q-20 -89 22 -89t51 47z" />
    <glyph glyph-name="three.denom" horiz-adv-x="299" 
d="M223 96q-21 -101 -164 -101q-28 0 -51.5 5.5t-33.5 11.5l-9 5q8 39 35 59q30 -11 70 -11q61 0 69 41q5 21 -4.5 30t-36.5 9h-48q-6 33 14 67h48q40 0 47 31q4 19 -6.5 27.5t-35.5 8.5q-16 0 -33.5 -2.5t-27.5 -4.5l-9 -3q-18 21 -8 60q42 19 100 19q59 0 88.5 -24.5
t19.5 -68.5q-11 -52 -57 -74q47 -23 33 -85z" />
    <glyph glyph-name="three.num" horiz-adv-x="300" 
d="M297 442q-21 -101 -165 -101q-28 0 -51.5 5.5t-32.5 11.5l-10 5q8 38 36 59q29 -11 69 -11q62 0 70 41q5 21 -5 30t-37 9h-48q-5 34 15 67h48q39 0 46 31q4 19 -6 27.5t-35 8.5q-16 0 -33.5 -2.5t-27.5 -4.5l-9 -3q-19 21 -9 60q42 19 100 19q59 0 88.5 -24.5t20.5 -68.5
q-12 -52 -57 -74q46 -22 33 -85z" />
    <glyph glyph-name="two.denom" horiz-adv-x="302" 
d="M-30 41q8 38 30.5 66t49.5 44t53 29t45.5 28t23.5 33q4 19 -9 27.5t-37 9.5q-37 1 -66 -9q-19 27 -8 62q47 17 104 17q54 0 84.5 -26t19.5 -76q-8 -36 -32 -62t-51 -38.5t-61.5 -32t-54.5 -40.5h145q4 -14 0 -37q-5 -22 -15 -36h-226q0 18 5 41z" />
    <glyph glyph-name="two.num" horiz-adv-x="302" 
d="M44 387q10 46 42 79t65 47t62 33t34 41q4 19 -9 28t-36 9q-40 0 -67 -9q-19 25 -8 62q46 17 103 17q55 0 85.5 -26t19.5 -76q-8 -36 -32.5 -62t-51.5 -38.5t-61 -32t-54 -40.5h145q3 -19 -1 -37q-3 -17 -14 -36h-226q-1 18 4 41z" />
    <glyph glyph-name="zero.denom" horiz-adv-x="346" 
d="M106 -5q-140 0 -102 177q37 176 177 176q141 0 104 -176q-38 -177 -179 -177zM166 279q-26 0 -43 -23t-30 -84q-12 -66 -5.5 -86t33.5 -20q26 0 43 22t30 84q12 64 5 85.5t-33 21.5z" />
    <glyph glyph-name="zero.num" horiz-adv-x="347" 
d="M180 341q-140 0 -102 177q37 176 177 176q142 0 104 -176q-38 -177 -179 -177zM241 625q-27 0 -44 -23t-30 -84q-12 -66 -5 -86t34 -20q26 0 42.5 22t29.5 84q12 64 5.5 85.5t-32.5 21.5z" />
    </font>
</defs>
</svg>
