<svg xmlns="http://www.w3.org/2000/svg" width="283.5" height="283.5" viewBox="0 0 283.5 283.5" enable-background="new 0 0 283.5 283.5"><style type="text/css">.st0{fill:#2965F1;}</style><path d="M142.2 131.2h19.3l-1.3 14h-49.8l1.2 13.7H159l-1.5 17.8-15.3 4.1-15.3-4.1-1-10.9h-13.7l1.9 21.5 28.1 7.8v-.1l28.1-7.7.2-2.3 3.2-36.1.3-3.7 2.5-27.7h-68.6l1.2 13.7zM283.5 0H0v283.5h283.5V0zM153.1 79.1h9.7v-1.2h-9.7V64.3h16.6v6H160v1.2h9.7v13.9h-16.6v-6.3zm-19.9 0h9.7v-1.2h-9.7V64.3h16.6v6h-9.7v1.2h9.7v13.9h-16.6v-6.3zm-19.9-14.8h16.6v6.9h-9.7v6.9h9.7V85h-16.6s0-20.7 0-20.7zm73.7 142l-44.8 12.4-44.7-12.4-10-111.7h109.4L187 206.3z" class="st0"/></svg>