<svg xmlns="http://www.w3.org/2000/svg" width="254.9" height="254.8" viewBox="0 0 254.9 254.8" enable-background="new 0 0 254.9 254.8"><style type="text/css">.st0{fill:#F96A32;}</style><title>logo-2582748_1920</title><path d="M255 254.9H0V0s184.5 0 254.9 0c.2 0 .1 254.9.1 254.9zM182.2 80.6H72.7c.4 4.4.8 8.8 1.2 13.1s.8 8.5 1.1 12.7l1.1 12.2c.4 4.1.7 8.3 1.1 12.4.4 4.1.7 8.3 1.1 12.4s.8 8.2 1.1 12.3.7 8.3 1.1 12.5.8 8.4 1.1 12.6c.3 3.6.7 7.2 1 10.8 0 .5.4.9.8 1l43.4 12c.3.1.7.1 1 0l43.8-12.1c.4-.1.5-.2.6-.7.2-2.3.4-4.6.6-7 .4-4.2.8-8.4 1.1-12.5.3-3.5.6-7 .9-10.6.4-4.2.8-8.4 1.1-12.5.4-4.1.7-8.1 1.1-12.2.4-4.2.8-8.5 1.1-12.8.3-3.5.6-6.9.9-10.4.4-4.2.8-8.4 1.1-12.6.3-3.6.6-7.1 1-10.7.5-3.3.8-6.6 1.1-9.9zm-53.7-30.5v20.8h6.8V60.7l4.8 7.5 4.7-7.3h.1v10h6.9V50.1c-2.3 0-4.6 0-6.8 0-.3.1-.5.2-.6.4-.9 1.4-1.8 2.9-2.6 4.3l-1.5 2.5c-1.2-1.9-2.4-3.7-3.4-5.6-.5-1.2-1.8-2-3.1-1.7-1.8.3-3.5.1-5.3.1zm-32.3 6.8h-6.4v-6.7h-6.9v20.7h6.9V64h6.4v6.9h6.9V50.2h-6.9v6.7zm16.2 14h7V57h6v-6.8h-19.1v6.9h6.1v13.8zm50-6.8V50.2h-6.9V71h16.7v-6.9h-9.8zM155.4 173.4l-11.2 3.1c-5.4 1.5-10.7 2.9-16.1 4.4-.3.1-.7.1-1.1 0l-27.1-7.3c-.4-.1-.6-.3-.7-.8-.3-3.2-.6-6.4-.9-9.6-.3-3.5-.7-6.9-1-10.3 0-.4 0-.7-.1-1.1H111l.4 3.6c.2 2.1.5 4.3.7 6.4 0 .4.3.7.6.7 4.8 1.3 9.5 2.7 14.3 4 .3.1.6.1.8 0l14.4-4c.4-.1.5-.2.6-.6.5-5.6.9-11.3 1.4-16.9 0 0 0-.1-.1-.2H96.7c-1.3-13.9-2.6-27.8-3.9-41.8h68.8c-.4 4.7-.7 9.4-1.1 14.1h-52.6c.5 4.6 1 9.1 1.5 13.7h49.5c-1.2 14.3-2.3 28.4-3.5 42.6z" class="st0"/></svg>