<svg xmlns="http://www.w3.org/2000/svg" width="283.5" height="283.5" viewBox="0 0 283.5 283.5" enable-background="new 0 0 283.5 283.5"><style type="text/css">.st0{fill:#FBDE34;}</style><path d="M142.6 180.7l-15.3-4.1-1-10.9h-13.7l1.9 21.5 28.1 7.7 28-7.7.2-2.4 3.3-36 .3-3.7h-46.8l2-21.5 13.3-.3h2.5l14 .8 1.2 14.2h13.8l-2-21.5-.6-7.8h-54.6l-1 10.1-3.2 36-.4 3.7h46.8l-1.6 17.8zM0 0v283.5h283.5V0H0zm142.9 79.5h9.4l-9.4-10.2v-4.9H162v5.7h-9.1l9.4 10.2v4.9h-19.4v-5.7zm-20.2-1.2h9.8V64.4h7v20.8h-16.7v-6.9h-.1zm64.7 128l-44.8 12.4L98 206.4 88 94.7h109.4l-10 111.6z" class="st0"/></svg>