<svg xmlns="http://www.w3.org/2000/svg" viewBox="0 0 31 31">
  <path d="M18.27,10.12H12.52a2.39,2.39,0,0,0-2.4,2.4v5.75a2.4,2.4,0,0,0,2.4,2.4h5.75a2.41,2.41,0,0,0,2.4-2.4V12.52A2.4,2.4,0,0,0,18.27,10.12ZM15.39,18.7a3.31,3.31,0,1,1,3.31-3.31A3.31,3.31,0,0,1,15.39,18.7Zm4-6.15a.87.87,0,0,1-.59.24.85.85,0,0,1-.59-.24A.83.83,0,0,1,18,12a.85.85,0,0,1,.84-.84.83.83,0,0,1,.59.25.85.85,0,0,1,.24.59A.87.87,0,0,1,19.43,12.55ZM15.39,0a15.4,15.4,0,1,0,15.4,15.39A15.39,15.39,0,0,0,15.39,0Zm6.42,18.27a3.55,3.55,0,0,1-3.54,3.54H12.52A3.55,3.55,0,0,1,9,18.27V12.52A3.55,3.55,0,0,1,12.52,9h5.75a3.55,3.55,0,0,1,3.54,3.54Zm-4.25-2.88a2.17,2.17,0,1,1-2.17-2.16A2.17,2.17,0,0,1,17.56,15.39Z" style="fill: #c8ccd7"/>
</svg>
