<svg xmlns="http://www.w3.org/2000/svg" viewBox="0 0 31.13 31.13">
  <path d="M15.56,0A15.57,15.57,0,1,0,31.13,15.56,15.56,15.56,0,0,0,15.56,0Zm4,13.91v.23a5.11,5.11,0,0,1-5.23,5.06,5.28,5.28,0,0,1-2.82-.8,3.15,3.15,0,0,0,.44,0,3.81,3.81,0,0,0,2.28-.76,1.86,1.86,0,0,1-1.72-1.24,2.07,2.07,0,0,0,.35,0,1.86,1.86,0,0,0,.48-.06,1.79,1.79,0,0,1-1.47-1.74v0a1.81,1.81,0,0,0,.83.23,1.77,1.77,0,0,1-.81-1.48,1.83,1.83,0,0,1,.24-.9,5.25,5.25,0,0,0,3.79,1.86,1.75,1.75,0,0,1,0-.4,1.82,1.82,0,0,1,1.84-1.78,1.91,1.91,0,0,1,1.35.56,3.85,3.85,0,0,0,1.16-.43,1.74,1.74,0,0,1-.81,1A3.77,3.77,0,0,0,20.48,13,3.66,3.66,0,0,1,19.56,13.91Z" style="fill: #c8ccd7"/>
</svg>
