<svg width="105" height="46" viewbox="0 0 105 46" xmlns="http://www.w3.org/2000/svg" xmlns:xlink="http://www.w3.org/1999/xlink"><defs><path id="a" d="M0 44.891h104.903V.151H0z"/></defs><g fill="none" fill-rule="evenodd"><path fill="#fff" d="M.938 44.937h1.45v-5.581H.938zM7.902 39.356v3.412h-.015L5.23 39.356H3.78v5.58h1.45v-3.419h.015l2.657 3.42h1.45v-5.581z"/><g transform="translate(0 .23)"><path d="M13.809 40.561a1.525 1.525 0 00-.963-.37c-.266 0-.621.156-.621.467 0 .325.392.451.643.533l.37.11c.778.23 1.377.622 1.377 1.525 0 .555-.133 1.125-.577 1.502-.437.37-1.022.526-1.584.526a3.446 3.446 0 01-1.961-.636l.622-1.17c.362.319.791.578 1.287.578.34 0 .703-.17.703-.563 0-.407-.57-.548-.88-.636-.91-.26-1.51-.497-1.51-1.577 0-1.132.807-1.872 1.924-1.872.563 0 1.25.177 1.747.458l-.577 1.125zM17.199 41.686h.244c.525 0 1.043 0 1.043-.68 0-.704-.48-.71-1.043-.71h-.244v1.39zm-1.451-2.56h2.22c1.2 0 2.028.555 2.028 1.835 0 1.317-.71 1.895-1.976 1.895h-.821v1.85h-1.451v-5.58z" fill="#fff"/><mask id="b" fill="#fff"><use xlink:href="#a"/></mask><path fill="#fff" mask="url(#b)" d="M21.084 44.706h1.451v-5.58h-1.45zM25.377 41.627h.141c.474 0 1.007-.089 1.007-.696 0-.606-.533-.695-1.007-.695h-.14v1.391zm3.19 3.08h-1.806l-1.369-2.147h-.015v2.146h-1.45v-5.58h2.168c1.103 0 1.94.525 1.94 1.717 0 .77-.43 1.435-1.222 1.576l1.754 2.287zM30.854 40.354v.933h1.636v1.228h-1.636v.962h1.725v1.23h-3.175v-5.581h3.175v1.228zM38.352 40.354v.933h1.591v1.228h-1.591v2.191h-1.45v-5.58h3.204v1.228zM42.586 41.82c0 .962.71 1.665 1.576 1.665.866 0 1.577-.703 1.577-1.665 0-.77-.711-1.473-1.577-1.473s-1.576.703-1.576 1.473m4.662-.008c0 1.806-1.295 3.08-3.086 3.08s-3.086-1.274-3.086-3.08c0-1.687 1.48-2.872 3.086-2.872 1.606 0 3.086 1.185 3.086 2.872M49.595 41.82c0 .962.71 1.665 1.576 1.665.866 0 1.577-.703 1.577-1.665 0-.77-.71-1.473-1.577-1.473-.865 0-1.576.703-1.576 1.473m4.662-.008c0 1.806-1.295 3.08-3.086 3.08-1.79 0-3.086-1.274-3.086-3.08 0-1.687 1.48-2.872 3.086-2.872 1.607 0 3.086 1.185 3.086 2.872M56.826 43.477h.325c.867 0 1.606-.473 1.606-1.561 0-1-.658-1.562-1.59-1.562h-.34v3.123zm-1.45-4.351h2.057c1.554 0 2.835 1.22 2.835 2.79 0 1.569-1.288 2.79-2.835 2.79h-2.058v-5.58zM65.819 43.596h.184c.43 0 1.155.022 1.155-.592 0-.674-.718-.607-1.191-.607h-.148v1.199zm0-2.28h.163c.384 0 .784-.066.784-.54 0-.51-.451-.54-.844-.54h-.103v1.08zm-1.45 3.39v-5.58h2.072c.991 0 1.657.385 1.657 1.45 0 .503-.163.91-.614 1.14v.015c.8.104 1.14.644 1.14 1.421 0 1.17-1 1.554-2.02 1.554h-2.236zM74.664 39.126v3.138c0 .718-.03 1.428-.585 1.969-.467.458-1.2.62-1.85.62-.652 0-1.385-.162-1.85-.62-.556-.54-.586-1.251-.586-1.97v-3.137h1.451v2.938c0 .725.052 1.517.984 1.517.933 0 .985-.792.985-1.517v-2.938h1.45zM79.09 40.561a1.525 1.525 0 00-.963-.37c-.266 0-.621.156-.621.467 0 .325.392.451.644.533l.37.11c.777.23 1.376.622 1.376 1.525 0 .555-.133 1.125-.577 1.502-.436.37-1.022.526-1.584.526a3.444 3.444 0 01-1.961-.636l.622-1.17c.362.319.792.578 1.287.578.34 0 .703-.17.703-.563 0-.407-.57-.548-.88-.636-.91-.26-1.51-.497-1.51-1.577 0-1.132.807-1.872 1.924-1.872.563 0 1.251.177 1.747.458l-.578 1.125zM81.03 44.706h1.45v-5.58h-1.45zM83.871 39.126h1.45l2.658 3.411h.015v-3.411h1.45v5.58h-1.45l-2.657-3.42h-.015v3.42H83.87zM92.287 40.354v.933h1.635v1.228h-1.635v.962h1.724v1.23h-3.175v-5.581h3.175v1.228zM98.415 40.561a1.525 1.525 0 00-.962-.37c-.267 0-.622.156-.622.467 0 .325.392.451.644.533l.37.11c.777.23 1.377.622 1.377 1.525 0 .555-.133 1.125-.577 1.502-.438.37-1.022.526-1.585.526a3.446 3.446 0 01-1.961-.636l.622-1.17c.362.319.792.578 1.288.578.34 0 .703-.17.703-.563 0-.407-.57-.548-.881-.636-.91-.26-1.51-.497-1.51-1.577 0-1.132.807-1.872 1.925-1.872.562 0 1.25.177 1.746.458l-.577 1.125zM103.418 40.561a1.526 1.526 0 00-.962-.37c-.266 0-.621.156-.621.467 0 .325.392.451.643.533l.37.11c.778.23 1.377.622 1.377 1.525 0 .555-.133 1.125-.578 1.502-.436.37-1.02.526-1.583.526a3.444 3.444 0 01-1.961-.636l.621-1.17c.363.319.792.578 1.288.578.34 0 .703-.17.703-.563 0-.407-.57-.548-.88-.636-.911-.26-1.51-.497-1.51-1.577 0-1.132.806-1.872 1.924-1.872.562 0 1.25.177 1.747.458l-.578 1.125zM24.41 22.693zm80.362 8.396c-.596-1.569-1.479-3.371-3.011-3.371-.209 0-.429.033-.675.104-2.024.708-4.137 1.054-6.455 1.054-4.912 0-7.508-1.765-7.508-5.104L87.03 1.453V.672l-.264-.084A6.86 6.86 0 0084.762.28a5.613 5.613 0 00-3.37 1.083l-.156.112v19.547h-9.113L61.762.705 61.696.58l-.129-.053A5.342 5.342 0 0059.614.15c-2.202 0-4.076 1.45-5.413 4.187l-8.324 16.684H35.748l-.067-19.884-.028-.505-.263-.083a6.793 6.793 0 00-2.006-.31c-1.248 0-2.383.364-3.368 1.083l-.157.112v19.587h-5.658c-.777-3.558-3.64-5.4-9.86-6.642l-.16-.033c-5.603-1.104-8.983-1.771-8.983-5.309 0-4.245 5.464-4.245 7.262-4.245 1.74 0 3.601.189 5.096.518 2.241.52 3.152-1.502 3.844-3.41l.141-.39-.404-.102C18.297.682 15.643.328 13.03.328 4.628.328 0 3.595 0 9.528c0 2.947 1.144 5.122 3.498 6.651 2.164 1.39 5.145 2.053 8.603 2.82l.47.104c3.725.822 6.417 1.417 6.417 4.686 0 1.533-.774 5.1-7.955 5.1-2.317 0-4.442-.348-6.518-1.073a2.33 2.33 0 00-.612-.084c-1.523 0-2.376 1.704-3.012 3.372l-.13.347.344.137c2.974 1.171 6.48 1.765 10.418 1.765 5.193 0 11.263-1.354 12.622-7.357h5.714v6.42h5.928l-.022-6.42h7.63l-3.137 6.29h5.515L58.518 6.218l7.282 14.81-10.63-.007-2.167 4.42-.32.599 15.541-.026 3.077 6.272h6.567l-3.208-6.29h6.864c1.367 5.99 7.432 7.343 12.617 7.343 3.94 0 7.444-.593 10.417-1.766l.346-.136-.132-.348z"/></g></g></svg>