<?xml version="1.0" encoding="utf-8"?>
<!-- Generator: Adobe Illustrator 24.2.3, SVG Export Plug-In . SVG Version: 6.00 Build 0)  -->
<svg version="1.1" id="Calque_1" xmlns="http://www.w3.org/2000/svg" xmlns:xlink="http://www.w3.org/1999/xlink" x="0px" y="0px"
	 viewBox="0 0 258 80" style="enable-background:new 0 0 258 80;" xml:space="preserve">
<style type="text/css">
	.st0{fill:#FFFFFF;}
	.st1{fill:#F3E000;}
</style>
<g id="XMLID_1_">
	<g id="_x33_EPDZw.tif_1_">
		<g>
			<path class="st0" d="M60,57.8c2,0,3.9,0,5.8,0c0.4,0,0.5-0.1,0.7-0.4c4.7-9.6,9.4-19.2,14.1-28.8c0.1-0.2,0.2-0.4,0.3-0.7
				c2.8,5.7,5.6,11.3,8.4,17c-0.2,0-0.3,0-0.4,0c-3.8,0-7.5,0-11.3,0c-0.4,0-0.5,0.1-0.7,0.4c-0.7,1.5-1.4,2.9-2.2,4.4
				c-0.1,0.3-0.3,0.5-0.4,0.9c0.2,0,0.4,0,0.6,0c5.6,0,11.2,0,16.8,0c0.3,0,0.5,0.1,0.6,0.4c1,2.1,2.1,4.3,3.1,6.4
				c0.1,0.3,0.3,0.4,0.6,0.4c2.2,0,4.4,0,6.6,0c0.1,0,0.3,0,0.4,0c-1.2-2.4-2.4-4.7-3.6-7.1c0.1,0,0.2,0,0.2,0c2.5,0,4.9,0,7.4,0
				c0.3,0,0.3,0.1,0.4,0.3c0.6,2.2,1.8,4,3.7,5.4c2.4,1.7,5.2,2.3,8.1,2.6c2.1,0.2,4.3,0.1,6.4-0.1c2.1-0.2,4.1-0.6,6.1-1.1
				c0.8-0.2,1.6-0.6,2.6-0.9c-0.6-1.1-1.1-2.2-1.7-3.1c-0.7-1-1.7-1.3-2.8-1c-2.2,0.7-4.5,1.2-6.9,1.2c-1.9,0-3.7-0.1-5.5-0.8
				c-2.3-0.9-3.6-2.6-3.6-4.8c0-5-0.1-10-0.1-15.1c0-3.7,0-7.5,0-11.2c0-0.2,0.1-0.4-0.3-0.5c-2.1-0.6-4-0.5-5.9,0.7
				c-0.3,0.2-0.5,0.4-0.5,0.8c0,7.1,0,14.2,0,21.3c0,0.2,0,0.4,0,0.6c-0.2,0-0.4,0-0.5,0c-3.2,0-6.3,0-9.5,0c-0.4,0-0.5-0.1-0.7-0.4
				c-1-1.9-2-3.9-2.9-5.8c-2.9-5.6-5.7-11.2-8.6-16.9c-0.1-0.2-0.3-0.4-0.5-0.5c-1.8-0.6-3.6-0.5-5.2,0.6c-1.4,0.9-2.3,2.3-3,3.7
				c-3.1,6.3-6.3,12.6-9.4,18.8c-0.2,0.3-0.3,0.4-0.7,0.4c-3.5,0-7.1,0-10.6,0c-0.2,0-0.3,0-0.5,0c0-0.2,0-0.3,0-0.5
				c0-6.2-0.1-12.5-0.1-18.7c0-1.3,0-2.5,0-3.8c0-0.2,0-0.4-0.3-0.5c-2.1-0.6-4-0.5-5.9,0.7C48.1,22.3,48,22.6,48,23
				c0,7.1,0,14.3,0,21.4c0,0.4-0.1,0.6-0.6,0.6c-1.8,0-3.6,0-5.4,0c-0.4,0-0.6-0.1-0.7-0.5c-0.4-1.6-1.3-2.8-2.5-3.8
				c-1.5-1.2-3.3-2-5.1-2.4c-2.6-0.7-5.3-1.2-7.9-1.8c-1.5-0.3-2.9-0.8-4.2-1.6c-2.6-1.6-2.6-5.6-0.2-7.2c1.3-0.8,2.7-1.2,4.2-1.3
				c2.8-0.2,5.5-0.1,8.2,0.5c1.1,0.2,2.1,0,2.9-0.9c0.8-1,1.2-2.2,1.6-3.4c-0.1-0.1-0.2-0.1-0.3-0.1c-2.9-0.7-5.8-1.2-8.8-1.2
				c-2.8,0-5.6,0.2-8.2,1c-2.2,0.7-4.1,1.8-5.5,3.7c-1.6,2.1-1.9,4.6-1.7,7.2c0.3,3.3,2.2,5.5,5.1,6.9c1.9,0.9,4,1.5,6.1,2
				c2.2,0.5,4.4,1,6.6,1.6c0.4,0.1,0.8,0.3,1.3,0.5c2.4,1.1,3,3.1,2.4,5.4c-0.5,1.9-1.9,3-3.7,3.7c-1.6,0.6-3.2,0.8-4.9,0.8
				c-2.6,0-5.1-0.3-7.6-1.1c-1-0.4-1.9-0.2-2.7,0.6c-1,1-1.4,2.2-1.9,3.4c0.1,0,0.1,0.1,0.1,0.1c2.6,1,5.2,1.7,8,1.9
				c1.8,0.2,3.6,0.2,5.3,0.2c2.1,0,4.3-0.3,6.3-1c3.5-1.2,6-3.3,7-7c0.1-0.3,0.2-0.4,0.6-0.4c1.9,0,3.8,0,5.7,0c0.1,0,0.3,0,0.5,0
				c0,2.5,0,4.9,0,7.3c2.3,0,4.5,0,6.8,0c0-2.5,0-4.9,0-7.3c2.9,0,5.8,0,8.8,0C62.4,53,61.2,55.4,60,57.8z"/>
			<path id="XMLID_3_" d="M60,57.8c1.2-2.4,2.4-4.8,3.6-7.2c-3,0-5.8,0-8.8,0c0,2.4,0,4.9,0,7.3c-2.3,0-4.5,0-6.8,0
				c0-2.4,0-4.8,0-7.3c-0.2,0-0.3,0-0.5,0c-1.9,0-3.8,0-5.7,0c-0.3,0-0.5,0.1-0.6,0.4c-1,3.6-3.5,5.8-7,7c-2,0.7-4.1,1-6.3,1
				c-1.8,0-3.6,0-5.3-0.2c-2.7-0.2-5.4-0.9-8-1.9c0,0,0,0-0.1-0.1c0.5-1.2,0.9-2.5,1.9-3.4c0.8-0.8,1.7-0.9,2.7-0.6
				c2.5,0.8,5,1.2,7.6,1.1c1.7,0,3.3-0.2,4.9-0.8c1.8-0.7,3.2-1.7,3.7-3.7c0.6-2.3,0-4.4-2.4-5.4c-0.4-0.2-0.8-0.4-1.3-0.5
				C29.5,43,27.2,42.5,25,42c-2.1-0.5-4.2-1-6.1-2c-2.9-1.4-4.8-3.6-5.1-6.9c-0.3-2.6,0.1-5,1.7-7.2c1.4-1.9,3.3-3,5.5-3.7
				c2.7-0.9,5.4-1.1,8.2-1c3,0,5.9,0.5,8.8,1.2c0.1,0,0.2,0.1,0.3,0.1c-0.4,1.2-0.8,2.4-1.6,3.4c-0.8,0.9-1.7,1.2-2.9,0.9
				c-2.7-0.6-5.5-0.8-8.2-0.5c-1.5,0.1-2.9,0.5-4.2,1.3c-2.4,1.6-2.4,5.6,0.2,7.2c1.3,0.8,2.8,1.2,4.2,1.6c2.6,0.6,5.3,1.1,7.9,1.8
				c1.8,0.5,3.6,1.2,5.1,2.4c1.3,1,2.1,2.3,2.5,3.8c0.1,0.4,0.2,0.5,0.7,0.5c1.8,0,3.6,0,5.4,0c0.4,0,0.6-0.1,0.6-0.6
				c0-7.1,0-14.3,0-21.4c0-0.4,0.1-0.6,0.5-0.9c1.9-1.2,3.8-1.2,5.9-0.7c0.3,0.1,0.3,0.3,0.3,0.5c0,1.3,0,2.5,0,3.8
				c0,6.2,0.1,12.5,0.1,18.7c0,0.1,0,0.3,0,0.5c0.2,0,0.4,0,0.5,0c3.5,0,7.1,0,10.6,0c0.4,0,0.5-0.1,0.7-0.4
				c3.1-6.3,6.3-12.6,9.4-18.8c0.7-1.5,1.6-2.8,3-3.7c1.6-1.1,3.4-1.2,5.2-0.6c0.2,0.1,0.4,0.3,0.5,0.5c2.9,5.6,5.7,11.2,8.6,16.9
				c1,1.9,2,3.8,2.9,5.8c0.2,0.3,0.3,0.4,0.7,0.4c3.2,0,6.3,0,9.5,0c0.2,0,0.3,0,0.5,0c0-0.2,0-0.4,0-0.6c0-7.1,0-14.2,0-21.3
				c0-0.4,0.1-0.6,0.5-0.8c1.9-1.1,3.8-1.3,5.9-0.7c0.3,0.1,0.3,0.3,0.3,0.5c0,3.7,0,7.5,0,11.2c0,5,0,10,0.1,15.1
				c0,2.2,1.3,4,3.6,4.8c1.8,0.7,3.6,0.8,5.5,0.8c2.4,0,4.7-0.4,6.9-1.2c1.1-0.4,2.1-0.1,2.8,1c0.6,1,1.1,2,1.7,3.1
				c-0.9,0.3-1.7,0.6-2.6,0.9c-2,0.6-4,1-6.1,1.1c-2.1,0.2-4.3,0.3-6.4,0.1c-2.9-0.3-5.7-0.9-8.1-2.6c-1.9-1.3-3.1-3.2-3.7-5.4
				c-0.1-0.2-0.1-0.3-0.4-0.3c-2.5,0-4.9,0-7.4,0c-0.1,0-0.1,0-0.2,0c1.2,2.4,2.4,4.7,3.6,7.1c-0.2,0-0.3,0-0.4,0
				c-2.2,0-4.4,0-6.6,0c-0.3,0-0.5-0.1-0.6-0.4c-1-2.1-2.1-4.3-3.1-6.4c-0.1-0.3-0.3-0.4-0.6-0.4c-5.6,0-11.2,0-16.8,0
				c-0.2,0-0.3,0-0.6,0c0.2-0.3,0.3-0.6,0.4-0.9c0.7-1.5,1.5-2.9,2.2-4.4c0.2-0.3,0.3-0.4,0.7-0.4c3.8,0,7.5,0,11.3,0
				c0.1,0,0.2,0,0.4,0c-2.8-5.7-5.6-11.3-8.4-17c-0.1,0.3-0.2,0.5-0.3,0.7c-4.7,9.6-9.4,19.2-14.1,28.8c-0.2,0.3-0.3,0.4-0.7,0.4
				C63.9,57.8,62,57.8,60,57.8z"/>
		</g>
	</g>
	<polygon id="XMLID_4_" class="st1" points="235.6,45.8 119.2,45.8 127.9,24.8 244.3,24.8 	"/>
	<g>
		<path d="M131.8,29.7h1.6l7,8V30h2.2v11.7H141l-7-8v7.8h-2.2V29.7z"/>
		<path d="M147.7,31.9v2.6h4v1.9h-4v3.1h4.1v1.9h-6.4V30h6.4v1.9H147.7z"/>
		<path d="M157.8,37.8l2.8-7.9h1.2l2.7,7.9l2.8-7.8h2.4l-4.3,11.7h-1.6l-2.6-7.5l-2.7,7.5h-1.6L152.9,30h2.4L157.8,37.8z"/>
		<path d="M176.5,32.6c-0.6-0.7-1.1-0.9-1.8-0.9c-1,0-1.7,0.6-1.7,1.3c0,0.6,0.4,0.9,1.7,1.4c1.3,0.5,1.8,0.7,2.3,1.2
			c0.7,0.6,1,1.4,1,2.4c0,2.2-1.6,3.8-4,3.8c-1.7,0-2.9-0.7-4-2.2l1.4-1.4c0.5,1,1.4,1.5,2.4,1.5c1,0,1.7-0.7,1.7-1.6
			c0-0.5-0.2-0.9-0.7-1.2c-0.2-0.1-0.7-0.3-1.6-0.7c-2.1-0.8-2.8-1.6-2.8-3.2c0-1.9,1.6-3.3,3.6-3.3c1.3,0,2.4,0.4,3.4,1.3
			L176.5,32.6z"/>
		<path d="M188.7,41.5h-2.8l-3.1-4.6h-0.3v4.6h-2.2V30h3.3c1.3,0,2.3,0.3,2.9,0.8c0.7,0.6,1.1,1.6,1.1,2.6c0,1.1-0.4,2-1.1,2.6
			c-0.4,0.3-0.8,0.5-1.5,0.7L188.7,41.5z M183.2,35.3c1.4,0,2.2-0.6,2.2-1.8c0-1.1-0.8-1.7-2.2-1.7h-0.7v3.5H183.2z"/>
		<path d="M201.9,35.7c0,3.4-2.7,6-6.1,6c-3.5,0-6.2-2.6-6.2-6.1c0-3.3,2.8-5.9,6.2-5.9C199.2,29.7,201.9,32.4,201.9,35.7z
			 M191.9,35.7c0,2.2,1.7,4,3.8,4c2.1,0,3.8-1.8,3.8-4c0-2.2-1.7-3.9-3.8-3.9C193.7,31.8,191.9,33.5,191.9,35.7z"/>
		<path d="M215.9,35.7c0,3.4-2.7,6-6.1,6c-3.5,0-6.2-2.6-6.2-6.1c0-3.3,2.8-5.9,6.2-5.9C213.2,29.7,215.9,32.4,215.9,35.7z
			 M205.9,35.7c0,2.2,1.7,4,3.8,4c2.1,0,3.8-1.8,3.8-4c0-2.2-1.7-3.9-3.8-3.9C207.6,31.8,205.9,33.5,205.9,35.7z"/>
		<path d="M219.7,29.8h1.5l3.1,7.5l3.3-7.5h1.6l1.9,11.7h-2.3l-1-7.1l-3.2,7.2H224l-3.1-7.2l-1.2,7.1h-2.3L219.7,29.8z"/>
	</g>
</g>
</svg>
